<svg width="16" height="16" viewBox="0 0 16 16" fill="none" xmlns="http://www.w3.org/2000/svg">
<path fill-rule="evenodd" clip-rule="evenodd" d="M10.5803 2.54501C10.8564 2.54501 11.0803 2.76886 11.0803 3.04501C11.0803 3.15854 11.0416 3.2687 10.9707 3.35735L8.16119 6.86926C8.09026 6.95791 8.05162 7.06807 8.05162 7.1816V13.1485C8.05162 13.4246 7.82776 13.6485 7.55162 13.6485C7.45881 13.6485 7.36784 13.6227 7.28887 13.5739L5.90956 12.722C5.76209 12.6309 5.67231 12.4699 5.67231 12.2966V7.1816C5.67231 7.06807 5.63367 6.95791 5.56274 6.86926L2.75322 3.35735C2.58072 3.14172 2.61568 2.82708 2.83131 2.65457C2.91997 2.58365 3.03012 2.54501 3.14366 2.54501H10.5803ZM10.5803 3.04501H3.14366L5.95318 6.55691C6.06666 6.69876 6.13882 6.86813 6.16314 7.04646L6.17231 7.1816V12.2966L7.55162 13.1485V7.1816C7.55162 6.99995 7.60108 6.82262 7.69349 6.66817L7.77075 6.55691L10.5803 3.04501ZM13.5258 9.54501C13.5258 9.40693 13.4138 9.29501 13.2758 9.29501H10.2758L10.2184 9.30161C10.108 9.32752 10.0258 9.42666 10.0258 9.54501C10.0258 9.68308 10.1377 9.79501 10.2758 9.79501H13.2758L13.3331 9.7884C13.4435 9.76249 13.5258 9.66335 13.5258 9.54501ZM11.7758 10.795C11.9138 10.795 12.0258 10.9069 12.0258 11.045C12.0258 11.1634 11.9435 11.2625 11.8331 11.2884L11.7758 11.295H10.2758C10.1377 11.295 10.0258 11.1831 10.0258 11.045C10.0258 10.9267 10.108 10.8275 10.2184 10.8016L10.2758 10.795H11.7758ZM13.5258 12.545C13.5258 12.4069 13.4138 12.295 13.2758 12.295H10.2758L10.2184 12.3016C10.108 12.3275 10.0258 12.4267 10.0258 12.545C10.0258 12.6831 10.1377 12.795 10.2758 12.795H13.2758L13.3331 12.7884C13.4435 12.7625 13.5258 12.6634 13.5258 12.545Z" fill="black"/>
</svg>
