<svg width="16" height="16" viewBox="0 0 16 16" fill="none" xmlns="http://www.w3.org/2000/svg">
<path d="M10.25 8.43301C10.5833 8.24056 10.5833 7.75944 10.25 7.56699L7.25 5.83494C6.91667 5.64249 6.5 5.88305 6.5 6.26795V9.73205C6.5 10.117 6.91667 10.3575 7.25 10.1651L10.25 8.43301Z" fill="black"/>
<path d="M2 1.25C1.0335 1.25 0.25 2.0335 0.25 3V13C0.25 13.9665 1.0335 14.75 2 14.75H14C14.9665 14.75 15.75 13.9665 15.75 13V3C15.75 2.0335 14.9665 1.25 14 1.25H2ZM1.75 3C1.75 2.86193 1.86193 2.75 2 2.75H14C14.1381 2.75 14.25 2.86193 14.25 3V13C14.25 13.1381 14.1381 13.25 14 13.25H2C1.86193 13.25 1.75 13.1381 1.75 13V3Z" fill="black"/>
</svg>
