<svg width="16" height="17" viewBox="0 0 16 17" fill="none" xmlns="http://www.w3.org/2000/svg">
<path d="M13.6922 4.75118L11.7834 2.84247L5.58014 9.04577V10.9545H7.48885L13.6922 4.75118ZM10.1319 5.52257L11.0121 6.40276L7.1876 10.2272L6.30741 10.2272L6.30741 9.34702L10.1319 5.52257ZM10.6461 5.00831L11.7834 3.87099L12.6636 4.75118L11.5263 5.8885L10.6461 5.00831Z" fill="black"/>
<path d="M2.96497 4.97182C2.96497 4.36932 3.45339 3.88091 4.05588 3.88091H7.99998V3.15364H4.05588C3.05173 3.15364 2.2377 3.96766 2.2377 4.97182V12.86C2.2377 13.8642 3.05173 14.6782 4.05588 14.6782H11.9441C12.9482 14.6782 13.7623 13.8642 13.7623 12.86V7.11637H13.035V12.86C13.035 13.4625 12.5466 13.9509 11.9441 13.9509H4.05588C3.45339 13.9509 2.96497 13.4625 2.96497 12.86V4.97182Z" fill="black"/>
</svg>
