<svg width="16" height="16" viewBox="0 0 16 16" fill="none" xmlns="http://www.w3.org/2000/svg">
<path d="M2 1.25C1.58579 1.25 1.25 1.58579 1.25 2V14C1.25 14.4142 1.58579 14.75 2 14.75H10C10.4142 14.75 10.75 14.4142 10.75 14V12H9.25V13.25H2.75V2.75H9.25V4H10.75V2C10.75 1.58579 10.4142 1.25 10 1.25H2Z" fill="black"/>
<path d="M15.5857 8.46852C15.8048 8.19461 15.8048 7.80539 15.5857 7.53148L13.5857 5.03148C13.3269 4.70803 12.8549 4.65559 12.5315 4.91435C12.208 5.17311 12.1556 5.64507 12.4143 5.96852L13.4395 7.25L8 7.25C7.58579 7.25 7.25 7.58579 7.25 8C7.25 8.41421 7.58579 8.75 8 8.75L13.4395 8.75L12.4143 10.0315C12.1556 10.3549 12.208 10.8269 12.5315 11.0857C12.8549 11.3444 13.3269 11.292 13.5857 10.9685L15.5857 8.46852Z" fill="black"/>
</svg>
