<svg width="16" height="16" viewBox="0 0 16 16" fill="none" xmlns="http://www.w3.org/2000/svg">
<path fill-rule="evenodd" clip-rule="evenodd" d="M13.4891 4.04028C13.4891 3.21186 12.8176 2.54028 11.9891 2.54028H3.98914C3.16071 2.54028 2.48914 3.21186 2.48914 4.04028V12.0403C2.48914 12.8687 3.16071 13.5403 3.98914 13.5403H11.9891C12.8176 13.5403 13.4891 12.8687 13.4891 12.0403V4.04028ZM3.98914 3.04028H11.9891L12.1058 3.04701C12.6031 3.10478 12.9891 3.52745 12.9891 4.04028V12.0403L12.9824 12.1569C12.9246 12.6542 12.502 13.0403 11.9891 13.0403H3.98914L3.87251 13.0336C3.37518 12.9758 2.98914 12.5531 2.98914 12.0403V4.04028L2.99586 3.92366C3.05363 3.42632 3.4763 3.04028 3.98914 3.04028ZM5.95763 5.29028C5.84662 4.85898 5.4551 4.54028 4.98914 4.54028C4.43685 4.54028 3.98914 4.988 3.98914 5.54028C3.98914 6.09257 4.43685 6.54028 4.98914 6.54028C5.4551 6.54028 5.84662 6.22159 5.95763 5.79028H11.4575V5.29028H5.95763ZM4.48914 5.54028C4.48914 5.26414 4.71299 5.04028 4.98914 5.04028C5.26528 5.04028 5.48914 5.26414 5.48914 5.54028C5.48914 5.81643 5.26528 6.04028 4.98914 6.04028C4.71299 6.04028 4.48914 5.81643 4.48914 5.54028ZM4.98914 9.54028C5.4551 9.54028 5.84662 9.85898 5.95763 10.2903H11.4575V10.7903H5.95763C5.84662 11.2216 5.4551 11.5403 4.98914 11.5403C4.43685 11.5403 3.98914 11.0926 3.98914 10.5403C3.98914 9.988 4.43685 9.54028 4.98914 9.54028ZM4.98914 10.0403C4.71299 10.0403 4.48914 10.2641 4.48914 10.5403C4.48914 10.8164 4.71299 11.0403 4.98914 11.0403C5.26528 11.0403 5.48914 10.8164 5.48914 10.5403C5.48914 10.2641 5.26528 10.0403 4.98914 10.0403ZM11.9891 8.04028C11.9891 7.488 11.5414 7.04028 10.9891 7.04028C10.5232 7.04028 10.1317 7.35898 10.0206 7.79028H5.03597V8.29028H10.0206C10.1317 8.72159 10.5232 9.04028 10.9891 9.04028C11.5414 9.04028 11.9891 8.59257 11.9891 8.04028ZM10.4891 8.04028C10.4891 7.76414 10.713 7.54028 10.9891 7.54028C11.2653 7.54028 11.4891 7.76414 11.4891 8.04028C11.4891 8.31643 11.2653 8.54028 10.9891 8.54028C10.713 8.54028 10.4891 8.31643 10.4891 8.04028Z" fill="black"/>
</svg>
