<svg width="16" height="16" viewBox="0 0 16 16" fill="none" xmlns="http://www.w3.org/2000/svg">
<path d="M6.77574 7.6111C6.37799 7.6111 6.05555 7.93353 6.05555 8.33127V10.7798C6.05555 11.1776 6.37799 11.5 6.77574 11.5H9.22425C9.41526 11.5 9.59844 11.4241 9.7335 11.2891C9.86856 11.154 9.94444 10.9708 9.94444 10.7798V8.33127C9.94444 7.93353 9.622 7.6111 9.22425 7.6111H6.77574ZM8.93617 10.4918H7.06382V8.61933H8.93617V10.4918Z" fill="black"/>
<path d="M14.3972 6.39484L13.1306 5.53627V5.51285H13.096L8.2822 2.24987C8.19902 2.19356 8.10039 2.16453 7.99997 2.16678C7.89951 2.16448 7.80082 2.19352 7.71761 2.24987L2.90409 5.51285H2.86953V5.53627L1.60291 6.39484C1.49583 6.46743 1.42197 6.5796 1.39761 6.70667C1.37325 6.83373 1.40037 6.96528 1.47301 7.07233C1.54547 7.17954 1.65758 7.25351 1.78462 7.27793C1.91166 7.30236 2.0432 7.27523 2.15023 7.20254L2.86939 6.71505V12.4393C2.86939 13.2091 3.49336 13.8333 4.26312 13.8333H11.7368C12.5065 13.8333 13.1306 13.2091 13.1306 12.4393V6.71505L13.8497 7.20254C13.9567 7.27523 14.0883 7.30236 14.2153 7.27793C14.3424 7.25351 14.4545 7.17954 14.5269 7.07233C14.5996 6.96529 14.6267 6.83376 14.6024 6.7067C14.5781 6.57963 14.5042 6.46745 14.3972 6.39484ZM12.1551 12.4394C12.1551 12.67 11.9675 12.8576 11.737 12.8576H4.26325C4.03273 12.8576 3.84514 12.67 3.84514 12.4394V6.05372L8.00011 3.23739L12.1551 6.05372V12.4394Z" fill="black"/>
</svg>
