<svg width="16" height="16" viewBox="0 0 16 16" fill="none" xmlns="http://www.w3.org/2000/svg">
<path fill-rule="evenodd" clip-rule="evenodd" d="M8.39041 3.79719C8.29501 3.74295 8.17152 3.75651 8.09016 3.83787C7.99253 3.9355 7.99253 4.09379 8.09016 4.19143L9.73907 5.84033H4.97562L4.87385 5.84718C4.50777 5.89684 4.22562 6.21064 4.22562 6.59033V8.33875L4.23222 8.39607C4.25813 8.50651 4.35727 8.58875 4.47562 8.58875C4.61369 8.58875 4.72562 8.47682 4.72562 8.33875V6.59033L4.73222 6.53301C4.75813 6.42257 4.85727 6.34033 4.97562 6.34033H10.3374H10.3427L10.4 6.33373C10.4839 6.31405 10.5515 6.25214 10.5792 6.17166L8.39041 3.79719ZM8.39041 3.79719L8.44372 3.83787L10.5161 5.9103L8.39041 3.79719ZM6.26084 10.189H11.0244L11.1261 10.1821C11.4922 10.1325 11.7744 9.81866 11.7744 9.43896V7.69055L11.7678 7.63323C11.7418 7.52278 11.6427 7.44055 11.5244 7.44055C11.3863 7.44055 11.2744 7.55248 11.2744 7.69055V9.43896L11.2678 9.49629C11.2418 9.60673 11.1427 9.68896 11.0244 9.68896H5.65729C5.63811 9.68896 5.61893 9.69116 5.60016 9.69555L5.59997 9.69557C5.58657 9.69871 5.57359 9.70293 5.56113 9.70813C5.53182 9.72033 5.50436 9.73835 5.48051 9.76219C5.45649 9.78621 5.43838 9.81391 5.42618 9.84347C5.41401 9.87289 5.40729 9.90514 5.40729 9.93896C5.40729 9.94296 5.40739 9.94696 5.40758 9.95096C5.40894 9.9795 5.41517 10.0078 5.42626 10.0347C5.43846 10.0641 5.45655 10.0918 5.48051 10.1157L7.55625 12.1915L7.60956 12.2322C7.70496 12.2864 7.82845 12.2728 7.90981 12.1915C8.00744 12.0938 8.00744 11.9356 7.90981 11.8379L6.26084 10.189Z" fill="black"/>
</svg>
