<svg width="16" height="16" viewBox="0 0 16 16" fill="none" xmlns="http://www.w3.org/2000/svg">
<path d="M16 2.33334C16 3.25381 15.2538 4.00001 14.3333 4.00001C13.9936 4.00001 13.6777 3.89838 13.4142 3.72388L3.72383 13.4142C3.89834 13.6777 3.99996 13.9937 3.99996 14.3333C3.99996 15.2538 3.25377 16 2.33329 16C1.41282 16 0.666626 15.2538 0.666626 14.3333C0.666626 13.4129 1.41282 12.6667 2.33329 12.6667C2.67299 12.6667 2.98895 12.7683 3.25243 12.9428L12.9428 3.25248C12.7683 2.989 12.6666 2.67304 12.6666 2.33334C12.6666 1.41286 13.4128 0.666672 14.3333 0.666672C15.2538 0.666672 16 1.41286 16 2.33334ZM15.3333 2.33334C15.3333 1.78105 14.8856 1.33334 14.3333 1.33334C13.781 1.33334 13.3333 1.78105 13.3333 2.33334C13.3333 2.88562 13.781 3.33334 14.3333 3.33334C14.8856 3.33334 15.3333 2.88562 15.3333 2.33334ZM2.33329 15.3333C2.88558 15.3333 3.33329 14.8856 3.33329 14.3333C3.33329 13.7811 2.88558 13.3333 2.33329 13.3333C1.78101 13.3333 1.33329 13.7811 1.33329 14.3333C1.33329 14.8856 1.78101 15.3333 2.33329 15.3333Z" fill="black"/>
<path d="M1.70083 1.22945L3.66665 3.19527V1.33334H4.33331V4.33334H1.33331V3.66667H3.19524L1.22943 1.70086L1.70083 1.22945Z" fill="black"/>
<path d="M14.9658 15.4372L13 13.4714L13 15.3333H12.3333V12.3333H15.3333V13H13.4714L15.4372 14.9658L14.9658 15.4372Z" fill="black"/>
<path d="M11.7145 3.66713C11.9481 3.64878 12.1629 3.63933 12.3539 3.63551L12.3405 2.96897C12.1376 2.97304 11.9099 2.98307 11.6623 3.0025L11.7145 3.66713Z" fill="black"/>
<path d="M10.4467 3.84079C10.664 3.79785 10.8748 3.76329 11.0771 3.73563L10.9867 3.07511C10.7723 3.10444 10.5484 3.14112 10.3175 3.18676L10.4467 3.84079Z" fill="black"/>
<path d="M9.21294 4.16597C9.41897 4.09703 9.62315 4.03665 9.82399 3.98384L9.65444 3.33909C9.44023 3.39542 9.22201 3.45994 9.0014 3.53376L9.21294 4.16597Z" fill="black"/>
<path d="M8.04013 4.65264C8.23199 4.55599 8.42469 4.4682 8.61708 4.38851L8.36196 3.77259C8.15506 3.85829 7.94738 3.95288 7.74019 4.05726L8.04013 4.65264Z" fill="black"/>
<path d="M6.95907 5.30819C7.1324 5.18291 7.30839 5.06678 7.4861 4.95915L7.14072 4.38892C6.94808 4.5056 6.75699 4.63168 6.56855 4.76789L6.95907 5.30819Z" fill="black"/>
<path d="M6.22762 5.91015C6.30522 5.83759 6.38371 5.76731 6.46298 5.69923L6.02868 5.19345C5.94234 5.26759 5.85684 5.34414 5.77229 5.4232C5.6826 5.50706 5.59578 5.59259 5.51173 5.6796L5.99123 6.14277C6.06754 6.06377 6.14631 5.98618 6.22762 5.91015Z" fill="black"/>
<path d="M5.16645 7.18334C5.28627 6.99895 5.41534 6.81827 5.55437 6.64256L5.03156 6.22889C4.87913 6.42155 4.73803 6.61912 4.60744 6.82007L5.16645 7.18334Z" fill="black"/>
<path d="M4.53612 8.36228C4.6244 8.15953 4.72123 7.95783 4.82744 7.75868L4.23918 7.44499C4.12423 7.66056 4.01978 7.87818 3.92488 8.09615L4.53612 8.36228Z" fill="black"/>
<path d="M4.08809 9.63198C4.1474 9.41942 4.21454 9.20428 4.29048 8.98839L3.66159 8.76717C3.58047 8.99778 3.50896 9.22699 3.44596 9.45279L4.08809 9.63198Z" fill="black"/>
<path d="M3.8033 10.9553C3.83677 10.7407 3.87737 10.5175 3.92651 10.2885L3.27468 10.1487C3.22272 10.3908 3.17987 10.6264 3.1446 10.8526L3.8033 10.9553Z" fill="black"/>
<path d="M3.66667 12.3059C3.67623 12.103 3.69197 11.8754 3.71691 11.6288L3.05363 11.5617C3.02739 11.8212 3.01082 12.0607 3.00074 12.2745L3.66667 12.3059Z" fill="black"/>
<path d="M4.3544 13.0317C4.55412 13.0284 4.77848 13.0198 5.02227 13.0026L5.069 13.6677C4.81235 13.6857 4.576 13.6948 4.36531 13.6982L4.3544 13.0317Z" fill="black"/>
<path d="M5.68854 12.9379C5.90032 12.9116 6.12092 12.8785 6.34795 12.8373L6.46698 13.4933C6.22698 13.5368 5.9941 13.5717 5.77086 13.5995L5.68854 12.9379Z" fill="black"/>
<path d="M6.99981 12.6992C7.21082 12.6478 7.42499 12.5889 7.64066 12.5216L7.83939 13.1579C7.60937 13.2298 7.38148 13.2924 7.15752 13.3469L6.99981 12.6992Z" fill="black"/>
<path d="M8.26658 12.3024C8.46946 12.2233 8.67214 12.136 8.87328 12.0396L9.16131 12.6408C8.94438 12.7448 8.72637 12.8387 8.50881 12.9235L8.26658 12.3024Z" fill="black"/>
<path d="M9.45591 11.7313C9.64333 11.6221 9.82813 11.5041 10.0092 11.3764L10.3933 11.9214C10.1959 12.0605 9.99484 12.1889 9.79154 12.3073L9.45591 11.7313Z" fill="black"/>
<path d="M10.5277 10.9747C10.6104 10.9044 10.692 10.8317 10.7723 10.7565C10.8529 10.6812 10.9307 10.6043 11.0059 10.5261L11.4867 10.9878C11.4034 11.0746 11.3171 11.1599 11.2277 11.2435C11.1396 11.3258 11.0502 11.4055 10.9597 11.4825L10.5277 10.9747Z" fill="black"/>
<path d="M11.4346 10.0293C11.5705 9.854 11.6955 9.67373 11.8105 9.48977L12.3758 9.84306C12.2495 10.0452 12.1117 10.244 11.9615 10.4378L11.4346 10.0293Z" fill="black"/>
<path d="M12.133 8.91418C12.2329 8.71468 12.3226 8.51259 12.4031 8.30942L13.0229 8.5551C12.9357 8.77517 12.8381 8.99494 12.7291 9.21266L12.133 8.91418Z" fill="black"/>
<path d="M12.6231 7.68189C12.6896 7.46568 12.7467 7.25018 12.7957 7.03728L13.4454 7.18677C13.3931 7.41425 13.3318 7.64527 13.2604 7.87778L12.6231 7.68189Z" fill="black"/>
<path d="M12.9239 6.38063C12.9609 6.15183 12.9892 5.92895 13.0106 5.71463L13.674 5.78071C13.6514 6.00753 13.6213 6.2439 13.582 6.48703L12.9239 6.38063Z" fill="black"/>
<path d="M13.0578 5.04422C13.068 4.79912 13.0698 4.57308 13.0667 4.37166L13.7333 4.36145C13.7365 4.57442 13.7346 4.81316 13.7238 5.07197L13.0578 5.04422Z" fill="black"/>
</svg>
