<svg width="16" height="16" viewBox="0 0 16 16" fill="none" xmlns="http://www.w3.org/2000/svg">
<path fill-rule="evenodd" clip-rule="evenodd" d="M12.5833 5.72108L9.37515 2.5H4.41667C3.86438 2.5 3.41667 2.94772 3.41667 3.5V12.5C3.41667 13.0523 3.86438 13.5 4.41667 13.5H11.5833C12.1356 13.5 12.5833 13.0523 12.5833 12.5V5.72108ZM4.41667 3H9.167L12.083 5.926L12.0833 12.5L12.0753 12.5899C12.0329 12.8231 11.8288 13 11.5833 13H4.41667L4.32679 12.9919C4.09354 12.9496 3.91667 12.7455 3.91667 12.5V3.5L3.92472 3.41012C3.96706 3.17688 4.17121 3 4.41667 3ZM9.16704 3.44175V5.73341C9.16704 5.8293 9.23181 5.91005 9.31999 5.9343L9.37537 5.94175H11.6814V6.44175H9.37537C9.01677 6.44175 8.72041 6.17527 8.67351 5.82953L8.66704 5.73341V3.44175H9.16704ZM10.2741 12.4598C10.4887 12.4598 10.6798 12.4329 10.8541 12.3793C11.0184 12.3257 11.1626 12.2519 11.29 12.1513V11.1388H10.264V11.4741H10.8977V11.9669C10.8172 12.0139 10.7334 12.0507 10.6395 12.0776C10.539 12.1044 10.4317 12.1178 10.3177 12.1178C10.026 12.1178 9.81142 12.0373 9.67396 11.8764C9.54656 11.7255 9.48286 11.5076 9.48286 11.226C9.48286 10.9309 9.55327 10.7063 9.69743 10.5454C9.82819 10.3912 10.0059 10.3174 10.2305 10.3174C10.4116 10.3174 10.5591 10.3543 10.6697 10.4314C10.777 10.5085 10.8508 10.6225 10.8843 10.7767H11.2799C11.2363 10.5085 11.129 10.3107 10.958 10.1766C10.7804 10.0391 10.539 9.97207 10.2305 9.97207C9.87512 9.97207 9.5935 10.0928 9.38563 10.3409C9.18782 10.5722 9.09059 10.8672 9.09059 11.226C9.09059 11.5814 9.18782 11.873 9.38563 12.0977C9.59685 12.3391 9.89189 12.4598 10.2741 12.4598ZM4.93326 12.4128V11.4942H5.52668C6.11005 11.4942 6.40173 11.2461 6.40173 10.7532C6.40173 10.2638 6.11005 10.019 5.53339 10.019H4.54099V12.4128H4.93326ZM5.50321 11.1589H4.93326V10.3543H5.50321C5.6742 10.3543 5.8016 10.3845 5.88207 10.4482C5.96253 10.5085 6.00612 10.6091 6.00612 10.7532C6.00612 10.8974 5.96588 11.0013 5.88542 11.065C5.80496 11.1254 5.67755 11.1589 5.50321 11.1589ZM7.12927 10.6627V12.4128H6.737V10.019H7.12927L8.31277 11.7456H8.32618V10.019H8.7218V12.4128H8.33959L7.14268 10.6627H7.12927Z" fill="black"/>
</svg>
