<svg width="16" height="16" viewBox="0 0 16 16" fill="none" xmlns="http://www.w3.org/2000/svg">
<path d="M10.1482 2.42756L11.7518 3.35336C11.5134 3.98975 11.6512 4.67569 12.0042 5.1749C12.1755 5.4172 12.3253 5.67551 12.4508 5.94702C12.7066 6.50058 13.2307 6.96209 13.9 7.07408V8.92596C13.2307 9.03795 12.7066 9.49946 12.4508 10.053C12.3253 10.3245 12.1755 10.5828 12.0042 10.8251C11.6512 11.3243 11.5134 12.0103 11.7518 12.6467L10.1482 13.5725C9.71696 13.0488 9.05556 12.825 8.44781 12.8799C8.30059 12.8932 8.15123 12.9 8 12.9C7.84876 12.9 7.6994 12.8932 7.55218 12.8799C6.94444 12.825 6.28303 13.0488 5.85177 13.5725L4.24824 12.6467C4.48655 12.0103 4.34881 11.3243 3.99581 10.8251C3.82447 10.5828 3.67472 10.3245 3.54923 10.053C3.29337 9.49946 2.76928 9.03795 2.1 8.92596V7.07408C2.76928 6.96209 3.29337 6.50058 3.54923 5.94702C3.67472 5.67551 3.82447 5.4172 3.99581 5.1749C4.34881 4.67569 4.48655 3.98975 4.24824 3.35336L5.85177 2.42756C6.28303 2.95124 6.94444 3.17504 7.55218 3.12013C7.69941 3.10683 7.84876 3.10002 8 3.10002C8.15123 3.10002 8.30059 3.10683 8.44781 3.12013C9.05555 3.17504 9.71696 2.95124 10.1482 2.42756ZM11.1 8.00002C11.1 9.7121 9.71208 11.1 8 11.1C6.28792 11.1 4.9 9.7121 4.9 8.00002C4.9 6.28793 6.28792 4.90002 8 4.90002C9.71208 4.90002 11.1 6.28793 11.1 8.00002ZM10.4491 1.33109C10.0729 1.1139 9.59188 1.24279 9.37469 1.61897C9.20819 1.90736 8.87843 2.05455 8.54678 2.02459C8.3667 2.00833 8.18432 2.00002 8 2.00002C7.81568 2.00002 7.6333 2.00833 7.45322 2.0246C7.12157 2.05456 6.7918 1.90736 6.6253 1.61897C6.40811 1.24279 5.92709 1.1139 5.55091 1.33109L3.44913 2.54455C3.07292 2.76176 2.94402 3.24281 3.16123 3.61902C3.32796 3.90782 3.29019 4.26754 3.09766 4.53981C2.88801 4.83631 2.70457 5.15266 2.55073 5.4855C2.41101 5.78778 2.11876 6.00002 1.78575 6.00002C1.35179 6.00002 1 6.35181 1 6.78577V9.21427C1 9.64822 1.35179 10 1.78575 10C2.11876 10 2.41101 10.2122 2.55073 10.5145C2.70457 10.8474 2.88801 11.1637 3.09766 11.4602C3.29019 11.7325 3.32796 12.0922 3.16123 12.381C2.94402 12.7572 3.07292 13.2383 3.44913 13.4555L5.55091 14.6689C5.92709 14.8861 6.40811 14.7572 6.6253 14.3811C6.7918 14.0927 7.12156 13.9455 7.45321 13.9754C7.6333 13.9917 7.81568 14 8 14C8.18432 14 8.3667 13.9917 8.54678 13.9754C8.87843 13.9455 9.20819 14.0927 9.37469 14.3811C9.59188 14.7572 10.0729 14.8861 10.4491 14.6689L12.5509 13.4555C12.9271 13.2383 13.056 12.7572 12.8388 12.381C12.672 12.0922 12.7098 11.7325 12.9023 11.4602C13.112 11.1637 13.2954 10.8474 13.4493 10.5145C13.589 10.2122 13.8812 10 14.2143 10C14.6482 10 15 9.64823 15 9.21427V6.78577C15 6.35181 14.6482 6.00002 14.2143 6.00002C13.8812 6.00002 13.589 5.78779 13.4493 5.4855C13.2954 5.15266 13.112 4.8363 12.9023 4.5398C12.7098 4.26753 12.672 3.90781 12.8388 3.61902C13.056 3.24281 12.9271 2.76176 12.5509 2.54455L10.4491 1.33109ZM10 8.00002C10 6.89545 9.10457 6.00002 8 6.00002C6.89543 6.00002 6 6.89545 6 8.00002C6 9.10459 6.89543 10 8 10C9.10457 10 10 9.10459 10 8.00002Z" fill="black"/>
</svg>
