<svg width="16" height="16" viewBox="0 0 16 16" fill="none" xmlns="http://www.w3.org/2000/svg">
<path d="M8 1.75C4.54822 1.75 1.75 4.54822 1.75 8C1.75 11.4518 4.54822 14.25 8 14.25C11.4518 14.25 14.25 11.4518 14.25 8C14.25 4.54822 11.4518 1.75 8 1.75ZM0.25 8C0.25 3.71979 3.71979 0.25 8 0.25C12.2802 0.25 15.75 3.71979 15.75 8C15.75 12.2802 12.2802 15.75 8 15.75C3.71979 15.75 0.25 12.2802 0.25 8ZM9.21555 9.45799C9.21471 9.45875 9.21386 9.45951 9.21302 9.46026L6.12231 12.2009V12.2009C5.86882 12.4257 5.51647 12.3317 5.36445 12.0918C5.31433 12.0126 5.28598 11.9177 5.29012 11.813C5.29124 11.7849 5.2947 11.756 5.30072 11.7266L6.12888 7.67963L6.23454 7.16327C6.25623 7.05728 6.31171 6.96118 6.39265 6.88941L9.8777 3.79904C10.2372 3.48024 10.7956 3.80263 10.6993 4.27338L9.76547 8.8367C9.74378 8.94269 9.6883 9.03879 9.60735 9.11056L9.21555 9.45799ZM7.18082 7.52703L8.81918 8.47294L9.41886 5.54245L7.18082 7.52703Z" fill="black"/>
</svg>
