<svg width="16" height="16" viewBox="0 0 16 16" fill="none" xmlns="http://www.w3.org/2000/svg">
<path d="M5.62501 2.875H5.50001C5.56876 2.875 5.62501 2.81875 5.62501 2.75V2.875ZM10.375 2.875H5.62501V4H10.375V2.875ZM10.375 2.875V2.75C10.375 2.81875 10.4313 2.875 10.5 2.875H10.375ZM11.5 2.75V4L13.5 4C13.7765 4 14 4.22344 14 4.5V5C14 5.06875 13.9437 5.125 13.875 5.125H12.9312L12.5453 13.2969C12.5203 13.8313 12.0812 14.25 11.5468 14.25H4.4531C3.92028 14.25 3.47966 13.8297 3.45466 13.2969L3.06872 5.125H2.12497C2.05622 5.125 1.99997 5.06875 1.99997 5V4.5C1.99997 4.22344 2.22341 4 2.49997 4L4.50001 4V2.75C4.50001 2.19844 4.94845 1.75 5.50001 1.75H10.5C11.0516 1.75 11.5 2.19844 11.5 2.75ZM4.57343 13.125H11.4266L11.8047 5.12498H4.1953L4.57343 13.125Z" fill="black"/>
</svg>
