<svg width="16" height="17" viewBox="0 0 16 17" fill="none" xmlns="http://www.w3.org/2000/svg">
<path d="M12.9595 4.30842C12.6933 4.04223 12.2796 3.9504 11.763 4.0118C11.5674 3.77014 11.2684 3.61563 10.9333 3.61563C10.3459 3.61563 9.86944 4.09043 9.86668 4.67718C9.24445 5.003 8.57522 5.43792 7.89278 5.96595C5.68311 4.25625 3.6119 3.52264 2.82612 4.30843C2.46146 4.67309 2.42402 5.31458 2.6595 6.11828C2.49781 6.30527 2.4 6.54903 2.4 6.81563C2.4 7.40354 2.87562 7.88035 3.46307 7.88229C3.74689 8.36314 4.0893 8.86543 4.48364 9.37509C2.77394 11.5848 2.04033 13.656 2.82611 14.4418C3.22632 14.842 3.95994 14.848 4.87546 14.5318C5.06571 14.708 5.32028 14.8156 5.6 14.8156C6.1891 14.8156 6.66667 14.3381 6.66667 13.749C6.66667 13.7142 6.665 13.6798 6.66174 13.6458C7.06196 13.396 7.4749 13.1076 7.89278 12.7842C10.1025 14.4939 12.1737 15.2276 12.9595 14.4418C13.3079 14.0933 13.3576 13.4922 13.1559 12.7383C13.268 12.5694 13.3333 12.3668 13.3333 12.149C13.3333 11.6242 12.9544 11.188 12.4553 11.0989C12.1478 10.5489 11.7599 9.96699 11.3019 9.37509C13.0116 7.16542 13.7452 5.0942 12.9595 4.30842ZM11.4411 11.4735C11.2904 11.6575 11.2 11.8927 11.2 12.149C11.2 12.706 11.627 13.1633 12.1715 13.2114C12.1869 13.2905 12.1972 13.3631 12.2028 13.4289C12.2139 13.5609 12.205 13.638 12.196 13.6783C12.1557 13.6873 12.0786 13.6962 11.9466 13.6851C11.6475 13.6598 11.2107 13.5377 10.6526 13.2733C10.0726 12.9986 9.42011 12.5983 8.73826 12.0874C9.06092 11.805 9.38343 11.5035 9.70231 11.1846C10.0212 10.8657 10.3227 10.5432 10.6051 10.2206C10.9297 10.6538 11.2096 11.0751 11.4411 11.4735ZM4.53333 6.81563C4.53333 6.29563 4.16124 5.86253 3.66878 5.76809C3.62093 5.59582 3.59339 5.44648 3.58282 5.32126C3.57169 5.18927 3.58058 5.11219 3.58959 5.0719C3.62987 5.06289 3.70696 5.054 3.83895 5.06513C4.13809 5.09037 4.57483 5.21248 5.13301 5.47688C5.71302 5.75162 6.36545 6.1519 7.0473 6.6628C6.72464 6.94522 6.40213 7.24669 6.08326 7.56556C5.76439 7.88443 5.46291 8.20695 5.1805 8.52961C4.87633 8.12368 4.61138 7.72817 4.38878 7.35216C4.48068 7.19455 4.53333 7.01124 4.53333 6.81563ZM6.03934 12.7767C5.90536 12.7161 5.75662 12.6823 5.6 12.6823C5.09226 12.6823 4.66739 13.0371 4.55971 13.5122C4.26804 13.6153 4.02646 13.6692 3.83895 13.6851C3.70696 13.6962 3.62987 13.6873 3.58958 13.6783C3.58058 13.638 3.57168 13.5609 3.58282 13.4289C3.60806 13.1298 3.73017 12.693 3.99457 12.1349C4.26931 11.5549 4.66959 10.9024 5.1805 10.2206C5.46291 10.5432 5.76439 10.8657 6.08326 11.1846C6.40213 11.5035 6.72464 11.805 7.0473 12.0874C6.70191 12.3462 6.36405 12.5766 6.03934 12.7767ZM11.9286 5.06675L11.9466 5.06512C12.0786 5.05399 12.1557 5.06288 12.196 5.07189C12.205 5.11218 12.2139 5.18926 12.2027 5.32125C12.1775 5.62039 12.0554 6.05713 11.791 6.61531C11.5163 7.19532 11.116 7.84777 10.6051 8.52961C10.3226 8.20696 10.0212 7.88444 9.70231 7.56557C9.38344 7.2467 9.06092 6.94522 8.73825 6.6628C9.32138 6.22587 9.883 5.86984 10.3962 5.60406C10.554 5.69618 10.7375 5.74896 10.9333 5.74896C11.3869 5.74896 11.7743 5.46587 11.9286 5.06675ZM9.92623 9.37509C9.62587 9.72567 9.29918 10.0792 8.94806 10.4304C8.59694 10.7815 8.24337 11.1082 7.89278 11.4085C7.5422 11.1082 7.18863 10.7815 6.83751 10.4304C6.48638 10.0792 6.1597 9.72567 5.85933 9.37509C6.15969 9.0245 6.48638 8.67093 6.83751 8.31981C7.18863 7.96869 7.5422 7.642 7.89278 7.34163C8.24337 7.642 8.59694 7.96869 8.94806 8.31982C9.29918 8.67094 9.62587 9.02451 9.92623 9.37509Z" fill="black"/>
</svg>
