<svg width="16" height="16" viewBox="0 0 16 16" fill="none" xmlns="http://www.w3.org/2000/svg">
<path d="M2.332 0.470581C1.8122 0.470581 1.39082 0.89196 1.39082 1.41176V6.11764C1.39082 6.63744 1.8122 7.05882 2.332 7.05882H6.0967C6.6165 7.05882 7.03788 6.63744 7.03788 6.11764V5.7647C7.29237 5.7647 7.42221 5.82025 7.49702 5.87016C7.57785 5.92409 7.65214 6.00988 7.73755 6.16329C7.78061 6.24063 7.8218 6.32629 7.86915 6.4281L7.89474 6.48334C7.93368 6.56752 7.97773 6.66275 8.02414 6.75488C8.13926 6.98344 8.29794 7.25449 8.55195 7.48262C8.99508 7.8806 9.45263 8.04014 9.81148 8.09386C9.82837 8.09639 9.84502 8.09868 9.86141 8.10075V8.82926C9.7885 8.83395 9.71024 8.84182 9.62743 8.85397C9.15935 8.92264 8.55404 9.12725 7.96193 9.64839C7.63275 9.93812 7.42217 10.2868 7.26238 10.5977C7.19805 10.7228 7.13721 10.8517 7.08164 10.9694L7.08163 10.9695L7.0816 10.9695L7.04418 11.0487C6.97625 11.1918 6.91438 11.3182 6.8484 11.4344C6.71745 11.6649 6.58834 11.8216 6.4265 11.9274C6.34362 11.9816 6.2379 12.0317 6.0967 12.0668V9.88235C6.0967 9.36255 5.67533 8.94117 5.15553 8.94117H1.39082C0.871025 8.94117 0.449646 9.36255 0.449646 9.88235V14.5882C0.449646 15.108 0.871025 15.5294 1.39082 15.5294H5.15553C5.67533 15.5294 6.0967 15.108 6.0967 14.5882V13.263C6.47247 13.2107 6.79417 13.0926 7.07031 12.9121C7.45027 12.6637 7.69268 12.3299 7.87133 12.0155C7.96015 11.8591 8.03759 11.6994 8.10705 11.553L8.14909 11.4641C8.20402 11.3478 8.25434 11.2413 8.30873 11.1355C8.44307 10.8741 8.57304 10.6778 8.73922 10.5315C9.13782 10.1807 9.52322 10.0583 9.79818 10.018C9.81991 10.0148 9.841 10.0121 9.86141 10.0099V10.8235C9.86141 11.3433 10.2828 11.7647 10.8026 11.7647H14.5673C15.0871 11.7647 15.5085 11.3433 15.5085 10.8235V6.11764C15.5085 5.59784 15.0871 5.17646 14.5673 5.17646H10.8026C10.2828 5.17646 9.86141 5.59784 9.86141 6.11764V6.90405C9.71355 6.86349 9.53004 6.77976 9.33805 6.60733C9.24532 6.52405 9.1656 6.40582 9.07484 6.22564C9.03811 6.15271 9.00429 6.07965 8.966 5.99692L8.93591 5.93202C8.88709 5.82703 8.83076 5.70832 8.76546 5.59102C8.63415 5.35516 8.44838 5.0906 8.14995 4.8915C7.8455 4.68839 7.4769 4.58823 7.03788 4.58823V1.41176C7.03788 0.89196 6.6165 0.470581 6.0967 0.470581H2.332ZM2.80259 1.41176H5.62612C5.88602 1.41176 6.0967 1.62245 6.0967 1.88235C6.0967 2.14224 5.88602 2.35293 5.62612 2.35293H2.80259C2.54269 2.35293 2.332 2.14224 2.332 1.88235C2.332 1.62245 2.54269 1.41176 2.80259 1.41176ZM1.86141 9.88235H4.68494C4.94484 9.88235 5.15553 10.093 5.15553 10.3529C5.15553 10.6128 4.94484 10.8235 4.68494 10.8235H1.86141C1.60151 10.8235 1.39082 10.6128 1.39082 10.3529C1.39082 10.093 1.60151 9.88235 1.86141 9.88235ZM10.8026 6.58823C10.8026 6.32833 11.0133 6.11764 11.2732 6.11764H14.0967C14.3566 6.11764 14.5673 6.32833 14.5673 6.58823C14.5673 6.84813 14.3566 7.05882 14.0967 7.05882H11.2732C11.0133 7.05882 10.8026 6.84813 10.8026 6.58823Z" fill="black"/>
</svg>
