<svg width="16" height="16" viewBox="0 0 16 16" fill="none" xmlns="http://www.w3.org/2000/svg">
<path fill-rule="evenodd" clip-rule="evenodd" d="M9.30473 8.25V3.81303L9.31213 3.71376C9.35587 3.42346 9.58831 3.20588 9.86243 3.20588C10.167 3.20588 10.4201 3.4745 10.4201 3.81303V5.22039V8.25H10.9201V5.22039L10.9275 5.12112C10.9713 4.83082 11.2037 4.61324 11.4778 4.61324C11.7824 4.61324 12.0355 4.88186 12.0355 5.22039V8.25V9.55708L12.0325 9.66872C12.0284 9.74845 12.0203 9.83876 12.0081 9.93957L11.9595 10.2733L11.8864 10.6695C11.8722 10.7406 11.8569 10.8144 11.8407 10.8907L11.7309 11.3792C11.4389 12.6217 10.3302 13.5 9.05386 13.5H7.43935L7.27497 13.4871C5.96406 13.3305 4.75929 11.8958 4.22277 10.1756C3.91456 9.18738 3.68453 8.19954 3.5326 7.21199C3.5355 7.10766 3.63488 7 3.74704 7C4.09414 7 4.40289 7.26759 4.6739 7.85476L5.39268 9.49997H6.07396V8.25V3.81303L6.08136 3.71376C6.1251 3.42346 6.35754 3.20588 6.63166 3.20588C6.93623 3.20588 7.18935 3.4745 7.18935 3.81303L7.18935 8.25H7.68935L7.68935 3.81303L7.68935 3.10714L7.69674 3.00788C7.74049 2.71758 7.97293 2.5 8.24704 2.5C8.55162 2.5 8.80473 2.76861 8.80473 3.10714V3.81303V8.25H9.30473ZM10.9201 4.27925V3.81303L10.914 3.69295C10.8569 3.14048 10.4108 2.70588 9.86243 2.70588C9.64816 2.70588 9.44952 2.77222 9.2836 2.88601C9.18598 2.38251 8.76154 2 8.24704 2C7.73254 2 7.30811 2.38251 7.21049 2.88601C7.04456 2.77222 6.84592 2.70588 6.63166 2.70588C6.04408 2.70588 5.57396 3.20478 5.57396 3.81303V8.25L5.573 8.664L5.12998 7.6499L5.04799 7.4829C4.71197 6.84004 4.27872 6.5 3.74704 6.5C3.3494 6.5 3.0355 6.84006 3.0355 7.25C3.19417 8.30046 3.42987 9.31262 3.74545 10.3244C4.3603 12.2958 5.78434 13.9396 7.43021 13.9998L9.05386 14L9.24133 13.9946C10.6698 13.9128 11.8869 12.9009 12.2176 11.4936C12.2388 11.4036 12.2589 11.3161 12.278 11.2313L12.3796 10.7529C12.4835 10.2306 12.5355 9.83337 12.5355 9.55708V8.25V5.22039L12.5293 5.10031C12.4723 4.54784 12.0262 4.11324 11.4778 4.11324C11.2726 4.11324 11.0817 4.17411 10.9201 4.27925Z" fill="black"/>
</svg>
