<svg width="16" height="16" viewBox="0 0 16 16" fill="none" xmlns="http://www.w3.org/2000/svg">
<path d="M10 10.5C10 11.6045 9.10457 12.5 8 12.5C6.89543 12.5 6 11.6045 6 10.5C6 9.3954 6.89543 8.49997 8 8.49997C9.10457 8.49997 10 9.3954 10 10.5ZM9 10.5C9 9.94769 8.55228 9.49997 8 9.49997C7.44772 9.49997 7 9.94769 7 10.5C7 11.0523 7.44772 11.5 8 11.5C8.55228 11.5 9 11.0523 9 10.5Z" fill="black"/>
<path d="M3.99999 5.99998L3.6 5.99997C2.71634 5.99997 2 6.71632 2 7.59997V13.4C2 14.2836 2.71635 15 3.6 15H12.4C13.2837 15 14 14.2836 14 13.4V7.59997C14 6.71632 13.2837 5.99997 12.4 5.99997L12 5.99998V4.09998C12 1.89084 10.2091 0.0999756 7.99999 0.0999756C5.82429 0.0999756 4.0543 1.83704 4.00122 3.99997H5V4.09381C5.00333 2.43979 6.3452 1.09998 7.99999 1.09998C9.65685 1.09998 11 2.44312 11 4.09998V5.99998H3.99999C4.5 5.99997 4.5 5.99997 3.99999 5.99998ZM3 7.59997C3 7.2686 3.26863 6.99997 3.6 6.99997H12.4C12.7314 6.99997 13 7.2686 13 7.59997V13.4C13 13.7313 12.7314 14 12.4 14H3.6C3.26863 14 3 13.7313 3 13.4V7.59997Z" fill="black"/>
</svg>
