<svg width="16" height="16" viewBox="0 0 16 16" fill="none" xmlns="http://www.w3.org/2000/svg">
<path d="M9.39681 3.37762C9.34714 3.01146 9.03335 2.72931 8.65365 2.72931H7.43102L7.32925 2.73616L7.23164 2.7561C6.9142 2.84342 6.68102 3.13413 6.68102 3.47931L6.681 4.257L6.6332 4.27466L6.41596 4.36586C6.27303 4.43097 6.13403 4.50463 5.99963 4.58642L5.961 4.611L5.3953 4.14179L5.29061 4.06903C4.97383 3.88651 4.56274 3.95864 4.32897 4.25385L3.55117 5.23611L3.48958 5.3266L3.44279 5.42266C3.32448 5.71762 3.4038 6.06653 3.66079 6.27935L4.26 6.777L4.24102 6.83315L4.1748 7.06474C4.13513 7.22055 4.10448 7.37908 4.0831 7.53969L4.077 7.598L3.34218 7.77264L3.24541 7.80243C2.9029 7.93366 2.70017 8.29986 2.7832 8.66766L3.06296 9.90687L3.09467 10.0115L3.1413 10.1106C3.30116 10.394 3.6343 10.5502 3.96688 10.4716L4.683 10.302L4.70901 10.3454L4.84399 10.5408C4.93765 10.6683 5.03857 10.7902 5.14621 10.9058L5.184 10.944L4.84947 11.6471L4.81224 11.7407C4.70028 12.0881 4.85617 12.4736 5.19171 12.641L6.2944 13.191L6.39957 13.2337L6.5064 13.2596C6.82859 13.313 7.159 13.1512 7.3061 12.8427L7.634 12.153L7.84277 12.1699L8.04233 12.175L8.24156 12.17L8.45 12.154L8.77856 12.8427L8.83516 12.9411C9.04375 13.248 9.45049 13.3605 9.79027 13.191L10.893 12.641L10.9799 12.5901L11.0649 12.5231C11.3022 12.3059 11.3804 11.9516 11.2352 11.647L10.9 10.944L10.9379 10.9064L11.0944 10.7283C11.1953 10.6065 11.2892 10.4787 11.3755 10.3456L11.401 10.303L12.118 10.4717L12.2257 10.489C12.5938 10.5212 12.9381 10.2772 13.0217 9.90687L13.3015 8.66766L13.3171 8.56757L13.3188 8.45881C13.3001 8.13599 13.0725 7.85055 12.7422 7.77257L12.007 7.598L12.0015 7.53946L11.9625 7.29996C11.9319 7.14145 11.8921 6.98533 11.8434 6.83227L11.823 6.776L12.4239 6.27936L12.5029 6.20364C12.7443 5.93617 12.7637 5.52676 12.5335 5.23611L11.7557 4.25385L11.6684 4.16091L11.5827 4.09451C11.3143 3.9161 10.9504 3.92564 10.6894 4.1418L10.124 4.611L10.0859 4.58696L9.88077 4.47025C9.7418 4.39659 9.59855 4.33129 9.45171 4.27476L9.403 4.257L9.40365 3.47941L9.39681 3.37762ZM7.43102 3.22931H8.65365L8.71097 3.23591C8.82142 3.26182 8.90365 3.36096 8.90365 3.47931L8.9032 4.61786L9.0777 4.6732L9.32011 4.76028C9.55895 4.8564 9.78664 4.97935 9.99932 5.1268L10.1554 5.23499L11.0085 4.5267L11.0653 4.49127C11.1652 4.44631 11.2869 4.47137 11.3603 4.55999L12.1415 5.5465L12.1754 5.60325C12.218 5.70268 12.1922 5.822 12.105 5.89425L11.2325 6.61665L11.2969 6.7843L11.3826 7.03451C11.4592 7.28795 11.5081 7.55068 11.528 7.81904L11.5416 8.00155L12.627 8.25913L12.6894 8.28291C12.7853 8.33509 12.8389 8.4461 12.8137 8.55756L12.534 9.79676L12.5097 9.86128C12.4666 9.94052 12.3829 9.99092 12.2909 9.99141L12.2327 9.98502L11.1573 9.7323L11.0648 9.89478L10.9274 10.117C10.7822 10.3338 10.614 10.534 10.4259 10.7136L10.2949 10.8387L10.7839 11.8624L10.8043 11.9254C10.8237 12.032 10.7715 12.1429 10.6698 12.1936L9.5671 12.7436L9.50362 12.7652C9.39588 12.7863 9.28267 12.7334 9.2289 12.6255L8.74375 11.6081L8.56036 11.6359L8.38915 11.6576C8.27448 11.6691 8.15878 11.675 8.04233 11.675C7.86737 11.675 7.69411 11.6618 7.52346 11.6358L7.33984 11.6078L6.8547 12.6277L6.81804 12.6837C6.74615 12.7665 6.6244 12.7945 6.51559 12.7426L5.41488 12.1936L5.35999 12.1564C5.27899 12.0843 5.2519 11.9648 5.30082 11.8622L5.78885 10.8379L5.65808 10.7129L5.47695 10.5267C5.30266 10.334 5.14924 10.1221 5.01988 9.89478L4.92741 9.7323L3.85225 9.98496L3.79485 9.99173C3.68125 9.99193 3.57843 9.91433 3.55124 9.79915L3.27093 8.55756L3.26499 8.4912C3.26985 8.38226 3.34614 8.28545 3.45735 8.25919L4.54311 8.00155L4.55664 7.81904L4.58614 7.55295C4.62519 7.28899 4.69277 7.03187 4.7874 6.78523L4.85164 6.6178L3.97989 5.89441L3.93489 5.84588C3.87238 5.75739 3.87283 5.63531 3.94315 5.5465L4.72096 4.56424L4.76922 4.51768C4.85773 4.4528 4.98195 4.45202 5.07215 4.52345L5.93048 5.2341L6.0863 5.12614L6.30363 4.98717C6.52567 4.85651 6.7614 4.75108 7.00697 4.6732L7.18147 4.61786L7.18102 3.47921L7.18762 3.42192C7.21353 3.31154 7.31267 3.22931 7.43102 3.22931ZM8.04233 6.10583C9.07703 6.10583 9.91581 6.94462 9.91581 7.97931C9.91581 9.014 9.07703 9.85278 8.04233 9.85278C7.00764 9.85278 6.16886 9.014 6.16886 7.97931C6.16886 6.94462 7.00764 6.10583 8.04233 6.10583ZM6.66886 7.97931C6.66886 8.73786 7.28378 9.35278 8.04233 9.35278C8.80088 9.35278 9.41581 8.73786 9.41581 7.97931C9.41581 7.22076 8.80088 6.60583 8.04233 6.60583C7.28378 6.60583 6.66886 7.22076 6.66886 7.97931Z" fill="black"/>
</svg>
