<svg width="16" height="17" viewBox="0 0 16 17" fill="none" xmlns="http://www.w3.org/2000/svg">
<path d="M9.59676 3.98485C9.59891 3.95095 9.59999 3.91676 9.59999 3.88232C9.59999 2.99866 8.88365 2.28232 7.99999 2.28232C7.11634 2.28232 6.39999 2.99866 6.39999 3.88232C6.39999 3.91676 6.40108 3.95096 6.40323 3.98486L4.16833 5.27518C3.89951 5.07052 3.56395 4.94901 3.20001 4.94901C2.31635 4.94901 1.60001 5.66535 1.60001 6.54901C1.60001 7.24068 2.0389 7.82985 2.65339 8.0532V10.6448C2.0389 10.8681 1.60001 11.4573 1.60001 12.149C1.60001 13.0326 2.31635 13.749 3.20001 13.749C3.63796 13.749 4.03482 13.573 4.32374 13.2879L6.40116 14.4873C6.40038 14.5078 6.39999 14.5283 6.39999 14.549C6.39999 15.4326 7.11634 16.149 7.99999 16.149C8.88365 16.149 9.59999 15.4326 9.59999 14.549C9.59999 14.5283 9.5996 14.5078 9.59883 14.4874L11.6763 13.2879C11.9652 13.573 12.362 13.749 12.8 13.749C13.6837 13.749 14.4 13.0326 14.4 12.149C14.4 11.4573 13.9611 10.8681 13.3466 10.6448V8.05321C13.9611 7.82986 14.4 7.24069 14.4 6.54901C14.4 5.66535 13.6837 4.94901 12.8 4.94901C12.4361 4.94901 12.1005 5.07052 11.8317 5.27519L9.59676 3.98485ZM12.2799 10.6354C11.6516 10.8512 11.2 11.4474 11.2 12.149C11.2 12.2087 11.2033 12.2676 11.2096 12.3257L9.19724 13.4875C8.90413 13.1572 8.47638 12.949 7.99999 12.949C7.52362 12.949 7.09586 13.1572 6.80276 13.4875L4.79036 12.3257C4.79673 12.2676 4.80001 12.2087 4.80001 12.149C4.80001 11.4474 4.34842 10.8512 3.72006 10.6354V8.06259C4.34842 7.84674 4.80001 7.25061 4.80001 6.54901C4.80001 6.41787 4.78423 6.29042 4.75447 6.16845L6.82784 4.97139C7.12 5.28569 7.53703 5.48232 7.99999 5.48232C8.46296 5.48232 8.88 5.28569 9.17215 4.97138L11.2455 6.16846C11.2158 6.29043 11.2 6.41787 11.2 6.54901C11.2 7.2506 11.6516 7.84673 12.2799 8.06259V10.6354Z" fill="black"/>
</svg>
