<svg width="16" height="16" viewBox="0 0 16 16" fill="none" xmlns="http://www.w3.org/2000/svg">
<path fill-rule="evenodd" clip-rule="evenodd" d="M7.7841 8.19163C7.83647 8.24406 7.90793 8.27327 7.98228 8.27266C8.05798 8.27433 8.13104 8.24503 8.18435 8.19163L10.92 5.46375C11.0267 5.35695 11.0267 5.18471 10.92 5.07791C10.8116 4.97403 10.6398 4.97403 10.5314 5.07791L7.98228 7.60516L5.4526 5.08177C5.34298 4.991 5.18174 4.99824 5.08081 5.09845C4.97988 5.19866 4.9726 5.35877 5.06401 5.46761L7.7841 8.19163ZM7.78591 10.9189C7.83831 10.9713 7.90981 11.0005 7.98422 10.9999C8.05996 11.0016 8.13307 10.9723 8.18641 10.9189L10.9199 8.19102C11.0267 8.08422 11.0267 7.91198 10.9199 7.80518C10.8115 7.7013 10.6396 7.7013 10.5311 7.80518L7.98422 10.3324L5.45289 7.80904C5.3432 7.71828 5.18185 7.72551 5.08086 7.82572C4.97987 7.92594 4.97258 8.08604 5.06405 8.19488L7.78591 10.9189Z" fill="black"/>
</svg>
