<svg width="16" height="16" viewBox="0 0 16 16" fill="none" xmlns="http://www.w3.org/2000/svg">
<path d="M8 4.57909C6.067 4.57909 4.5 6.14609 4.5 8.07909C4.5 10.0121 6.067 11.5791 8 11.5791C9.933 11.5791 11.5 10.0121 11.5 8.07909C11.5 6.14609 9.933 4.57909 8 4.57909ZM8.92851 5.51932C9.97478 5.89892 10.7222 6.90171 10.7222 8.07909C10.7222 8.93537 10.3269 9.69931 9.70874 10.1983L9.92118 8.66507C9.95299 8.43545 9.78358 8.22696 9.5523 8.21111L7.97676 8.10316C7.82188 8.09255 7.73762 7.91722 7.82608 7.78966L8.19038 7.26432C8.35186 7.03147 8.4817 6.77819 8.57648 6.51115L8.92851 5.51932ZM5.86903 6.38497L6.15175 7.09123C6.21081 7.23876 6.31246 7.36535 6.44375 7.45488L7.19611 7.9679C7.30088 8.03934 7.37459 8.14792 7.40232 8.27166L7.69256 9.56679C7.71811 9.6808 7.76832 9.78783 7.83966 9.88035L8.51262 10.7531C8.3466 10.7848 8.17523 10.8013 8 10.8013C6.49656 10.8013 5.27778 9.58253 5.27778 8.07909C5.27778 7.43866 5.49893 6.84989 5.86903 6.38497Z" fill="black"/>
</svg>
