<svg width="16" height="16" viewBox="0 0 16 16" fill="none" xmlns="http://www.w3.org/2000/svg">
<path d="M14.3017 7.71353C14.3003 7.71164 14.299 7.70974 14.2976 7.70783C14.2171 7.59611 14.1137 7.45658 13.9892 7.29688C13.6603 6.875 13.1843 6.3125 12.5962 5.75C11.4199 4.62496 9.79489 3.5 8 3.5C6.20511 3.5 4.58012 4.62496 3.40381 5.75C2.81567 6.3125 2.33972 6.875 2.0108 7.29687C1.88629 7.45658 1.78287 7.59611 1.70242 7.70783C1.70102 7.70977 1.69963 7.7117 1.69824 7.71363C1.56878 7.89364 1.5 8 1.5 8C1.5 8 1.57026 8.10865 1.70242 8.29218C1.78287 8.4039 1.88629 8.54343 2.0108 8.70313C2.33972 9.125 2.81567 9.6875 3.40381 10.25C4.58012 11.375 6.20511 12.5 8 12.5C9.79489 12.5 11.4199 11.375 12.5962 10.25C13.1843 9.6875 13.6603 9.125 13.9892 8.70312C14.1137 8.54343 14.2171 8.4039 14.2976 8.29217C14.4297 8.10865 14.5 8 14.5 8C14.5 8 14.4312 7.8936 14.3017 7.71353ZM13.8918 8C13.8148 8.10705 13.7151 8.24145 13.5949 8.39569C13.2765 8.80402 12.8168 9.34719 12.2506 9.88866C11.0989 10.9901 9.59532 12 8 12C6.40468 12 4.90107 10.9901 3.7494 9.88866C3.18325 9.34719 2.72347 8.80402 2.40512 8.39569C2.28597 8.24288 2.18709 8.10953 2.11031 8.00297L2.10817 8C2.18525 7.89296 2.28486 7.75855 2.40512 7.60431C2.72347 7.19598 3.18325 6.65281 3.7494 6.11134C4.90107 5.00987 6.40468 4 8 4C9.3959 4 10.7216 4.77318 11.8027 5.70438C11.9572 5.8374 12.1066 5.97366 12.2506 6.11134C12.8168 6.65281 13.2765 7.19598 13.5949 7.60431C13.714 7.75712 13.8129 7.89047 13.8897 7.99703L13.8918 8ZM10.5 8C10.5 9.38071 9.38071 10.5 8 10.5C6.61929 10.5 5.5 9.38071 5.5 8C5.5 6.61929 6.61929 5.5 8 5.5C9.38071 5.5 10.5 6.61929 10.5 8ZM8 10C9.10457 10 10 9.10457 10 8C10 6.89543 9.10457 6 8 6C6.89543 6 6 6.89543 6 8C6 9.10457 6.89543 10 8 10Z" fill="black"/>
</svg>
