<svg width="16" height="16" viewBox="0 0 16 16" fill="none" xmlns="http://www.w3.org/2000/svg">
<path d="M5.84557 7.3662C5.84557 7.50415 5.85332 7.64054 5.86727 7.77539C5.87502 7.83739 5.83472 7.89474 5.77427 7.91023C5.16513 8.06368 4.60714 8.37987 4.15144 8.83556C3.5113 9.47414 3.14705 10.3158 3.1176 11.2147C3.11605 11.2814 3.06025 11.3341 2.9936 11.3341H2.12406C2.05431 11.3341 1.99851 11.2767 2.00006 11.207C2.03106 10.012 2.51156 8.89291 3.36095 8.04508C3.75464 7.65139 4.20879 7.33675 4.70169 7.10891C3.99954 6.54007 3.5516 5.6721 3.5516 4.69873C3.5516 2.98293 4.98378 1.57402 6.70272 1.60037C7.8931 1.61897 8.92229 2.30715 9.42604 3.30377C9.46479 3.38127 9.41519 3.47426 9.32839 3.48356C9.03234 3.51456 8.74405 3.58121 8.47125 3.67576C8.41855 3.69436 8.3581 3.67421 8.3271 3.62616C8.23875 3.48976 8.13335 3.36267 8.0109 3.24797C7.64976 2.91008 7.17236 2.71944 6.67792 2.71479C6.13077 2.70859 5.61618 2.92248 5.23333 3.31462C4.88458 3.67111 4.68464 4.14385 4.67069 4.64138C4.65519 5.20091 4.87063 5.72945 5.27053 6.12004C5.43793 6.28433 5.63168 6.41453 5.84247 6.50908C5.89362 6.53232 5.92307 6.58967 5.91222 6.64547C5.86882 6.87951 5.84557 7.11976 5.84557 7.3662ZM13.0391 10.7126C12.6454 10.3189 12.1912 10.0042 11.6999 9.77638C12.402 9.20755 12.85 8.33957 12.85 7.3662C12.85 5.64885 11.4178 4.23994 9.70039 4.26629C8.00935 4.29264 6.64692 5.67055 6.64692 7.3662C6.64692 8.33957 7.09641 9.20755 7.797 9.77638C7.30566 10.0042 6.85306 10.3173 6.45782 10.7126C5.61153 11.5604 5.13103 12.6794 5.10003 13.8729C5.09848 13.9427 5.15428 14 5.22403 14H6.09202C6.15867 14 6.21447 13.9473 6.21602 13.8807C6.24547 12.9817 6.60972 12.1401 7.24986 11.5015C7.9179 10.8334 8.80604 10.4661 9.74999 10.4661C10.6939 10.4661 11.5821 10.8334 12.2501 11.5015C12.8887 12.1401 13.2529 12.9817 13.2839 13.8807C13.2855 13.9473 13.3413 14 13.4079 14H14.2759C14.3457 14 14.4015 13.9427 14.3999 13.8729C14.3689 12.6794 13.8884 11.5604 13.0391 10.7126ZM9.74999 9.35014C9.21989 9.35014 8.7208 9.144 8.34725 8.76891C7.9675 8.38917 7.75981 7.88389 7.76601 7.34605C7.77066 6.83767 7.9737 6.34633 8.32865 5.98209C8.70065 5.6008 9.19819 5.38846 9.72984 5.38226C10.2553 5.37761 10.7652 5.5822 11.1403 5.94954C11.5247 6.32618 11.7355 6.82992 11.7355 7.3662C11.7355 7.89629 11.5294 8.39382 11.1543 8.76891C10.7792 9.144 10.2801 9.35014 9.74999 9.35014Z" fill="black"/>
</svg>
