<svg width="16" height="16" viewBox="0 0 16 16" fill="none" xmlns="http://www.w3.org/2000/svg">
<path d="M13.0485 3.59825C13.0485 3.24373 12.7618 2.95633 12.4081 2.95633C12.0545 2.95633 11.7678 3.24373 11.7678 3.59825C11.7678 3.95278 12.0545 4.24017 12.4081 4.24017C12.7618 4.24017 13.0485 3.95278 13.0485 3.59825ZM15 3.59825C15 5.03323 13.8396 6.19651 12.4081 6.19651C11.2222 6.19651 10.2223 5.39803 9.91418 4.3081C9.57963 4.34037 9.34711 4.48601 9.14329 4.71097C8.88313 4.99808 8.68197 5.40089 8.44721 5.90179L8.40264 5.99713C8.19576 6.44024 7.95137 6.96371 7.61483 7.37273C7.41443 7.6163 7.17372 7.82948 6.88246 7.9791C7.15485 8.12343 7.38499 8.32027 7.58117 8.54598C7.93732 8.95573 8.19638 9.48096 8.41563 9.92548L8.46269 10.0208C8.71084 10.522 8.92362 10.9256 9.19994 11.2143C9.39571 11.4188 9.62235 11.5641 9.9368 11.6163C10.2689 10.5653 11.2498 9.80349 12.4081 9.80349C13.8396 9.80349 15 10.9668 15 12.4017C15 13.8367 13.8396 15 12.4081 15C11.1254 15 10.0603 14.0659 9.85285 12.8392C9.20297 12.76 8.70631 12.4646 8.31987 12.0608C7.89396 11.6159 7.6063 11.0413 7.37016 10.5644L7.34977 10.5232C7.10449 10.0276 6.91043 9.63552 6.66158 9.34922C6.47523 9.13481 6.27552 9.00043 6.00096 8.96029C5.61998 9.91993 4.68494 10.5983 3.59186 10.5983C2.16042 10.5983 1 9.43498 1 8C1 6.56503 2.16042 5.40175 3.59186 5.40175C4.66238 5.40175 5.58131 6.05235 5.97666 6.98065C6.27009 6.96474 6.47536 6.83603 6.6739 6.59473C6.90876 6.30928 7.09239 5.91735 7.32436 5.42223L7.34328 5.38186C7.56591 4.90683 7.83738 4.33369 8.24044 3.88886C8.63609 3.45221 9.16097 3.13441 9.86678 3.08524C10.1044 1.89597 11.1519 1 12.4081 1C13.8396 1 15 2.16328 15 3.59825ZM3.59186 8.64192C3.94552 8.64192 4.23221 8.35453 4.23221 8C4.23221 7.64548 3.94552 7.35808 3.59186 7.35808C3.23821 7.35808 2.95152 7.64548 2.95152 8C2.95152 8.35453 3.23821 8.64192 3.59186 8.64192ZM12.4081 13.0437C12.7618 13.0437 13.0485 12.7563 13.0485 12.4017C13.0485 12.0472 12.7618 11.7598 12.4081 11.7598C12.0545 11.7598 11.7678 12.0472 11.7678 12.4017C11.7678 12.7563 12.0545 13.0437 12.4081 13.0437Z" fill="black"/>
</svg>
