<svg width="16" height="16" viewBox="0 0 16 16" fill="none" xmlns="http://www.w3.org/2000/svg">
<path fill-rule="evenodd" clip-rule="evenodd" d="M9.25153 3.22322C9.52767 3.22322 9.75153 3.44708 9.75153 3.72322V4.72322H11.2515H11.7515V5.22322H11.2515V12.2232C11.2515 12.4994 11.0277 12.7232 10.7515 12.7232H5.25153C4.97538 12.7232 4.75153 12.4994 4.75153 12.2232V5.22322H4.25153V4.72322H4.75153H6.25153V3.72322C6.25153 3.44708 6.47538 3.22322 6.75153 3.22322H9.25153ZM9.75153 5.22322H6.25153H5.25099L5.25153 12.2232H10.7515L10.751 5.22322H9.75153ZM9.25153 3.72322H6.75153L6.75099 4.723H9.25099L9.25153 3.72322ZM7.25153 6.72322V10.7232H6.75153V6.72322H7.25153ZM9.25153 10.7232V6.72322H8.75153V10.7232H9.25153Z" fill="black"/>
</svg>
