<svg width="16" height="16" viewBox="0 0 16 16" fill="none" xmlns="http://www.w3.org/2000/svg">
<path d="M2.30341 13.0704C2.30341 13.3864 2.55877 13.6418 2.87484 13.6418H13.1248C13.4409 13.6418 13.6963 13.3864 13.6963 13.0704V8.90966C13.6963 5.76323 11.1463 3.21323 7.99984 3.21323C4.85342 3.21323 2.30341 5.76323 2.30341 8.90966V13.0704ZM3.58913 8.90966C3.58913 6.47395 5.56413 4.49895 7.99984 4.49895C10.4356 4.49895 12.4106 6.47395 12.4106 8.90966V12.3561C6.9309 12.3561 6.56952 12.3561 3.58913 12.3561V8.90966ZM2.7302 4.40073L3.43734 3.69359C3.4927 3.63823 3.4927 3.54716 3.43734 3.4918L2.22484 2.2793C2.19799 2.25272 2.16174 2.2378 2.12395 2.2378C2.08616 2.2378 2.04991 2.25272 2.02306 2.2793L1.31591 2.98645C1.28933 3.0133 1.27441 3.04955 1.27441 3.08734C1.27441 3.12512 1.28933 3.16138 1.31591 3.18823L2.52841 4.40073C2.58377 4.45609 2.67306 4.45609 2.7302 4.40073ZM14.6873 2.98645L13.9802 2.2793C13.9534 2.25272 13.9171 2.2378 13.8793 2.2378C13.8415 2.2378 13.8053 2.25272 13.7784 2.2793L12.5659 3.4918C12.5393 3.51865 12.5244 3.55491 12.5244 3.5927C12.5244 3.63048 12.5393 3.66674 12.5659 3.69359L13.2731 4.40073C13.3284 4.45609 13.4195 4.45609 13.4748 4.40073L14.6873 3.18823C14.7427 3.13109 14.7427 3.0418 14.6873 2.98645ZM13.7141 14.7847H2.28556C1.96949 14.7847 1.71413 15.04 1.71413 15.3561V15.7847C1.71413 15.8632 1.77841 15.9275 1.85699 15.9275H14.1427C14.2213 15.9275 14.2856 15.8632 14.2856 15.7847V15.3561C14.2856 15.04 14.0302 14.7847 13.7141 14.7847ZM7.49984 2.07037H8.49984C8.57842 2.07037 8.6427 2.00609 8.6427 1.92752V0.213231C8.6427 0.134659 8.57842 0.0703735 8.49984 0.0703735H7.49984C7.42127 0.0703735 7.35699 0.134659 7.35699 0.213231V1.92752C7.35699 2.00609 7.42127 2.07037 7.49984 2.07037Z" fill="black"/>
</svg>
