<svg width="16" height="16" viewBox="0 0 16 16" fill="none" xmlns="http://www.w3.org/2000/svg">
<path fill-rule="evenodd" clip-rule="evenodd" d="M12.5833 5.72108L9.37515 2.5H4.41666C3.86438 2.5 3.41666 2.94772 3.41666 3.5V12.5C3.41666 13.0523 3.86438 13.5 4.41666 13.5H11.5833C12.1356 13.5 12.5833 13.0523 12.5833 12.5V5.72108ZM4.41666 3H9.167L12.083 5.926L12.0833 12.5L12.0753 12.5899C12.0329 12.8231 11.8288 13 11.5833 13H4.41666L4.32679 12.9919C4.09354 12.9496 3.91666 12.7455 3.91666 12.5V3.5L3.92472 3.41012C3.96706 3.17688 4.1712 3 4.41666 3ZM9.16704 3.44175V5.73341C9.16704 5.8293 9.23181 5.91005 9.31999 5.9343L9.37537 5.94175H11.6814V6.44175H9.37537C9.01677 6.44175 8.72041 6.17527 8.6735 5.82953L8.66704 5.73341V3.44175H9.16704ZM6.32766 12.3565C6.15266 12.4825 5.90416 12.549 5.58566 12.549C5.27766 12.549 5.03616 12.4895 4.86466 12.3705C4.65466 12.2235 4.53916 11.9925 4.52166 11.674H4.92766C4.95566 11.863 5.02216 11.9995 5.13066 12.08C5.22866 12.15 5.37916 12.1885 5.58566 12.1885C5.76766 12.1885 5.91466 12.157 6.01966 12.0975C6.12466 12.0345 6.18066 11.954 6.18066 11.849C6.18066 11.716 6.10016 11.611 5.94616 11.534C5.89716 11.5095 5.73616 11.4535 5.45966 11.3695C5.15166 11.2715 4.95916 11.2015 4.88566 11.1595C4.69316 11.044 4.59866 10.876 4.59866 10.6555C4.59866 10.435 4.68966 10.26 4.87866 10.134C5.05366 10.0115 5.27416 9.952 5.54366 9.952C5.83766 9.952 6.06866 10.0115 6.23316 10.134C6.40816 10.2635 6.50966 10.4665 6.53416 10.7395H6.12816C6.09316 10.5855 6.02666 10.4735 5.93566 10.407C5.84466 10.337 5.70466 10.3055 5.52266 10.3055C5.36516 10.3055 5.24616 10.3265 5.16216 10.372C5.05716 10.4245 5.00816 10.512 5.00816 10.631C5.00816 10.736 5.06416 10.8235 5.18316 10.8865C5.23566 10.9145 5.37916 10.967 5.61016 11.0405C5.94966 11.1455 6.16666 11.2295 6.26466 11.2855C6.48166 11.415 6.59016 11.5935 6.59016 11.8245C6.59016 12.0485 6.50266 12.227 6.32766 12.3565ZM8.89666 10.001L8.00766 12.5H7.51416L6.62516 10.001H7.06966L7.75566 12.038H7.76616L8.45216 10.001H8.89666ZM10.2022 12.549C10.4262 12.549 10.6257 12.521 10.8077 12.465C10.9792 12.409 11.1297 12.332 11.2627 12.227V11.17H10.1917V11.52H10.8532V12.0345C10.7692 12.0835 10.6817 12.122 10.5837 12.15C10.4787 12.178 10.3667 12.192 10.2477 12.192C9.94316 12.192 9.71916 12.108 9.57566 11.94C9.44266 11.7825 9.37616 11.555 9.37616 11.261C9.37616 10.953 9.44966 10.7185 9.60016 10.5505C9.73666 10.3895 9.92216 10.3125 10.1567 10.3125C10.3457 10.3125 10.4997 10.351 10.6152 10.4315C10.7272 10.512 10.8042 10.631 10.8392 10.792H11.2522C11.2067 10.512 11.0947 10.3055 10.9162 10.1655C10.7307 10.022 10.4787 9.952 10.1567 9.952C9.78566 9.952 9.49166 10.078 9.27466 10.337C9.06816 10.5785 8.96666 10.8865 8.96666 11.261C8.96666 11.632 9.06816 11.9365 9.27466 12.171C9.49516 12.423 9.80316 12.549 10.2022 12.549Z" fill="black"/>
</svg>
