<svg width="16" height="16" viewBox="0 0 16 16" fill="none" xmlns="http://www.w3.org/2000/svg">
<path d="M10.9737 8.48685C10.9737 9.9911 9.75425 11.2105 8.25001 11.2105C6.74576 11.2105 5.52632 9.9911 5.52632 8.48685C5.52632 6.9826 6.74576 5.76316 8.25001 5.76316C9.75425 5.76316 10.9737 6.9826 10.9737 8.48685ZM10.4737 8.48685C10.4737 7.25874 9.47811 6.26316 8.25001 6.26316C7.0219 6.26316 6.02632 7.25874 6.02632 8.48685C6.02632 9.71496 7.0219 10.7105 8.25001 10.7105C9.47811 10.7105 10.4737 9.71496 10.4737 8.48685Z" fill="black"/>
<path d="M11.5789 6.36843C11.5789 6.03415 11.8499 5.76316 12.1842 5.76316C12.5185 5.76316 12.7895 6.03415 12.7895 6.36843C12.7895 6.70271 12.5185 6.97369 12.1842 6.97369C11.8499 6.97369 11.5789 6.70271 11.5789 6.36843Z" fill="black"/>
<path d="M6.88328 2.73685C6.43285 2.73685 6.038 3.03799 5.91888 3.4724L5.62267 4.55264H3C2.72386 4.55264 2.5 4.77649 2.5 5.05264V11.9211C2.5 12.1972 2.72386 12.4211 3 12.4211H13.5C13.7761 12.4211 14 12.1972 14 11.9211V5.05264C14 4.77649 13.7761 4.55264 13.5 4.55264H10.8351L10.5693 3.49344C10.4577 3.0487 10.0579 2.73685 9.59937 2.73685H6.88328ZM6.00402 5.05264L6.40108 3.60462C6.46064 3.38742 6.65806 3.23685 6.88328 3.23685H9.59937C9.82864 3.23685 10.0285 3.39277 10.0843 3.61514L10.4451 5.05264H13.5V11.9211H3V5.05264H6.00402Z" fill="black"/>
<path d="M3.4079 3.34211C3.24076 3.34211 3.10527 3.4776 3.10527 3.64474C3.10527 3.81188 3.24076 3.94737 3.4079 3.94737H4.61843C4.78557 3.94737 4.92106 3.81188 4.92106 3.64474C4.92106 3.4776 4.78557 3.34211 4.61843 3.34211H3.4079Z" fill="black"/>
</svg>
