<svg width="16" height="16" viewBox="0 0 16 16" fill="none" xmlns="http://www.w3.org/2000/svg">
<path d="M0.775024 1.22499L4.6864 5.13636H2.27274V5.77273H5.77274V2.27273H5.13638V4.68639L1.225 0.775009L0.775024 1.22499Z" fill="black"/>
<path d="M13.7273 10.8636L11.3136 10.8636L15.225 14.775L14.775 15.225L10.8637 11.3136L10.8637 13.7273H10.2273V10.2273H13.7273V10.8636Z" fill="black"/>
<path d="M13.7273 5.13636H11.3136L15.225 1.22499L14.775 0.775009L10.8637 4.68638V2.27273H10.2273V5.77273H13.7273V5.13636Z" fill="black"/>
<path d="M5.13638 13.7273V11.3136L1.225 15.225L0.775024 14.775L4.6864 10.8636H2.27274L2.27274 10.2273H5.77274L5.77274 13.7273H5.13638Z" fill="black"/>
<path d="M10.5455 8C10.5455 9.40581 9.40583 10.5455 8.00001 10.5455C6.5942 10.5455 5.45456 9.40581 5.45456 8C5.45456 6.59418 6.5942 5.45454 8.00001 5.45454C9.40583 5.45454 10.5455 6.59418 10.5455 8ZM9.9091 8C9.9091 6.94563 9.05437 6.09091 8.00001 6.09091C6.94565 6.09091 6.09092 6.94563 6.09092 8C6.09092 9.05436 6.94565 9.90909 8.00001 9.90909C9.05437 9.90909 9.9091 9.05436 9.9091 8Z" fill="black"/>
</svg>
