<svg width="16" height="16" viewBox="0 0 16 16" fill="none" xmlns="http://www.w3.org/2000/svg">
<path d="M5.5511 2.83008L8.27212 5.5511C9.02351 6.30249 9.02351 7.52074 8.27212 8.27212L9.36053 9.36053C10.713 8.00803 10.713 5.81519 9.36053 4.46269L6.63951 1.74167C5.28701 0.38917 3.09417 0.38917 1.74167 1.74167C0.389169 3.09417 0.38917 5.28701 1.74167 6.63951L3.64639 8.54423L4.7348 7.45582L2.83008 5.5511C2.07869 4.79971 2.07869 3.58147 2.83008 2.83008C3.58147 2.07869 4.79971 2.07869 5.5511 2.83008ZM11.2652 8.54423L13.17 10.4489C13.9214 11.2003 13.9214 12.4186 13.17 13.17C12.4186 13.9214 11.2003 13.9214 10.4489 13.17L7.72792 10.4489C6.97653 9.69755 6.97653 8.47931 7.72792 7.72792L6.63951 6.63951C5.28701 7.99201 5.28701 10.1849 6.63951 11.5374L9.36053 14.2584C10.713 15.6109 12.9059 15.6109 14.2584 14.2584C15.6109 12.9059 15.6109 10.713 14.2584 9.36053L12.3537 7.45582L11.2652 8.54423Z" fill="black"/>
</svg>
