<svg width="16" height="16" viewBox="0 0 16 16" fill="none" xmlns="http://www.w3.org/2000/svg">
<path d="M1.75 6.5C1.75 3.04822 4.54822 0.25 8 0.25C11.4518 0.25 14.25 3.04822 14.25 6.5V7H14.5C15.0523 7 15.5 7.44772 15.5 8V12C15.5 12.5523 15.0523 13 14.5 13H13.559C13.5498 13.0103 13.5402 13.0204 13.5303 13.0303L11.8107 14.75H9.5C9.43532 14.75 9.37256 14.7418 9.31268 14.7264C9.05685 15.1877 8.56489 15.5 8 15.5C7.17157 15.5 6.5 14.8284 6.5 14C6.5 13.1716 7.17157 12.5 8 12.5C8.56489 12.5 9.05685 12.8123 9.31268 13.2736C9.37256 13.2582 9.43532 13.25 9.5 13.25H11.1893L11.7632 12.6761C11.5998 12.4981 11.5 12.2607 11.5 12V8C11.5 7.44772 11.9477 7 12.5 7H12.75V6.5C12.75 3.87665 10.6234 1.75 8 1.75C5.37665 1.75 3.25 3.87665 3.25 6.5V7H3.5C4.05228 7 4.5 7.44772 4.5 8V12C4.5 12.5523 4.05228 13 3.5 13H1.5C0.947715 13 0.5 12.5523 0.5 12V8C0.5 7.44772 0.947715 7 1.5 7H1.75V6.5ZM2 8.5V11.5H3V8.5H2ZM13 8.5V11.5H14V8.5H13Z" fill="black"/>
</svg>
