<svg width="16" height="16" viewBox="0 0 16 16" fill="none" xmlns="http://www.w3.org/2000/svg">
<path d="M5.33333 3.33334C6.06971 3.33334 6.66667 2.73638 6.66667 2.00001C6.66667 1.26363 6.06971 0.666672 5.33333 0.666672C4.59695 0.666672 4 1.26363 4 2.00001C4 2.38048 4.15936 2.72373 4.41497 2.96665L4.40435 2.98578L4.49214 3.03455C4.61272 3.13271 4.75079 3.21022 4.90095 3.26167L4.98712 3.30954L4.99758 3.29071C5.10485 3.31853 5.21736 3.33334 5.33333 3.33334ZM5.33333 2.66667C4.96514 2.66667 4.66667 2.3682 4.66667 2.00001C4.66667 1.63182 4.96514 1.33334 5.33333 1.33334C5.70152 1.33334 6 1.63182 6 2.00001C6 2.3682 5.70152 2.66667 5.33333 2.66667Z" fill="black"/>
<path d="M2.66658 6.11378L2.67961 6.09031L2.9158 6.22152C2.95222 6.24032 2.98799 6.26019 3.02306 6.28112L3.26238 6.41407L3.24912 6.43795C3.35832 6.52539 3.45815 6.62404 3.54687 6.73216L3.56188 6.72358L3.62437 6.83295C3.70555 6.94573 3.77527 7.06732 3.83182 7.19599L3.89264 7.30241L3.87806 7.31074C3.95694 7.52562 4 7.75778 4 8C4 8.63201 3.70685 9.19554 3.24912 9.56205L3.2587 9.5793L3.12698 9.65248C3.02584 9.72159 2.91803 9.78166 2.80471 9.83152L2.67593 9.90307L2.66658 9.88623C2.45808 9.95991 2.23372 10 2 10C0.895431 10 0 9.10457 0 8C0 6.89543 0.895431 6 2 6C2.23372 6 2.45808 6.04009 2.66658 6.11378ZM2 9.33334C2.73638 9.33334 3.33333 8.73638 3.33333 8C3.33333 7.26362 2.73638 6.66667 2 6.66667C1.26362 6.66667 0.666667 7.26362 0.666667 8C0.666667 8.73638 1.26362 9.33334 2 9.33334Z" fill="black"/>
<path d="M3.02456 5.4694L3.36951 4.8485L3.95228 5.17226L3.60733 5.79316L3.02456 5.4694Z" fill="black"/>
<path d="M3.71445 4.22759L4.0594 3.60668L4.64217 3.93044L4.29723 4.55135L3.71445 4.22759Z" fill="black"/>
<path d="M4.99759 12.7093L4.96827 12.6565L4.38549 12.9803L4.41498 13.0334C4.15936 13.2763 4 13.6195 4 14C4 14.7364 4.59695 15.3333 5.33333 15.3333C6.06971 15.3333 6.66667 14.7364 6.66667 14C6.66667 13.2636 6.06971 12.6667 5.33333 12.6667C5.21737 12.6667 5.10486 12.6815 4.99759 12.7093ZM6 14C6 14.3682 5.70152 14.6667 5.33333 14.6667C4.96514 14.6667 4.66667 14.3682 4.66667 14C4.66667 13.6318 4.96514 13.3333 5.33333 13.3333C5.70152 13.3333 6 13.6318 6 14Z" fill="black"/>
<path d="M4.28444 11.4256L4.62635 12.0411L4.04358 12.3648L3.70167 11.7494L4.28444 11.4256Z" fill="black"/>
<path d="M3.60062 10.1947L3.94253 10.8102L3.35976 11.134L3.01784 10.5185L3.60062 10.1947Z" fill="black"/>
<path d="M9 13C9 12.8023 9.02869 12.6112 9.08214 12.4309L9.02982 12.401L9.36058 11.8221L9.37676 11.8314C9.73994 11.3278 10.3317 11 11 11C12.1046 11 13 11.8954 13 13C13 14.1046 12.1046 15 11 15C9.89543 15 9 14.1046 9 13ZM9.66667 13C9.66667 13.7364 10.2636 14.3333 11 14.3333C11.7364 14.3333 12.3333 13.7364 12.3333 13C12.3333 12.2636 11.7364 11.6667 11 11.6667C10.2636 11.6667 9.66667 12.2636 9.66667 13Z" fill="black"/>
<path d="M8.75097 11.4738L8.14137 11.1254L7.81061 11.7043L8.42021 12.0526L8.75097 11.4738Z" fill="black"/>
<path d="M7.53177 10.7771L6.92217 10.4288L6.59141 11.0076L7.20101 11.3559L7.53177 10.7771Z" fill="black"/>
<path d="M6.31256 10.0804L5.70296 9.73207L5.3722 10.3109L5.9818 10.6592L6.31256 10.0804Z" fill="black"/>
<path d="M5.09336 9.38372L4.48375 9.03538L4.153 9.61421L4.7626 9.96255L5.09336 9.38372Z" fill="black"/>
<path d="M4.15081 6.38705L4.73975 6.05052L5.07051 6.62934L4.48157 6.96588L4.15081 6.38705Z" fill="black"/>
<path d="M5.32868 5.71398L5.91761 5.37745L6.24837 5.95628L5.65944 6.29281L5.32868 5.71398Z" fill="black"/>
<path d="M6.50655 5.04091L7.09548 4.70438L7.42624 5.28321L6.83731 5.61974L6.50655 5.04091Z" fill="black"/>
<path d="M7.68442 4.36785L8.27335 4.03131L8.60411 4.61014L8.01517 4.94668L7.68442 4.36785Z" fill="black"/>
<path d="M8.86228 3.69478L9.45122 3.35825L9.78198 3.93707L9.19304 4.27361L8.86228 3.69478Z" fill="black"/>
<path d="M10.3778 3.59659C10.62 3.84544 10.9586 4 11.3333 4C12.0697 4 12.6667 3.40305 12.6667 2.66667C12.6667 1.93029 12.0697 1.33334 11.3333 1.33334C10.597 1.33334 10 1.93029 10 2.66667C10 2.78824 10.0163 2.90602 10.0468 3.01794L10.0402 3.02171L10.0555 3.04858C10.1145 3.24633 10.2182 3.42482 10.3548 3.57236L10.3709 3.60054L10.3778 3.59659ZM11.3333 3.33334C10.9651 3.33334 10.6667 3.03486 10.6667 2.66667C10.6667 2.29848 10.9651 2 11.3333 2C11.7015 2 12 2.29848 12 2.66667C12 3.03486 11.7015 3.33334 11.3333 3.33334Z" fill="black"/>
<path d="M11.5357 7.66667H10.8929L10.8929 8.33334H11.5357V7.66667Z" fill="black"/>
<path d="M10.25 7.66667H9.60714V8.33334H10.25V7.66667Z" fill="black"/>
<path d="M8.96428 7.66667L8.32143 7.66667V8.33334H8.96428V7.66667Z" fill="black"/>
<path d="M7.67857 7.66667H7.03571V8.33334L7.67857 8.33334V7.66667Z" fill="black"/>
<path d="M6.39286 7.66667H5.75V8.33334H6.39286V7.66667Z" fill="black"/>
<path d="M5.10714 7.66667H4.46428V8.33334H5.10714L5.10714 7.66667Z" fill="black"/>
<path d="M12 8C12 9.10457 12.8954 10 14 10C15.1046 10 16 9.10457 16 8C16 6.89543 15.1046 6 14 6C12.8954 6 12 6.89543 12 8ZM12.6667 8C12.6667 7.26362 13.2636 6.66667 14 6.66667C14.7364 6.66667 15.3333 7.26362 15.3333 8C15.3333 8.73638 14.7364 9.33334 14 9.33334C13.2636 9.33334 12.6667 8.73638 12.6667 8Z" fill="black"/>
</svg>
