<svg width="16" height="16" viewBox="0 0 16 16" fill="none" xmlns="http://www.w3.org/2000/svg">
<path d="M10.1875 3.5C10.7365 3.5 11.1863 3.92373 11.2438 4.46554L11.25 4.58333V7.91667H10.75V4.58333C10.75 4.29213 10.5448 4.05259 10.2784 4.0076L10.1875 4H5.3125C5.0342 4 4.80121 4.21041 4.7574 4.48837L4.75 4.58333V10.4167C4.75 10.7079 4.95515 10.9474 5.22161 10.9924L5.3125 11H7.75V11.5H5.3125C4.76348 11.5 4.31374 11.0763 4.25622 10.5345L4.25 10.4167V4.58333C4.25 4.02622 4.66313 3.56535 5.19648 3.50637L5.3125 3.5H10.1875Z" fill="black"/>
<path d="M11 10.25C11 9.42157 10.3284 8.75 9.5 8.75C8.67157 8.75 8 9.42157 8 10.25C8 11.0784 8.67157 11.75 9.5 11.75C9.82396 11.75 10.1239 11.6473 10.3691 11.4727L11.3232 12.4268L11.6768 12.0732L10.7227 11.1191C10.8973 10.8739 11 10.574 11 10.25ZM8.5 10.25C8.5 9.69772 8.94772 9.25 9.5 9.25C10.0523 9.25 10.5 9.69772 10.5 10.25C10.5 10.8023 10.0523 11.25 9.5 11.25C8.94772 11.25 8.5 10.8023 8.5 10.25Z" fill="black"/>
<path d="M10 5.25V5.75H5.5V5.25H10Z" fill="black"/>
<path d="M10 7.00454V6.50454H5.5V7.00454H10Z" fill="black"/>
<path d="M10 7.75V8.25H5.5V7.75H10Z" fill="black"/>
<path d="M7.75 9.50571V9.00571H5.5V9.50571H7.75Z" fill="black"/>
</svg>
