<svg width="16" height="16" viewBox="0 0 16 16" fill="none" xmlns="http://www.w3.org/2000/svg">
<path d="M4.83333 1C6.18379 1 7.36374 1.73008 8 2.81707C8.63627 1.73008 9.81621 1 11.1667 1C12.1792 1 13 1.82081 13 2.83333V3.5C13 3.67265 12.9781 3.84019 12.937 4H14C14.5523 4 15 4.44772 15 5V8C15 8.55228 14.5523 9 14 9V14C14 14.5523 13.5523 15 13 15H3C2.44772 15 2 14.5523 2 14L2 9C1.44772 9 1 8.55228 1 8V5C1 4.44772 1.44772 4 2 4H3.06301C3.02188 3.84019 3 3.67265 3 3.5V2.83333C3 1.82081 3.82081 1 4.83333 1ZM11 4C11.2761 4 11.5 3.77614 11.5 3.5V2.83333C11.5 2.64924 11.3508 2.5 11.1667 2.5C10.2027 2.5 9.38569 3.12958 9.1045 4H11ZM7.25 5.5H7H5H2.5V7.5H3.5H7.25V5.5ZM7.25 9H3.5V13.5H7.25V9ZM8.75 13.5H12.5V9H8.75V13.5ZM8.75 7.5H12.5H13.5V5.5H11H9H8.75V7.5ZM5 4H6.8955C6.61431 3.12958 5.79735 2.5 4.83333 2.5C4.64924 2.5 4.5 2.64924 4.5 2.83333V3.5C4.5 3.77614 4.72386 4 5 4Z" fill="black"/>
</svg>
