<svg width="16" height="17" viewBox="0 0 16 17" fill="none" xmlns="http://www.w3.org/2000/svg">
<path d="M7.7037 4.94897V9.09712L10.1079 10.9003L10.4635 10.4262L8.2963 8.80083V4.94897H7.7037Z" fill="black"/>
<path d="M13.7143 8.94897C13.7143 12.1049 11.1559 14.6633 8.00001 14.6633C4.84409 14.6633 2.28572 12.1049 2.28572 8.94897C2.28572 5.79305 4.84409 3.23468 8.00001 3.23468C11.1559 3.23468 13.7143 5.79305 13.7143 8.94897ZM13.1217 8.94897C13.1217 6.12033 10.8286 3.82727 8.00001 3.82727C5.17137 3.82727 2.87831 6.12033 2.87831 8.94897C2.87831 11.7776 5.17137 14.0707 8.00001 14.0707C10.8286 14.0707 13.1217 11.7776 13.1217 8.94897Z" fill="black"/>
</svg>
