<svg width="16" height="16" viewBox="0 0 16 16" fill="none" xmlns="http://www.w3.org/2000/svg">
<path fill-rule="evenodd" clip-rule="evenodd" d="M8.01961 3C10.781 3 13.0196 5.23858 13.0196 8C13.0196 10.7614 10.781 13 8.01961 13C5.25818 13 3.01961 10.7614 3.01961 8C3.01961 5.23858 5.25818 3 8.01961 3ZM8.01961 3.5C5.53433 3.5 3.51961 5.51472 3.51961 8C3.51961 10.4853 5.53433 12.5 8.01961 12.5C10.5049 12.5 12.5196 10.4853 12.5196 8C12.5196 5.51472 10.5049 3.5 8.01961 3.5ZM8.01961 5.25C8.97982 5.25 9.76961 5.94977 9.76961 6.82904C9.76961 7.61575 9.13734 8.25877 8.31645 8.38543L8.269 8.39L8.26961 9.07841C8.26961 9.19676 8.18737 9.2959 8.07693 9.32181L8.01961 9.32841C7.90126 9.32841 7.80212 9.24618 7.77621 9.13573L7.76961 9.07841V8.15808C7.76961 8.02001 7.88154 7.90808 8.01961 7.90808C8.71625 7.90808 9.26961 7.41779 9.26961 6.82904C9.26961 6.24029 8.71625 5.75 8.01961 5.75C7.32297 5.75 6.76961 6.24029 6.76961 6.82904C6.76961 6.96711 6.65768 7.07904 6.51961 7.07904C6.38154 7.07904 6.26961 6.96711 6.26961 6.82904C6.26961 5.94977 7.05939 5.25 8.01961 5.25ZM8.01961 9.90423C8.13795 9.90423 8.23709 9.98647 8.263 10.0969L8.26961 10.1542V10.2494C8.26961 10.3874 8.15768 10.4994 8.01961 10.4994C7.90126 10.4994 7.80212 10.4171 7.77621 10.3067L7.76961 10.2494V10.1542C7.76961 10.0162 7.88154 9.90423 8.01961 9.90423Z" fill="black"/>
</svg>
