<svg width="16" height="16" viewBox="0 0 16 16" fill="none" xmlns="http://www.w3.org/2000/svg">
<path d="M15 8C15 4.13401 11.866 1 8 1C6.22592 1 4.59393 1.66835 3.65371 2.51241C2.03695 3.79464 1 5.77622 1 8C1 11.866 4.13401 15 8 15C8.02988 15 8.05972 14.9998 8.08951 14.9994C8.11916 14.9998 8.14885 15 8.17857 15C9.73527 15 11.0691 14.4854 11.9366 13.789C13.7858 12.5291 15 10.4064 15 8ZM11.8214 4C11.8214 4.34256 11.413 4.72541 10.7151 5.01858C10.491 3.90953 10.1458 2.95996 9.71924 2.26278C10.9624 2.65337 11.8214 3.40498 11.8214 4ZM9.20218 3.44417C9.43289 3.98251 9.62 4.61769 9.75488 5.3171C9.24037 5.43118 8.64822 5.5 8 5.5C7.37221 5.5 6.77713 5.43433 6.24333 5.32643C6.37834 4.62333 6.56609 3.9849 6.79782 3.44417C7.21659 2.46704 7.68983 2 8 2C8.31017 2 8.78341 2.46704 9.20218 3.44417ZM3.82143 4C3.82143 3.83056 3.98075 3.56756 4.28679 3.28671C4.8755 2.82228 5.55333 2.46578 6.2904 2.24707C5.85351 2.95527 5.50113 3.92748 5.2757 5.06471C4.38485 4.75461 3.82143 4.3351 3.82143 4ZM5.00753 7.5H2.02054C2.10668 6.45577 2.46023 5.48736 3.01255 4.6634C3.35152 5.23982 4.1174 5.73299 5.11637 6.0627C5.05955 6.52404 5.02251 7.00491 5.00753 7.5ZM5.00754 8.5C5.02315 9.0162 5.06275 9.51695 5.12375 9.99622C4.12682 10.3538 3.38726 10.8786 3.11463 11.4841C2.50385 10.6292 2.11188 9.6072 2.02054 8.5H5.00754ZM6.00805 8.5H9.99195C9.97917 8.89549 9.95132 9.28287 9.90949 9.65809C9.37765 9.55589 8.79562 9.5 8.17857 9.5C7.44797 9.5 6.74147 9.57835 6.09746 9.71916C6.05175 9.32495 6.02153 8.91699 6.00805 8.5ZM9.99195 7.5H6.00805C6.02112 7.0958 6.04991 6.70007 6.0933 6.31714C6.68957 6.43505 7.3348 6.5 8 6.5C8.68528 6.5 9.32736 6.43107 9.90548 6.30632C9.94955 6.69262 9.97876 7.09199 9.99195 7.5ZM10.9925 8.5H13.9795C13.8886 9.60094 13.5006 10.6176 12.8957 11.4696C12.6369 10.8233 11.911 10.2701 10.8862 9.91602C10.9416 9.46118 10.9777 8.98748 10.9925 8.5ZM13.9795 7.5H10.9925C10.977 6.99035 10.9383 6.49576 10.8786 6.02203C11.8972 5.63503 12.5896 5.04376 12.7729 4.36367C13.448 5.24835 13.8826 6.32628 13.9795 7.5ZM4 12C4 11.6863 4.49384 11.2986 5.28787 10.9959C5.50773 12.0776 5.84296 13.0069 6.25646 13.6971C5.82839 13.5595 5.42764 13.3788 5.07335 13.1634C4.3728 12.7373 4 12.2592 4 12ZM6.79782 12.5558C6.57011 12.0245 6.38487 11.3988 6.25041 10.7101C6.827 10.5807 7.48269 10.5 8.17857 10.5C8.75584 10.5 9.28863 10.5546 9.76173 10.6471C9.62636 11.3606 9.43682 12.0083 9.20218 12.5558C8.79818 13.4985 8.3435 13.9664 8.03343 13.9983C8.00426 13.9976 7.97509 13.9966 7.94593 13.9955C7.63656 13.9456 7.19295 13.4778 6.79782 12.5558ZM11.4842 12.8853C10.951 13.2662 10.3529 13.5621 9.7096 13.7529C10.149 13.0407 10.5029 12.0613 10.7282 10.9157C11.5266 11.2157 12 11.6312 12 12C12 12.2785 11.8118 12.5913 11.4842 12.8853Z" fill="black"/>
</svg>
