<svg width="16" height="16" viewBox="0 0 16 16" fill="none" xmlns="http://www.w3.org/2000/svg">
<path d="M8 1.25C5.92893 1.25 4.25 2.92893 4.25 5C4.25 6.11973 4.74094 7.12476 5.51855 7.8116C3.5855 8.73777 2.25 10.7127 2.25 13C2.25 13.9665 3.0335 14.75 4 14.75H12C12.9665 14.75 13.75 13.9665 13.75 13C13.75 10.7127 12.4145 8.73777 10.4815 7.8116C11.2591 7.12476 11.75 6.11973 11.75 5C11.75 2.92893 10.0711 1.25 8 1.25ZM5.75 5C5.75 3.75736 6.75736 2.75 8 2.75C9.24264 2.75 10.25 3.75736 10.25 5C10.25 6.24264 9.24264 7.25 8 7.25C6.75736 7.25 5.75 6.24264 5.75 5ZM3.75 13C3.75 10.6528 5.65279 8.75 8 8.75C10.3472 8.75 12.25 10.6528 12.25 13C12.25 13.1381 12.1381 13.25 12 13.25H4C3.86193 13.25 3.75 13.1381 3.75 13Z" fill="black"/>
<path d="M12.2727 3.26331L11.8827 3.22487L12.0123 3.59474C12.1243 3.91454 12.1991 4.25188 12.2316 4.60168L12.2466 4.7634L12.4005 4.8154C12.8947 4.98243 13.25 5.45002 13.25 5.99994C13.25 6.69029 12.6904 7.24994 12 7.24994C11.9303 7.24994 11.8622 7.24426 11.7959 7.23339L11.6362 7.20721L11.5469 7.34215C11.5164 7.38831 11.485 7.43385 11.4527 7.47873L11.303 7.6869L11.5149 7.83129C11.9251 8.11077 12.3003 8.43789 12.6327 8.80469L12.6757 8.85213L12.7362 8.87307C13.6176 9.17812 14.25 10.0155 14.25 10.9999V11.2499H14.0101L14.0827 11.5574C14.1558 11.8666 14.2059 12.1848 14.2311 12.5101L14.2514 12.7715L14.5115 12.7388C15.2099 12.651 15.75 12.0554 15.75 11.3333V10.9999C15.75 9.67869 15.0666 8.5174 14.035 7.84964C14.479 7.36139 14.75 6.71222 14.75 5.99994C14.75 4.57314 13.6636 3.40039 12.2727 3.26331Z" fill="black"/>
<path d="M3.98775 3.59474L4.11728 3.22487L3.72728 3.26331C2.3364 3.40039 1.25 4.57314 1.25 5.99994C1.25 6.71221 1.52102 7.36139 1.96502 7.84964C0.933358 8.5174 0.25 9.67869 0.25 10.9999V11.3333C0.25 12.0554 0.79008 12.651 1.48847 12.7388L1.74865 12.7715L1.76891 12.5101C1.79412 12.1848 1.84421 11.8666 1.91727 11.5574L1.98991 11.2499H1.75V10.9999C1.75 10.0155 2.38236 9.17812 3.26379 8.87307L3.32429 8.85213L3.36728 8.80469C3.69965 8.43789 4.07493 8.11077 4.48511 7.83128L4.69701 7.6869L4.5473 7.47872C4.51503 7.43384 4.48361 7.38831 4.45306 7.34215L4.36378 7.20721L4.20411 7.2334C4.13784 7.24426 4.06968 7.24994 4 7.24994C3.30964 7.24994 2.75 6.69029 2.75 5.99994C2.75 5.45002 3.10526 4.98243 3.59952 4.8154L3.75338 4.7634L3.7684 4.60168C3.80089 4.25188 3.87575 3.91454 3.98775 3.59474Z" fill="black"/>
</svg>
