<svg width="16" height="16" viewBox="0 0 16 16" fill="none" xmlns="http://www.w3.org/2000/svg">
<path d="M8.75 1.75C8.75 1.33579 8.41421 1 8 1C7.58579 1 7.25 1.33579 7.25 1.75V6.75C7.25 7.16421 7.58579 7.5 8 7.5C8.41421 7.5 8.75 7.16421 8.75 6.75V1.75Z" fill="black"/>
<path d="M1.25 8.75002C1.25 6.09973 2.77742 3.80619 5 2.70166V4.44104C3.63989 5.38975 2.75 6.96596 2.75 8.75002C2.75 11.6495 5.10051 14 8 14C10.8995 14 13.25 11.6495 13.25 8.75002C13.25 6.96596 12.3601 5.38975 11 4.44104V2.70166C13.2226 3.80619 14.75 6.09973 14.75 8.75002C14.75 12.4779 11.7279 15.5 8 15.5C4.27208 15.5 1.25 12.4779 1.25 8.75002Z" fill="black"/>
</svg>
