<svg width="16" height="16" viewBox="0 0 16 16" fill="none" xmlns="http://www.w3.org/2000/svg">
<path d="M11.6625 3.73372C11.7354 4.05297 11.7605 4.406 11.7432 4.79756L11.2437 4.77552C11.2591 4.42604 11.2372 4.117 11.1751 3.84504L11.6625 3.73372Z" fill="black"/>
<path d="M10.2331 2.05939C10.6092 2.2152 10.9133 2.42718 11.1478 2.69371L10.7724 3.02401C10.5898 2.81649 10.349 2.64864 10.0417 2.52131L10.2331 2.05939Z" fill="black"/>
<path d="M9.16636 1.79014C8.98534 1.76677 8.79409 1.75084 8.59233 1.74243L8.14171 1.73575L8.09713 1.73609L8.102 2.23607L8.28052 2.23546C8.57813 2.23669 8.85209 2.25371 9.10232 2.28603L9.16636 1.79014Z" fill="black"/>
<path d="M6.0649 1.915C6.39032 1.85634 6.72917 1.81254 7.07956 1.78285L7.12178 2.28106C6.78652 2.30947 6.46314 2.35127 6.15361 2.40707L6.0649 1.915Z" fill="black"/>
<path d="M5.05228 2.16057C4.70597 2.26904 4.38317 2.39882 4.08585 2.55095L4.3136 2.99607C4.58483 2.85729 4.88149 2.73801 5.20173 2.63771L5.05228 2.16057Z" fill="black"/>
<path d="M2.48263 3.94527C2.67745 3.64672 2.91479 3.3794 3.1919 3.14265L3.51668 3.52281C3.2752 3.72911 3.06964 3.96063 2.90136 4.21852L2.48263 3.94527Z" fill="black"/>
<path d="M1.99954 5.04001C1.913 5.36525 1.86285 5.71372 1.85002 6.08565L2.34972 6.10288C2.36128 5.76787 2.40605 5.45671 2.48273 5.16858L1.99954 5.04001Z" fill="black"/>
<path d="M2.2365 8.09964C2.0771 7.80433 1.96546 7.46386 1.90357 7.06752L2.39759 6.99038C2.4509 7.33187 2.54476 7.61808 2.6765 7.86215L2.2365 8.09964Z" fill="black"/>
<path d="M2.95498 8.94551L3.06236 9.02891L3.41961 9.27706L3.61631 9.40771C3.68104 9.45133 3.7345 9.48865 3.7833 9.52458L4.07975 9.12194L3.86946 8.97587L3.46642 8.70467C3.39436 8.65368 3.32942 8.60503 3.26842 8.55595L2.95498 8.94551Z" fill="black"/>
<path d="M4.21863 10.9702C4.29797 10.6591 4.31528 10.4117 4.27974 10.2126L4.77196 10.1247C4.82117 10.4004 4.79894 10.7181 4.69032 11.1313L4.64261 11.2445L4.17997 11.0548L4.21863 10.9702Z" fill="black"/>
<path d="M3.88511 12.0766C3.82348 12.5223 3.8796 12.9057 4.06171 13.2242L4.49576 12.976C4.37295 12.7612 4.33297 12.4881 4.3804 12.1451L3.88511 12.0766Z" fill="black"/>
<path d="M6.05284 14.2086C5.65073 14.1618 5.30651 14.0845 5.01727 13.9746L5.1948 13.5072C5.44221 13.6012 5.74692 13.6696 6.11058 13.7119L6.05284 14.2086Z" fill="black"/>
<path d="M7.19019 14.2624C7.70576 14.2567 7.96153 14.2045 8.27594 14.0592L8.06617 13.6053C7.81928 13.7194 7.63278 13.7575 7.18464 13.7625L7.19019 14.2624Z" fill="black"/>
<path d="M14.4358 6.89786C14.712 6.41957 14.5481 5.80798 14.0698 5.53184L13.6368 5.28184C13.1585 5.0057 12.5469 5.16957 12.2708 5.64786L11.7708 6.51389L13.9358 7.76389L14.4358 6.89786ZM13.8198 5.96485L13.8936 6.01676C14.0744 6.17005 14.1255 6.43529 14.0028 6.64786L13.753 7.0802L12.454 6.3302L12.7038 5.89786L12.7557 5.82406C12.909 5.64322 13.1742 5.59212 13.3868 5.71485L13.8198 5.96485Z" fill="black"/>
<path d="M13.6858 8.1969L11.2226 12.4633C11.0352 12.7879 10.7603 13.0533 10.4294 13.2293L9.55969 13.6916C9.42423 13.7636 9.27059 13.767 9.13855 13.714L9.06223 13.6756C8.98915 13.6305 8.92671 13.5661 8.8835 13.4848C8.84786 13.4177 8.82796 13.3435 8.8253 13.2676L8.79084 12.2833C8.77772 11.9087 8.87014 11.5379 9.05756 11.2133L11.5208 6.9469L13.6858 8.1969ZM13.003 8.37924L11.704 7.62924L9.49057 11.4633C9.37812 11.6581 9.31127 11.875 9.29406 12.0978L9.29053 12.2658L9.325 13.2501L10.1947 12.7878C10.3932 12.6822 10.5649 12.5337 10.6976 12.3539L10.7896 12.2133L13.003 8.37924Z" fill="black"/>
</svg>
