<svg width="16" height="16" viewBox="0 0 16 16" fill="none" xmlns="http://www.w3.org/2000/svg">
<path d="M14.6667 9.33331H14C14 6.75331 11.9133 4.66665 9.33332 4.66665H8.66666V3.81998C9.06666 3.59331 9.33332 3.15998 9.33332 2.66665C9.33332 1.93331 8.73999 1.33331 7.99999 1.33331C7.25999 1.33331 6.66666 1.93331 6.66666 2.66665C6.66666 3.15998 6.93332 3.59331 7.33332 3.81998V4.66665H6.66666C4.08666 4.66665 1.99999 6.75331 1.99999 9.33331H1.33332C0.966657 9.33331 0.666656 9.63331 0.666656 9.99998V12C0.666656 12.3666 0.966657 12.6666 1.33332 12.6666H1.99999V13.3333C1.99999 14.0733 2.59999 14.6666 3.33332 14.6666H12.6667C13.4067 14.6666 14 14.0733 14 13.3333V12.6666H14.6667C15.0333 12.6666 15.3333 12.3666 15.3333 12V9.99998C15.3333 9.63331 15.0333 9.33331 14.6667 9.33331ZM14 11.3333H12.6667V13.3333H3.33332V11.3333H1.99999V10.6666H3.33332V9.33331C3.33332 7.49331 4.82666 5.99998 6.66666 5.99998H9.33332C11.1733 5.99998 12.6667 7.49331 12.6667 9.33331V10.6666H14V11.3333ZM5.66666 8.99998L7.23999 10.5733L6.45332 11.36L5.66666 10.5733L4.87999 11.36L4.09332 10.5733L5.66666 8.99998ZM10.3333 8.99998L11.9067 10.5733L11.12 11.36L10.3333 10.5733L9.54666 11.36L8.75999 10.5733L10.3333 8.99998Z" fill="black"/>
</svg>
