<svg width="16" height="16" viewBox="0 0 16 16" fill="none" xmlns="http://www.w3.org/2000/svg">
<path d="M15.2727 8.00002C15.2727 12.0166 12.0166 15.2727 7.99999 15.2727C3.98338 15.2727 0.727264 12.0166 0.727264 8.00002C0.727264 3.98341 3.98338 0.727295 7.99999 0.727295C12.0166 0.727295 15.2727 3.98341 15.2727 8.00002ZM13.807 8.36366H10.5408C10.5249 8.97504 10.4697 9.54074 10.3863 10.0617C11.0346 10.2023 11.5721 10.3881 12.0031 10.5757C12.4105 10.7531 12.7216 10.9316 12.9405 11.0743C13.4366 10.2788 13.7459 9.35481 13.807 8.36366ZM9.81324 8.36366H6.18675C6.20221 8.92968 6.25329 9.45257 6.32973 9.93336C6.83216 9.86137 7.38844 9.8182 7.99999 9.8182C8.61155 9.8182 9.16782 9.86137 9.67026 9.93336C9.7467 9.45257 9.79777 8.92968 9.81324 8.36366ZM10.5408 7.63639H13.807C13.7459 6.64523 13.4366 5.72122 12.9405 4.92571C12.7216 5.0684 12.4105 5.24698 12.0031 5.42434C11.5721 5.612 11.0346 5.79773 10.3863 5.93832C10.4697 6.4593 10.5249 7.025 10.5408 7.63639ZM9.67026 6.06669C9.16782 6.13868 8.61155 6.18184 7.99999 6.18184C7.38844 6.18184 6.83216 6.13868 6.32973 6.06669C6.25329 6.54748 6.20221 7.07036 6.18675 7.63639H9.81324C9.79777 7.07036 9.7467 6.54747 9.67026 6.06669ZM10.2489 5.22392C10.8421 5.09412 11.3284 4.92488 11.7128 4.75752C12.0639 4.60466 12.331 4.4529 12.5175 4.3332C11.6675 3.2873 10.4616 2.5423 9.08426 2.28269C9.19196 2.45832 9.30364 2.65566 9.41511 2.87512C9.72537 3.48594 10.0331 4.26631 10.2489 5.22392ZM8.14185 2.18354C8.0947 2.18241 8.04741 2.18184 7.99999 2.18184C7.95257 2.18184 7.90528 2.18241 7.85813 2.18354C7.67863 2.42607 7.45647 2.76509 7.23329 3.20447C6.95266 3.75697 6.66952 4.46987 6.46786 5.35171C6.92757 5.41592 7.43777 5.45457 7.99999 5.45457C8.56221 5.45457 9.07241 5.41592 9.53212 5.35171C9.33047 4.46987 9.04732 3.75697 8.76669 3.20447C8.54351 2.76509 8.32135 2.42607 8.14185 2.18354ZM9.53212 10.6483C9.07241 10.5841 8.56221 10.5455 7.99999 10.5455C7.43777 10.5455 6.92757 10.5841 6.46786 10.6483C6.66952 11.5302 6.95266 12.2431 7.23329 12.7956C7.45647 13.235 7.67863 13.574 7.85813 13.8165C7.90528 13.8176 7.95257 13.8182 7.99999 13.8182C8.04741 13.8182 8.0947 13.8176 8.14185 13.8165C8.32135 13.574 8.54351 13.235 8.76669 12.7956C9.04732 12.2431 9.33047 11.5302 9.53212 10.6483ZM9.08426 13.7174C10.4616 13.4577 11.6675 12.7127 12.5175 11.6668C12.331 11.5471 12.0639 11.3954 11.7128 11.2425C11.3284 11.0752 10.8421 10.9059 10.2489 10.7761C10.0331 11.7337 9.72537 12.5141 9.41511 13.1249C9.30364 13.3444 9.19196 13.5417 9.08426 13.7174ZM3.99688 10.5757C4.4279 10.3881 4.96539 10.2023 5.61373 10.0617C5.53026 9.54074 5.47504 8.97504 5.45922 8.36366H2.19299C2.25411 9.35481 2.56338 10.2788 3.05944 11.0743C3.27836 10.9316 3.58951 10.7531 3.99688 10.5757ZM5.45922 7.63639C5.47504 7.025 5.53026 6.4593 5.61373 5.93832C4.96539 5.79773 4.4279 5.61199 3.99688 5.42434C3.58951 5.24698 3.27836 5.0684 3.05944 4.92571C2.56338 5.72122 2.25411 6.64523 2.19299 7.63639H5.45922ZM6.58487 2.87512C6.69634 2.65566 6.80802 2.45832 6.91572 2.28269C5.53839 2.5423 4.33247 3.2873 3.48249 4.3332C3.66899 4.4529 3.93608 4.60466 4.28719 4.75752C4.67159 4.92488 5.15793 5.09411 5.75109 5.22392C5.96693 4.26631 6.27461 3.48594 6.58487 2.87512ZM6.58487 13.1249C6.27461 12.5141 5.96693 11.7337 5.75109 10.7761C5.15793 10.9059 4.67159 11.0752 4.28719 11.2425C3.93608 11.3954 3.66899 11.5471 3.48249 11.6668C4.33248 12.7127 5.53839 13.4577 6.91572 13.7174C6.80802 13.5417 6.69634 13.3444 6.58487 13.1249Z" fill="black"/>
</svg>
