<svg width="16" height="17" viewBox="0 0 16 17" fill="none" xmlns="http://www.w3.org/2000/svg">
<path d="M13.2222 15.1712C13.7745 15.1712 14.2222 14.7235 14.2222 14.1712V3.72675C14.2222 3.17446 13.7745 2.72675 13.2222 2.72675H5.63761C5.26008 2.72675 4.90513 2.90661 4.68187 3.21106L2.00722 6.85831C1.85815 7.06159 1.77777 7.3071 1.77777 7.55919V14.1712C1.77777 14.7235 2.22549 15.1712 2.77777 15.1712H13.2222ZM13.6296 14.1712C13.6296 14.3962 13.4472 14.5786 13.2222 14.5786H11.8519V9.83787C11.8519 9.51059 11.5865 9.24528 11.2593 9.24528H4.74074C4.41346 9.24528 4.14815 9.51059 4.14815 9.83787V14.5786H2.77777C2.55277 14.5786 2.37036 14.3962 2.37036 14.1712V7.55919C2.37036 7.43314 2.41055 7.31039 2.48509 7.20875L5.15974 3.56149C5.27137 3.40927 5.44884 3.31934 5.63761 3.31934H6.51852V6.87489C6.51852 7.20217 6.78384 7.46749 7.11112 7.46749H11.2593C11.5865 7.46749 11.8519 7.20217 11.8519 6.87489V3.31934H13.2222C13.4472 3.31934 13.6296 3.50174 13.6296 3.72675V14.1712ZM11.2593 14.5786H4.74074V9.83787L11.2593 9.83787V14.5786ZM7.11112 3.31934H11.2593V6.87489L7.11112 6.87489V3.31934Z" fill="black"/>
</svg>
