<svg width="16" height="16" viewBox="0 0 16 16" fill="none" xmlns="http://www.w3.org/2000/svg">
<path d="M4.36364 3.25C5.11675 3.25 5.72727 3.85761 5.72727 4.60714C5.72727 4.86808 5.65328 5.11181 5.52504 5.3187L7.05693 6.72472C7.32083 6.5311 7.64699 6.41667 8 6.41667C8.35302 6.41667 8.67919 6.5311 8.94309 6.72474L10.4751 5.31893C10.3468 5.112 10.2727 4.86818 10.2727 4.60714C10.2727 3.85761 10.8832 3.25 11.6364 3.25C12.3895 3.25 13 3.85761 13 4.60714C13 5.35667 12.3895 5.96429 11.6364 5.96429C11.3266 5.96429 11.041 5.86151 10.8121 5.68835L9.29515 7.08029C9.48134 7.33954 9.59091 7.65703 9.59091 8C9.59091 8.34296 9.48134 8.66046 9.29515 8.91971L10.8121 10.3116C11.041 10.1385 11.3266 10.0357 11.6364 10.0357C12.3895 10.0357 13 10.6433 13 11.3929C13 12.1424 12.3895 12.75 11.6364 12.75C10.8832 12.75 10.2727 12.1424 10.2727 11.3929C10.2727 11.1318 10.3468 10.888 10.4751 10.681L8.9431 9.27526C8.67919 9.4689 8.35302 9.58333 8 9.58333C7.647 9.58333 7.32085 9.46891 7.05695 9.2753L5.52515 10.6815C5.65332 10.8883 5.72727 11.132 5.72727 11.3929C5.72727 12.1424 5.11675 12.75 4.36364 12.75C3.61052 12.75 3 12.1424 3 11.3929C3 10.6433 3.61052 10.0357 4.36364 10.0357C4.67355 10.0357 4.95932 10.1386 5.18833 10.3119L6.70489 8.91976C6.51867 8.6605 6.40909 8.34299 6.40909 8C6.40909 7.65702 6.51866 7.33952 6.70487 7.08026L5.18816 5.68818C4.95918 5.86144 4.67348 5.96429 4.36364 5.96429C3.61052 5.96429 3 5.35667 3 4.60714C3 3.85761 3.61052 3.25 4.36364 3.25ZM4.36364 3.75C3.88613 3.75 3.5 4.13429 3.5 4.60714C3.5 5.07999 3.88613 5.46429 4.36364 5.46429C4.84114 5.46429 5.22727 5.07999 5.22727 4.60714C5.22727 4.13429 4.84114 3.75 4.36364 3.75ZM6.90909 8C6.90909 8.59777 7.39697 9.08333 8 9.08333C8.60303 9.08333 9.09091 8.59777 9.09091 8C9.09091 7.40223 8.60303 6.91667 8 6.91667C7.39697 6.91667 6.90909 7.40223 6.90909 8ZM4.36364 10.5357C3.88613 10.5357 3.5 10.92 3.5 11.3929C3.5 11.8657 3.88613 12.25 4.36364 12.25C4.84114 12.25 5.22727 11.8657 5.22727 11.3929C5.22727 10.92 4.84114 10.5357 4.36364 10.5357ZM10.7727 11.3929C10.7727 11.8657 11.1589 12.25 11.6364 12.25C12.1139 12.25 12.5 11.8657 12.5 11.3929C12.5 10.92 12.1139 10.5357 11.6364 10.5357C11.1589 10.5357 10.7727 10.92 10.7727 11.3929ZM11.6364 3.75C11.1589 3.75 10.7727 4.13429 10.7727 4.60714C10.7727 5.07999 11.1589 5.46429 11.6364 5.46429C12.1139 5.46429 12.5 5.07999 12.5 4.60714C12.5 4.13429 12.1139 3.75 11.6364 3.75Z" fill="black"/>
</svg>
