<svg width="16" height="16" viewBox="0 0 16 16" fill="none" xmlns="http://www.w3.org/2000/svg">
<path fill-rule="evenodd" clip-rule="evenodd" d="M11.5 3C12.3284 3 13 3.67157 13 4.5V11.5C13 12.3284 12.3284 13 11.5 13H4.5C3.67157 13 3 12.3284 3 11.5V4.5C3 3.67157 3.67157 3 4.5 3H11.5ZM11.5 3.5H4.5C3.98716 3.5 3.56449 3.88604 3.50673 4.38338L3.5 4.5V11.5C3.5 12.0128 3.88604 12.4355 4.38338 12.4933L4.5 12.5H11.5C12.0128 12.5 12.4355 12.114 12.4933 11.6166L12.5 11.5V4.5C12.5 3.98716 12.114 3.56449 11.6166 3.50673L11.5 3.5ZM8 4.75V5.25H5.5C5.38165 5.25 5.28251 5.33223 5.2566 5.44268L5.25 5.5V8H4.75V5.5C4.75 5.1203 5.03215 4.80651 5.39823 4.75685L5.5 4.75H8ZM11.25 8V10.5C11.25 10.8797 10.9678 11.1935 10.6018 11.2432L10.5 11.25H8V10.75H10.5C10.6183 10.75 10.7175 10.6678 10.7434 10.5573L10.75 10.5V8H11.25Z" fill="black"/>
</svg>
