<svg width="16" height="16" viewBox="0 0 16 16" fill="none" xmlns="http://www.w3.org/2000/svg">
<path d="M14.6614 5.13809C14.879 5.52239 14.8364 6.07102 14.5616 6.41594L8.41867 14.0808C8.37444 14.1357 8.31858 14.1733 8.26312 14.2106C8.25119 14.2186 8.23928 14.2267 8.2275 14.2348L8.21214 14.2845L8.17887 14.2742C8.05344 14.3495 7.91858 14.4 7.77351 14.4C7.63012 14.4 7.49615 14.3512 7.37239 14.2785L7.33314 14.2913L7.31438 14.2314C7.30101 14.2218 7.2875 14.2125 7.27401 14.2033C7.2212 14.1669 7.16877 14.1309 7.12662 14.0791L1.03579 6.36634C0.761848 6.01798 0.721733 5.46933 0.941067 5.0876L2.81345 1.83082C3.02253 1.46533 3.48081 1.20001 3.9024 1.20001H11.689C12.1097 1.20001 12.5663 1.46619 12.7762 1.83252L14.6614 5.13809ZM13.4607 4.89158L12.1848 2.65591L11.1855 4.89158H13.4607ZM11.4142 2.12265H8.94524L10.4695 4.23593L11.4142 2.12265ZM7.80936 2.12265H7.75901L5.76202 4.89156H9.80635L7.80936 2.12265ZM4.15332 2.12267L5.09889 4.23595L6.62309 2.12267H4.15332ZM9.8089 5.81427L5.59473 5.81425L7.75986 12.6009L9.8089 5.81427ZM4.38288 4.89158L3.39122 2.67476L2.11537 4.89158H4.38288ZM1.77401 5.81425L6.56335 11.8785L4.62866 5.81425H1.77401ZM10.7707 5.81425L8.90087 12.0052L13.843 5.83822C13.8453 5.8354 13.8461 5.83051 13.8469 5.82553C13.8476 5.82146 13.8483 5.81734 13.8498 5.81425H10.7707Z" fill="black"/>
</svg>
