<svg width="16" height="16" viewBox="0 0 16 16" fill="none" xmlns="http://www.w3.org/2000/svg">
<path d="M5.87748 11.6C5.74826 10.8298 5.07838 10.2429 4.27143 10.2429C3.37199 10.2429 2.64286 10.972 2.64286 11.8714C2.64286 12.7709 3.37199 13.5 4.27143 13.5C5.07839 13.5 5.74826 12.9131 5.87748 12.1429L10.2654 12.1429C10.3946 12.9131 11.0645 13.5 11.8714 13.5C12.7709 13.5 13.5 12.7709 13.5 11.8714C13.5 10.972 12.7709 10.2429 11.8714 10.2429C11.2902 10.2429 10.78 10.5474 10.4918 11.0056L5.78876 8.39277C5.86058 8.20907 5.9 8.00914 5.9 7.8C5.9 6.90056 5.17086 6.17143 4.27143 6.17143C3.37199 6.17143 2.64286 6.90056 2.64286 7.8C2.64286 8.69943 3.37199 9.42857 4.27143 9.42857C4.76678 9.42857 5.21048 9.20742 5.50917 8.85846L10.283 11.5106C10.2763 11.5401 10.2704 11.5699 10.2654 11.6H5.87748ZM4.27143 10.7857C4.87105 10.7857 5.35714 11.2718 5.35714 11.8714C5.35714 12.471 4.87105 12.9571 4.27143 12.9571C3.67181 12.9571 3.18571 12.471 3.18571 11.8714C3.18571 11.2718 3.67181 10.7857 4.27143 10.7857ZM5.35714 7.8C5.35714 8.39962 4.87105 8.88571 4.27143 8.88571C3.67181 8.88571 3.18571 8.39962 3.18571 7.8C3.18571 7.20037 3.67181 6.71428 4.27143 6.71428C4.87105 6.71428 5.35714 7.20037 5.35714 7.8ZM11.8714 10.7857C12.4711 10.7857 12.9571 11.2718 12.9571 11.8714C12.9571 12.471 12.4711 12.9571 11.8714 12.9571C11.2718 12.9571 10.7857 12.471 10.7857 11.8714C10.7857 11.2718 11.2718 10.7857 11.8714 10.7857Z" fill="black"/>
<path d="M4.27143 2.1C5.07838 2.1 5.74826 2.6869 5.87748 3.45714L10.2654 3.45714C10.3946 2.6869 11.0645 2.1 11.8714 2.1C12.7709 2.1 13.5 2.82914 13.5 3.72857C13.5 4.62801 12.7709 5.35714 11.8714 5.35714C11.0645 5.35714 10.3946 4.77023 10.2654 4L5.87748 4C5.83036 4.2809 5.71132 4.53742 5.53995 4.74998L10.3169 7.31321C10.5238 6.65156 11.1416 6.17143 11.8714 6.17143C12.7709 6.17143 13.5 6.90056 13.5 7.8C13.5 8.69943 12.7709 9.42857 11.8714 9.42857C11.0025 9.42857 10.2925 8.74805 10.2454 7.89091L5.10082 5.13042C4.85789 5.27445 4.57432 5.35714 4.27143 5.35714C3.37199 5.35714 2.64286 4.62801 2.64286 3.72857C2.64286 2.82914 3.37199 2.1 4.27143 2.1ZM5.35714 3.72857C5.35714 3.12895 4.87105 2.64286 4.27143 2.64286C3.67181 2.64286 3.18571 3.12895 3.18571 3.72857C3.18571 4.32819 3.6718 4.81428 4.27143 4.81428C4.87105 4.81428 5.35714 4.32819 5.35714 3.72857ZM12.9571 7.8C12.9571 7.20037 12.4711 6.71428 11.8714 6.71428C11.2718 6.71428 10.7857 7.20037 10.7857 7.8C10.7857 8.39962 11.2718 8.88571 11.8714 8.88571C12.4711 8.88571 12.9571 8.39962 12.9571 7.8ZM11.8714 2.64286C11.2718 2.64286 10.7857 3.12895 10.7857 3.72857C10.7857 4.32819 11.2718 4.81428 11.8714 4.81428C12.4711 4.81428 12.9571 4.32819 12.9571 3.72857C12.9571 3.12895 12.4711 2.64286 11.8714 2.64286Z" fill="black"/>
</svg>
