<svg width="16" height="16" viewBox="0 0 16 16" fill="none" xmlns="http://www.w3.org/2000/svg">
<path d="M8 4.24997C7.58579 4.24997 7.25 4.58576 7.25 4.99997V6.74997H5.5C5.08579 6.74997 4.75 7.08576 4.75 7.49997C4.75 7.91419 5.08579 8.24997 5.5 8.24997H7.25V9.99997C7.25 10.4142 7.58579 10.75 8 10.75C8.41421 10.75 8.75 10.4142 8.75 9.99997V8.24997H10.5C10.9142 8.24997 11.25 7.91419 11.25 7.49997C11.25 7.08576 10.9142 6.74997 10.5 6.74997H8.75V4.99997C8.75 4.58576 8.41421 4.24997 8 4.24997Z" fill="black"/>
<path d="M14.25 2.81978L8 0.73645L1.75 2.81978V6.7185C1.75 9.47692 3.12858 12.0528 5.42372 13.5829L8 15.3004L10.5763 13.5829C12.8714 12.0528 14.25 9.47692 14.25 6.7185V2.81978ZM3.25 6.7185V3.90092L8 2.31759L12.75 3.90092V6.7185C12.75 8.97539 11.6221 11.0829 9.74423 12.3348L8 13.4977L6.25577 12.3348C4.37793 11.0829 3.25 8.97539 3.25 6.7185Z" fill="black"/>
</svg>
