<svg width="16" height="16" viewBox="0 0 16 16" fill="none" xmlns="http://www.w3.org/2000/svg">
<path d="M5.72804 5.44907C5.74714 5.54883 5.75714 5.65182 5.75714 5.75714C5.75714 5.87223 5.74521 5.98452 5.7225 6.09285L10.2176 7.59121C10.4587 6.99335 11.0444 6.57143 11.7286 6.57143C12.628 6.57143 13.3571 7.30056 13.3571 8.2C13.3571 9.09943 12.628 9.82857 11.7286 9.82857C11.0399 9.82857 10.4511 9.40116 10.213 8.79715L5.72422 10.044C5.74581 10.1498 5.75714 10.2593 5.75714 10.3714C5.75714 10.3931 5.75672 10.4147 5.75588 10.4362L10.213 11.6743C10.4511 11.0703 11.0399 10.6429 11.7286 10.6429C12.628 10.6429 13.3571 11.372 13.3571 12.2714C13.3571 13.1709 12.628 13.9 11.7286 13.9C10.8291 13.9 10.1 13.1709 10.1 12.2714C10.1 12.2497 10.1004 12.2281 10.1013 12.2067L5.64418 10.9686C5.40601 11.5726 4.8172 12 4.12857 12C3.22914 12 2.5 11.2709 2.5 10.3714C2.5 9.47199 3.22914 8.74286 4.12857 8.74286C4.72241 8.74286 5.24201 9.06069 5.52654 9.53553L10.1013 8.26477C10.1004 8.24328 10.1 8.22169 10.1 8.2C10.1 8.17479 10.1006 8.14972 10.1017 8.1248L5.52318 6.59863C5.23792 7.07037 4.72007 7.38572 4.12857 7.38572C3.22914 7.38572 2.5 6.65658 2.5 5.75714C2.5 4.85771 3.22914 4.12857 4.12857 4.12857C4.72659 4.12857 5.24933 4.4509 5.53252 4.93131L10.1005 4.16998C10.1002 4.15622 10.1 4.14241 10.1 4.12857C10.1 3.22914 10.8291 2.5 11.7286 2.5C12.628 2.5 13.3571 3.22914 13.3571 4.12857C13.3571 5.02801 12.628 5.75714 11.7286 5.75714C11.0313 5.75714 10.4365 5.31901 10.2042 4.70304L5.72804 5.44907ZM4.12857 4.67143C3.52895 4.67143 3.04286 5.15752 3.04286 5.75714C3.04286 6.35677 3.52895 6.84286 4.12857 6.84286C4.7282 6.84286 5.21429 6.35677 5.21429 5.75714C5.21429 5.15752 4.7282 4.67143 4.12857 4.67143ZM5.21429 10.3714C5.21429 9.7718 4.7282 9.28571 4.12857 9.28571C3.52895 9.28571 3.04286 9.7718 3.04286 10.3714C3.04286 10.9711 3.52895 11.4571 4.12857 11.4571C4.7282 11.4571 5.21429 10.9711 5.21429 10.3714ZM11.7286 11.1857C11.1289 11.1857 10.6429 11.6718 10.6429 12.2714C10.6429 12.8711 11.1289 13.3571 11.7286 13.3571C12.3282 13.3571 12.8143 12.871 12.8143 12.2714C12.8143 11.6718 12.3282 11.1857 11.7286 11.1857ZM12.8143 8.2C12.8143 7.60038 12.3282 7.11429 11.7286 7.11429C11.1289 7.11429 10.6429 7.60038 10.6429 8.2C10.6429 8.79962 11.1289 9.28571 11.7286 9.28571C12.3282 9.28571 12.8143 8.79962 12.8143 8.2ZM11.7286 3.04286C11.1289 3.04286 10.6429 3.52895 10.6429 4.12857C10.6429 4.72819 11.1289 5.21429 11.7286 5.21429C12.3282 5.21429 12.8143 4.72819 12.8143 4.12857C12.8143 3.52895 12.3282 3.04286 11.7286 3.04286Z" fill="black"/>
</svg>
