<svg width="16" height="16" viewBox="0 0 16 16" fill="none" xmlns="http://www.w3.org/2000/svg">
<path d="M8.07142 4.9492C8.76304 4.82163 9.28696 4.21548 9.28696 3.48696C9.28696 2.66573 8.62122 2 7.8 2C6.97878 2 6.31304 2.66573 6.31304 3.48696C6.31304 4.21548 6.83696 4.82163 7.52857 4.9492V6.48559C6.92496 6.59692 6.44909 7.0728 6.33776 7.6764H5.22759L4.66602 6.74046C4.91882 6.47391 5.07391 6.11376 5.07391 5.7174C5.07391 4.89617 4.40818 4.23044 3.58695 4.23044C2.76573 4.23044 2.1 4.89617 2.1 5.7174C2.1 6.53862 2.76573 7.20435 3.58695 7.20435C3.81538 7.20435 4.03177 7.15285 4.22516 7.06081L4.75737 7.94783L4.22516 8.83485C4.03178 8.74281 3.81538 8.69131 3.58695 8.69131C2.76573 8.69131 2.1 9.35704 2.1 10.1783C2.1 10.9995 2.76573 11.6652 3.58695 11.6652C4.40818 11.6652 5.07391 10.9995 5.07391 10.1783C5.07391 9.7819 4.91883 9.42175 4.66602 9.1552L5.22759 8.21926H6.33776C6.44909 8.82286 6.92496 9.29874 7.52857 9.41007V10.9465C6.83696 11.074 6.31304 11.6802 6.31304 12.4087C6.31304 13.2299 6.97878 13.8957 7.8 13.8957C8.62122 13.8957 9.28696 13.2299 9.28696 12.4087C9.28696 11.6802 8.76304 11.074 8.07142 10.9465V9.41007C8.67503 9.29874 9.15091 8.82287 9.26224 8.21926H10.3724L10.934 9.1552C10.6812 9.42175 10.5261 9.7819 10.5261 10.1783C10.5261 10.9995 11.1918 11.6652 12.013 11.6652C12.8343 11.6652 13.5 10.9995 13.5 10.1783C13.5 9.35704 12.8343 8.69131 12.013 8.69131C11.7846 8.69131 11.5682 8.74281 11.3748 8.83485L10.8426 7.94783L11.3748 7.06081C11.5682 7.15285 11.7846 7.20435 12.013 7.20435C12.8343 7.20435 13.5 6.53862 13.5 5.7174C13.5 4.89617 12.8343 4.23044 12.013 4.23044C11.1918 4.23044 10.5261 4.89617 10.5261 5.7174C10.5261 6.11376 10.6812 6.47391 10.934 6.74046L10.3724 7.6764H9.26224C9.15091 7.07279 8.67503 6.59692 8.07142 6.48559V4.9492ZM8.7441 3.48696C8.7441 4.00837 8.32141 4.43106 7.8 4.43106C7.27859 4.43106 6.8559 4.00837 6.8559 3.48696C6.8559 2.96554 7.27859 2.54286 7.8 2.54286C8.32141 2.54286 8.7441 2.96554 8.7441 3.48696ZM7.8 13.3528C7.27859 13.3528 6.8559 12.9301 6.8559 12.4087C6.8559 11.8873 7.27859 11.4646 7.8 11.4646C8.32141 11.4646 8.7441 11.8873 8.7441 12.4087C8.7441 12.9301 8.32141 13.3528 7.8 13.3528ZM12.9571 5.7174C12.9571 6.23881 12.5345 6.6615 12.013 6.6615C11.4916 6.6615 11.0689 6.23881 11.0689 5.7174C11.0689 5.19598 11.4916 4.7733 12.013 4.7733C12.5345 4.7733 12.9571 5.19598 12.9571 5.7174ZM12.013 11.1224C11.4916 11.1224 11.0689 10.6997 11.0689 10.1783C11.0689 9.65685 11.4916 9.23416 12.013 9.23416C12.5345 9.23416 12.9571 9.65685 12.9571 10.1783C12.9571 10.6997 12.5345 11.1224 12.013 11.1224ZM4.53105 5.7174C4.53105 6.23881 4.10837 6.6615 3.58695 6.6615C3.06554 6.6615 2.64285 6.23881 2.64285 5.7174C2.64285 5.19598 3.06554 4.7733 3.58695 4.7733C4.10837 4.7733 4.53105 5.19598 4.53105 5.7174ZM7.8 8.89193C7.27859 8.89193 6.8559 8.46924 6.8559 7.94783C6.8559 7.42642 7.27859 7.00373 7.8 7.00373C8.32141 7.00373 8.7441 7.42642 8.7441 7.94783C8.7441 8.46924 8.32141 8.89193 7.8 8.89193ZM4.53105 10.1783C4.53105 10.6997 4.10837 11.1224 3.58695 11.1224C3.06554 11.1224 2.64285 10.6997 2.64285 10.1783C2.64285 9.65685 3.06554 9.23416 3.58695 9.23416C4.10837 9.23416 4.53105 9.65685 4.53105 10.1783Z" fill="black"/>
</svg>
