<svg width="16" height="17" viewBox="0 0 16 17" fill="none" xmlns="http://www.w3.org/2000/svg">
<path d="M9.87129 11.2392C9.06659 11.9463 8.01132 12.375 6.8559 12.375C4.33186 12.375 2.28572 10.3289 2.28572 7.80486C2.28572 5.28082 4.33186 3.23468 6.8559 3.23468C9.37994 3.23468 11.4261 5.28082 11.4261 7.80486C11.4261 8.96023 10.9974 10.0155 10.2903 10.8201L13.7219 14.2518L13.3029 14.6708L9.87129 11.2392ZM10.8335 7.80486C10.8335 5.6081 9.05266 3.82727 6.8559 3.82727C4.65914 3.82727 2.87831 5.6081 2.87831 7.80486C2.87831 10.0016 4.65914 11.7824 6.8559 11.7824C9.05266 11.7824 10.8335 10.0016 10.8335 7.80486Z" fill="black"/>
</svg>
