<svg width="16" height="16" viewBox="0 0 16 16" fill="none" xmlns="http://www.w3.org/2000/svg">
<path d="M8.35294 10.9734V11.8137H7.64706V10.9734H6.72269V10.6036H7.64706V10.1386L7.64146 10.133H6.72269V9.7633H7.43417L6.35854 7.81372H7.15406L8 9.49999L8.84594 7.81372H9.64146L8.56583 9.7633H9.28291V10.133H8.35854L8.35294 10.1386V10.6036H9.28291V10.9734H8.35294Z" fill="black"/>
<path d="M5.5 3.49999C5.5 4.29479 5.87089 5.00296 6.44904 5.46087C4.66165 6.32508 2.375 8.312 2.375 10.625C2.375 13.0814 3.94951 13.7633 6.14434 13.9412L6.53791 13.9676L6.9432 13.9851L7.35903 13.9952L8 14L8.64097 13.9952L9.0568 13.9851L9.46209 13.9676L9.85566 13.9412C12.0505 13.7633 13.625 13.0814 13.625 10.625C13.625 8.312 11.3383 6.32508 9.55096 5.46087C10.1291 5.00296 10.5 4.29479 10.5 3.49999C10.5 2.11928 9.5 1.99999 8 2.49999C6.5 1.99999 5.5 2.11928 5.5 3.49999ZM9.5 3.49999C9.5 4.32842 8.82843 4.99999 8 4.99999C7.17157 4.99999 6.5 4.32842 6.5 3.49999C6.5 3.20897 6.54235 3.11884 7.00701 3.23902L7.23312 3.30342L7.51758 3.39374L8 3.55408L8.31623 3.44868L8.63236 3.34533L8.88681 3.26799L9.08623 3.21648C9.40544 3.14562 9.4807 3.20418 9.4963 3.3876L9.5 3.49999ZM3.375 10.625C3.375 8.57797 6.46158 5.99999 8 5.99999C9.53842 5.99999 12.625 8.57797 12.625 10.625C12.625 12.2295 11.8806 12.8159 9.51049 12.9611L9.04682 12.9833C8.96629 12.9861 8.88412 12.9886 8.80029 12.9907L8.27704 12.999H7.72296C7.63234 12.9983 7.54345 12.9973 7.45625 12.9959L6.95318 12.9833L6.48951 12.9611C4.11937 12.8159 3.375 12.2295 3.375 10.625Z" fill="black"/>
</svg>
