<svg width="16" height="16" viewBox="0 0 16 16" fill="none" xmlns="http://www.w3.org/2000/svg">
<path d="M13.5 7.58333C13.5 4.77589 11.2241 2.5 8.41667 2.5C5.77184 2.5 3.59878 4.51986 3.3559 7.10116L4.94466 6.04199L5.22201 6.45801L3.014 7.93002L1.54199 5.72201L1.95801 5.44466L2.88336 6.83268C3.25003 4.10406 5.58763 2 8.41667 2C11.5003 2 14 4.49974 14 7.58333C14 10.6669 11.5003 13.1667 8.41667 13.1667C6.92993 13.1667 5.57845 12.5852 4.57809 11.6379L4.92191 11.2748C5.8331 12.1378 7.06285 12.6667 8.41667 12.6667C11.2241 12.6667 13.5 10.3908 13.5 7.58333Z" fill="black"/>
<path d="M8.75006 3.91662V7.67379L7.02544 9.74333L6.64133 9.42324L8.25006 7.49277V3.91662H8.75006Z" fill="black"/>
</svg>
