<svg width="16" height="16" viewBox="0 0 16 16" fill="none" xmlns="http://www.w3.org/2000/svg">
<path d="M3 1.45001C2.14396 1.45001 1.45 2.14397 1.45 3.00001V12C1.45 12.8561 2.14396 13.55 3 13.55H7.76393C7.83379 13.55 7.90269 13.5663 7.96518 13.5975L10.6485 14.9392C11.5221 15.376 12.55 14.7407 12.55 13.7639C12.55 13.6458 12.6458 13.55 12.7639 13.55H13C13.856 13.55 14.55 12.8561 14.55 12V3.00001C14.55 2.14397 13.856 1.45001 13 1.45001H3ZM2.55 3.00001C2.55 2.75148 2.75147 2.55001 3 2.55001H13C13.2485 2.55001 13.45 2.75148 13.45 3.00001V12C13.45 12.2485 13.2485 12.45 13 12.45H12.7639C12.0383 12.45 11.45 13.0383 11.45 13.7639C11.45 13.923 11.2826 14.0264 11.1404 13.9553L8.45711 12.6137C8.24188 12.506 8.00456 12.45 7.76393 12.45H3C2.75147 12.45 2.55 12.2485 2.55 12V3.00001ZM4.74749 10.5L5.29811 8.9611H7.75867L8.28348 10.5H9.57399L7.35431 4.5H5.72828L3.5 10.5H4.74749ZM6.58861 5.58069L7.39733 7.94092H5.65085L6.48537 5.58069H6.58861ZM11.5 10.5V4.5H10.2869V10.5H11.5Z" fill="black"/>
</svg>
