<svg width="16" height="16" viewBox="0 0 16 16" fill="none" xmlns="http://www.w3.org/2000/svg">
<path d="M5.87291 10.5396L10.5396 5.87291L10.1271 5.46043L5.46043 10.1271L5.87291 10.5396Z" fill="black"/>
<path d="M5.53388 12.1699L4.99504 11.9464C5.05175 11.8097 5.08334 11.6593 5.08334 11.5C5.08334 11.3407 5.05175 11.1903 4.99504 11.0536L5.53388 10.8301C5.61945 11.0365 5.66667 11.2627 5.66667 11.5C5.66667 11.7373 5.61945 11.9635 5.53388 12.1699Z" fill="black"/>
<path d="M4.58655 9.88279L4.3631 10.4216C4.22635 10.3649 4.07594 10.3333 3.91667 10.3333C3.75741 10.3333 3.60699 10.3649 3.47024 10.4216L3.24679 9.88279C3.45313 9.79723 3.67939 9.75 3.91667 9.75C4.15396 9.75 4.38021 9.79723 4.58655 9.88279Z" fill="black"/>
<path d="M2.29946 10.8301C2.2139 11.0365 2.16667 11.2627 2.16667 11.5C2.16667 11.7373 2.2139 11.9635 2.29946 12.1699L2.8383 11.9464C2.78159 11.8097 2.75001 11.6593 2.75001 11.5C2.75001 11.3407 2.78159 11.1903 2.8383 11.0536L2.29946 10.8301Z" fill="black"/>
<path d="M3.24679 13.1172L3.47024 12.5784C3.60699 12.6351 3.75741 12.6667 3.91667 12.6667C4.07594 12.6667 4.22635 12.6351 4.3631 12.5784L4.58655 13.1172C4.38021 13.2028 4.15396 13.25 3.91667 13.25C3.67939 13.25 3.45313 13.2028 3.24679 13.1172Z" fill="black"/>
<path d="M13.7005 4.58655C13.7861 4.38021 13.8333 4.15395 13.8333 3.91667C13.8333 3.67938 13.7861 3.45313 13.7005 3.24679L13.1617 3.47024C13.2184 3.60699 13.25 3.7574 13.25 3.91667C13.25 4.07593 13.2184 4.22635 13.1617 4.3631L13.7005 4.58655Z" fill="black"/>
<path d="M12.7532 2.29946C12.5469 2.21389 12.3206 2.16667 12.0833 2.16667C11.846 2.16667 11.6198 2.21389 11.4134 2.29946L11.6369 2.8383C11.7736 2.78159 11.9241 2.75 12.0833 2.75C12.2426 2.75 12.393 2.78159 12.5298 2.8383L12.7532 2.29946Z" fill="black"/>
<path d="M10.3333 3.91667C10.3333 3.67938 10.3806 3.45313 10.4661 3.24679L11.005 3.47024C10.9483 3.60699 10.9167 3.7574 10.9167 3.91667C10.9167 4.07593 10.9483 4.22635 11.005 4.3631L10.4661 4.58655C10.3806 4.38021 10.3333 4.15395 10.3333 3.91667Z" fill="black"/>
<path d="M11.4134 5.53388C11.6198 5.61944 11.846 5.66667 12.0833 5.66667C12.3206 5.66667 12.5469 5.61944 12.7532 5.53388L12.5298 4.99504C12.393 5.05174 12.2426 5.08333 12.0833 5.08333C11.9241 5.08333 11.7736 5.05174 11.6369 4.99504L11.4134 5.53388Z" fill="black"/>
<path d="M1 2.75C1 1.7835 1.7835 1 2.75 1H13.25C14.2165 1 15 1.7835 15 2.75V13.25C15 14.2165 14.2165 15 13.25 15H2.75C1.7835 15 1 14.2165 1 13.25V2.75ZM2.75 1.58333C2.10567 1.58333 1.58333 2.10567 1.58333 2.75V13.25C1.58333 13.8943 2.10567 14.4167 2.75 14.4167H13.25C13.8943 14.4167 14.4167 13.8943 14.4167 13.25V2.75C14.4167 2.10567 13.8943 1.58333 13.25 1.58333H2.75Z" fill="black"/>
</svg>
