<svg width="16" height="16" viewBox="0 0 16 16" fill="none" xmlns="http://www.w3.org/2000/svg">
<path d="M0.988342 0.988327H5.20001V1.57166H1.57168V5.19999H0.988342V0.988327Z" fill="black"/>
<path d="M14.4283 1.57166H10.8V0.988327H15.0117V5.19999H14.4283V1.57166Z" fill="black"/>
<path d="M1.57168 14.4283V10.8H0.988342V15.0117H5.20001V14.4283H1.57168Z" fill="black"/>
<path d="M14.4283 14.4283V10.8H15.0117V15.0117H10.8V14.4283H14.4283Z" fill="black"/>
<path d="M10.016 8.33599C10.016 9.4494 9.11341 10.352 8.00001 10.352C6.8866 10.352 5.98401 9.4494 5.98401 8.33599C5.98401 7.22259 6.8866 6.31999 8.00001 6.31999C9.11341 6.31999 10.016 7.22259 10.016 8.33599ZM9.43268 8.33599C9.43268 7.54475 8.79125 6.90333 8.00001 6.90333C7.20877 6.90333 6.56734 7.54475 6.56734 8.33599C6.56734 9.12723 7.20877 9.76866 8.00001 9.76866C8.79125 9.76866 9.43268 9.12723 9.43268 8.33599Z" fill="black"/>
<path d="M2.62401 8.33599C2.62401 8.33599 5.03093 12.032 8.00001 12.032C10.9691 12.032 13.376 8.33599 13.376 8.33599C13.376 8.33599 10.9691 4.63999 8.00001 4.63999C5.03093 4.63999 2.62401 8.33599 2.62401 8.33599ZM3.33901 8.33599C3.3873 8.2712 3.44286 8.19825 3.5053 8.11872C3.76493 7.78802 4.13963 7.34851 4.60032 6.91096C5.54398 6.01469 6.74682 5.22333 8.00001 5.22333C9.2532 5.22333 10.456 6.01469 11.3997 6.91096C11.8604 7.34851 12.2351 7.78802 12.4947 8.11872C12.5572 8.19824 12.6127 8.2712 12.661 8.336C12.6127 8.40079 12.5572 8.47374 12.4947 8.55327C12.2351 8.88397 11.8604 9.32347 11.3997 9.76103C10.456 10.6573 9.2532 11.4487 8.00001 11.4487C6.74682 11.4487 5.54398 10.6573 4.60032 9.76103C4.13963 9.32347 3.76493 8.88397 3.5053 8.55327C3.44286 8.47374 3.3873 8.40079 3.33901 8.33599Z" fill="black"/>
</svg>
