<svg width="16" height="16" viewBox="0 0 16 16" fill="none" xmlns="http://www.w3.org/2000/svg">
<path d="M3.22222 2.49999V12.7778H13.3889V13.2222H2.77777V2.49999H3.22222Z" fill="black"/>
<path d="M9.33333 3.55555C8.59695 3.55555 8 4.15251 8 4.88889C8 5.62527 8.59695 6.22222 9.33333 6.22222C10.0697 6.22222 10.6667 5.62527 10.6667 4.88889C10.6667 4.15251 10.0697 3.55555 9.33333 3.55555ZM8.44444 4.88889C8.44444 4.39797 8.84241 4 9.33333 4C9.82425 4 10.2222 4.39797 10.2222 4.88889C10.2222 5.37981 9.82425 5.77778 9.33333 5.77778C8.84241 5.77778 8.44444 5.37981 8.44444 4.88889Z" fill="black"/>
<path d="M5.77777 6.22222C5.28685 6.22222 4.88889 6.62019 4.88889 7.11111C4.88889 7.60203 5.28685 8 5.77777 8C6.26869 8 6.66666 7.60203 6.66666 7.11111C6.66666 6.62019 6.26869 6.22222 5.77777 6.22222ZM5.33333 7.11111C5.33333 6.86565 5.53231 6.66667 5.77777 6.66667C6.02323 6.66667 6.22222 6.86565 6.22222 7.11111C6.22222 7.35657 6.02323 7.55555 5.77777 7.55555C5.53231 7.55555 5.33333 7.35657 5.33333 7.11111Z" fill="black"/>
<path d="M10.6667 9.77778C10.6667 9.28686 11.0646 8.88889 11.5556 8.88889C12.0465 8.88889 12.4444 9.28686 12.4444 9.77778C12.4444 10.2687 12.0465 10.6667 11.5556 10.6667C11.0646 10.6667 10.6667 10.2687 10.6667 9.77778ZM11.5556 10.2222C11.801 10.2222 12 10.0232 12 9.77778C12 9.53232 11.801 9.33333 11.5556 9.33333C11.3101 9.33333 11.1111 9.53232 11.1111 9.77778C11.1111 10.0232 11.3101 10.2222 11.5556 10.2222Z" fill="black"/>
<path d="M12.5894 6.39064L9.1077 9.38777L8.01493 7.97675L4.15459 11.7152L3.8454 11.3959L8.06236 7.31213L9.17249 8.74556L12.2995 6.0538L12.5894 6.39064Z" fill="black"/>
</svg>
