<svg width="16" height="16" viewBox="0 0 16 16" fill="none" xmlns="http://www.w3.org/2000/svg">
<path d="M12.5 3.5H7.5V2.5H12.5V3.5Z" fill="black"/>
<path d="M3.5 12.5V13.5H8.5V12.5H3.5Z" fill="black"/>
<path fill-rule="evenodd" clip-rule="evenodd" d="M10 6H6C5.44772 6 5 5.55228 5 5V1C5 0.447715 5.44772 0 6 0H14C14.5523 0 15 0.447715 15 1V5C15 5.55228 14.5523 6 14 6H11V7C11 7.82843 10.3284 8.5 9.5 8.5H6.5C6.22386 8.5 6 8.72386 6 9V10H10C10.5523 10 11 10.4477 11 11V15C11 15.5523 10.5523 16 10 16H2C1.44772 16 1 15.5523 1 15V11C1 10.4477 1.44772 10 2 10H5V9C5 8.17157 5.67157 7.5 6.5 7.5H9.5C9.77614 7.5 10 7.27614 10 7V6ZM6 1H14V5H6V1ZM2 11H10V15H2V11Z" fill="black"/>
</svg>
