<svg width="16" height="16" viewBox="0 0 16 16" fill="none" xmlns="http://www.w3.org/2000/svg">
<path fill-rule="evenodd" clip-rule="evenodd" d="M6.51858 1.75338C9.06906 1.75338 11.15 3.76352 11.2637 6.28595L11.2686 6.50338H10.7686C10.7686 4.15617 8.86579 2.25338 6.51858 2.25338C4.17137 2.25338 2.26858 4.15617 2.26858 6.50338C2.26858 8.78155 4.06108 10.6411 6.31266 10.7485L6.51858 10.7534V11.2534C3.89523 11.2534 1.76858 9.12673 1.76858 6.50338C1.76858 3.88003 3.89523 1.75338 6.51858 1.75338ZM6.76858 5.00338L6.768 6.253L8.01858 6.25338V6.75338L6.768 6.753L6.76858 8.00338H6.26858L6.268 6.753L5.01858 6.75338V6.25338L6.268 6.253L6.26858 5.00338H6.76858ZM9.05913 7.54507C9.16133 7.5328 9.26432 7.5604 9.34669 7.62212L13.6172 10.8223C13.7939 10.9548 13.8299 11.2055 13.6974 11.3823C13.665 11.4255 13.6241 11.4618 13.5773 11.4888L12.4281 12.1514L13.1888 13.4671C13.2993 13.6584 13.2337 13.903 13.0424 14.0135L12.3969 14.3862C12.2056 14.4966 11.961 14.4311 11.8505 14.2398L11.0901 12.9239L9.94303 13.5871C9.75172 13.6975 9.50708 13.632 9.39662 13.4406C9.36959 13.3938 9.35233 13.342 9.34589 13.2883L8.70967 7.98991C8.68334 7.77057 8.83979 7.57141 9.05913 7.54507ZM9.23366 8.16232L9.82351 13.078L11.2728 12.2407L12.2327 13.9029L12.7047 13.6304L11.7447 11.9683L13.1958 11.131L9.23366 8.16232Z" fill="black"/>
</svg>
