<svg width="16" height="17" viewBox="0 0 16 17" fill="none" xmlns="http://www.w3.org/2000/svg">
<path d="M6.4 15.0442C6.4 16.0962 7.25279 16.949 8.30476 16.949C9.35673 16.949 10.2095 16.0962 10.2095 15.0442C10.2095 13.9922 9.35673 13.1395 8.30476 13.1395C7.25279 13.1395 6.4 13.9922 6.4 15.0442Z" fill="black"/>
<path d="M8.30476 10.8537C7.25279 10.8537 6.4 10.0009 6.4 8.94898C6.4 7.897 7.25279 7.04421 8.30476 7.04421C9.35673 7.04421 10.2095 7.897 10.2095 8.94898C10.2095 10.0009 9.35673 10.8537 8.30476 10.8537Z" fill="black"/>
<path d="M8.30476 4.7585C7.25278 4.7585 6.39999 3.90571 6.39999 2.85374C6.39999 1.80177 7.25279 0.948975 8.30476 0.948975C9.35673 0.948975 10.2095 1.80177 10.2095 2.85374C10.2095 3.90571 9.35673 4.7585 8.30476 4.7585Z" fill="black"/>
</svg>
