<svg width="16" height="16" viewBox="0 0 16 16" fill="none" xmlns="http://www.w3.org/2000/svg">
<path d="M9.27834 2.57996C10.0515 2.57996 10.6783 3.20676 10.6783 3.97996C10.6783 4.75315 10.0515 5.37996 9.27834 5.37996C8.86506 5.37996 8.4936 5.20088 8.23733 4.91609L4.29969 7.54118C4.32389 7.61013 4.34285 7.68155 4.35608 7.75496H11.7506C11.8685 7.10104 12.4405 6.60496 13.1283 6.60496C13.9015 6.60496 14.5283 7.23176 14.5283 8.00496C14.5283 8.77815 13.9015 9.40496 13.1283 9.40496C12.4405 9.40496 11.8685 8.90887 11.7506 8.25496H4.35608C4.34001 8.3441 4.3155 8.43031 4.28341 8.51274L8.2168 11.3535C8.47354 11.0552 8.85388 10.8663 9.27834 10.8663C10.0515 10.8663 10.6783 11.4931 10.6783 12.2663C10.6783 13.0395 10.0515 13.6663 9.27834 13.6663C8.50514 13.6663 7.87834 13.0395 7.87834 12.2663C7.87834 12.0978 7.9081 11.9363 7.96264 11.7867L4.0206 8.93969C3.76429 9.22529 3.39229 9.40496 2.97834 9.40496C2.20514 9.40496 1.57834 8.77815 1.57834 8.00496C1.57834 7.23176 2.20514 6.60496 2.97834 6.60496C3.40921 6.60496 3.79462 6.7996 4.05144 7.10576L7.97434 4.49049C7.91237 4.33231 7.87834 4.16011 7.87834 3.97996C7.87834 3.20676 8.50514 2.57996 9.27834 2.57996ZM9.27834 3.07996C8.78128 3.07996 8.37834 3.4829 8.37834 3.97996C8.37834 4.47701 8.78128 4.87996 9.27834 4.87996C9.7754 4.87996 10.1783 4.47701 10.1783 3.97996C10.1783 3.4829 9.7754 3.07996 9.27834 3.07996ZM2.07834 8.00496C2.07834 8.50201 2.48128 8.90496 2.97834 8.90496C3.47539 8.90496 3.87834 8.50201 3.87834 8.00496C3.87834 7.5079 3.47539 7.10496 2.97834 7.10496C2.48128 7.10496 2.07834 7.5079 2.07834 8.00496ZM12.2283 8.00496C12.2283 8.50201 12.6313 8.90496 13.1283 8.90496C13.6254 8.90496 14.0283 8.50201 14.0283 8.00496C14.0283 7.5079 13.6254 7.10496 13.1283 7.10496C12.6313 7.10496 12.2283 7.5079 12.2283 8.00496ZM9.27834 11.3663C8.78128 11.3663 8.37834 11.7693 8.37834 12.2663C8.37834 12.7634 8.78128 13.1663 9.27834 13.1663C9.7754 13.1663 10.1783 12.7634 10.1783 12.2663C10.1783 11.7693 9.7754 11.3663 9.27834 11.3663Z" fill="black"/>
</svg>
