<svg width="16" height="16" viewBox="0 0 16 16" fill="none" xmlns="http://www.w3.org/2000/svg">
<path d="M2.2 8.00001C2.2 4.79678 4.79677 2.20001 8 2.20001C11.2032 2.20001 13.8 4.79678 13.8 8.00001C13.8 11.2032 11.2032 13.8 8 13.8C4.79677 13.8 2.2 11.2032 2.2 8.00001ZM12.7825 8.00001C12.7825 5.35847 10.6415 3.21756 8 3.21756C5.35845 3.21756 3.21754 5.35847 3.21754 8.00001C3.21754 10.6416 5.35845 12.7825 8 12.7825C10.6415 12.7825 12.7825 10.6416 12.7825 8.00001ZM8.41638 9.33869V9.22473C8.41638 9.02855 8.45708 8.85719 8.53848 8.69398C8.61215 8.54704 8.71838 8.40825 8.86532 8.28574C9.25687 7.94303 9.49375 7.72243 9.56742 7.64102C9.76279 7.37972 9.86943 7.04515 9.86943 6.63691C9.86943 6.13872 9.70581 5.74717 9.37938 5.46144C9.05295 5.16758 8.62029 5.02878 8.08995 5.02878C7.48593 5.02878 7.01217 5.20014 6.66132 5.54285C6.30233 5.88596 6.13057 6.35932 6.13057 6.96334H7.06141C7.06141 6.62063 7.12654 6.35118 7.26533 6.16355C7.4204 5.93481 7.67357 5.82857 8.03256 5.82857C8.31014 5.82857 8.53075 5.90184 8.68582 6.05732C8.83235 6.21239 8.91416 6.42445 8.91416 6.69389C8.91416 6.89822 8.8409 7.09399 8.69396 7.27349L8.59587 7.38745C8.06512 7.86122 7.74683 8.20393 7.64101 8.42453C7.52664 8.64473 7.47739 8.91417 7.47739 9.22432V9.33869H8.41638ZM8.39195 10.7999C8.26944 10.9143 8.1221 10.9712 7.94301 10.9712C7.76311 10.9712 7.61618 10.9057 7.49407 10.7917C7.37115 10.6774 7.31417 10.5304 7.31417 10.3509C7.31417 10.1715 7.37156 10.0245 7.49407 9.90974C7.61618 9.79577 7.76311 9.73879 7.94301 9.73879C8.12251 9.73879 8.27758 9.79618 8.40009 9.91015C8.51406 10.0245 8.57918 10.1715 8.57918 10.3509C8.57918 10.5304 8.51406 10.6859 8.39195 10.7999Z" fill="black"/>
</svg>
