<svg width="16" height="16" viewBox="0 0 16 16" fill="none" xmlns="http://www.w3.org/2000/svg">
<path d="M6.95221 4.75C5.15728 4.75 3.70221 6.20507 3.70221 8C3.70221 9.79493 5.15728 11.25 6.95221 11.25C8.74714 11.25 10.2022 9.79493 10.2022 8C10.2022 6.20507 8.74714 4.75 6.95221 4.75ZM6.95221 5.25C8.47099 5.25 9.70221 6.48122 9.70221 8C9.70221 9.51878 8.47099 10.75 6.95221 10.75C5.43343 10.75 4.20221 9.51878 4.20221 8C4.20221 6.48122 5.43343 5.25 6.95221 5.25Z" fill="black"/>
<path d="M12.2978 8C12.2978 6.48878 11.258 5.18703 9.80797 4.83944L9.69141 5.32567L9.85645 5.37071C10.996 5.72017 11.7978 6.77944 11.7978 8C11.7978 9.28007 10.9159 10.3826 9.68773 10.6752L9.80361 11.1616L9.98295 11.1134C11.3408 10.7067 12.2978 9.44983 12.2978 8Z" fill="black"/>
</svg>
