<svg width="16" height="16" viewBox="0 0 16 16" fill="none" xmlns="http://www.w3.org/2000/svg">
<path d="M9.56379 2.45776C9.56955 2.40468 9.57244 2.35455 9.57244 2.30147C9.57244 2.25134 9.56955 2.19826 9.56379 2.14519C9.55875 2.09878 9.5515 2.05462 9.54398 2.00878C9.5429 2.00219 9.54181 1.99557 9.54073 1.9889C9.53208 1.93582 9.51766 1.88569 9.50325 1.83556C9.48883 1.78543 9.47154 1.73531 9.45136 1.68813C9.43118 1.64094 9.411 1.59376 9.38505 1.54658C9.35911 1.4994 9.33316 1.45517 9.30433 1.41094C9.27551 1.36671 9.2438 1.32543 9.21209 1.28415C9.18038 1.24582 9.14578 1.20747 9.1083 1.16914C9.07083 1.13081 9.03335 1.09542 8.99299 1.06298C8.95263 1.0276 8.91227 0.998112 8.86903 0.968624C8.82579 0.939136 8.78254 0.912597 8.73642 0.889007C8.69029 0.862468 8.64417 0.841827 8.59516 0.821185C8.54615 0.800544 8.49714 0.782851 8.44814 0.768107C8.39913 0.753363 8.35012 0.738619 8.29823 0.729773C8.24922 0.717978 8.19733 0.71208 8.14544 0.706183C8.04198 0.694415 7.93756 0.694415 7.8341 0.706183C7.78509 0.71208 7.7332 0.720926 7.68131 0.729773C7.67352 0.731648 7.66565 0.733524 7.65773 0.735411C7.61587 0.745394 7.57262 0.755708 7.5314 0.768107C7.48239 0.782851 7.43338 0.800544 7.38438 0.821185C7.33537 0.841827 7.28924 0.865417 7.24312 0.889007C7.19699 0.912597 7.15375 0.939136 7.11051 0.968624C7.06727 0.998112 7.02691 1.03055 6.98655 1.06298C6.98384 1.06535 6.98115 1.06771 6.97847 1.07006C6.94117 1.10274 6.9062 1.13337 6.87123 1.16914C6.83664 1.20453 6.79916 1.24286 6.76745 1.28414C6.73574 1.32542 6.70403 1.36671 6.6752 1.41094C6.64637 1.45517 6.62043 1.4994 6.59448 1.54658C6.57142 1.59376 6.54836 1.64094 6.52818 1.68813C6.508 1.73531 6.4907 1.78543 6.47629 1.83556C6.46187 1.88569 6.45034 1.93582 6.43881 1.9889C6.42728 2.04198 6.42151 2.09211 6.41575 2.14519C6.40424 2.24904 6.40424 2.3539 6.41575 2.45776C6.42151 2.51083 6.42728 2.56391 6.43881 2.61404C6.44746 2.66712 6.46187 2.71725 6.47629 2.76738C6.4907 2.81751 6.508 2.86764 6.52818 2.91482C6.54836 2.962 6.56854 3.00918 6.59448 3.05636C6.62043 3.10354 6.64637 3.14777 6.6752 3.192C6.70403 3.23623 6.73574 3.27751 6.76745 3.31879C6.79916 3.35713 6.83376 3.39547 6.87123 3.4338C6.90871 3.47213 6.94619 3.50752 6.98655 3.53996C7.02691 3.57534 7.06727 3.60483 7.11051 3.63432C7.15375 3.6638 7.19699 3.69034 7.24312 3.71393C7.28924 3.74047 7.33537 3.76111 7.38438 3.78176C7.43338 3.8024 7.48239 3.82009 7.5314 3.83483C7.58041 3.84958 7.62942 3.86432 7.68131 3.87317C7.73031 3.88496 7.7822 3.89086 7.8341 3.89676C7.93756 3.90853 8.04198 3.90853 8.14544 3.89676C8.19444 3.89086 8.24633 3.88202 8.29821 3.87317C8.306 3.8713 8.31388 3.86942 8.3218 3.86753C8.36366 3.85755 8.40692 3.84723 8.44814 3.83483C8.49714 3.82009 8.54615 3.8024 8.59516 3.78176C8.64417 3.76111 8.69029 3.73752 8.73642 3.71393C8.78254 3.69034 8.82579 3.6638 8.86903 3.63432C8.91227 3.60483 8.95263 3.57239 8.99299 3.53996C8.9957 3.53758 8.99839 3.53522 9.00108 3.53287C9.03838 3.50019 9.07334 3.46956 9.1083 3.4338C9.1429 3.39841 9.18037 3.36008 9.21208 3.3188C9.24379 3.27752 9.27551 3.23623 9.30433 3.192C9.33316 3.14777 9.35911 3.10354 9.38505 3.05636C9.40811 3.00918 9.43118 2.96199 9.45136 2.91482C9.47154 2.86764 9.48883 2.81751 9.50325 2.76738C9.51537 2.72522 9.52545 2.68097 9.53521 2.63815C9.53706 2.63005 9.53889 2.62201 9.54073 2.61404C9.55226 2.56096 9.55802 2.51083 9.56379 2.45776ZM11.6308 7.6476L11.9219 8.62954C12.0113 8.92442 11.8585 9.24584 11.5673 9.34904C11.5501 9.35494 11.5299 9.36084 11.5126 9.36379C11.4953 9.36674 11.478 9.36968 11.4578 9.37263C11.4477 9.37263 11.4383 9.37337 11.429 9.37411C11.4196 9.37484 11.4102 9.37558 11.4001 9.37558C11.3868 9.37753 11.3747 9.3769 11.3622 9.37625C11.3558 9.37592 11.3493 9.37558 11.3425 9.37558C11.3223 9.37558 11.3021 9.37263 11.2848 9.36968C11.2827 9.36932 11.2805 9.36896 11.2783 9.36859C11.2626 9.36596 11.2452 9.36306 11.2301 9.35789C11.2099 9.35199 11.1926 9.3461 11.1753 9.3402C11.158 9.3343 11.1407 9.32545 11.1234 9.31661C11.1061 9.30776 11.0917 9.29891 11.0744 9.28712C11.0571 9.27827 11.0427 9.26648 11.0283 9.25468C11.0138 9.24289 10.9994 9.23109 10.985 9.21635C10.9735 9.20456 10.9591 9.1898 10.9475 9.17507C10.9418 9.1677 10.936 9.15959 10.9302 9.15148C10.9245 9.14337 10.9187 9.13526 10.9129 9.12788C10.9086 9.11904 10.9036 9.11093 10.8985 9.10282C10.8935 9.09471 10.8884 9.0866 10.8841 9.07776C10.8798 9.06891 10.8762 9.06006 10.8726 9.05121C10.869 9.04237 10.8654 9.03352 10.8611 9.02468C10.8524 9.00698 10.8466 8.98929 10.8409 8.9716L10.1173 6.54181L10.0567 6.33539L10.0395 6.30001C10.0337 6.28821 10.025 6.27642 10.0164 6.26757C10.0105 6.25957 10.0033 6.25293 9.99662 6.24672C9.99343 6.24378 9.99035 6.24093 9.98756 6.23809C9.97891 6.22924 9.96738 6.22039 9.95585 6.2145L9.92126 6.1968C9.90973 6.19091 9.8982 6.18796 9.88378 6.18501C9.86937 6.18206 9.85784 6.18206 9.84342 6.18206C9.82901 6.18206 9.81748 6.18206 9.80306 6.18501C9.79153 6.18501 9.77712 6.18796 9.76558 6.19385C9.76174 6.19582 9.7579 6.19746 9.75405 6.1991C9.74637 6.20237 9.73868 6.20565 9.73099 6.21155C9.72523 6.21597 9.72018 6.21966 9.71514 6.22334C9.71009 6.22703 9.70505 6.23071 9.69928 6.23514C9.69057 6.23959 9.68351 6.2474 9.67685 6.25477C9.67469 6.25716 9.67257 6.25951 9.67045 6.26168C9.6618 6.27052 9.65315 6.28232 9.64739 6.29411L9.63009 6.3295C9.62526 6.33938 9.62246 6.35133 9.61998 6.36188C9.6195 6.36392 9.61903 6.36592 9.61856 6.36783C9.61568 6.37963 9.61568 6.39142 9.61568 6.40617C9.61568 6.42091 9.61856 6.43565 9.62144 6.4504L10.8611 10.6082C10.8668 10.6259 10.8697 10.6436 10.8726 10.6612C10.8755 10.6789 10.8784 10.6966 10.8784 10.7143V10.7674C10.8784 10.7851 10.8755 10.8028 10.8726 10.8205C10.8697 10.8382 10.8668 10.8559 10.8611 10.8736C10.8592 10.8847 10.8551 10.8947 10.8509 10.905C10.8484 10.911 10.8459 10.9171 10.8438 10.9237C10.838 10.9384 10.8293 10.9561 10.8207 10.9709C10.812 10.9856 10.8034 11.0004 10.7919 11.0151C10.7803 11.0298 10.7688 11.0446 10.7573 11.0564C10.7457 11.0682 10.7342 11.08 10.7198 11.0918C10.7054 11.1036 10.691 11.1154 10.6766 11.1242C10.6694 11.1286 10.6614 11.133 10.6535 11.1375C10.6456 11.1419 10.6376 11.1463 10.6304 11.1507C10.6131 11.1596 10.5987 11.1655 10.5814 11.1714C10.5641 11.1773 10.5468 11.1832 10.5295 11.1861L10.4776 11.195C10.4603 11.1979 10.443 11.1979 10.4258 11.1979H9.57532V14.4681C9.57532 14.937 9.27551 15.3026 8.89497 15.3026C8.51444 15.3026 8.21463 14.937 8.21463 14.4681V11.1979H7.76203V14.4652C7.76203 14.934 7.46221 15.2997 7.08168 15.2997C6.70115 15.2997 6.40133 14.934 6.40133 14.4652V11.195H5.57973C5.56243 11.195 5.54514 11.195 5.52784 11.192L5.47595 11.1832C5.45865 11.1802 5.44135 11.1743 5.42406 11.1684C5.40677 11.1625 5.38946 11.1566 5.37505 11.1478C5.35775 11.1389 5.34334 11.1301 5.32892 11.1213C5.32291 11.1163 5.3164 11.1119 5.31001 11.1076C5.30109 11.1016 5.2924 11.0957 5.28568 11.0888C5.27992 11.0829 5.27343 11.077 5.26694 11.0711C5.26046 11.0652 5.25397 11.0593 5.24821 11.0534C5.24244 11.0461 5.23667 11.0394 5.23091 11.0328C5.22514 11.0262 5.21938 11.0195 5.21361 11.0122C5.20208 10.9974 5.19343 10.9827 5.18478 10.9679C5.17614 10.9532 5.16749 10.9384 5.16172 10.9207C5.15884 10.9119 5.15596 10.9038 5.15307 10.8957C5.15019 10.8876 5.14731 10.8795 5.14442 10.8706C5.13866 10.8529 5.13578 10.8352 5.13289 10.8175C5.13001 10.7998 5.12713 10.7821 5.12713 10.7645V10.7114C5.12713 10.6937 5.13001 10.676 5.13289 10.6583C5.13578 10.6406 5.13866 10.6229 5.14442 10.6052L6.38404 6.4504C6.38446 6.44781 6.38488 6.4453 6.38529 6.44283C6.3877 6.4284 6.3898 6.41581 6.3898 6.40322C6.3898 6.39142 6.3898 6.37668 6.38692 6.36488C6.38645 6.36297 6.38598 6.36098 6.3855 6.35893C6.38303 6.34838 6.38022 6.33643 6.37539 6.32655L6.35809 6.29116C6.35233 6.27937 6.34368 6.26757 6.33503 6.25873C6.32638 6.24988 6.31773 6.24103 6.3062 6.23219C6.29755 6.22334 6.28602 6.2145 6.27449 6.2086C6.2668 6.2027 6.25911 6.19942 6.25143 6.19615C6.24758 6.19451 6.24374 6.19287 6.2399 6.19091C6.22836 6.18796 6.21683 6.18501 6.20242 6.18206C6.18801 6.17911 6.17647 6.17911 6.16206 6.17911C6.14765 6.17911 6.13611 6.17911 6.1217 6.18206C6.11983 6.18254 6.11788 6.18302 6.11588 6.18351C6.10556 6.18604 6.09388 6.18891 6.08422 6.19385L6.04963 6.21155C6.04167 6.21562 6.03508 6.2211 6.02797 6.22701C6.02478 6.22966 6.02149 6.2324 6.01792 6.23514C6.0101 6.24114 6.0036 6.24849 5.99754 6.25536C5.99466 6.25863 5.99187 6.26178 5.98909 6.26462C5.98044 6.27347 5.97179 6.28527 5.96603 6.29706C5.96026 6.30492 5.95706 6.31279 5.95386 6.32065C5.95225 6.32458 5.95065 6.32851 5.94873 6.33245L5.88819 6.53886L5.16172 8.96865C5.15596 8.98634 5.15019 9.00404 5.14154 9.02173C5.13578 9.03942 5.12713 9.05711 5.11848 9.07481C5.10983 9.0925 5.10118 9.11019 5.08965 9.12494C5.07812 9.14262 5.0666 9.15736 5.05507 9.1721C5.04355 9.18684 5.03201 9.19864 5.01761 9.21337C5.00319 9.22812 4.98875 9.23994 4.97434 9.25173C4.96365 9.26048 4.95296 9.26761 4.94109 9.27552C4.93696 9.27827 4.93268 9.28112 4.92821 9.28417C4.9138 9.29597 4.8965 9.30481 4.8792 9.31366C4.86191 9.3225 4.84461 9.33135 4.82731 9.33725C4.81866 9.3402 4.80929 9.34315 4.79991 9.3461C4.79055 9.34905 4.78118 9.35199 4.77254 9.35494C4.76389 9.35641 4.75453 9.35863 4.74516 9.36084C4.73579 9.36305 4.72642 9.36526 4.71777 9.36674C4.7155 9.36707 4.71328 9.3674 4.71108 9.36772C4.69367 9.37031 4.67803 9.37263 4.66011 9.37263H4.60245C4.58228 9.37263 4.56497 9.37263 4.5448 9.36968C4.5328 9.36968 4.51942 9.36685 4.50657 9.36413C4.5009 9.36292 4.49533 9.36174 4.49002 9.36084C4.47273 9.35789 4.45255 9.35199 4.43525 9.34609C4.14409 9.24584 3.98841 8.92442 4.07778 8.62954L4.36895 7.6476V7.64465L5.00605 5.50974H5.00893L5.081 5.26794C5.08965 5.2355 5.10118 5.20307 5.11271 5.17063C5.12424 5.1382 5.13866 5.10576 5.15307 5.07627C5.15859 5.06592 5.16381 5.05588 5.16893 5.04604C5.17986 5.02503 5.1903 5.00494 5.20208 4.98486C5.21073 4.97011 5.2201 4.95611 5.22947 4.9421C5.23884 4.92809 5.24821 4.91409 5.25685 4.89934C5.26961 4.8776 5.2855 4.85746 5.30105 4.83774C5.30659 4.83072 5.31209 4.82375 5.31739 4.81678C5.34046 4.79024 5.36352 4.7637 5.38658 4.74011C5.39955 4.72831 5.41181 4.71652 5.42406 4.70472C5.43631 4.69293 5.44856 4.68113 5.46153 4.66934C5.47926 4.65121 5.50038 4.63482 5.52099 4.61884C5.5272 4.61402 5.53336 4.60924 5.53937 4.60446C5.56532 4.58382 5.59414 4.56318 5.62297 4.54549C5.6518 4.5278 5.68351 4.5101 5.71234 4.49536C5.73276 4.48283 5.75462 4.47325 5.77691 4.4635C5.78609 4.45948 5.79534 4.45543 5.80459 4.45113L5.89972 4.41574C5.92589 4.40601 5.95403 4.39828 5.98089 4.39091C5.98657 4.38934 5.9922 4.3878 5.99774 4.38625C6.03233 4.37741 6.06404 4.37151 6.09864 4.36561C6.13323 4.35972 6.16494 4.35677 6.19954 4.35382C6.23125 4.35087 6.26584 4.35087 6.30044 4.35087H9.70216C9.73387 4.35087 9.76847 4.35087 9.80306 4.35382C9.83766 4.35677 9.86937 4.35972 9.90396 4.36561C9.93855 4.37151 9.97315 4.37741 10.0049 4.38625C10.0395 4.3951 10.0712 4.40395 10.1029 4.41574C10.1346 4.42459 10.1663 4.43638 10.198 4.45113C10.2297 4.46587 10.2614 4.48062 10.2903 4.49536C10.322 4.5101 10.3508 4.52779 10.3796 4.54549C10.3904 4.55324 10.4013 4.56058 10.412 4.56781C10.4297 4.57984 10.447 4.59158 10.4632 4.60446C10.4892 4.6251 10.5151 4.64575 10.5411 4.66934C10.567 4.69292 10.593 4.71652 10.616 4.74011C10.642 4.7637 10.665 4.79024 10.6852 4.81678C10.7054 4.84331 10.7256 4.86985 10.7457 4.89934C10.7659 4.92588 10.7832 4.95537 10.8005 4.98486C10.8178 5.01434 10.8351 5.04678 10.8495 5.07627C10.853 5.08408 10.8565 5.09172 10.8599 5.09927C10.8707 5.12308 10.8811 5.146 10.8899 5.17063C10.9014 5.20306 10.9129 5.2355 10.9216 5.26794L11.6308 7.64465V7.6476Z" fill="black"/>
</svg>
