<svg width="16" height="16" viewBox="0 0 16 16" fill="none" xmlns="http://www.w3.org/2000/svg">
<path d="M0.731511 15.9101L0.845008 15.6364L0.958506 15.3627C1.02755 15.3913 1.10374 15.4074 1.18519 15.4074H2.03704V15.7037V16H1.18519C1.02448 16 0.871254 15.968 0.731511 15.9101ZM16 2.03704H15.7037H15.4074V1.18519C15.4074 1.10374 15.3913 1.02755 15.3627 0.958506L15.6364 0.845008L15.9101 0.731511C15.968 0.871253 16 1.02448 16 1.18519V2.03704ZM2.03704 0H1.18519C1.02448 0 0.871253 0.0319836 0.731511 0.0899325L0.845008 0.363629L0.958506 0.637326C1.02755 0.608692 1.10374 0.592593 1.18519 0.592593H2.03704V0.296296V0ZM0 13.963H0.296296H0.592593V14.8148C0.592593 14.8963 0.608692 14.9724 0.637326 15.0415L0.363629 15.155L0.0899324 15.2685C0.0319836 15.1287 0 14.9755 0 14.8148V13.963ZM0 12.2593H0.296296H0.592593V10.5556H0.296296H0V12.2593ZM0 8.85185H0.296296H0.592593V7.14815H0.296296H0V8.85185ZM0 5.44445H0.296296H0.592593V3.74074H0.296296H0V5.44445ZM0 2.03704H0.296296H0.592593V1.18519C0.592593 1.10374 0.608692 1.02755 0.637326 0.958506L0.363629 0.845008L0.0899325 0.731511C0.0319836 0.871253 0 1.02448 0 1.18519V2.03704ZM3.74074 0V0.296296V0.592593H5.44444V0.296296V0H3.74074ZM7.14815 0V0.296296V0.592593H8.85185V0.296296V0H7.14815ZM10.5556 0V0.296296V0.592593H12.2593V0.296296V0H10.5556ZM13.963 0V0.296296V0.592593H14.8148C14.8963 0.592593 14.9724 0.608692 15.0415 0.637326L15.155 0.363629L15.2685 0.0899326C15.1287 0.0319836 14.9755 0 14.8148 0H13.963ZM16 3.74074H15.7037H15.4074V5.44444H15.7037H16V3.74074ZM5.44444 16V15.7037V15.4074H3.74074V15.7037V16H5.44444ZM12.5398 9.90975L14.8961 12.3715H7.29356V12.9641H14.8961L12.5398 15.4259L12.9679 15.8357L16 12.6678L12.9679 9.5L12.5398 9.90975Z" fill="black"/>
</svg>
