<svg width="16" height="16" viewBox="0 0 16 16" fill="none" xmlns="http://www.w3.org/2000/svg">
<path fill-rule="evenodd" clip-rule="evenodd" d="M11.3894 7C11.3894 4.51472 9.37466 2.5 6.88937 2.5C4.40409 2.5 2.38937 4.51472 2.38937 7C2.38937 9.48528 4.40409 11.5 6.88937 11.5C8.06608 11.5 9.1373 11.0484 9.93914 10.309L13.602 13.9718L13.9555 13.6182L10.2875 9.95018C10.9739 9.16025 11.3894 8.12865 11.3894 7ZM2.88937 7C2.88937 4.79086 4.68023 3 6.88937 3C9.09851 3 10.8894 4.79086 10.8894 7C10.8894 9.20914 9.09851 11 6.88937 11C4.68023 11 2.88937 9.20914 2.88937 7ZM6.73532 9.24481C5.56454 9.16564 4.63937 8.19086 4.63937 7H4.13937L4.14439 7.16752C4.23097 8.6083 5.42684 9.75 6.88937 9.75V9.25L6.73532 9.24481Z" fill="black"/>
</svg>
