<svg width="16" height="16" viewBox="0 0 16 16" fill="none" xmlns="http://www.w3.org/2000/svg">
<path d="M3.758 5.72335C4.91091 5.48273 5.77694 4.46066 5.77694 3.23632C5.77694 1.83316 4.63946 0.695679 3.2363 0.695679C1.83314 0.695679 0.695659 1.83316 0.695659 3.23632C0.695659 4.46064 1.56166 5.48269 2.71453 5.72333V10.2767C1.56166 10.5174 0.695648 11.5394 0.695648 12.7637C0.695648 14.1669 1.83313 15.3044 3.23629 15.3044C4.46062 15.3044 5.48268 14.4384 5.72331 13.2855H10.2767C10.5173 14.4384 11.5394 15.3044 12.7637 15.3044C14.1668 15.3044 15.3043 14.1669 15.3043 12.7637C15.3043 11.3606 14.1668 10.2231 12.7637 10.2231C11.5394 10.2231 10.5173 11.0891 10.2767 12.242H5.72331C5.65766 11.9275 5.53385 11.6343 5.36363 11.3742L11.3742 5.36368C11.7735 5.62501 12.2508 5.77697 12.7637 5.77697C14.1668 5.77697 15.3043 4.63948 15.3043 3.23632C15.3043 1.83317 14.1668 0.695681 12.7637 0.695681C11.3605 0.695681 10.223 1.83317 10.223 3.23632C10.223 3.74917 10.375 4.22652 10.6363 4.62582L4.62578 10.6364C4.36571 10.4662 4.07253 10.3424 3.758 10.2767V5.72335ZM3.2363 4.73349C2.40944 4.73349 1.73914 4.06318 1.73914 3.23632C1.73914 2.40946 2.40944 1.73916 3.2363 1.73916C4.06316 1.73916 4.73347 2.40946 4.73347 3.23632C4.73347 4.06318 4.06316 4.73349 3.2363 4.73349ZM3.23629 14.2609C2.40943 14.2609 1.73913 13.5906 1.73913 12.7637C1.73913 11.9369 2.40943 11.2666 3.23629 11.2666C4.06315 11.2666 4.73346 11.9369 4.73346 12.7637C4.73346 13.5906 4.06315 14.2609 3.23629 14.2609ZM14.2608 12.7637C14.2608 13.5906 13.5905 14.2609 12.7637 14.2609C11.9368 14.2609 11.2665 13.5906 11.2665 12.7637C11.2665 11.9369 11.9368 11.2666 12.7637 11.2666C13.5905 11.2666 14.2608 11.9369 14.2608 12.7637ZM12.7637 4.73349C11.9368 4.73349 11.2665 4.06319 11.2665 3.23632C11.2665 2.40946 11.9368 1.73916 12.7637 1.73916C13.5905 1.73916 14.2608 2.40946 14.2608 3.23632C14.2608 4.06319 13.5905 4.73349 12.7637 4.73349Z" fill="black"/>
</svg>
