<svg width="16" height="16" viewBox="0 0 16 16" fill="none" xmlns="http://www.w3.org/2000/svg">
<path d="M8.18884 6.55687L5.5232 8.42282L5.2495 8.03183L7.35658 6.55687L5.2495 5.08191L5.5232 4.69092L8.18884 6.55687Z" fill="black"/>
<path d="M8.25 10.1363H11.3221V9.65906H8.25V10.1363Z" fill="black"/>
<path d="M4.43182 2.5C3.64105 2.5 3 3.14105 3 3.93182V11.5682C3 12.359 3.64105 13 4.43182 13H12.0682C12.859 13 13.5 12.359 13.5 11.5682V3.93182C13.5 3.14105 12.859 2.5 12.0682 2.5H4.43182ZM12.0682 2.97727C12.5954 2.97727 13.0227 3.40464 13.0227 3.93182V11.5682C13.0227 12.0954 12.5954 12.5227 12.0682 12.5227H4.43182C3.90464 12.5227 3.47727 12.0954 3.47727 11.5682V3.93182C3.47727 3.40464 3.90464 2.97727 4.43182 2.97727H12.0682Z" fill="black"/>
</svg>
