<svg width="16" height="17" viewBox="0 0 16 17" fill="none" xmlns="http://www.w3.org/2000/svg">
<path d="M4.79999 2.54896C4.79999 2.10714 5.15816 1.74896 5.59999 1.74896C6.04182 1.74896 6.39999 2.10713 6.39999 2.54896V4.14896C6.39999 4.59079 6.04182 4.94896 5.59999 4.94896C5.15816 4.94896 4.79999 4.59079 4.79999 4.14896V2.54896Z" fill="black"/>
<path d="M9.59999 2.54896C9.59999 2.10714 9.95816 1.74896 10.4 1.74896C10.8418 1.74896 11.2 2.10713 11.2 2.54896V4.14896C11.2 4.59079 10.8418 4.94896 10.4 4.94896C9.95816 4.94896 9.59999 4.59079 9.59999 4.14896V2.54896Z" fill="black"/>
<path d="M8.79999 3.34896H7.19999V4.54897C7.19999 5.21171 6.66273 5.74897 5.99999 5.74897H5.19999C4.53725 5.74897 3.99999 5.21171 3.99999 4.54897V3.34896H3.19999C2.75816 3.34896 2.39999 3.70713 2.39999 4.14896V14.549C2.39999 14.9908 2.75816 15.349 3.19999 15.349H12.8C13.2418 15.349 13.6 14.9908 13.6 14.549V4.14896C13.6 3.70713 13.2418 3.34896 12.8 3.34896H12V4.54897C12 5.21171 11.4627 5.74897 10.8 5.74897H9.99999C9.33725 5.74897 8.79999 5.21171 8.79999 4.54897V3.34896ZM3.99999 7.74897C3.99999 7.52805 4.17908 7.34897 4.39999 7.34897H11.6C11.8209 7.34897 12 7.52805 12 7.74897C12 7.96988 11.8209 8.14897 11.6 8.14897H4.39999C4.17908 8.14897 3.99999 7.96988 3.99999 7.74897ZM3.99999 10.149C3.99999 9.92806 4.17908 9.74897 4.39999 9.74897H11.6C11.8209 9.74897 12 9.92806 12 10.149C12 10.3699 11.8209 10.549 11.6 10.549H4.39999C4.17908 10.549 3.99999 10.3699 3.99999 10.149ZM4.39999 12.149H7.59999C7.82091 12.149 7.99999 12.3281 7.99999 12.549C7.99999 12.7699 7.82091 12.949 7.59999 12.949H4.39999C4.17908 12.949 3.99999 12.7699 3.99999 12.549C3.99999 12.3281 4.17908 12.149 4.39999 12.149Z" fill="black"/>
</svg>
