<svg width="16" height="16" viewBox="0 0 16 16" fill="none" xmlns="http://www.w3.org/2000/svg">
<path fill-rule="evenodd" clip-rule="evenodd" d="M11.3907 3.75C11.3907 3.47386 11.1669 3.25 10.8907 3.25H5.10928C4.99574 3.25 4.88559 3.28864 4.79693 3.35957C4.5813 3.53207 4.54634 3.84672 4.71884 4.06235L6.90768 6.79839C6.9786 6.88704 7.01724 6.9972 7.01724 7.11074V11.2571C7.01724 11.4305 7.10702 11.5915 7.2545 11.6825L8.22001 12.2789C8.29897 12.3277 8.38995 12.3535 8.48276 12.3535C8.7589 12.3535 8.98276 12.1296 8.98276 11.8535V7.11074C8.98276 6.9972 9.0214 6.88704 9.09233 6.79839L11.2812 4.06235C11.3521 3.97369 11.3907 3.86354 11.3907 3.75ZM5.11 3.75H10.889L8.70189 6.48604L8.62463 6.5973C8.53222 6.75175 8.48276 6.92908 8.48276 7.11074V11.8535L7.51724 11.2571V7.11074L7.50807 6.97559C7.48375 6.79726 7.41159 6.62789 7.29811 6.48604L5.11 3.75Z" fill="black"/>
</svg>
