<svg width="16" height="16" viewBox="0 0 16 16" fill="none" xmlns="http://www.w3.org/2000/svg">
<path d="M4.75 2.5C3.7835 2.5 3 3.2835 3 4.25V11.25C3 12.2165 3.7835 13 4.75 13H8.25V12.5H4.75C4.05964 12.5 3.5 11.9404 3.5 11.25V4.25C3.5 3.55964 4.05964 3 4.75 3H11.75C12.4404 3 13 3.55964 13 4.25V7.75H13.5V4.25C13.5 3.2835 12.7165 2.5 11.75 2.5H4.75Z" fill="black"/>
<path d="M9.61364 11.8409C10.2767 11.8409 10.8846 11.6043 11.3573 11.2108L13.0732 12.9268L13.4268 12.5732L11.7108 10.8573C12.1043 10.3846 12.3409 9.77674 12.3409 9.11364C12.3409 7.60741 11.1199 6.38637 9.61364 6.38637C8.10741 6.38637 6.88636 7.60741 6.88636 9.11364C6.88636 10.6199 8.10741 11.8409 9.61364 11.8409ZM9.61364 11.3409C8.38355 11.3409 7.38636 10.3437 7.38636 9.11364C7.38636 7.88355 8.38355 6.88637 9.61364 6.88637C10.8437 6.88637 11.8409 7.88355 11.8409 9.11364C11.8409 10.3437 10.8437 11.3409 9.61364 11.3409Z" fill="black"/>
<path d="M11.4318 5.27272H5.06818V4.77272H11.4318V5.27272Z" fill="black"/>
<path d="M5.06818 7.09091H6.43182V6.59091H5.06818V7.09091Z" fill="black"/>
</svg>
