<svg width="16" height="17" viewBox="0 0 16 17" fill="none" xmlns="http://www.w3.org/2000/svg">
<path d="M7.3 1.94897V2.99897H8.7V1.94897H7.3Z" fill="black"/>
<path d="M7.3 4.39897V6.49897H8.7V4.39897H7.3Z" fill="black"/>
<path d="M7.3 7.89897V9.99897H8.7V7.89897H7.3Z" fill="black"/>
<path d="M7.3 11.399V13.499H8.7V11.399H7.3Z" fill="black"/>
<path d="M7.3 14.899V15.949H8.7V14.899H7.3Z" fill="black"/>
<path d="M1 4.04897C1 3.27578 1.6268 2.64897 2.4 2.64897H5.9V4.04897H2.4V13.849H5.9V15.249H2.4C1.6268 15.249 1 14.6222 1 13.849V4.04897Z" fill="black"/>
<path d="M13.6 4.04897H10.1V2.64897H13.6C14.3732 2.64897 15 3.27578 15 4.04897V13.849C15 14.6222 14.3732 15.249 13.6 15.249H10.1V13.849H13.6V4.04897Z" fill="black"/>
</svg>
