<svg width="16" height="16" viewBox="0 0 16 16" fill="none" xmlns="http://www.w3.org/2000/svg">
<path d="M4.25 5.88555C5.26428 5.56698 6 4.61941 6 3.5C6 2.11929 4.88071 1 3.5 1C2.11929 1 1 2.11929 1 3.5C1 4.61941 1.73572 5.56698 2.75 5.88555V10.1145C1.73572 10.433 1 11.3806 1 12.5C1 13.8807 2.11929 15 3.5 15C4.61941 15 5.56698 14.2643 5.88555 13.25H10.1145C10.433 14.2643 11.3806 15 12.5 15C13.8807 15 15 13.8807 15 12.5C15 11.1193 13.8807 10 12.5 10C11.3806 10 10.433 10.7357 10.1145 11.75H5.88555C5.87792 11.7257 5.86992 11.7016 5.86157 11.6776L11.4156 5.75323C11.7437 5.91137 12.1115 6 12.5 6C13.8807 6 15 4.88071 15 3.5C15 2.11929 13.8807 1 12.5 1C11.1193 1 10 2.11929 10 3.5C10 3.94599 10.1168 4.36469 10.3214 4.72722L4.94636 10.4606C4.73603 10.3112 4.50158 10.1935 4.25 10.1145V5.88555Z" fill="black"/>
</svg>
