<svg width="16" height="16" viewBox="0 0 16 16" fill="none" xmlns="http://www.w3.org/2000/svg">
<path d="M5.7246 7.68148C4.88768 7.00742 4.33846 5.99629 4.33846 4.82962C4.33846 2.83334 5.98613 1.20001 7.99998 1.20001C10.0138 1.20001 11.6615 2.83334 11.6615 4.82964C11.6615 5.97039 11.1123 7.00742 10.2754 7.6815C12.8908 8.43334 14.8 10.8185 14.8 13.6445C14.8 14.5 14.0938 15.2 13.2308 15.2H2.76924C1.90615 15.2 1.2 14.5 1.2 13.6444C1.2 10.8185 3.10922 8.43336 5.7246 7.68148ZM10.6154 4.82964C10.6154 3.40372 9.43847 2.23704 8 2.23704C6.56154 2.23704 5.38461 3.40372 5.38461 4.82964C5.38461 6.25557 6.56154 7.42223 8 7.42223C9.43847 7.42223 10.6154 6.25557 10.6154 4.82964ZM7.47692 9.49631C7.47692 9.67779 7.55538 9.8074 7.68615 9.91112L6.98 12.3741C6.9277 12.5556 6.98 12.737 7.11076 12.8667L7.81692 13.5667C7.92155 13.6704 8.07846 13.6704 8.18308 13.5667L8.88923 12.8667C9.02001 12.7371 9.07231 12.5556 9.02001 12.3741L8.31386 9.91112C8.44462 9.80742 8.52309 9.67779 8.52309 9.49631C8.52309 9.21112 8.28769 8.97779 8 8.97779C7.71232 8.97779 7.47692 9.21112 7.47692 9.49631ZM13.7538 13.6444C13.7538 10.7926 11.4 8.45928 8.52309 8.45928H7.47694C4.59999 8.45928 2.24615 10.7926 2.24615 13.6444C2.24615 13.9296 2.48154 14.163 2.76924 14.163H13.2308C13.5185 14.163 13.7538 13.9296 13.7538 13.6444Z" fill="black"/>
</svg>
