<svg width="16" height="16" viewBox="0 0 16 16" fill="none" xmlns="http://www.w3.org/2000/svg">
<path fill-rule="evenodd" clip-rule="evenodd" d="M4.50161 2.74284H11.5016C12.4681 2.74284 13.2516 3.52635 13.2516 4.49284V11.4928C13.2516 12.4593 12.4681 13.2428 11.5016 13.2428H4.50161C3.53511 13.2428 2.75161 12.4593 2.75161 11.4928V4.49284C2.75161 3.52635 3.53511 2.74284 4.50161 2.74284ZM11.5016 3.24284H4.50161C3.81125 3.24284 3.25161 3.80249 3.25161 4.49284V11.4928C3.25161 12.1832 3.81125 12.7428 4.50161 12.7428H11.5016C12.192 12.7428 12.7516 12.1832 12.7516 11.4928V4.49284C12.7516 3.80249 12.192 3.24284 11.5016 3.24284ZM11.2516 5.24284V5.74284H6.75161V5.24284H11.2516ZM5.75161 5.74284V5.24284H4.75161V5.74284H5.75161ZM11.2516 7.74284V8.24284H6.75161V7.74284H11.2516ZM5.75161 8.24284V7.74284H4.75161V8.24284H5.75161ZM11.2516 10.2428V10.7428H6.75161V10.2428H11.2516ZM5.75161 10.7428V10.2428H4.75161V10.7428H5.75161Z" fill="black"/>
</svg>
