<svg width="16" height="16" viewBox="0 0 16 16" fill="none" xmlns="http://www.w3.org/2000/svg">
<path d="M4.44442 6.93337C4.44442 6.737 4.6036 6.57781 4.79997 6.57781H11.2C11.3963 6.57781 11.5555 6.737 11.5555 6.93337C11.5555 7.12973 11.3963 7.28892 11.2 7.28892H4.79997C4.6036 7.28892 4.44442 7.12973 4.44442 6.93337Z" fill="black"/>
<path d="M4.79997 4.44451C4.6036 4.44451 4.44442 4.6037 4.44442 4.80007C4.44442 4.99643 4.60361 5.15562 4.79997 5.15562H8.35553C8.5519 5.15562 8.71108 4.99643 8.71108 4.80007C8.71108 4.6037 8.5519 4.44451 8.35553 4.44451H4.79997Z" fill="black"/>
<path d="M4.44442 9.06667C4.44442 8.8703 4.6036 8.71111 4.79997 8.71111H11.2C11.3963 8.71111 11.5555 8.8703 11.5555 9.06667C11.5555 9.26303 11.3963 9.42222 11.2 9.42222H4.79997C4.6036 9.42222 4.44442 9.26303 4.44442 9.06667Z" fill="black"/>
<path d="M4.79997 10.8446C4.6036 10.8446 4.44442 11.0038 4.44442 11.2001C4.44442 11.3965 4.6036 11.5557 4.79997 11.5557H11.2C11.3963 11.5557 11.5555 11.3965 11.5555 11.2001C11.5555 11.0038 11.3963 10.8446 11.2 10.8446H4.79997Z" fill="black"/>
<path d="M14 5.33334V14C14 14.3682 13.7015 14.6667 13.3333 14.6667H2.66667C2.29848 14.6667 2 14.3682 2 14V2.00001C2 1.63182 2.29848 1.33334 2.66667 1.33334H10L14 5.33334ZM2.66667 14H13.3333V5.33334H10.6667C10.2985 5.33334 10 5.03487 10 4.66668V2.02344L9.97628 2.00001H2.66667V14ZM10.6667 2.94282V4.66668H12.3905L10.6667 2.94282Z" fill="black"/>
</svg>
