<svg width="16" height="16" viewBox="0 0 16 16" fill="none" xmlns="http://www.w3.org/2000/svg">
<path d="M4.24476 2H6.89813L10.7163 6.5H13.1666C13.9714 6.5 14.6281 7.13375 14.665 7.92938L14.6666 8C14.6666 8.82844 13.9951 9.5 13.1666 9.5H10.716L6.89812 14H4.24477L6.15368 9.5H3.84734L2.84768 10.3333H1.11948L1.96799 8L1.11948 5.66667H2.84768L3.84799 6.5H6.15366L4.24476 2ZM6.43532 3H5.75499L7.66421 7.5H3.48562L2.57366 6.74L3.03202 8L2.57366 9.25967L3.48563 8.5H7.66423L5.75499 13H6.43499L10.2535 8.5H13.1667C13.4428 8.5 13.6667 8.27614 13.6667 8C13.6667 7.72386 13.4428 7.5 13.1667 7.5H10.2535L6.43532 3Z" fill="black"/>
</svg>
