<svg width="16" height="16" viewBox="0 0 16 16" fill="none" xmlns="http://www.w3.org/2000/svg">
<path d="M7.01852 4.86957C7.01852 5.16781 6.90095 5.43858 6.70938 5.6391L7.5962 6.9541C7.72163 6.90651 7.85777 6.88043 8 6.88043C8.14223 6.88043 8.27837 6.90651 8.4038 6.9541L9.29062 5.6391C9.09905 5.43858 8.98148 5.16781 8.98148 4.86957C8.98148 4.2506 9.48787 3.75 10.1111 3.75C10.7343 3.75 11.2407 4.2506 11.2407 4.86957C11.2407 5.48853 10.7343 5.98913 10.1111 5.98913C9.96888 5.98913 9.83274 5.96306 9.70731 5.91546L8.8205 7.23047C8.97593 7.39317 9.08265 7.60212 9.11738 7.83447L10.7522 7.83995C10.8306 7.29698 11.3019 6.88043 11.8704 6.88043C12.4936 6.88043 13 7.38103 13 8C13 8.61897 12.4936 9.11957 11.8704 9.11957C11.3666 9.11957 10.9391 8.79244 10.7938 8.34009L9.07842 8.33434C9.0265 8.49904 8.93724 8.64733 8.8205 8.76953L9.70731 10.0845C9.83274 10.0369 9.96888 10.0109 10.1111 10.0109C10.7343 10.0109 11.2407 10.5115 11.2407 11.1304C11.2407 11.7494 10.7343 12.25 10.1111 12.25C9.48787 12.25 8.98148 11.7494 8.98148 11.1304C8.98148 10.8322 9.09905 10.5614 9.29062 10.3609L8.4038 9.0459C8.27837 9.09349 8.14223 9.11957 8 9.11957C7.85777 9.11957 7.72163 9.09349 7.5962 9.0459L6.70938 10.3609C6.90095 10.5614 7.01852 10.8322 7.01852 11.1304C7.01852 11.7494 6.51213 12.25 5.88889 12.25C5.26565 12.25 4.75926 11.7494 4.75926 11.1304C4.75926 10.5115 5.26565 10.0109 5.88889 10.0109C6.03112 10.0109 6.16726 10.0369 6.29269 10.0845L7.1795 8.76953C7.06105 8.64554 6.97089 8.49469 6.91933 8.3271L5.21205 8.32138C5.07263 8.78338 4.64036 9.11957 4.12963 9.11957C3.50639 9.11957 3 8.61897 3 8C3 7.38103 3.50639 6.88043 4.12963 6.88043C4.69168 6.88043 5.1587 7.28757 5.24499 7.82148L6.88377 7.82698C6.91965 7.59763 7.02574 7.39142 7.1795 7.23047L6.29269 5.91546C6.16726 5.96306 6.03112 5.98913 5.88889 5.98913C5.26565 5.98913 4.75926 5.48853 4.75926 4.86957C4.75926 4.2506 5.26565 3.75 5.88889 3.75C6.51213 3.75 7.01852 4.2506 7.01852 4.86957ZM5.25926 4.86957C5.25926 5.21109 5.54051 5.48913 5.88889 5.48913C6.23726 5.48913 6.51852 5.21109 6.51852 4.86957C6.51852 4.52804 6.23726 4.25 5.88889 4.25C5.54051 4.25 5.25926 4.52804 5.25926 4.86957ZM8 8.61957C8.34837 8.61957 8.62963 8.34153 8.62963 8C8.62963 7.65847 8.34837 7.38043 8 7.38043C7.65163 7.38043 7.37037 7.65847 7.37037 8C7.37037 8.34153 7.65163 8.61957 8 8.61957ZM5.25926 11.1304C5.25926 11.472 5.54051 11.75 5.88889 11.75C6.23726 11.75 6.51852 11.472 6.51852 11.1304C6.51852 10.7889 6.23726 10.5109 5.88889 10.5109C5.54051 10.5109 5.25926 10.7889 5.25926 11.1304ZM10.1111 11.75C10.4595 11.75 10.7407 11.472 10.7407 11.1304C10.7407 10.7889 10.4595 10.5109 10.1111 10.5109C9.76274 10.5109 9.48148 10.7889 9.48148 11.1304C9.48148 11.472 9.76274 11.75 10.1111 11.75ZM3.5 8C3.5 8.34153 3.78125 8.61957 4.12963 8.61957C4.478 8.61957 4.75926 8.34153 4.75926 8C4.75926 7.65847 4.478 7.38043 4.12963 7.38043C3.78125 7.38043 3.5 7.65847 3.5 8ZM11.8704 8.61957C12.2187 8.61957 12.5 8.34153 12.5 8C12.5 7.65847 12.2187 7.38043 11.8704 7.38043C11.522 7.38043 11.2407 7.65847 11.2407 8C11.2407 8.34153 11.522 8.61957 11.8704 8.61957ZM10.1111 5.48913C10.4595 5.48913 10.7407 5.21109 10.7407 4.86957C10.7407 4.52804 10.4595 4.25 10.1111 4.25C9.76274 4.25 9.48148 4.52804 9.48148 4.86957C9.48148 5.21109 9.76274 5.48913 10.1111 5.48913Z" fill="black"/>
</svg>
