<svg width="16" height="16" viewBox="0 0 16 16" fill="none" xmlns="http://www.w3.org/2000/svg">
<path d="M10.8859 7.26457L8.65349 4.88328C8.8171 4.77245 8.95108 4.62117 9.04107 4.44381L11.359 6.91621C11.4928 6.86274 11.6388 6.83333 11.7917 6.83333C12.436 6.83333 12.9583 7.35567 12.9583 8C12.9583 8.64433 12.436 9.16667 11.7917 9.16667C11.6388 9.16667 11.4928 9.13726 11.359 9.08379L9.04107 11.5562C9.1214 11.7145 9.16666 11.8936 9.16666 12.0833C9.16666 12.7277 8.64433 13.25 7.99999 13.25C7.35566 13.25 6.83333 12.7277 6.83333 12.0833C6.83333 11.8936 6.87861 11.7145 6.95894 11.5562L4.64105 9.08379C4.50725 9.13726 4.36122 9.16667 4.20833 9.16667C3.564 9.16667 3.04167 8.64433 3.04167 8C3.04167 7.35567 3.564 6.83333 4.20833 6.83333C4.36123 6.83333 4.50725 6.86274 4.64105 6.91621L6.95893 4.44381C6.8786 4.28548 6.83333 4.10636 6.83333 3.91667C6.83333 3.27233 7.35566 2.75 7.99999 2.75C8.64433 2.75 9.16666 3.27233 9.16666 3.91667C9.16666 4.561 8.64433 5.08333 7.99999 5.08333C7.75786 5.08333 7.53295 5.00957 7.34652 4.88328L5.11406 7.26457C5.27721 7.46525 5.375 7.72121 5.375 8C5.375 8.27879 5.27721 8.53475 5.11406 8.73543L7.34652 11.1167C7.53295 10.9904 7.75786 10.9167 7.99999 10.9167C8.24214 10.9167 8.46705 10.9904 8.65348 11.1167L10.8859 8.73543C10.7228 8.53475 10.625 8.27879 10.625 8C10.625 7.7212 10.7228 7.46525 10.8859 7.26457ZM7.99999 4.5C8.32216 4.5 8.58333 4.23883 8.58333 3.91667C8.58333 3.5945 8.32216 3.33333 7.99999 3.33333C7.67783 3.33333 7.41666 3.5945 7.41666 3.91667C7.41666 4.23883 7.67783 4.5 7.99999 4.5ZM8.58333 12.0833C8.58333 11.7612 8.32216 11.5 7.99999 11.5C7.67783 11.5 7.41666 11.7612 7.41666 12.0833C7.41666 12.4055 7.67783 12.6667 7.99999 12.6667C8.32216 12.6667 8.58333 12.4055 8.58333 12.0833ZM11.2083 8C11.2083 8.32217 11.4695 8.58333 11.7917 8.58333C12.1138 8.58333 12.375 8.32216 12.375 8C12.375 7.67783 12.1138 7.41667 11.7917 7.41667C11.4695 7.41667 11.2083 7.67783 11.2083 8ZM4.20833 8.58333C4.5305 8.58333 4.79167 8.32216 4.79167 8C4.79167 7.67783 4.5305 7.41667 4.20833 7.41667C3.88617 7.41667 3.625 7.67783 3.625 8C3.625 8.32217 3.88617 8.58333 4.20833 8.58333Z" fill="black"/>
<path d="M1 2.75C1 1.7835 1.7835 1 2.75 1H13.25C14.2165 1 15 1.7835 15 2.75V13.25C15 14.2165 14.2165 15 13.25 15H2.75C1.7835 15 1 14.2165 1 13.25V2.75ZM2.75 1.58333C2.10567 1.58333 1.58333 2.10567 1.58333 2.75V13.25C1.58333 13.8943 2.10567 14.4167 2.75 14.4167H13.25C13.8943 14.4167 14.4167 13.8943 14.4167 13.25V2.75C14.4167 2.10567 13.8943 1.58333 13.25 1.58333H2.75Z" fill="black"/>
</svg>
