<svg width="16" height="16" viewBox="0 0 16 16" fill="none" xmlns="http://www.w3.org/2000/svg">
<path fill-rule="evenodd" clip-rule="evenodd" d="M2.75 3.20711V3C2.75 2.86193 2.86193 2.75 3 2.75H3.08579V2.25H3C2.58579 2.25 2.25 2.58579 2.25 3V3.20711H2.75ZM2.75 4.20711V5.20711H2.25V4.20711H2.75ZM2.75 7.20711V6.20711H2.25V7.20711H2.75ZM2.75 8.20711V9.20711H2.25V8.20711H2.75ZM2.75 11.2071V10.2071H2.25V11.2071H2.75ZM3 12.25H3.5V12.75H3C2.72932 12.75 2.4836 12.6052 2.35056 12.3753L2.78332 12.1249C2.82786 12.2018 2.9096 12.25 3 12.25ZM5.5 12.25H4.5V12.75H5.5V12.25ZM7.5 12.25H6.5V12.75H7.5V12.25ZM5.08579 2.75H4.08579V2.25H5.08579V2.75ZM6.08579 2.75H7.08579V2.25H6.08579V2.75ZM9.08579 2.75H8.08579V2.25H9.08579V2.75ZM10.0858 2.75H11.0858V2.25H10.0858V2.75ZM12.2496 2.98521C12.2429 2.86944 12.1565 2.7732 12.043 2.75365L12.1279 2.26091C12.47 2.31984 12.7287 2.6079 12.7492 2.97036L12.75 3.37817L12.25 3.37919L12.2496 2.98521ZM12.25 4.37868V5.37868H12.75V4.37868H12.25ZM12.25 7.37868V6.37868H12.75V7.37868H12.25ZM12.25 8.37868V9.37868H12.75V8.37868H12.25ZM15 12.75V12.25H10V12.75H15Z" fill="black"/>
</svg>
