<svg width="16" height="16" viewBox="0 0 16 16" fill="none" xmlns="http://www.w3.org/2000/svg">
<path d="M5.5 4.5C6.60457 4.5 7.5 5.39543 7.5 6.5C7.5 7.2259 7.11328 7.86148 6.53462 8.21194C7.64012 8.68322 8.42804 9.88879 8.49533 11.3031L8.5 11.5H7.5C7.5 10.1012 6.58235 9 5.5 9C4.46275 9 3.57676 10.0113 3.50472 11.3268L3.5 11.5H2.5C2.5 10.0015 3.30893 8.70495 4.46538 8.21194C3.88672 7.86148 3.5 7.2259 3.5 6.5C3.5 5.39543 4.39543 4.5 5.5 4.5ZM5.5 5.5C4.94772 5.5 4.5 5.94772 4.5 6.5C4.5 7.05228 4.94772 7.5 5.5 7.5C6.05228 7.5 6.5 7.05228 6.5 6.5C6.5 5.94772 6.05228 5.5 5.5 5.5Z" fill="black"/>
<path d="M9 6H13V5H9V6Z" fill="black"/>
<path d="M13 10V11H9V10H13Z" fill="black"/>
<path d="M11.5 8.5V7.5H9V8.5H11.5Z" fill="black"/>
<path d="M15 13.5H1V2.5H15V13.5ZM14 3.5H2V12.5H14V3.5Z" fill="black"/>
</svg>
