<svg width="16" height="16" viewBox="0 0 16 16" fill="none" xmlns="http://www.w3.org/2000/svg">
<path fill-rule="evenodd" clip-rule="evenodd" d="M13.4 4C13.4 3.2268 12.7732 2.6 12 2.6C11.2268 2.6 10.6 3.2268 10.6 4C10.6 4.29629 10.692 4.57109 10.8491 4.79735L4.79735 10.8491C4.57109 10.692 4.29629 10.6 4 10.6C3.2268 10.6 2.6 11.2268 2.6 12C2.6 12.7732 3.2268 13.4 4 13.4C4.7732 13.4 5.4 12.7732 5.4 12C5.4 11.7037 5.30796 11.4289 5.1509 11.2026L11.2026 5.1509C11.4289 5.30796 11.7037 5.4 12 5.4C12.7732 5.4 13.4 4.7732 13.4 4ZM11.1 4C11.1 3.50294 11.5029 3.1 12 3.1C12.4971 3.1 12.9 3.50294 12.9 4C12.9 4.49705 12.4971 4.9 12 4.9C11.5029 4.9 11.1 4.49705 11.1 4ZM3.1 12C3.1 11.5029 3.50294 11.1 4 11.1C4.49706 11.1 4.9 11.5029 4.9 12C4.9 12.4971 4.49706 12.9 4 12.9C3.50294 12.9 3.1 12.4971 3.1 12Z" fill="black"/>
</svg>
