<svg width="16" height="16" viewBox="0 0 16 16" fill="none" xmlns="http://www.w3.org/2000/svg">
<path d="M10.5927 6.09033C10.5927 6.20868 10.5105 6.30782 10.4 6.33373L10.3427 6.34033H4.97562C4.85727 6.34033 4.75813 6.42257 4.73222 6.53301L4.72562 6.59033V8.33875C4.72562 8.47682 4.61369 8.58875 4.47562 8.58875C4.35727 8.58875 4.25813 8.50651 4.23222 8.39607L4.22562 8.33875V6.59033C4.22562 6.21064 4.50777 5.89684 4.87385 5.84718L4.97562 5.84033H10.3427C10.4808 5.84033 10.5927 5.95226 10.5927 6.09033Z" fill="black"/>
<path d="M8.09016 3.83787C8.17152 3.75651 8.295 3.74295 8.39041 3.79719L8.44371 3.83787L10.5195 5.91361C10.6171 6.01124 10.6171 6.16953 10.5195 6.26716C10.4381 6.34852 10.3146 6.36208 10.2192 6.30784L10.1659 6.26716L8.09016 4.19143C7.99253 4.09379 7.99253 3.9355 8.09016 3.83787Z" fill="black"/>
<path d="M5.48051 9.76219C5.56187 9.68083 5.68535 9.66727 5.78076 9.72151L5.83406 9.76219L7.9098 11.8379C8.00743 11.9356 8.00743 12.0938 7.9098 12.1915C7.82844 12.2728 7.70496 12.2864 7.60956 12.2322L7.55625 12.1915L5.48051 10.1157C5.38288 10.0181 5.38288 9.85982 5.48051 9.76219Z" fill="black"/>
<path d="M5.40729 9.93896C5.40729 9.82062 5.48952 9.72148 5.59996 9.69557L5.65729 9.68896H11.0244C11.1427 9.68896 11.2418 9.60673 11.2678 9.49629L11.2744 9.43896V7.69055C11.2744 7.55248 11.3863 7.44055 11.5244 7.44055C11.6427 7.44055 11.7418 7.52278 11.7678 7.63323L11.7744 7.69055V9.43896C11.7744 9.81866 11.4922 10.1325 11.1261 10.1821L11.0244 10.189H5.65729C5.51922 10.189 5.40729 10.077 5.40729 9.93896Z" fill="black"/>
</svg>
