<svg width="16" height="16" viewBox="0 0 16 16" fill="none" xmlns="http://www.w3.org/2000/svg">
<path d="M2 1.25C1.0335 1.25 0.25 2.0335 0.25 3V13C0.25 13.9665 1.0335 14.75 2 14.75H14C14.9665 14.75 15.75 13.9665 15.75 13V3C15.75 2.0335 14.9665 1.25 14 1.25H2ZM1.75 3C1.75 2.86193 1.86193 2.75 2 2.75H14C14.1381 2.75 14.25 2.86193 14.25 3V13C14.25 13.1381 14.1381 13.25 14 13.25H2C1.86193 13.25 1.75 13.1381 1.75 13V3ZM5 4H3V6H5V4ZM3 7H5V9H3V7ZM13 10H3V12H13V10ZM7 4H9V6H7V4ZM9 7H7V9H9V7ZM11 4H13V6H11V4ZM13 7H11V9H13V7Z" fill="black"/>
</svg>
