<svg width="16" height="16" viewBox="0 0 16 16" fill="none" xmlns="http://www.w3.org/2000/svg">
<path d="M5.87291 10.5396L10.5396 5.87291L10.1271 5.46043L5.46043 10.1271L5.87291 10.5396Z" fill="#212A39"/>
<path d="M3.91667 13.25C4.88317 13.25 5.66667 12.4665 5.66667 11.5C5.66667 10.5335 4.88317 9.75 3.91667 9.75C2.95017 9.75 2.16667 10.5335 2.16667 11.5C2.16667 12.4665 2.95017 13.25 3.91667 13.25ZM3.91667 12.6667C3.27234 12.6667 2.75001 12.1443 2.75001 11.5C2.75001 10.8557 3.27234 10.3333 3.91667 10.3333C4.561 10.3333 5.08334 10.8557 5.08334 11.5C5.08334 12.1443 4.561 12.6667 3.91667 12.6667Z" fill="#212A39"/>
<path d="M13.8333 3.91667C13.8333 4.88317 13.0498 5.66667 12.0833 5.66667C11.1168 5.66667 10.3333 4.88317 10.3333 3.91667C10.3333 2.95017 11.1168 2.16667 12.0833 2.16667C13.0498 2.16667 13.8333 2.95017 13.8333 3.91667ZM13.25 3.91667C13.25 3.27234 12.7277 2.75 12.0833 2.75C11.439 2.75 10.9167 3.27234 10.9167 3.91667C10.9167 4.561 11.439 5.08333 12.0833 5.08333C12.7277 5.08333 13.25 4.561 13.25 3.91667Z" fill="#212A39"/>
<path d="M1 2.75C1 1.7835 1.7835 1 2.75 1H13.25C14.2165 1 15 1.7835 15 2.75V13.25C15 14.2165 14.2165 15 13.25 15H2.75C1.7835 15 1 14.2165 1 13.25V2.75ZM2.75 1.58333C2.10567 1.58333 1.58333 2.10567 1.58333 2.75V13.25C1.58333 13.8943 2.10567 14.4167 2.75 14.4167H13.25C13.8943 14.4167 14.4167 13.8943 14.4167 13.25V2.75C14.4167 2.10567 13.8943 1.58333 13.25 1.58333H2.75Z" fill="#212A39"/>
</svg>
