<svg width="16" height="16" viewBox="0 0 16 16" fill="none" xmlns="http://www.w3.org/2000/svg">
<path d="M6.36364 6.54547C6.36364 5.64173 7.09626 4.90911 8 4.90911C8.90374 4.90911 9.63636 5.64173 9.63636 6.54547C9.63636 7.44921 8.90374 8.18183 8 8.18183H7.45455V10.1818H8.54545V9.21819C9.79031 8.96549 10.7273 7.8649 10.7273 6.54547C10.7273 5.03924 9.50623 3.8182 8 3.8182C6.49377 3.8182 5.27273 5.03924 5.27273 6.54547H6.36364Z" fill="black"/>
<path d="M7.45455 10.9091V11.6364H8.54545V10.9091H7.45455Z" fill="black"/>
<path d="M15.2727 8.00002C15.2727 12.0166 12.0166 15.2727 7.99999 15.2727C3.98338 15.2727 0.727264 12.0166 0.727264 8.00002C0.727264 3.98341 3.98338 0.727295 7.99999 0.727295C12.0166 0.727295 15.2727 3.98341 15.2727 8.00002ZM13.8182 8.00002C13.8182 4.78673 11.2133 2.18184 7.99999 2.18184C4.7867 2.18184 2.18181 4.78673 2.18181 8.00002C2.18181 11.2133 4.7867 13.8182 7.99999 13.8182C11.2133 13.8182 13.8182 11.2133 13.8182 8.00002Z" fill="black"/>
</svg>
