<svg width="16" height="16" viewBox="0 0 16 16" fill="none" xmlns="http://www.w3.org/2000/svg">
<path d="M13.2187 6.98014C11.5041 4.30079 9.56971 2.94334 7.41723 2.94334C5.21468 2.94334 3.24051 4.36466 1.49646 7.16921L1.41284 7.30367L1.61573 7.62721C3.33037 10.3066 5.26474 11.664 7.41723 11.664V11.151L7.27502 11.1488C5.38277 11.0891 3.64376 9.83633 2.0565 7.35743L2.0218 7.30333L2.17583 7.0663C3.77068 4.64868 5.51731 3.45632 7.41723 3.45632C9.41214 3.45632 11.2381 4.7709 12.8967 7.43813L13.338 7.16921L13.2187 6.98014Z" fill="black"/>
<path d="M9.74656 7.19501C9.68924 5.97056 8.66829 4.99526 7.41723 4.99526C6.12937 4.99526 5.08536 6.02877 5.08536 7.30367C5.08536 8.57857 6.12937 9.61208 7.41723 9.61208V9.0991L7.31772 9.09645C6.36233 9.0453 5.60355 8.26221 5.60355 7.30367C5.60355 6.31208 6.41556 5.50824 7.41723 5.50824C8.41889 5.50824 9.23091 6.31208 9.23091 7.30367H9.7491L9.74656 7.19501Z" fill="black"/>
<path d="M14.4128 11.122C14.4128 9.56375 13.1368 8.30057 11.5628 8.30057C9.98873 8.30057 8.71271 9.56375 8.71271 11.122C8.71271 12.6802 9.98873 13.9433 11.5628 13.9433C13.1368 13.9433 14.4128 12.6802 14.4128 11.122ZM9.97909 9.42757C10.395 9.04647 10.9514 8.81355 11.5628 8.81355C12.8506 8.81355 13.8946 9.84706 13.8946 11.122C13.8946 11.67 13.7017 12.1734 13.3795 12.5693L9.97909 9.42757ZM9.63982 9.8158L13.0114 12.931C12.6136 13.2436 12.1102 13.4304 11.5628 13.4304C10.2749 13.4304 9.23091 12.3969 9.23091 11.122C9.23091 10.6371 9.38188 10.1872 9.63982 9.8158Z" fill="black"/>
</svg>
