<svg width="16" height="16" viewBox="0 0 16 16" fill="none" xmlns="http://www.w3.org/2000/svg">
<path d="M6.73683 1.26318C6.03921 1.26318 5.47367 1.82872 5.47367 2.52634V4.21055L4.21052 4.21055C3.28035 4.21055 2.52631 4.9646 2.52631 5.89476V12.6316C2.52631 13.5618 3.28035 14.3158 4.21052 14.3158H9.26315C10.1933 14.3158 10.9474 13.5618 10.9474 12.6316V12.2106H12.6316C13.3292 12.2106 13.8947 11.645 13.8947 10.9474V2.52634C13.8947 1.82872 13.3292 1.26318 12.6316 1.26318H6.73683ZM10.9474 11.3684V5.89476C10.9474 4.9646 10.1933 4.21055 9.26315 4.21055L6.31578 4.21055V2.52634C6.31578 2.2938 6.50429 2.10529 6.73683 2.10529H12.6316C12.8641 2.10529 13.0526 2.2938 13.0526 2.52634V10.9474C13.0526 11.1799 12.8641 11.3684 12.6316 11.3684H10.9474ZM3.36841 5.89476C3.36841 5.42968 3.74543 5.05266 4.21052 5.05266H9.26315C9.72823 5.05266 10.1053 5.42968 10.1053 5.89476V12.6316C10.1053 13.0967 9.72823 13.4737 9.26315 13.4737H4.21052C3.74543 13.4737 3.36841 13.0967 3.36841 12.6316V5.89476Z" fill="black"/>
</svg>
