<svg width="16" height="16" viewBox="0 0 16 16" fill="none" xmlns="http://www.w3.org/2000/svg">
<path d="M9.81818 1.5C11.2577 1.5 12.0698 2.32999 12.1324 3.81144L12.1396 4.14061C12.1681 4.72339 12.3852 4.96487 12.8807 4.99639L13 5V6C11.8605 6 11.2011 5.33431 11.1409 4.17723L11.1364 4C11.1364 2.93274 10.743 2.5 9.81818 2.5C9.17341 2.5 8.77369 2.80148 8.60045 3.5H10V5.41604C11.7659 6.1876 13 7.94968 13 10C13 12.7614 10.7614 15 8 15C5.23858 15 3 12.7614 3 10C3 7.94968 4.2341 6.1876 6 5.41604V3.5H7.58518C7.82671 2.21199 8.57985 1.5 9.81818 1.5ZM7 4.5V5.10002C7.32311 5.03443 7.65753 5 8 5C8.34247 5 8.67689 5.03443 9 5.10002V4.5H7ZM8 6C5.79086 6 4 7.79086 4 10C4 12.2091 5.79086 14 8 14C10.2091 14 12 12.2091 12 10C12 7.79086 10.2091 6 8 6Z" fill="black"/>
<path d="M14.3664 7.16439L13.5949 6.41291L12.8972 7.12925L13.6687 7.88074L14.3664 7.16439Z" fill="black"/>
<path d="M13.5231 5L14.8058 5.00148L14.8046 6.00148L13.5219 6L13.5231 5Z" fill="black"/>
<path d="M14.3664 3.82383L13.5949 4.57532L12.8972 3.85898L13.6687 3.10749L14.3664 3.82383Z" fill="black"/>
</svg>
