<svg width="16" height="16" viewBox="0 0 16 16" fill="none" xmlns="http://www.w3.org/2000/svg">
<path d="M11.7146 4.75894L10.9154 4.15785L10.6149 4.55744L11.4141 5.15853L11.7146 4.75894Z" fill="black"/>
<path d="M10.1163 3.55676L9.31708 2.95568L9.01653 3.35527L9.81571 3.95636L10.1163 3.55676Z" fill="black"/>
<path d="M8.51789 2.35459L8.21735 2.75418L7.85196 2.47936L7.74894 2.56952L7.41965 2.19327L7.82812 1.83579L8.51789 2.35459Z" fill="black"/>
<path d="M6.66714 2.85184L5.91462 3.51041L6.24391 3.88667L6.99642 3.2281L6.66714 2.85184Z" fill="black"/>
<path d="M4.40958 4.82756L5.1621 4.16898L5.49139 4.54524L4.73887 5.20381L4.40958 4.82756Z" fill="black"/>
<path d="M3.65707 5.48613L2.90455 6.1447L3.23384 6.52096L3.98635 5.86239L3.65707 5.48613Z" fill="black"/>
<path d="M2.46649 7.16259L2.48132 7.17953L2.4761 7.1841L2.7305 7.75383L2.27395 7.9577L1.86905 7.05093L2.15203 6.80327L2.35554 7.03581L2.40085 7.01558L2.46649 7.16259Z" fill="black"/>
<path d="M2.68167 8.8708L3.0894 9.7839L3.54595 9.58004L3.13823 8.66694L2.68167 8.8708Z" fill="black"/>
<path d="M3.90485 11.6101L3.49713 10.697L3.95368 10.4931L4.36141 11.4062L3.90485 11.6101Z" fill="black"/>
<path d="M4.31258 12.5232L4.72031 13.4363L5.17686 13.2325L4.76913 12.3194L4.31258 12.5232Z" fill="black"/>
<path d="M6.71345 13.9803L5.71384 13.9523L5.72786 13.4525L6.72747 13.4805L6.71345 13.9803Z" fill="black"/>
<path d="M7.71306 14.0084H8.49378L8.5078 13.5086H7.72708L7.71306 14.0084Z" fill="black"/>
<path d="M14.4644 6.95589C14.7405 6.4776 14.5766 5.86601 14.0983 5.58987L13.6653 5.33987C13.187 5.06373 12.5754 5.2276 12.2993 5.70589L11.7993 6.57192L13.9644 7.82192L14.4644 6.95589ZM13.8483 6.02288L13.9222 6.0748C14.103 6.22809 14.1541 6.49332 14.0314 6.70589L13.7811 7.13793L12.482 6.38793L12.7323 5.95589L12.7842 5.88209C12.9375 5.70126 13.2028 5.65015 13.4153 5.77288L13.8483 6.02288Z" fill="black"/>
<path d="M13.7144 8.25493L11.2512 12.5213C11.0637 12.8459 10.7889 13.1114 10.4579 13.2873L9.58823 13.7496C9.45277 13.8216 9.29913 13.8251 9.16709 13.7721L9.09077 13.7336C9.01769 13.6886 8.95525 13.6241 8.91204 13.5428C8.8764 13.4758 8.8565 13.4015 8.85384 13.3256L8.81938 12.3413C8.80626 11.9667 8.89868 11.5959 9.0861 11.2713L11.5493 7.00493L13.7144 8.25493ZM13.0311 8.43697L11.732 7.68697L9.51911 11.5213C9.40666 11.7161 9.33981 11.933 9.3226 12.1558L9.31907 12.3238L9.35354 13.3081L10.2232 12.8458C10.4218 12.7402 10.5934 12.5917 10.7261 12.4119L10.8182 12.2713L13.0311 8.43697Z" fill="black"/>
</svg>
