<svg width="16" height="16" viewBox="0 0 16 16" fill="none" xmlns="http://www.w3.org/2000/svg">
<path d="M14.5674 7.65035L15.708 9.36132L15.292 9.63867L14.4282 8.34301C14.4242 8.34551 14.4201 8.34804 14.4159 8.35059C14.2717 8.43928 14.0613 8.56307 13.794 8.70535C13.3059 8.96519 12.6265 9.28758 11.812 9.57048L12.2385 10.9249L11.7615 11.0751L11.3367 9.72578C10.4267 10.0044 9.37539 10.2188 8.25 10.2469V12H7.75V10.2469C6.62461 10.2188 5.57333 10.0044 4.66327 9.72578L4.23846 11.0751L3.76154 10.9249L4.18797 9.57048C3.37352 9.28758 2.69406 8.96519 2.20596 8.70535C1.93869 8.56307 1.72834 8.43928 1.5841 8.35059C1.57994 8.34804 1.57583 8.34551 1.57179 8.34301L0.708013 9.63867L0.291988 9.36132L1.43263 7.65035L1.6415 7.7939L1.64388 7.79552L1.65303 7.80168C1.66139 7.80728 1.67425 7.81583 1.69148 7.82706C1.72594 7.84954 1.77782 7.88275 1.84599 7.92467C1.98235 8.00851 2.18371 8.12706 2.44092 8.264C2.95569 8.53804 3.69227 8.88468 4.57771 9.17426C5.56974 9.49869 6.74407 9.75 8 9.75C9.25593 9.75 10.4303 9.49869 11.4223 9.17426C12.3077 8.88468 13.0443 8.53804 13.5591 8.264C13.8163 8.12706 14.0177 8.00851 14.154 7.92467C14.2222 7.88275 14.2741 7.84954 14.3085 7.82706C14.3257 7.81583 14.3386 7.80728 14.347 7.80168L14.3561 7.79552L14.3581 7.79415L14.5674 7.65035Z" fill="black"/>
</svg>
