<svg width="16" height="16" viewBox="0 0 16 16" fill="none" xmlns="http://www.w3.org/2000/svg">
<path d="M0.727272 8.19428C0.727272 11.4559 2.76344 14.2289 5.60011 15.2461C5.98169 15.3445 5.92324 15.066 5.92324 14.8759V13.5819C3.7182 13.8471 3.62889 12.348 3.47951 12.0979C3.17912 11.5726 2.47442 11.4392 2.68388 11.1891C3.18724 10.924 3.69871 11.2558 4.28976 12.1562C4.71842 12.8082 5.55465 12.6982 5.98007 12.5898C6.07262 12.1979 6.27072 11.8477 6.54351 11.5743C4.2589 11.1541 3.30577 9.7217 3.30577 8.01753C3.30577 7.19213 3.57206 6.43176 4.09166 5.81979C3.76042 4.80929 4.12251 3.94554 4.17122 3.81714C5.11624 3.73043 6.09535 4.51081 6.17329 4.57251C6.71075 4.42411 7.3229 4.34407 8.00649 4.34407C8.69496 4.34407 9.31036 4.42577 9.84944 4.57585C10.0329 4.43244 10.9422 3.76211 11.8207 3.84382C11.8677 3.97222 12.2217 4.81596 11.91 5.81312C12.4377 6.42675 12.7056 7.1938 12.7056 8.02087C12.7056 9.7267 11.7476 11.1607 9.45487 11.5759C9.83645 11.9645 10.0735 12.5014 10.0735 13.095V14.9743C10.0865 15.1243 10.0735 15.2728 10.3187 15.2728C13.1992 14.2806 15.2727 11.4859 15.2727 8.19595C15.2727 4.06893 12.0155 0.727296 8 0.727296C3.98125 0.725628 0.727272 4.06726 0.727272 8.19428Z" fill="black"/>
</svg>
