<svg width="16" height="17" viewBox="0 0 16 17" fill="none" xmlns="http://www.w3.org/2000/svg">
<path d="M6.50463 2.67226L6.31702 2.13416C5.71947 2.30671 5.2493 2.55192 4.90651 2.86979C4.56836 3.18311 4.32749 3.54866 4.18389 3.96642C4.04492 4.37965 3.97544 4.82466 3.97544 5.30146V6.84765C3.97544 7.38348 3.85037 7.81033 3.60023 8.1282C3.35009 8.44152 2.94014 8.59818 2.37038 8.59818V9.31338C2.75022 9.31338 3.05594 9.38604 3.28756 9.53135C3.5238 9.67666 3.69751 9.881 3.80868 10.1444C3.91985 10.4032 3.97544 10.712 3.97544 11.0707V12.6101C3.97544 13.0869 4.04492 13.5319 4.18389 13.9451C4.32749 14.3584 4.56836 14.7194 4.90651 15.0282C5.2493 15.3415 5.71947 15.5867 6.31702 15.7638L6.51852 15.2121C6.11089 15.0804 5.77969 14.8897 5.52491 14.6399C5.27478 14.3902 5.0918 14.0927 4.976 13.7476C4.86019 13.4025 4.80229 13.0233 4.80229 12.6101V11.0707C4.80229 10.6393 4.71891 10.2488 4.55215 9.89916C4.39002 9.54951 4.13062 9.27251 3.77394 9.06817C3.70446 9.02748 3.63076 8.99075 3.55284 8.95799C3.63076 8.92594 3.70446 8.89001 3.77394 8.8502C4.13062 8.64586 4.39002 8.36887 4.55215 8.01921C4.71891 7.66956 4.80229 7.27904 4.80229 6.84765V5.30146C4.80229 4.68389 4.92968 4.13898 5.18445 3.66672C5.44385 3.19446 5.88391 2.86298 6.50463 2.67226Z" fill="black"/>
<path d="M9.49537 2.67226L9.68298 2.13416C10.2805 2.30671 10.7507 2.55192 11.0935 2.86979C11.4316 3.18311 11.6725 3.54866 11.8161 3.96642C11.9551 4.37965 12.0246 4.82466 12.0246 5.30146V6.84765C12.0246 7.38348 12.1496 7.81033 12.3998 8.1282C12.6499 8.44152 13.0599 8.59818 13.6296 8.59818V9.31338C13.2498 9.31338 12.9441 9.38604 12.7124 9.53135C12.4762 9.67666 12.3025 9.881 12.1913 10.1444C12.0801 10.4032 12.0246 10.712 12.0246 11.0707V12.6101C12.0246 13.0869 11.9551 13.5319 11.8161 13.9451C11.6725 14.3584 11.4316 14.7194 11.0935 15.0282C10.7507 15.3415 10.2805 15.5867 9.68298 15.7638L9.48148 15.2121C9.88911 15.0804 10.2203 14.8897 10.4751 14.6399C10.7252 14.3902 10.9082 14.0927 11.024 13.7476C11.1398 13.4025 11.1977 13.0233 11.1977 12.6101V11.0707C11.1977 10.6393 11.2811 10.2488 11.4479 9.89916C11.61 9.54951 11.8694 9.27251 12.2261 9.06817C12.2955 9.02748 12.3692 8.99075 12.4472 8.95799C12.3692 8.92594 12.2955 8.89001 12.2261 8.8502C11.8694 8.64586 11.61 8.36887 11.4479 8.01921C11.2811 7.66956 11.1977 7.27904 11.1977 6.84765V5.30146C11.1977 4.68389 11.0703 4.13898 10.8156 3.66672C10.5561 3.19446 10.1161 2.86298 9.49537 2.67226Z" fill="black"/>
</svg>
