<svg width="16" height="16" viewBox="0 0 16 16" fill="none" xmlns="http://www.w3.org/2000/svg">
<path d="M1.00006 1.00006V5.2052H1.58339V1.58339H5.2052V1.00006H1.00006Z" fill="black"/>
<path d="M10.7959 1.58339H14.4177V5.2052H15.001V1.00006H10.7959V1.58339Z" fill="black"/>
<path d="M1.58339 10.7959V14.4177H5.2052V15.001H1.00006V10.7959H1.58339Z" fill="black"/>
<path d="M14.4177 10.7959V14.4177H10.7959V15.001H15.001V10.7959H14.4177Z" fill="black"/>
<path d="M13.25 4.13157C13.25 4.88114 12.6531 5.49129 11.9087 5.51258L11.9104 5.54587L11.3278 5.57521C11.3243 5.50457 11.3199 5.44507 11.3159 5.39824C11.2474 5.36831 11.1818 5.333 11.1196 5.29283L5.29284 11.1196C5.33214 11.1804 5.36679 11.2446 5.39629 11.3115C5.44137 11.3139 5.49758 11.3162 5.5637 11.3176L5.55148 11.9008L5.51281 11.8999C5.49607 12.6484 4.88408 13.25 4.13158 13.25C3.36855 13.25 2.75 12.6314 2.75 11.8684C2.75 11.1054 3.36855 10.4868 4.13158 10.4868C4.19991 10.4868 4.26708 10.4918 4.33276 10.5014L4.69171 10.5005C4.69181 10.5401 4.69233 10.5753 4.69304 10.6057C4.7583 10.6347 4.8209 10.6687 4.88036 10.7071L10.7072 4.88034C10.6677 4.81934 10.633 4.75504 10.6035 4.68794C10.5612 4.68558 10.509 4.68339 10.4479 4.68214L10.4598 4.09893L10.4872 4.09956C10.5042 3.35132 11.1161 2.74999 11.8684 2.74999C12.6315 2.74999 13.25 3.36855 13.25 4.13157ZM11.8684 4.92982C12.3093 4.92982 12.6667 4.57243 12.6667 4.13157C12.6667 3.69071 12.3093 3.33333 11.8684 3.33333C11.4276 3.33333 11.0702 3.69071 11.0702 4.13157C11.0702 4.57243 11.4276 4.92982 11.8684 4.92982ZM4.92982 11.8684C4.92982 11.4276 4.57244 11.0702 4.13158 11.0702C3.69072 11.0702 3.33333 11.4276 3.33333 11.8684C3.33333 12.3093 3.69072 12.6667 4.13158 12.6667C4.57244 12.6667 4.92982 12.3093 4.92982 11.8684Z" fill="black"/>
<path d="M9.26549 4.77786C9.47877 4.74002 9.67733 4.71608 9.85527 4.70147L9.80755 4.1201C9.61316 4.13605 9.39643 4.16219 9.16359 4.2035L9.26549 4.77786Z" fill="black"/>
<path d="M8.12407 5.09599C8.31546 5.02149 8.50389 4.95991 8.68664 4.90913L8.53045 4.34709C8.3302 4.40274 8.1232 4.47036 7.91248 4.55238L8.12407 5.09599Z" fill="black"/>
<path d="M7.07585 5.6375C7.2447 5.52562 7.41502 5.42655 7.58502 5.33886L7.31759 4.82044C7.12957 4.91743 6.9409 5.02715 6.75364 5.15123L7.07585 5.6375Z" fill="black"/>
<path d="M6.38165 6.18536C6.45476 6.11714 6.52864 6.052 6.60315 5.98978L6.22926 5.54203C6.14661 5.61104 6.06468 5.68328 5.98367 5.75888C5.91496 5.823 5.84873 5.88829 5.7849 5.95459L6.20513 6.35916C6.26183 6.30027 6.32065 6.24229 6.38165 6.18536Z" fill="black"/>
<path d="M5.59622 7.14143C5.68272 7.00326 5.77731 6.86707 5.88073 6.73403L5.42019 6.376C5.30413 6.5253 5.19829 6.67774 5.10179 6.83189L5.59622 7.14143Z" fill="black"/>
<path d="M5.14896 8.03322C5.20886 7.8811 5.27638 7.72826 5.35244 7.57622L4.83074 7.31524C4.74651 7.48362 4.67203 7.6523 4.60619 7.81948L5.14896 8.03322Z" fill="black"/>
<path d="M4.85732 8.99639C4.89216 8.83839 4.93404 8.67499 4.9843 8.50842L4.42584 8.3399C4.371 8.52164 4.32545 8.69941 4.28767 8.87079L4.85732 8.99639Z" fill="black"/>
<path d="M4.7107 9.99703C4.72207 9.84558 4.73968 9.67623 4.76639 9.49366L4.1892 9.40921C4.16034 9.6065 4.14131 9.78953 4.12901 9.95336L4.7107 9.99703Z" fill="black"/>
<path d="M6.79775 11.2284C6.57571 11.2643 6.36839 11.2869 6.18228 11.3005L6.22484 11.8823C6.42621 11.8676 6.65057 11.8432 6.89107 11.8042L6.79775 11.2284Z" fill="black"/>
<path d="M7.9921 10.9193C7.79253 10.9923 7.59521 11.0525 7.4033 11.1019L7.54883 11.6668C7.75784 11.6129 7.97356 11.5472 8.19248 11.4671L7.9921 10.9193Z" fill="black"/>
<path d="M9.08984 10.3773C8.91428 10.4903 8.73593 10.5902 8.55696 10.6783L8.8146 11.2016C9.01245 11.1042 9.21031 10.9935 9.40565 10.8677L9.08984 10.3773Z" fill="black"/>
<path d="M9.81083 9.81517C9.73563 9.88572 9.65925 9.953 9.58187 10.0172L9.95422 10.4662C10.0406 10.3945 10.126 10.3194 10.21 10.2406C10.2957 10.1601 10.3773 10.0778 10.4549 9.99395L10.0267 9.5978C9.95832 9.6717 9.88642 9.74424 9.81083 9.81517Z" fill="black"/>
<path d="M10.7246 8.59443C10.6332 8.77279 10.5286 8.94919 10.4092 9.12116L10.8884 9.45381C11.0234 9.25934 11.1411 9.06057 11.2437 8.86054L10.7246 8.59443Z" fill="black"/>
<path d="M11.1517 7.43568C11.1039 7.63009 11.0446 7.82906 10.9713 8.02903L11.519 8.22979C11.6004 8.00794 11.6658 7.78826 11.7182 7.57481L11.1517 7.43568Z" fill="black"/>
<path d="M11.3279 6.20001C11.319 6.38892 11.3012 6.59891 11.2695 6.82285L11.8471 6.90461C11.8816 6.66077 11.901 6.43255 11.9106 6.22751L11.3279 6.20001Z" fill="black"/>
</svg>
