<svg width="16" height="16" viewBox="0 0 16 16" fill="none" xmlns="http://www.w3.org/2000/svg">
<path d="M8.42124 14.0952C11.9737 14.0952 14.8535 11.2154 14.8535 7.66298C14.8535 4.11055 11.9737 1.23074 8.42124 1.23074C5.05098 1.23074 2.28612 3.82278 2.01143 7.12209L3.26929 7.12277C3.37431 7.12111 3.43182 7.2429 3.36629 7.32598L1.77704 9.3209C1.72716 9.38414 1.62975 9.38375 1.58001 9.32038L0.0266668 7.325C-0.0376054 7.24213 0.0214343 7.12175 0.127674 7.12106L1.39409 7.12175C1.67048 3.48234 4.71105 0.615357 8.42124 0.615356C12.3135 0.615356 15.4689 3.77068 15.4689 7.66298C15.4689 11.5553 12.3135 14.7106 8.42124 14.7106C6.50055 14.7106 4.75879 13.9419 3.48789 12.696L3.91869 12.2565C5.07922 13.3942 6.66806 14.0952 8.42124 14.0952ZM8.11354 7.71175V2.94504H8.72893V7.71175C8.72893 7.80307 8.76949 7.88967 8.83964 7.94813L10.6402 9.44859L10.2462 9.92134L8.44568 8.42088C8.23522 8.2455 8.11354 7.9857 8.11354 7.71175Z" fill="black"/>
</svg>
