<svg width="16" height="16" viewBox="0 0 16 16" fill="none" xmlns="http://www.w3.org/2000/svg">
<path d="M3.46154 6.92308C5.37329 6.92308 6.92308 5.37329 6.92308 3.46154C6.92308 1.54978 5.37329 0 3.46154 0C1.54978 0 0 1.54978 0 3.46154C0 5.37329 1.54978 6.92308 3.46154 6.92308ZM3.46154 5.32308C2.43344 5.32308 1.6 4.48964 1.6 3.46154C1.6 2.43344 2.43344 1.6 3.46154 1.6C4.48964 1.6 5.32308 2.43344 5.32308 3.46154C5.32308 4.48964 4.48964 5.32308 3.46154 5.32308Z" fill="black"/>
<path d="M5.69119 9.30158L4.5521 6.86702L5.27671 6.52799L6.37104 8.8669L6.54315 8.32814L7.30521 8.57158L6.83574 10.0412C6.98897 10.0141 7.14668 10 7.30769 10C8.79461 10 10 11.2054 10 12.6923C10 14.1792 8.79461 15.3846 7.30769 15.3846C5.82077 15.3846 4.61539 14.1792 4.61539 12.6923C4.61539 11.6331 5.22703 10.7168 6.11639 10.2772L4.87445 9.8805L5.11788 9.11844L5.69119 9.30158ZM8.4 12.6923C8.4 12.089 7.91096 11.6 7.30769 11.6C6.70443 11.6 6.21538 12.089 6.21538 12.6923C6.21538 13.2956 6.70443 13.7846 7.30769 13.7846C7.91096 13.7846 8.4 13.2956 8.4 12.6923Z" fill="black"/>
<path d="M6.81502 4.7422L9.40289 5.4685L8.88991 5.78326L9.30831 6.46513L10.8592 5.51349C10.8006 5.71681 10.7692 5.93165 10.7692 6.15382C10.7692 7.42833 11.8024 8.46152 13.0769 8.46152C14.3514 8.46152 15.3846 7.42833 15.3846 6.15382C15.3846 4.87932 14.3514 3.84613 13.0769 3.84613C12.0698 3.84613 11.2134 4.49122 10.8984 5.39073L9.90347 3.76927L9.22159 4.18766L9.51739 4.66973L7.03119 3.97196L6.81502 4.7422ZM13.0769 6.86152C12.6861 6.86152 12.3692 6.54467 12.3692 6.15382C12.3692 5.76298 12.6861 5.44613 13.0769 5.44613C13.4678 5.44613 13.7846 5.76298 13.7846 6.15382C13.7846 6.54467 13.4678 6.86152 13.0769 6.86152Z" fill="black"/>
</svg>
