<svg width="24" height="24" viewBox="0 0 24 24" fill="none" xmlns="http://www.w3.org/2000/svg">
<path d="M21.0001 19V20H3.00006V19L5.00006 17V11C5.00006 7.9 7.03006 5.17 10.0001 4.29C10.0001 4.19 10.0001 4.1 10.0001 4C10.0001 3.46957 10.2108 2.96086 10.5858 2.58579C10.9609 2.21071 11.4696 2 12.0001 2C12.5305 2 13.0392 2.21071 13.4143 2.58579C13.7893 2.96086 14.0001 3.46957 14.0001 4C14.0001 4.1 14.0001 4.19 14.0001 4.29C16.9701 5.17 19.0001 7.9 19.0001 11V17L21.0001 19ZM14.0001 21C14.0001 21.5304 13.7893 22.0391 13.4143 22.4142C13.0392 22.7893 12.5305 23 12.0001 23C11.4696 23 10.9609 22.7893 10.5858 22.4142C10.2108 22.0391 10.0001 21.5304 10.0001 21" fill="#71717A"/>
</svg>
