<svg width="24" height="24" viewBox="0 0 24 24" fill="none" xmlns="http://www.w3.org/2000/svg">
<path d="M10.0001 21H14.0001C14.0001 22.1 13.1001 23 12.0001 23C10.9001 23 10.0001 22.1 10.0001 21ZM21.0001 19V20H3.00006V19L5.00006 17V11C5.00006 7.9 7.00006 5.2 10.0001 4.3V4C10.0001 2.9 10.9001 2 12.0001 2C13.1001 2 14.0001 2.9 14.0001 4V4.3C17.0001 5.2 19.0001 7.9 19.0001 11V17L21.0001 19ZM17.0001 11C17.0001 8.2 14.8001 6 12.0001 6C9.20006 6 7.00006 8.2 7.00006 11V18H17.0001V11Z" fill="#71717A"/>
</svg>
