<svg width="24" height="25" viewBox="0 0 24 25" fill="none" xmlns="http://www.w3.org/2000/svg">
<path d="M13.59 7.58578L9 12.1758L13.59 16.7758L15 15.3558L11.82 12.1758L15 8.99578M19 3.17578C20.11 3.17578 21 4.07578 21 5.17578V19.1758C21 19.7062 20.7893 20.2149 20.4142 20.59C20.0391 20.9651 19.5304 21.1758 19 21.1758H5C4.46957 21.1758 3.96086 20.9651 3.58579 20.59C3.21071 20.2149 3 19.7062 3 19.1758V5.17578C3 4.64535 3.21071 4.13664 3.58579 3.76157C3.96086 3.38649 4.46957 3.17578 5 3.17578H19Z" fill="#757575"/>
</svg>
