<svg width="24" height="25" viewBox="0 0 24 25" fill="none" xmlns="http://www.w3.org/2000/svg">
<path d="M19 3.17578H5C3.9 3.17578 3 4.07578 3 5.17578V19.1758C3 20.2758 3.9 21.1758 5 21.1758H19C20.1 21.1758 21 20.2758 21 19.1758V5.17578C21 4.07578 20.1 3.17578 19 3.17578ZM11 8.17578H9V10.1758C9 11.2758 8.1 12.1758 7 12.1758C8.1 12.1758 9 13.0758 9 14.1758V16.1758H11V18.1758H9C7.9 18.1758 7 17.2758 7 16.1758V15.1758C7 14.0758 6.1 13.1758 5 13.1758V11.1758C6.1 11.1758 7 10.2758 7 9.17578V8.17578C7 7.07578 7.9 6.17578 9 6.17578H11V8.17578ZM19 13.1758C17.9 13.1758 17 14.0758 17 15.1758V16.1758C17 17.2758 16.1 18.1758 15 18.1758H13V16.1758H15V14.1758C15 13.0758 15.9 12.1758 17 12.1758C15.9 12.1758 15 11.2758 15 10.1758V8.17578H13V6.17578H15C16.1 6.17578 17 7.07578 17 8.17578V9.17578C17 10.2758 17.9 11.1758 19 11.1758V13.1758Z" fill="#757575"/>
</svg>
