<svg width="24" height="24" viewBox="0 0 24 24" fill="none" xmlns="http://www.w3.org/2000/svg">
<path fill-rule="evenodd" clip-rule="evenodd" d="M4 2C2.89543 2 2 2.89543 2 4V18.5C2 19.6046 2.89543 20.5 4 20.5H11.7639L16.1056 22.6708C17.4354 23.3357 19 22.3687 19 20.882V20.5H20C21.1046 20.5 22 19.6046 22 18.5V4C22 2.89543 21.1046 2 20 2H4ZM4 4H20V18.5H19C17.8954 18.5 17 19.3954 17 20.5V20.882L12.6584 18.7111C12.3806 18.5723 12.0744 18.5 11.7639 18.5H4V4ZM7.12123 15.75L7.94716 13.4416H11.638L12.4252 15.75H14.361L11.0315 6.75H8.59241L5.25 15.75H7.12123ZM9.88292 8.37104L11.096 11.9114H8.47627L9.72806 8.37104H9.88292ZM17.25 15.75V6.75H15.4304V15.75H17.25Z" fill="#71717A"/>
</svg>
