<svg width="24" height="24" viewBox="0 0 24 24" fill="none" xmlns="http://www.w3.org/2000/svg">
<path d="M22.11 21.46L2.38999 1.73L1.10999 3L4.29999 6.19L3.52999 6.62C3.20999 6.79 2.99999 7.12 2.99999 7.5V16.5C2.99999 16.88 3.20999 17.21 3.52999 17.38L11.43 21.82C11.59 21.94 11.79 22 12 22C12.21 22 12.41 21.94 12.57 21.82L17.28 19.17L20.84 22.73L22.11 21.46ZM4.99999 15.91V9.21L10.29 12.18L11 12.89V19.29L4.99999 15.91ZM13 19.29V14.89L15.82 17.7L13 19.29ZM8.99999 5.82L7.55999 4.36L11.43 2.18C11.59 2.06 11.79 2 12 2C12.21 2 12.41 2.06 12.57 2.18L20.47 6.62C20.79 6.79 21 7.12 21 7.5V16.5C21 16.85 20.82 17.16 20.53 17.33L19 15.8V9.21L14.78 11.58L13.31 10.11L17.96 7.5L12 4.15L8.99999 5.82Z" fill="#71717A"/>
</svg>
