<svg width="24" height="24" viewBox="0 0 24 24" fill="none" xmlns="http://www.w3.org/2000/svg">
<path d="M20.84 22.73L17.28 19.17L12.57 21.82C12.41 21.94 12.21 22 12 22C11.79 22 11.59 21.94 11.43 21.82L3.52999 17.38C3.20999 17.21 2.99999 16.88 2.99999 16.5V7.5C2.99999 7.12 3.20999 6.79 3.52999 6.62L4.29999 6.19L1.10999 3L2.38999 1.73L22.11 21.46L20.84 22.73ZM12 4.15L17.96 7.5L13.31 10.11L20.53 17.33C20.82 17.16 21 16.85 21 16.5V7.5C21 7.12 20.79 6.79 20.47 6.62L12.57 2.18C12.41 2.06 12.21 2 12 2C11.79 2 11.59 2.06 11.43 2.18L7.55999 4.36L8.99999 5.82L12 4.15Z" fill="#71717A"/>
</svg>
