<svg width="24" height="24" viewBox="0 0 24 24" fill="none" xmlns="http://www.w3.org/2000/svg">
<path fill-rule="evenodd" clip-rule="evenodd" d="M16 6C16.5523 6 17 5.55228 17 5C17 4.44772 16.5523 4 16 4C15.4477 4 15 4.44772 15 5C15 5.55228 15.4477 6 16 6ZM16 8C17.6569 8 19 6.65685 19 5C19 3.34315 17.6569 2 16 2C14.3431 2 13 3.34315 13 5C13 5.23218 13.0264 5.4582 13.0763 5.67523L8.16468 8.8008C8.63957 9.2706 9.01039 9.84537 9.23949 10.4875L14.1505 7.36225C14.6601 7.76178 15.3022 8 16 8ZM14.1505 16.6378L9.23949 13.5125C9.01039 14.1546 8.63956 14.7294 8.16468 15.1992L13.0763 18.3248C13.0264 18.5418 13 18.7678 13 19C13 20.6569 14.3431 22 16 22C17.6569 22 19 20.6569 19 19C19 17.3431 17.6569 16 16 16C15.3022 16 14.6601 16.2382 14.1505 16.6378ZM17.1707 13H9.38849C9.46147 12.6784 9.5 12.3437 9.5 12C9.5 11.6563 9.46147 11.3216 9.3885 11H17.1707C17.5825 9.83481 18.6938 9 20 9C21.6569 9 23 10.3431 23 12C23 13.6569 21.6569 15 20 15C18.6938 15 17.5825 14.1652 17.1707 13ZM20 13C20.5523 13 21 12.5523 21 12C21 11.4477 20.5523 11 20 11C19.4477 11 19 11.4477 19 12C19 12.5523 19.4477 13 20 13ZM6 12C6 12.5523 5.55228 13 5 13C4.44772 13 4 12.5523 4 12C4 11.4477 4.44772 11 5 11C5.55228 11 6 11.4477 6 12ZM8 12C8 13.6569 6.65685 15 5 15C3.34315 15 2 13.6569 2 12C2 10.3431 3.34315 9 5 9C6.65685 9 8 10.3431 8 12ZM17 19C17 19.5523 16.5523 20 16 20C15.4477 20 15 19.5523 15 19C15 18.4477 15.4477 18 16 18C16.5523 18 17 18.4477 17 19Z" fill="#71717A"/>
</svg>
