<svg width="24" height="25" viewBox="0 0 24 25" fill="none" xmlns="http://www.w3.org/2000/svg">
<path d="M15 15.3281V13.8281C15 13.4303 14.842 13.0488 14.5607 12.7675C14.2794 12.4862 13.8978 12.3281 13.5 12.3281C13.8978 12.3281 14.2794 12.1701 14.5607 11.8888C14.842 11.6075 15 11.2259 15 10.8281V9.32812C15 8.21812 14.1 7.32812 13 7.32812H9V9.32812H13V11.3281H11V13.3281H13V15.3281H9V17.3281H13C13.5304 17.3281 14.0391 17.1174 14.4142 16.7423C14.7893 16.3673 15 15.8586 15 15.3281ZM12 2.32812C13.3132 2.32813 14.6136 2.58678 15.8268 3.08933C17.0401 3.59188 18.1425 4.32847 19.0711 5.25706C19.9997 6.18564 20.7362 7.28803 21.2388 8.50129C21.7413 9.71455 22 11.0149 22 12.3281C22 14.9803 20.9464 17.5238 19.0711 19.3992C17.1957 21.2746 14.6522 22.3281 12 22.3281C10.6868 22.3281 9.38642 22.0695 8.17317 21.5669C6.95991 21.0644 5.85752 20.3278 4.92893 19.3992C3.05357 17.5238 2 14.9803 2 12.3281C2 9.67596 3.05357 7.13242 4.92893 5.25706C6.8043 3.38169 9.34784 2.32813 12 2.32812Z" fill="#757575"/>
</svg>
