<svg width="24" height="24" viewBox="0 0 24 24" fill="none" xmlns="http://www.w3.org/2000/svg">
<path d="M3.00006 22L4.50006 20.5L6.00006 22L7.50006 20.5L9.00006 22L10.5001 20.5V19.63L13.1301 17H6.00006V15H15.1301L17.1301 13H6.00006V11H18.0001V12.13L21.0001 9.13V2L19.5001 3.5L18.0001 2L16.5001 3.5L15.0001 2L13.5001 3.5L12.0001 2L10.5001 3.5L9.00006 2L7.50006 3.5L6.00006 2L4.50006 3.5L3.00006 2V22ZM6.00006 9V7H18.0001V9H6.00006ZM13.0001 22V19.96L19.1301 13.83L21.1701 15.87L15.0401 22H13.0001ZM21.0001 12.03C21.1801 11.97 21.3901 12 21.5301 12.15L22.8501 13.47C23.0501 13.67 23.0501 14 22.8501 14.19L21.8701 15.17L19.8301 13.13L20.8101 12.15L20.8301 12.13C20.8801 12.09 20.9401 12.05 21.0001 12.03Z" fill="#71717A"/>
</svg>
