<svg width="24" height="24" viewBox="0 0 24 24" fill="none" xmlns="http://www.w3.org/2000/svg">
<path d="M3.00006 22L4.50006 20.5L6.00006 22L7.50006 20.5L9.00006 22L10.5001 20.5L12.0001 22L13.5001 20.5L15.0001 22L16.5001 20.5L18.0001 22L19.5001 20.5L21.0001 22V2L19.5001 3.5L18.0001 2L16.5001 3.5L15.0001 2L13.5001 3.5L12.0001 2L10.5001 3.5L9.00006 2L7.50006 3.5L6.00006 2L4.50006 3.5L3.00006 2M18.0001 9H6.00006V7H18.0001M18.0001 13H6.00006V11H18.0001M18.0001 17H6.00006V15H18.0001V17Z" fill="#71717A"/>
</svg>
