<svg width="24" height="24" viewBox="0 0 24 24" fill="none" xmlns="http://www.w3.org/2000/svg">
<path d="M10.0001 21H14.0001C14.0001 21.5304 13.7893 22.0391 13.4143 22.4142C13.0392 22.7893 12.5305 23 12.0001 23C11.4696 23 10.9609 22.7893 10.5858 22.4142C10.2108 22.0391 10.0001 21.5304 10.0001 21ZM21.0001 19V20H3.00006V19L5.00006 17V11C5.00006 7.9 7.03006 5.17 10.0001 4.29C10.0001 4.19 10.0001 4.1 10.0001 4C10.0001 3.46957 10.2108 2.96086 10.5858 2.58579C10.9609 2.21071 11.4696 2 12.0001 2C12.5305 2 13.0392 2.21071 13.4143 2.58579C13.7893 2.96086 14.0001 3.46957 14.0001 4C14.0001 4.1 14.0001 4.19 14.0001 4.29C16.9701 5.17 19.0001 7.9 19.0001 11V17L21.0001 19ZM17.0001 11C17.0001 9.67392 16.4733 8.40215 15.5356 7.46447C14.5979 6.52678 13.3261 6 12.0001 6C10.674 6 9.40221 6.52678 8.46453 7.46447C7.52685 8.40215 7.00006 9.67392 7.00006 11V18H17.0001V11ZM19.7501 3.19L18.3301 4.61C20.0401 6.3 21.0001 8.6 21.0001 11H23.0001C23.0001 8.07 21.8401 5.25 19.7501 3.19ZM1.00006 11H3.00006C3.00006 8.6 3.96006 6.3 5.67006 4.61L4.25006 3.19C2.16006 5.25 1.00006 8.07 1.00006 11Z" fill="#71717A"/>
</svg>
