<svg width="24" height="24" viewBox="0 0 24 24" fill="none" xmlns="http://www.w3.org/2000/svg">
<path d="M22.0001 18V22H18.0001V19H15.0001V16H12.0001L9.74006 13.74C9.19006 13.91 8.61006 14 8.00006 14C6.40876 14 4.88264 13.3679 3.75742 12.2426C2.6322 11.1174 2.00006 9.5913 2.00006 8C2.00006 6.4087 2.6322 4.88258 3.75742 3.75736C4.88264 2.63214 6.40876 2 8.00006 2C9.59136 2 11.1175 2.63214 12.2427 3.75736C13.3679 4.88258 14.0001 6.4087 14.0001 8C14.0001 8.61 13.9101 9.19 13.7401 9.74L22.0001 18ZM7.00006 5C6.46963 5 5.96092 5.21071 5.58585 5.58579C5.21077 5.96086 5.00006 6.46957 5.00006 7C5.00006 7.53043 5.21077 8.03914 5.58585 8.41421C5.96092 8.78929 6.46963 9 7.00006 9C7.53049 9 8.0392 8.78929 8.41427 8.41421C8.78935 8.03914 9.00006 7.53043 9.00006 7C9.00006 6.46957 8.78935 5.96086 8.41427 5.58579C8.0392 5.21071 7.53049 5 7.00006 5Z" fill="#71717A"/>
</svg>
