<svg width="24" height="24" viewBox="0 0 24 24" fill="none" xmlns="http://www.w3.org/2000/svg">
<path d="M22.11 21.46L2.39 1.73001L1.11 3.00001L4.3 6.19001L3.53 6.62001C3.21 6.79001 3 7.12001 3 7.50001V16.5C3 16.88 3.21 17.21 3.53 17.38L11.43 21.82C11.59 21.94 11.79 22 12 22C12.21 22 12.41 21.94 12.57 21.82L17.28 19.17L20.84 22.73L22.11 21.46ZM5 15.91V9.21001L10.29 12.18L11 12.89V19.29L5 15.91ZM13 19.29V14.89L15.82 17.7L13 19.29ZM9 5.82001L7.56 4.36001L11.43 2.18001C11.59 2.06001 11.79 2.00001 12 2.00001C12.21 2.00001 12.41 2.06001 12.57 2.18001L20.47 6.62001C20.79 6.79001 21 7.12001 21 7.50001V16.5C21 16.85 20.82 17.16 20.53 17.33L19 15.8V9.21001L14.78 11.58L13.31 10.11L17.96 7.50001L12 4.15001L9 5.82001Z" fill="#71717A"/>
</svg>
