<svg width="24" height="24" viewBox="0 0 24 24" fill="none" xmlns="http://www.w3.org/2000/svg">
<path d="M8 2.00001C6.98231 1.9984 5.97045 2.15355 5 2.46001C7.03041 3.0981 8.80429 4.36734 10.0636 6.08312C11.3229 7.79889 12.0019 9.8717 12.0019 12C12.0019 14.1283 11.3229 16.2011 10.0636 17.9169C8.80429 19.6327 7.03041 20.9019 5 21.54C6.37506 21.9721 7.82729 22.1019 9.25718 21.9204C10.6871 21.7389 12.0608 21.2505 13.2843 20.4886C14.5078 19.7266 15.5522 18.7092 16.3458 17.506C17.1394 16.3028 17.6635 14.9422 17.8822 13.5175C18.101 12.0929 18.0091 10.6378 17.613 9.25189C17.2169 7.86602 16.5259 6.58216 15.5873 5.48827C14.6488 4.39438 13.4848 3.51631 12.1752 2.91423C10.8656 2.31215 9.44136 2.00029 8 2.00001Z" fill="#71717A"/>
</svg>
