<svg width="24" height="24" viewBox="0 0 24 24" fill="none" xmlns="http://www.w3.org/2000/svg">
<path d="M20.84 22.73L17.28 19.17L12.57 21.82C12.41 21.94 12.21 22 12 22C11.79 22 11.59 21.94 11.43 21.82L3.53 17.38C3.21 17.21 3 16.88 3 16.5V7.50001C3 7.12001 3.21 6.79001 3.53 6.62001L4.3 6.19001L1.11 3.00001L2.39 1.73001L22.11 21.46L20.84 22.73ZM12 4.15001L17.96 7.50001L13.31 10.11L20.53 17.33C20.82 17.16 21 16.85 21 16.5V7.50001C21 7.12001 20.79 6.79001 20.47 6.62001L12.57 2.18001C12.41 2.06001 12.21 2.00001 12 2.00001C11.79 2.00001 11.59 2.06001 11.43 2.18001L7.56 4.36001L9 5.82001L12 4.15001Z" fill="#71717A"/>
</svg>
