<svg width="24" height="24" viewBox="0 0 24 24" fill="none" xmlns="http://www.w3.org/2000/svg">
<path d="M12.0001 3C7.58006 3 4.00006 4.79 4.00006 7C4.00006 9.21 7.58006 11 12.0001 11C16.4201 11 20.0001 9.21 20.0001 7C20.0001 4.79 16.4201 3 12.0001 3ZM4.00006 9V12C4.00006 14.21 7.58006 16 12.0001 16C16.4201 16 20.0001 14.21 20.0001 12V9C20.0001 11.21 16.4201 13 12.0001 13C7.58006 13 4.00006 11.21 4.00006 9ZM4.00006 14V17C4.00006 19.21 7.58006 21 12.0001 21C16.4201 21 20.0001 19.21 20.0001 17V14C20.0001 16.21 16.4201 18 12.0001 18C7.58006 18 4.00006 16.21 4.00006 14Z" fill="#71717A"/>
</svg>
