<svg width="24" height="24" viewBox="0 0 24 24" fill="none" xmlns="http://www.w3.org/2000/svg">
<path d="M18.0001 8H16.0001V4H18.0001M15.0001 8H13.0001V4H15.0001M12.0001 8H10.0001V4H12.0001M18.0001 2H10.0001L4.00006 8V20C4.00006 20.5304 4.21077 21.0391 4.58585 21.4142C4.96092 21.7893 5.46963 22 6.00006 22H18.0001C18.5305 22 19.0392 21.7893 19.4143 21.4142C19.7893 21.0391 20.0001 20.5304 20.0001 20V4C20.0001 3.46957 19.7893 2.96086 19.4143 2.58579C19.0392 2.21071 18.5305 2 18.0001 2Z" fill="#71717A"/>
</svg>
