<svg width="16" height="16" viewBox="0 0 16 16" fill="none" xmlns="http://www.w3.org/2000/svg">
<path d="M11.1373 1.50937C11.4213 1.22535 11.8818 1.22535 12.1658 1.50937L14.2228 3.56641C14.5068 3.85043 14.5068 4.31091 14.2228 4.59493L7.53746 11.2803H4.4519L4.4519 8.19474L11.1373 1.50937ZM13.1943 4.08067L11.6515 2.53789L10.4493 3.74011L11.9827 5.29232L13.1943 4.08067ZM5.54281 8.64661L5.54281 10.1894L7.08559 10.1894L11.2113 6.06373L9.67791 4.51151L5.54281 8.64661Z" fill="black"/>
<path d="M2.72726 2.90908C2.72726 2.80867 2.80867 2.72727 2.90908 2.72727H7.99999V1.63636H2.90908C2.20617 1.63636 1.63635 2.20618 1.63635 2.90908V13.0909C1.63635 13.7938 2.20617 14.3636 2.90908 14.3636H13.0909C13.7938 14.3636 14.3636 13.7938 14.3636 13.0909V7.99999H13.2727V13.0909C13.2727 13.1913 13.1913 13.2727 13.0909 13.2727H2.90908C2.80866 13.2727 2.72726 13.1913 2.72726 13.0909V2.90908Z" fill="black"/>
</svg>
