<svg width="16" height="16" viewBox="0 0 16 16" fill="none" xmlns="http://www.w3.org/2000/svg">
<path d="M3.75803 5.72332C4.91094 5.4827 5.77698 4.46063 5.77698 3.23629C5.77698 1.83313 4.63949 0.695648 3.23633 0.695648C1.83317 0.695648 0.69569 1.83313 0.69569 3.23629C0.69569 4.46061 1.56169 5.48266 2.71456 5.7233V10.2767C1.56169 10.5173 0.695679 11.5394 0.695679 12.7637C0.695679 14.1669 1.83316 15.3043 3.23632 15.3043C4.46065 15.3043 5.48271 14.4383 5.72334 13.2854H10.2767C10.5173 14.4383 11.5394 15.3043 12.7637 15.3043C14.1669 15.3043 15.3044 14.1669 15.3044 12.7637C15.3044 11.3605 14.1669 10.2231 12.7637 10.2231C11.5394 10.2231 10.5173 11.0891 10.2767 12.242H5.72334C5.65769 11.9274 5.53388 11.6343 5.36366 11.3742L11.3742 5.36364C11.7735 5.62498 12.2509 5.77694 12.7637 5.77694C14.1669 5.77694 15.3044 4.63945 15.3044 3.23629C15.3044 1.83314 14.1669 0.695651 12.7637 0.695651C11.3606 0.695651 10.2231 1.83314 10.2231 3.23629C10.2231 3.74914 10.375 4.22649 10.6364 4.62579L4.62581 10.6363C4.36574 10.4661 4.07256 10.3423 3.75803 10.2767V5.72332ZM3.23633 4.73346C2.40947 4.73346 1.73917 4.06315 1.73917 3.23629C1.73917 2.40943 2.40947 1.73913 3.23633 1.73913C4.06319 1.73913 4.7335 2.40943 4.7335 3.23629C4.7335 4.06315 4.06319 4.73346 3.23633 4.73346ZM3.23632 14.2609C2.40946 14.2609 1.73916 13.5906 1.73916 12.7637C1.73916 11.9368 2.40946 11.2665 3.23632 11.2665C4.06318 11.2665 4.73349 11.9368 4.73349 12.7637C4.73349 13.5906 4.06318 14.2609 3.23632 14.2609ZM14.2609 12.7637C14.2609 13.5906 13.5906 14.2609 12.7637 14.2609C11.9368 14.2609 11.2665 13.5906 11.2665 12.7637C11.2665 11.9368 11.9368 11.2665 12.7637 11.2665C13.5906 11.2665 14.2609 11.9368 14.2609 12.7637ZM12.7637 4.73346C11.9368 4.73346 11.2665 4.06315 11.2665 3.23629C11.2665 2.40943 11.9368 1.73913 12.7637 1.73913C13.5906 1.73913 14.2609 2.40943 14.2609 3.23629C14.2609 4.06315 13.5906 4.73346 12.7637 4.73346Z" fill="black"/>
</svg>
