<svg width="16" height="16" viewBox="0 0 16 16" fill="none" xmlns="http://www.w3.org/2000/svg">
<path d="M1.5 2.5H14.5C14.7766 2.5 15 2.72344 15 3V13C15 13.2766 14.7766 13.5 14.5 13.5H1.5C1.22344 13.5 1 13.2766 1 13V3C1 2.72344 1.22344 2.5 1.5 2.5ZM10.5625 5.75H13.875V3.625H10.5625V5.75ZM13.875 9.25V6.75H10.5625V9.25H13.875ZM9.5625 6.75H6.4375V9.25H9.5625V6.75ZM9.5625 5.75V3.625H6.4375V5.75H9.5625ZM5.4375 6.75H2.125V9.25H5.4375V6.75ZM2.125 3.625V5.75H5.4375V3.625H2.125ZM5.4375 10.25H2.125V12.375H5.4375V10.25ZM6.4375 10.25V12.375H9.5625V10.25H6.4375ZM10.5625 12.375H13.875V10.25H10.5625V12.375Z" fill="black"/>
</svg>
