<svg width="16" height="16" viewBox="0 0 16 16" fill="none" xmlns="http://www.w3.org/2000/svg">
<path d="M6.36364 6.54545C6.36364 5.64172 7.09626 4.90909 8 4.90909C8.90374 4.90909 9.63636 5.64172 9.63636 6.54545C9.63636 7.44919 8.90374 8.18182 8 8.18182H7.45455V10.1818H8.54545V9.21817C9.79031 8.96548 10.7273 7.86489 10.7273 6.54545C10.7273 5.03922 9.50623 3.81818 8 3.81818C6.49377 3.81818 5.27273 5.03922 5.27273 6.54545H6.36364Z" fill="black"/>
<path d="M7.45455 10.9091V11.6364H8.54545V10.9091H7.45455Z" fill="black"/>
<path d="M15.2727 8.00001C15.2727 12.0166 12.0166 15.2727 7.99999 15.2727C3.98338 15.2727 0.727264 12.0166 0.727264 8.00001C0.727264 3.98339 3.98338 0.72728 7.99999 0.72728C12.0166 0.72728 15.2727 3.98339 15.2727 8.00001ZM13.8182 8.00001C13.8182 4.78671 11.2133 2.18183 7.99999 2.18183C4.7867 2.18183 2.18181 4.78671 2.18181 8.00001C2.18181 11.2133 4.7867 13.8182 7.99999 13.8182C11.2133 13.8182 13.8182 11.2133 13.8182 8.00001Z" fill="black"/>
</svg>
