<svg width="16" height="16" viewBox="0 0 16 16" fill="none" xmlns="http://www.w3.org/2000/svg">
<path d="M10 10.5C10 11.6046 9.10457 12.5 8 12.5C6.89543 12.5 6 11.6046 6 10.5C6 9.39544 6.89543 8.5 8 8.5C9.10457 8.5 10 9.39544 10 10.5ZM9 10.5C9 9.94772 8.55228 9.5 8 9.5C7.44772 9.5 7 9.94772 7 10.5C7 11.0523 7.44772 11.5 8 11.5C8.55228 11.5 9 11.0523 9 10.5Z" fill="black"/>
<path d="M3.99999 6.00001L3.6 6C2.71634 6 2 6.71635 2 7.6V13.4C2 14.2837 2.71635 15 3.6 15H12.4C13.2837 15 14 14.2837 14 13.4V7.6C14 6.71635 13.2837 6 12.4 6L12 6.00001V4.10001C12 1.89087 10.2091 0.100006 7.99999 0.100006C5.82429 0.100006 4.0543 1.83707 4.00122 4H5V4.09384C5.00333 2.43982 6.3452 1.10001 7.99999 1.10001C9.65685 1.10001 11 2.44315 11 4.10001V6.00001H3.99999C4.5 6 4.5 6 3.99999 6.00001ZM3 7.6C3 7.26863 3.26863 7 3.6 7H12.4C12.7314 7 13 7.26863 13 7.6V13.4C13 13.7314 12.7314 14 12.4 14H3.6C3.26863 14 3 13.7314 3 13.4V7.6Z" fill="black"/>
</svg>
