<svg width="16" height="16" viewBox="0 0 16 16" fill="none" xmlns="http://www.w3.org/2000/svg">
<path d="M13.4913 9.58007L14.3685 9.88435C14.4335 9.90775 14.4675 9.98109 14.4443 10.0466C13.5129 12.6166 11.0684 14.4516 8.19844 14.4516C4.54869 14.4516 1.58588 11.4853 1.54874 7.81059C1.51161 4.07034 4.48835 1.03382 8.19535 1.03226C10.3242 1.0307 12.2195 2.04027 13.4371 3.61002L12.5119 4.34028C12.3758 4.16396 12.2273 3.997 12.0694 3.83628C11.5666 3.32915 10.9802 2.92969 10.3289 2.65194C9.65432 2.36327 8.93799 2.21816 8.19844 2.21816C7.4589 2.21816 6.74102 2.36327 6.06955 2.65194C5.4182 2.92969 4.83182 3.32915 4.32899 3.83628C3.82462 4.34341 3.43009 4.93479 3.1547 5.59172C2.86847 6.27205 2.72459 6.99607 2.72459 7.74193C2.72459 8.4878 2.86847 9.21182 3.1516 9.89059C3.42855 10.5475 3.82307 11.1389 4.3259 11.646C4.82873 12.1532 5.4151 12.5526 6.06646 12.8304C6.74102 13.119 7.45735 13.2642 8.1969 13.2642C8.93644 13.2642 9.65278 13.1175 10.3273 12.8304C10.9787 12.5526 11.5651 12.1532 12.0679 11.646C12.5723 11.1389 12.9668 10.5475 13.2422 9.89059C13.2747 9.81257 13.3056 9.73455 13.335 9.65497C13.3582 9.591 13.4278 9.55823 13.4913 9.58007ZM11.774 5.18599L14.1999 5.78362C14.2773 5.80234 14.3531 5.74305 14.3531 5.66347L14.3655 3.14344C14.3655 3.03889 14.2463 2.9796 14.1659 3.04513L11.7276 4.96597C11.6456 5.03151 11.6734 5.16102 11.774 5.18599ZM8.37327 4.01257H7.62908C7.56101 4.01257 7.50531 4.06874 7.50531 4.1374V8.43315C7.50531 8.47372 7.52388 8.51117 7.55637 8.53458L10.1138 10.418C10.1695 10.4585 10.2469 10.4476 10.2871 10.3914L10.7296 9.78289C10.7714 9.72516 10.759 9.64714 10.7033 9.60813L8.49704 7.99937V4.1374C8.49704 4.06874 8.44134 4.01257 8.37327 4.01257Z" fill="black"/>
</svg>
