<svg width="16" height="16" viewBox="0 0 16 16" fill="none" xmlns="http://www.w3.org/2000/svg">
<path d="M2 1C1.44772 1 1 1.44772 1 2V4C1 4.55228 1.44772 5 2 5H3.25V12C3.25 12.9665 4.0335 13.75 5 13.75H9V14C9 14.5523 9.44772 15 10 15H14C14.5523 15 15 14.5523 15 14V12C15 11.4477 14.5523 11 14 11H10C9.44772 11 9 11.4477 9 12V12.25H5C4.86193 12.25 4.75 12.1381 4.75 12V8.75H9V9C9 9.55229 9.44772 10 10 10H14C14.5523 10 15 9.55229 15 9V7C15 6.44772 14.5523 6 14 6H10C9.44772 6 9 6.44772 9 7V7.25H4.75V5H6C6.55228 5 7 4.55228 7 4V2C7 1.44772 6.55228 1 6 1H2Z" fill="black"/>
</svg>
