<svg width="16" height="16" viewBox="0 0 16 16" fill="none" xmlns="http://www.w3.org/2000/svg">
<path d="M5.62501 2.87497H5.50001C5.56876 2.87497 5.62501 2.81872 5.62501 2.74997V2.87497ZM10.375 2.87497H5.62501V3.99997H10.375V2.87497ZM10.375 2.87497V2.74997C10.375 2.81872 10.4313 2.87497 10.5 2.87497H10.375ZM11.5 2.74997V3.99997L13.5 3.99997C13.7765 3.99997 14 4.22341 14 4.49997V4.99997C14 5.06872 13.9437 5.12497 13.875 5.12497H12.9312L12.5453 13.2969C12.5203 13.8312 12.0812 14.25 11.5468 14.25H4.4531C3.92028 14.25 3.47966 13.8297 3.45466 13.2969L3.06872 5.12497H2.12497C2.05622 5.12497 1.99997 5.06872 1.99997 4.99997V4.49997C1.99997 4.22341 2.22341 3.99997 2.49997 3.99997L4.50001 3.99997V2.74997C4.50001 2.19841 4.94845 1.74997 5.50001 1.74997H10.5C11.0516 1.74997 11.5 2.19841 11.5 2.74997ZM4.57343 13.125H11.4266L11.8047 5.12495H4.1953L4.57343 13.125Z" fill="black"/>
</svg>
