<svg width="16" height="16" viewBox="0 0 16 16" fill="none" xmlns="http://www.w3.org/2000/svg">
<path d="M8 12.5C9.10457 12.5 10 11.6046 10 10.5C10 9.39544 9.10457 8.5 8 8.5C6.89543 8.5 6 9.39544 6 10.5C6 11.6046 6.89543 12.5 8 12.5ZM8 11.5C7.44772 11.5 7 11.0523 7 10.5C7 9.94772 7.44772 9.5 8 9.5C8.55228 9.5 9 9.94772 9 10.5C9 11.0523 8.55228 11.5 8 11.5Z" fill="black"/>
<path d="M3.99999 6.00001V5.10001C3.99999 2.89087 5.79085 1.10001 7.99999 1.10001C10.2091 1.10001 12 2.89087 12 5.10001V6.00001L12.4 6C13.2837 6 14 6.71635 14 7.6V13.4C14 14.2837 13.2837 15 12.4 15H3.6C2.71635 15 2 14.2837 2 13.4V7.6C2 6.71635 2.71634 6 3.6 6L3.99999 6.00001ZM11 5.10001C11 3.44315 9.65685 2.10001 7.99999 2.10001C6.34314 2.10001 4.99999 3.44315 4.99999 5.10001V6.00001H11V5.10001ZM3.6 7C3.26863 7 3 7.26863 3 7.6V13.4C3 13.7314 3.26863 14 3.6 14H12.4C12.7314 14 13 13.7314 13 13.4V7.6C13 7.26863 12.7314 7 12.4 7H3.6Z" fill="black"/>
</svg>
