<svg width="16" height="16" viewBox="0 0 16 16" fill="none" xmlns="http://www.w3.org/2000/svg">
<path d="M5.27273 7.27272V12.3636H6.36364V7.27272H5.27273Z" fill="black"/>
<path d="M7.45455 12.3636V7.27272H8.54546V12.3636H7.45455Z" fill="black"/>
<path d="M9.63637 7.27272V12.3636H10.7273V7.27272H9.63637Z" fill="black"/>
<path d="M5.09091 2.90908V1.45454C5.09091 1.05288 5.41653 0.727264 5.81819 0.727264H10.1818C10.5835 0.727264 10.9091 1.05288 10.9091 1.45454V2.90908L13.0909 2.90908C13.4926 2.90908 13.8182 3.23469 13.8182 3.63636V5.45454C13.8182 5.8562 13.4926 6.18181 13.0909 6.18181V13.8182C13.0909 14.2198 12.7653 14.5454 12.3636 14.5454H3.63637C3.23471 14.5454 2.9091 14.2198 2.9091 13.8182L2.9091 6.18181C2.50744 6.18181 2.18182 5.8562 2.18182 5.45454V3.63636C2.18182 3.23469 2.50743 2.90908 2.9091 2.90908L5.09091 2.90908ZM6.18182 2.90908H9.81819V1.81817H6.18182V2.90908ZM4.00001 6.18181V13.4545H12V6.18181H4.00001ZM12.7273 3.99999H3.27273V5.0909H12.7273V3.99999Z" fill="black"/>
</svg>
