<svg width="16" height="16" viewBox="0 0 16 16" fill="none" xmlns="http://www.w3.org/2000/svg">
<path d="M15.2727 8.00001C15.2727 12.0166 12.0166 15.2727 7.99999 15.2727C3.98338 15.2727 0.727264 12.0166 0.727264 8.00001C0.727264 3.98339 3.98338 0.72728 7.99999 0.72728C12.0166 0.72728 15.2727 3.98339 15.2727 8.00001ZM13.807 8.36364H10.5408C10.5249 8.97503 10.4697 9.54073 10.3863 10.0617C11.0346 10.2023 11.5721 10.388 12.0031 10.5757C12.4105 10.753 12.7216 10.9316 12.9405 11.0743C13.4366 10.2788 13.7459 9.3548 13.807 8.36364ZM9.81324 8.36364H6.18675C6.20221 8.92967 6.25329 9.45255 6.32973 9.93334C6.83216 9.86135 7.38844 9.81819 7.99999 9.81819C8.61155 9.81819 9.16782 9.86135 9.67026 9.93334C9.7467 9.45255 9.79777 8.92967 9.81324 8.36364ZM10.5408 7.63637H13.807C13.7459 6.64522 13.4366 5.7212 12.9405 4.9257C12.7216 5.06839 12.4105 5.24697 12.0031 5.42432C11.5721 5.61198 11.0346 5.79772 10.3863 5.93831C10.4697 6.45929 10.5249 7.02499 10.5408 7.63637ZM9.67026 6.06667C9.16782 6.13866 8.61155 6.18183 7.99999 6.18183C7.38844 6.18183 6.83216 6.13866 6.32973 6.06667C6.25329 6.54746 6.20221 7.07035 6.18675 7.63637H9.81324C9.79777 7.07035 9.7467 6.54746 9.67026 6.06667ZM10.2489 5.2239C10.8421 5.0941 11.3284 4.92486 11.7128 4.75751C12.0639 4.60464 12.331 4.45288 12.5175 4.33319C11.6675 3.28729 10.4616 2.54228 9.08426 2.28268C9.19196 2.4583 9.30364 2.65565 9.41511 2.8751C9.72537 3.48592 10.0331 4.2663 10.2489 5.2239ZM8.14185 2.18352C8.0947 2.18239 8.04741 2.18183 7.99999 2.18183C7.95257 2.18183 7.90528 2.18239 7.85813 2.18352C7.67863 2.42606 7.45647 2.76507 7.23329 3.20446C6.95266 3.75696 6.66952 4.46985 6.46786 5.3517C6.92757 5.41591 7.43777 5.45455 7.99999 5.45455C8.56221 5.45455 9.07241 5.41591 9.53212 5.3517C9.33046 4.46985 9.04732 3.75696 8.76669 3.20446C8.54351 2.76507 8.32135 2.42606 8.14185 2.18352ZM9.53212 10.6483C9.07241 10.5841 8.56221 10.5455 7.99999 10.5455C7.43777 10.5455 6.92757 10.5841 6.46786 10.6483C6.66952 11.5302 6.95266 12.2431 7.23329 12.7956C7.45647 13.2349 7.67863 13.574 7.85813 13.8165C7.90528 13.8176 7.95257 13.8182 7.99999 13.8182C8.04741 13.8182 8.0947 13.8176 8.14185 13.8165C8.32135 13.574 8.54351 13.2349 8.76669 12.7956C9.04732 12.2431 9.33046 11.5302 9.53212 10.6483ZM9.08426 13.7173C10.4616 13.4577 11.6675 12.7127 12.5175 11.6668C12.331 11.5471 12.0639 11.3954 11.7128 11.2425C11.3284 11.0752 10.8421 10.9059 10.2489 10.7761C10.0331 11.7337 9.72537 12.5141 9.41511 13.1249C9.30364 13.3444 9.19196 13.5417 9.08426 13.7173ZM3.99688 10.5757C4.4279 10.388 4.96539 10.2023 5.61373 10.0617C5.53026 9.54073 5.47504 8.97503 5.45922 8.36364H2.19299C2.25411 9.3548 2.56338 10.2788 3.05944 11.0743C3.27836 10.9316 3.58951 10.753 3.99688 10.5757ZM5.45922 7.63637C5.47504 7.02499 5.53026 6.45929 5.61373 5.93831C4.96539 5.79772 4.4279 5.61198 3.99688 5.42432C3.58951 5.24697 3.27836 5.06839 3.05944 4.9257C2.56338 5.7212 2.25411 6.64522 2.19299 7.63637H5.45922ZM6.58487 2.8751C6.69634 2.65565 6.80802 2.45831 6.91572 2.28268C5.53839 2.54228 4.33247 3.28729 3.48249 4.33319C3.66899 4.45289 3.93608 4.60464 4.28719 4.75751C4.67159 4.92486 5.15793 5.0941 5.75109 5.2239C5.96693 4.2663 6.27461 3.48592 6.58487 2.8751ZM6.58487 13.1249C6.27461 12.5141 5.96693 11.7337 5.75109 10.7761C5.15793 10.9059 4.67159 11.0752 4.28719 11.2425C3.93608 11.3954 3.66899 11.5471 3.48249 11.6668C4.33248 12.7127 5.53839 13.4577 6.91572 13.7173C6.80802 13.5417 6.69634 13.3444 6.58487 13.1249Z" fill="black"/>
</svg>
