<svg width="24" height="24" viewBox="0 0 24 24" fill="none" xmlns="http://www.w3.org/2000/svg">
<path d="M4.00006 1H20.0001C20.2653 1 20.5196 1.10536 20.7072 1.29289C20.8947 1.48043 21.0001 1.73478 21.0001 2V6C21.0001 6.26522 20.8947 6.51957 20.7072 6.70711C20.5196 6.89464 20.2653 7 20.0001 7H4.00006C3.73484 7 3.48049 6.89464 3.29295 6.70711C3.10542 6.51957 3.00006 6.26522 3.00006 6V2C3.00006 1.73478 3.10542 1.48043 3.29295 1.29289C3.48049 1.10536 3.73484 1 4.00006 1ZM4.00006 9H20.0001C20.2653 9 20.5196 9.10536 20.7072 9.29289C20.8947 9.48043 21.0001 9.73478 21.0001 10V14C21.0001 14.2652 20.8947 14.5196 20.7072 14.7071C20.5196 14.8946 20.2653 15 20.0001 15H4.00006C3.73484 15 3.48049 14.8946 3.29295 14.7071C3.10542 14.5196 3.00006 14.2652 3.00006 14V10C3.00006 9.73478 3.10542 9.48043 3.29295 9.29289C3.48049 9.10536 3.73484 9 4.00006 9ZM4.00006 17H20.0001C20.2653 17 20.5196 17.1054 20.7072 17.2929C20.8947 17.4804 21.0001 17.7348 21.0001 18V22C21.0001 22.2652 20.8947 22.5196 20.7072 22.7071C20.5196 22.8946 20.2653 23 20.0001 23H4.00006C3.73484 23 3.48049 22.8946 3.29295 22.7071C3.10542 22.5196 3.00006 22.2652 3.00006 22V18C3.00006 17.7348 3.10542 17.4804 3.29295 17.2929C3.48049 17.1054 3.73484 17 4.00006 17ZM9.00006 5H10.0001V3H9.00006V5ZM9.00006 13H10.0001V11H9.00006V13ZM9.00006 21H10.0001V19H9.00006V21ZM5.00006 3V5H7.00006V3H5.00006ZM5.00006 11V13H7.00006V11H5.00006ZM5.00006 19V21H7.00006V19H5.00006Z" fill="#71717A"/>
</svg>
