<svg width="24" height="24" viewBox="0 0 24 24" fill="none" xmlns="http://www.w3.org/2000/svg">
<path d="M7.50006 3C9.50006 3 11.1001 4.2 11.7001 6H21.0001V9H18.0001V12H15.0001V9H11.7001C11.1001 10.8 9.40006 12 7.50006 12C5.00006 12 3.00006 10 3.00006 7.5C3.00006 5 5.00006 3 7.50006 3ZM7.50006 6C6.70006 6 6.00006 6.7 6.00006 7.5C6.00006 8.3 6.70006 9 7.50006 9C8.30006 9 9.00006 8.3 9.00006 7.5C9.00006 6.7 8.30006 6 7.50006 6ZM8.00006 17H11.0001V14H13.0001V17H16.0001V19H13.0001V22H11.0001V19H8.00006V17Z" fill="#71717A"/>
</svg>
