<svg width="24" height="24" viewBox="0 0 24 24" fill="none" xmlns="http://www.w3.org/2000/svg">
<path d="M14.53 1.45001L13.45 2.53001L15.05 4.13001C15.27 4.38001 15.38 4.67001 15.38 5.00001C15.38 5.33001 15.27 5.64001 15.05 5.86001L11.5 9.47001L12.5 10.55L16.13 6.94001C16.66 6.35001 16.92 5.70001 16.92 5.00001C16.92 4.30001 16.66 3.64001 16.13 3.05001L14.53 1.45001ZM10.55 3.47001L9.47 4.55001L10.08 5.11001C10.3 5.33001 10.41 5.63001 10.41 6.00001C10.41 6.37001 10.3 6.67001 10.08 6.89001L9.47 7.45001L10.55 8.53001L11.11 7.92001C11.64 7.33001 11.91 6.69001 11.91 6.00001C11.91 5.28001 11.64 4.63001 11.11 4.03001L10.55 3.47001ZM21 5.06001C20.31 5.06001 19.67 5.33001 19.08 5.86001L13.45 11.5L14.53 12.5L20.11 6.94001C20.36 6.69001 20.66 6.56001 21 6.56001C21.34 6.56001 21.64 6.69001 21.89 6.94001L22.5 7.55001L23.53 6.47001L22.97 5.86001C22.38 5.33001 21.72 5.06001 21 5.06001ZM7 8.00001L2 22L16 17L7 8.00001ZM19 11.06C18.3 11.06 17.66 11.33 17.06 11.86L15.47 13.45L16.55 14.53L18.14 12.94C18.39 12.69 18.67 12.56 19 12.56C19.33 12.56 19.63 12.69 19.88 12.94L21.5 14.53L22.55 13.5L20.95 11.86C20.36 11.33 19.7 11.06 19 11.06Z" fill="#71717A"/>
</svg>
