<svg width="24" height="24" viewBox="0 0 24 24" fill="none" xmlns="http://www.w3.org/2000/svg">
<path d="M7.50006 3C5.00006 3 3.00006 5 3.00006 7.5C3.00006 10 5.00006 12 7.50006 12C9.50006 12 11.1001 10.8 11.7001 9H15.0001V12H18.0001V9H21.0001V6H11.7001C11.1001 4.2 9.50006 3 7.50006 3ZM7.50006 6C8.30006 6 9.00006 6.7 9.00006 7.5C9.00006 8.3 8.30006 9 7.50006 9C6.70006 9 6.00006 8.3 6.00006 7.5C6.00006 6.7 6.70006 6 7.50006 6ZM12.0001 14L10.9001 16.6L8.00006 16.9L10.2001 18.8L9.50006 21.6L12.0001 20.1L14.4001 21.6L13.8001 18.8L16.0001 16.9L13.1001 16.7L12.0001 14Z" fill="#71717A"/>
</svg>
