<svg width="16" height="16" viewBox="0 0 16 16" fill="none" xmlns="http://www.w3.org/2000/svg">
<path d="M2.36365 1.81818C2.36365 1.11528 2.93347 0.545456 3.63637 0.545456H12.3636C13.0666 0.545456 13.6364 1.11528 13.6364 1.81818V8.24243H12.5455V1.81818C12.5455 1.71777 12.4641 1.63636 12.3636 1.63636H3.63637C3.53596 1.63636 3.45456 1.71777 3.45456 1.81818V12.3636C3.45456 12.4641 3.53596 12.5455 3.63638 12.5455H6.09092V13.6364H3.63638C2.93347 13.6364 2.36365 13.0665 2.36365 12.3636V1.81818Z" fill="black"/>
<path d="M12.3637 12C12.3637 12.8033 11.7124 13.4545 10.9091 13.4545C10.1058 13.4545 9.45457 12.8033 9.45457 12C9.45457 11.1967 10.1058 10.5455 10.9091 10.5455C11.7124 10.5455 12.3637 11.1967 12.3637 12ZM11.2728 12C11.2728 11.7992 11.1099 11.6364 10.9091 11.6364C10.7083 11.6364 10.5455 11.7992 10.5455 12C10.5455 12.2008 10.7083 12.3636 10.9091 12.3636C11.1099 12.3636 11.2728 12.2008 11.2728 12Z" fill="black"/>
<path d="M10.9091 15.2727C8.49912 15.2727 6.54545 12 6.54545 12C6.54545 12 8.49912 8.72728 10.9091 8.72728C13.3191 8.72728 15.2727 12 15.2727 12C15.2727 12 13.3191 15.2727 10.9091 15.2727ZM8.60848 11.1212C8.31016 11.4303 8.05765 11.7426 7.86598 12C8.05765 12.2574 8.31016 12.5697 8.60848 12.8788C9.3563 13.6536 10.1733 14.1818 10.9091 14.1818C11.6448 14.1818 12.4619 13.6536 13.2097 12.8788C13.508 12.5697 13.7605 12.2574 13.9522 12C13.7605 11.7426 13.508 11.4303 13.2097 11.1212C12.4619 10.3464 11.6448 9.81819 10.9091 9.81819C10.1733 9.81819 9.3563 10.3464 8.60848 11.1212Z" fill="black"/>
<path d="M4.36366 4.18182H11.6364V3.09091H4.36366V4.18182Z" fill="black"/>
<path d="M11.6364 6.72728H4.36366V5.63637H11.6364V6.72728Z" fill="black"/>
<path d="M4.36366 9.27273H7.27275V8.18182H4.36366V9.27273Z" fill="black"/>
</svg>
