<svg width="16" height="16" viewBox="0 0 16 16" fill="none" xmlns="http://www.w3.org/2000/svg">
<path d="M7.90476 3.80952C6.85279 3.80952 6 2.95673 6 1.90476C6 0.852791 6.85279 -4.59831e-08 7.90476 0C8.95673 4.59831e-08 9.80952 0.852791 9.80952 1.90476C9.80952 2.95673 8.95673 3.80952 7.90476 3.80952Z" fill="black"/>
<path d="M7.90476 9.90476C6.85279 9.90476 6 9.05197 6 8C6 6.94803 6.85279 6.09524 7.90476 6.09524C8.95673 6.09524 9.80952 6.94803 9.80952 8C9.80952 9.05197 8.95673 9.90476 7.90476 9.90476Z" fill="black"/>
<path d="M6 14.0952C6 15.1472 6.85279 16 7.90476 16C8.95673 16 9.80952 15.1472 9.80952 14.0952C9.80952 13.0433 8.95673 12.1905 7.90476 12.1905C6.85279 12.1905 6 13.0433 6 14.0952Z" fill="black"/>
</svg>
