<svg width="16" height="16" viewBox="0 0 16 16" fill="none" xmlns="http://www.w3.org/2000/svg">
<path d="M3.69999 2.10001C3.27002 2.10001 2.89999 2.46109 2.89999 2.93334V12.2667C2.89999 12.7389 3.27002 13.1 3.69999 13.1H7.59999V14.1H3.69999C2.69402 14.1 1.89999 13.2672 1.89999 12.2667V2.93334C1.89999 1.93283 2.69402 1.10001 3.69999 1.10001H11.5C12.506 1.10001 13.3 1.93283 13.3 2.93334V8.26667H12.3V2.93334C12.3 2.46109 11.93 2.10001 11.5 2.10001H3.69999Z" fill="black"/>
<path d="M13.2136 13.3065C13.458 12.9305 13.6 12.4818 13.6 12C13.6 10.6745 12.5255 9.60001 11.2 9.60001C9.87451 9.60001 8.79999 10.6745 8.79999 12C8.79999 13.3255 9.87451 14.4 11.2 14.4C11.6818 14.4 12.1305 14.258 12.5065 14.0136L14.0464 15.5536L14.7535 14.8465L13.2136 13.3065ZM11.2 13.4C10.4268 13.4 9.79999 12.7732 9.79999 12C9.79999 11.2268 10.4268 10.6 11.2 10.6C11.9732 10.6 12.6 11.2268 12.6 12C12.6 12.7732 11.9732 13.4 11.2 13.4Z" fill="black"/>
<path d="M11.2 4.90001H3.99999V3.90001H11.2V4.90001Z" fill="black"/>
<path d="M3.99999 6.90728H11.2V5.90728H3.99999V6.90728Z" fill="black"/>
<path d="M9.59999 8.90001H3.99999V7.90001H9.59999V8.90001Z" fill="black"/>
<path d="M3.99999 10.9091H7.59999V9.90914H3.99999V10.9091Z" fill="black"/>
</svg>
