<svg width="16" height="16" viewBox="0 0 16 16" fill="none" xmlns="http://www.w3.org/2000/svg">
<path d="M2.30341 13.0703C2.30341 13.3864 2.55877 13.6418 2.87484 13.6418H13.1248C13.4409 13.6418 13.6963 13.3864 13.6963 13.0703V8.90963C13.6963 5.7632 11.1463 3.2132 7.99984 3.2132C4.85342 3.2132 2.30341 5.7632 2.30341 8.90963V13.0703ZM3.58913 8.90963C3.58913 6.47392 5.56413 4.49892 7.99984 4.49892C10.4356 4.49892 12.4106 6.47392 12.4106 8.90963V12.3561C6.9309 12.3561 6.56952 12.3561 3.58913 12.3561V8.90963ZM2.7302 4.4007L3.43734 3.69356C3.4927 3.6382 3.4927 3.54713 3.43734 3.49177L2.22484 2.27927C2.19799 2.25269 2.16174 2.23777 2.12395 2.23777C2.08616 2.23777 2.04991 2.25269 2.02306 2.27927L1.31591 2.98642C1.28933 3.01326 1.27441 3.04952 1.27441 3.08731C1.27441 3.12509 1.28933 3.16135 1.31591 3.1882L2.52841 4.4007C2.58377 4.45606 2.67306 4.45606 2.7302 4.4007ZM14.6873 2.98642L13.9802 2.27927C13.9534 2.25269 13.9171 2.23777 13.8793 2.23777C13.8415 2.23777 13.8053 2.25269 13.7784 2.27927L12.5659 3.49177C12.5393 3.51862 12.5244 3.55488 12.5244 3.59267C12.5244 3.63045 12.5393 3.66671 12.5659 3.69356L13.2731 4.4007C13.3284 4.45606 13.4195 4.45606 13.4748 4.4007L14.6873 3.1882C14.7427 3.13106 14.7427 3.04177 14.6873 2.98642ZM13.7141 14.7846H2.28556C1.96949 14.7846 1.71413 15.04 1.71413 15.3561V15.7846C1.71413 15.8632 1.77841 15.9275 1.85699 15.9275H14.1427C14.2213 15.9275 14.2856 15.8632 14.2856 15.7846V15.3561C14.2856 15.04 14.0302 14.7846 13.7141 14.7846ZM7.49984 2.07034H8.49984C8.57842 2.07034 8.6427 2.00606 8.6427 1.92749V0.2132C8.6427 0.134629 8.57842 0.070343 8.49984 0.070343H7.49984C7.42127 0.070343 7.35699 0.134629 7.35699 0.2132V1.92749C7.35699 2.00606 7.42127 2.07034 7.49984 2.07034Z" fill="black"/>
</svg>
