<svg width="16" height="16" viewBox="0 0 16 16" fill="none" xmlns="http://www.w3.org/2000/svg">
<path d="M9.15562 2.01683C8.64397 1.12387 7.35605 1.12387 6.8444 2.01683L5.73468 3.9536C5.54551 4.28376 5.22415 4.51724 4.8517 4.59512L2.6668 5.05204C1.65943 5.26271 1.26144 6.48759 1.95259 7.25013L3.45165 8.90404C3.70719 9.18598 3.82993 9.56375 3.78892 9.94205L3.5483 12.1612C3.43736 13.1844 4.4793 13.9414 5.41811 13.5197L7.4543 12.6051C7.8014 12.4492 8.19862 12.4492 8.54572 12.6051L10.5819 13.5197C11.5207 13.9414 12.5627 13.1844 12.4517 12.1612L12.2111 9.94205C12.1701 9.56375 12.2928 9.18598 12.5484 8.90404L14.0474 7.25014C14.7386 6.48759 14.3406 5.26271 13.3332 5.05204L11.1483 4.59512C10.7759 4.51724 10.4545 4.28376 10.2653 3.9536L9.15562 2.01683Z" fill="black"/>
</svg>
