<svg width="16" height="16" viewBox="0 0 16 16" fill="none" xmlns="http://www.w3.org/2000/svg">
<path d="M11.9979 2.41012C11.9555 2.17688 11.7514 2 11.5059 2H1.5L1.41012 2.00806C1.17688 2.05039 1 2.25454 1 2.5V13.5048L1.00806 13.5947C1.05039 13.828 1.25454 14.0048 1.5 14.0048H11.5059L11.5958 13.9968C11.8291 13.9545 12.0059 13.7503 12.0059 13.5048V11.7536L11.9979 11.6638C11.9555 11.4305 11.7514 11.2536 11.5059 11.2536L11.4161 11.2617C11.1828 11.304 11.0059 11.5082 11.0059 11.7536L11.0059 13.0044H1.99989V2.99942H11.0059L11.0059 4.25121L11.014 4.34109C11.0563 4.57434 11.2605 4.75121 11.5059 4.75121C11.7821 4.75121 12.0059 4.52735 12.0059 4.25121V2.5L11.9979 2.41012Z" fill="black"/>
<path d="M12.3145 7.00412C12.3145 6.59296 12.7832 6.35754 13.113 6.60299L14.4604 7.60562C14.7291 7.80555 14.7291 8.20794 14.4604 8.40787L13.113 9.4105C12.7832 9.65596 12.3145 9.42053 12.3145 9.00938V8.50084H5.0104C4.73426 8.50084 4.5104 8.27698 4.5104 8.00084C4.5104 7.7247 4.73425 7.50084 5.0104 7.50084H12.3145V7.00412Z" fill="black"/>
</svg>
