<svg width="17" height="17" viewBox="0 0 17 17" fill="none" xmlns="http://www.w3.org/2000/svg">
<path d="M12.9979 2.41012C12.9555 2.17688 12.7514 2 12.5059 2H2.5L2.41012 2.00806C2.17688 2.05039 2 2.25454 2 2.5V13.5048L2.00806 13.5947C2.05039 13.828 2.25454 14.0048 2.5 14.0048H12.5059L12.5958 13.9968C12.8291 13.9545 13.0059 13.7503 13.0059 13.5048V11.7536L12.9979 11.6638C12.9555 11.4305 12.7514 11.2536 12.5059 11.2536L12.4161 11.2617C12.1828 11.304 12.0059 11.5082 12.0059 11.7536L12.0059 13.0044H2.99989V2.99942H12.0059L12.0059 4.25121L12.014 4.34109C12.0563 4.57434 12.2605 4.75121 12.5059 4.75121C12.7821 4.75121 13.0059 4.52735 13.0059 4.25121V2.5L12.9979 2.41012Z" fill="black"/>
<path d="M13.3145 7.00412C13.3145 6.59296 13.7832 6.35754 14.113 6.60299L15.4604 7.60562C15.7291 7.80555 15.7291 8.20794 15.4604 8.40787L14.113 9.4105C13.7832 9.65596 13.3145 9.42053 13.3145 9.00938V8.50084H6.0104C5.73426 8.50084 5.5104 8.27698 5.5104 8.00084C5.5104 7.7247 5.73425 7.50084 6.0104 7.50084H13.3145V7.00412Z" fill="black"/>
</svg>
