<svg width="16" height="16" viewBox="0 0 16 16" fill="none" xmlns="http://www.w3.org/2000/svg">
<path d="M6.41421 12H2V2L14 2V12H9.58579L8 13.5858L6.41421 12ZM2 1C1.44772 1 1 1.44772 1 2V12C1 12.5523 1.44772 13 2 13H6L7.29289 14.2929C7.68342 14.6834 8.31658 14.6834 8.70711 14.2929L10 13H14C14.5523 13 15 12.5523 15 12V2C15 1.44772 14.5523 1 14 1H2ZM5 8C5.55228 8 6 7.55228 6 7C6 6.44772 5.55228 6 5 6C4.44772 6 4 6.44772 4 7C4 7.55228 4.44772 8 5 8ZM9 7C9 7.55228 8.55228 8 8 8C7.44772 8 7 7.55228 7 7C7 6.44772 7.44772 6 8 6C8.55228 6 9 6.44772 9 7ZM11 8C11.5523 8 12 7.55228 12 7C12 6.44772 11.5523 6 11 6C10.4477 6 10 6.44772 10 7C10 7.55228 10.4477 8 11 8Z" fill="black"/>
</svg>
