<svg width="16" height="16" viewBox="0 0 16 16" fill="none" xmlns="http://www.w3.org/2000/svg">
<path d="M8.5 5C8.5 4.72386 8.27614 4.5 8 4.5C7.72386 4.5 7.5 4.72386 7.5 5V7H5.5C5.22386 7 5 7.22386 5 7.5C5 7.77614 5.22386 8 5.5 8H7.5V10C7.5 10.2761 7.72386 10.5 8 10.5C8.27614 10.5 8.5 10.2761 8.5 10V8H10.5C10.7761 8 11 7.77614 11 7.5C11 7.22386 10.7761 7 10.5 7H8.5V5Z" fill="black"/>
<path d="M10.4376 13.3749L8 15L5.5624 13.3749C3.33681 11.8912 2 9.39336 2 6.71853V3L8 1L14 3V6.71853C14 9.39336 12.6632 11.8912 10.4376 13.3749ZM8 2.05409L3 3.72076V6.71853C3 9.059 4.16971 11.2446 6.1171 12.5429L8 13.7981L9.8829 12.5429C11.8303 11.2446 13 9.059 13 6.71853V3.72076L8 2.05409Z" fill="black"/>
</svg>
