<svg width="16" height="16" viewBox="0 0 16 16" fill="none" xmlns="http://www.w3.org/2000/svg">
<path d="M8.15958 7.36751C9.26663 6.65609 10 5.41369 10 4C10 1.79086 8.20914 0 6 0C3.79086 0 2 1.79086 2 4C2 5.39666 2.71581 6.62614 3.80058 7.34157C2.97043 7.61971 2.24463 8.06297 1.65381 8.65378C0.585812 9.72177 0 11.2308 0 13V13.5H6.5V12.5H1.01831C1.11616 11.1863 1.6015 10.1203 2.36091 9.3609C3.21449 8.50733 4.45545 8 6 8C6.94284 8 7.82887 8.23682 8.60335 8.65383L9.07743 7.77334C8.78423 7.61548 8.47754 7.47948 8.15958 7.36751ZM6 7C4.34315 7 3 5.65685 3 4C3 2.34315 4.34315 1 6 1C7.65685 1 9 2.34315 9 4C9 5.65685 7.65685 7 6 7Z" fill="black"/>
<path d="M14.3897 8.85287C14.6337 8.60887 15.0457 8.67953 15.1944 8.9909C15.8156 10.2912 15.5885 11.8967 14.5104 12.9748C13.5227 13.9625 12.0924 14.2359 10.8596 13.7972L9.56067 15.0961C8.97488 15.6819 8.02513 15.6819 7.43935 15.0961C6.85356 14.5103 6.85356 13.5606 7.43935 12.9748L8.73828 11.6759C8.29955 10.4431 8.57296 9.01277 9.56067 8.02506C10.6388 6.94693 12.2442 6.71987 13.5446 7.34105C13.8559 7.48979 13.9266 7.90176 13.6826 8.14577L12.3891 9.43928V10.1464H13.0962L14.3897 8.85287ZM12.3893 8.02483C11.6371 7.91795 10.8458 8.15413 10.2678 8.73217C9.49863 9.50131 9.33476 10.648 9.77899 11.5779L9.9314 11.897L8.14645 13.6819C7.95119 13.8772 7.95119 14.1938 8.14645 14.389C8.34171 14.5843 8.6583 14.5843 8.85356 14.389L10.6385 12.6041L10.9576 12.7565C11.8875 13.2007 13.0342 13.0368 13.8033 12.2677C14.3813 11.6897 14.6175 10.8984 14.5106 10.1462L13.8033 10.8535C13.2175 11.4393 11.682 10.8535 11.682 10.8535C11.682 10.8535 11.0962 9.31796 11.682 8.73217L12.3893 8.02483Z" fill="black"/>
</svg>
