<svg width="16" height="16" viewBox="0 0 16 16" fill="none" xmlns="http://www.w3.org/2000/svg">
<path d="M11 3C11 4.65685 9.65685 6 8 6C6.34315 6 5 4.65685 5 3C5 1.34315 6.34315 0 8 0C9.65685 0 11 1.34315 11 3ZM10 3C10 1.89543 9.10457 1 8 1C6.89543 1 6 1.89543 6 3C6 4.10457 6.89543 5 8 5C9.10457 5 10 4.10457 10 3Z" fill="black"/>
<path d="M6 12C6 13.6569 4.65685 15 3 15C1.34315 15 0 13.6569 0 12C0 10.3431 1.34315 9 3 9C4.65685 9 6 10.3431 6 12ZM5 12C5 10.8954 4.10457 10 3 10C1.89543 10 1 10.8954 1 12C1 13.1046 1.89543 14 3 14C4.10457 14 5 13.1046 5 12Z" fill="black"/>
<path d="M13 15C14.6569 15 16 13.6569 16 12C16 10.3431 14.6569 9 13 9C11.3431 9 10 10.3431 10 12C10 13.6569 11.3431 15 13 15ZM13 14C11.8954 14 11 13.1046 11 12C11 10.8954 11.8954 10 13 10C14.1046 10 15 10.8954 15 12C15 13.1046 14.1046 14 13 14Z" fill="black"/>
<path d="M13.4801 8.02851C13.3604 6.61872 12.7089 5.36052 11.727 4.4553C11.8612 4.11191 11.9493 3.74543 11.9837 3.36347C13.4631 4.51251 14.4329 6.28661 14.4966 8.28941C14.1763 8.16006 13.8353 8.07101 13.4801 8.02851Z" fill="black"/>
<path d="M9.43275 13.8115C9.59301 14.1265 9.79375 14.4174 10.0281 14.6773C9.38994 14.8867 8.7082 15 7.99999 15C7.29179 15 6.61005 14.8867 5.97188 14.6773C6.20624 14.4174 6.40698 14.1265 6.56724 13.8115C7.02405 13.9344 7.50436 14 7.99999 14C8.49563 14 8.97594 13.9344 9.43275 13.8115Z" fill="black"/>
<path d="M2.51992 8.02851C2.16466 8.07101 1.82371 8.16006 1.50334 8.28941C1.56709 6.28662 2.53686 4.51251 4.01629 3.36346C4.05069 3.74543 4.13879 4.11191 4.27297 4.4553C3.2911 5.36052 2.63961 6.61872 2.51992 8.02851Z" fill="black"/>
</svg>
