<svg width="16" height="16" viewBox="0 0 16 16" fill="none" xmlns="http://www.w3.org/2000/svg">
<path d="M7.99999 1.1547L10.4641 2.57735V5.42265L7.99999 6.8453L5.53589 5.42265V2.57735L7.99999 1.1547ZM11.4641 2L7.99999 0L4.53589 2V6L7.99999 8L11.4641 6V2ZM3.99999 8.1547L6.46409 9.57735V12.4226L3.99999 13.8453L1.53589 12.4226V9.57735L3.99999 8.1547ZM7.46409 9L3.99999 7L0.535889 9V13L3.99999 15L7.46409 13V9ZM9.53589 9.57735V12.4226L12 13.8453L14.4641 12.4226V9.57735L12 8.1547L9.53589 9.57735ZM12 7L15.4641 9V13L12 15L8.53589 13V9L12 7Z" fill="black"/>
</svg>
