<svg width="16" height="16" viewBox="0 0 16 16" fill="none" xmlns="http://www.w3.org/2000/svg">
<path d="M10.063 3.5C10.285 2.63739 11.0681 2 12 2C13.1046 2 14 2.89543 14 4C14 5.10457 13.1046 6 12 6C11.0681 6 10.285 5.36261 10.063 4.5H4.5C3.67157 4.5 3 5.17157 3 6C3 6.82843 3.67157 7.5 4.5 7.5H9V8.5H4.5C3.11929 8.5 2 7.38071 2 6C2 4.61929 3.11929 3.5 4.5 3.5H10.063ZM12 5C12.5523 5 13 4.55228 13 4C13 3.44772 12.5523 3 12 3C11.4477 3 11 3.44772 11 4C11 4.55228 11.4477 5 12 5Z" fill="black"/>
<path d="M4 10C2.89543 10 2 10.8954 2 12C2 13.1046 2.89543 14 4 14C4.93192 14 5.71497 13.3626 5.93699 12.5H7V11.5H5.93699C5.71497 10.6374 4.93192 10 4 10ZM3 12C3 11.4477 3.44772 11 4 11C4.55228 11 5 11.4477 5 12C5 12.5523 4.55228 13 4 13C3.44772 13 3 12.5523 3 12Z" fill="black"/>
<path d="M13 12C13 12.5523 12.5523 13 12 13C11.4477 13 11 12.5523 11 12C11 11.4477 11.4477 11 12 11C12.5523 11 13 11.4477 13 12Z" fill="black"/>
<path d="M12.8863 8.67378C12.624 7.77539 11.376 7.77539 11.1137 8.67378C10.9581 9.20652 10.3866 9.48713 9.88103 9.27896C9.02851 8.92792 8.25041 9.92265 8.77581 10.6919C9.08737 11.148 8.94621 11.7786 8.47137 12.0517C7.67062 12.5124 7.94833 13.7528 8.86582 13.8136C9.40989 13.8497 9.80542 14.3553 9.71884 14.9041C9.57284 15.8295 10.6972 16.3816 11.3159 15.6882C11.6828 15.277 12.3172 15.277 12.6841 15.6882C13.3028 16.3816 14.4272 15.8295 14.2812 14.9041C14.1946 14.3553 14.5901 13.8497 15.1342 13.8136C16.0517 13.7528 16.3294 12.5124 15.5286 12.0517C15.0538 11.7786 14.9126 11.148 15.2242 10.6919C15.7496 9.92265 14.9715 8.92791 14.119 9.27896C13.6134 9.48713 13.0419 9.20652 12.8863 8.67378ZM9.83084 10.3939C10.7033 10.5761 11.5958 10.1379 12 9.32892C12.4042 10.1379 13.2967 10.5761 14.1692 10.3939C13.8008 11.2205 14.0212 12.2051 14.7049 12.7869C13.8413 13.0086 13.2237 13.7982 13.2038 14.7059C12.4953 14.1558 11.5047 14.1558 10.7962 14.7059C10.7763 13.7982 10.1587 13.0086 9.2951 12.7869C9.9788 12.2051 10.1992 11.2205 9.83084 10.3939Z" fill="black"/>
</svg>
