<svg width="16" height="16" viewBox="0 0 16 16" fill="none" xmlns="http://www.w3.org/2000/svg">
<path d="M6.51644 4.88889H9.48267L9.43162 4.98584C8.81218 6.13189 8.29332 6.66667 8 6.66667L7.95433 6.66265C7.65454 6.61166 7.15685 6.07458 6.56838 4.98584L6.51644 4.88889Z" fill="black"/>
<path d="M8 9.33333C7.70668 9.33333 7.18782 9.86811 6.56838 11.0142L6.51644 11.1111H9.48267L9.43162 11.0142C8.84315 9.92542 8.34546 9.38834 8.04567 9.33735L8 9.33333Z" fill="black"/>
<path d="M16 8C16 12.4183 12.4183 16 8 16C3.58172 16 0 12.4183 0 8C0 3.58172 3.58172 0 8 0C12.4183 0 16 3.58172 16 8ZM8 8C9.18519 8 10.3704 6.51852 11.5556 3.55556H4.44444C5.62963 6.51852 6.81482 8 8 8ZM8 8C6.81482 8 5.62963 9.48148 4.44444 12.4444H11.5556C10.3704 9.48148 9.18519 8 8 8Z" fill="black"/>
</svg>
