<svg width="16" height="16" viewBox="0 0 16 16" fill="none" xmlns="http://www.w3.org/2000/svg">
<path d="M7.76295 1.05976C7.91094 0.980079 8.08906 0.980079 8.23705 1.05976L14.7371 4.55976C14.899 4.64697 15 4.81606 15 5V11C15 11.1839 14.899 11.353 14.7371 11.4402L8.23705 14.9402C8.08906 15.0199 7.91094 15.0199 7.76295 14.9402L1.26295 11.4402C1.101 11.353 1 11.1839 1 11V5C1 4.81606 1.101 4.64697 1.26295 4.55976L7.76295 1.05976ZM2 5.83711V10.7014L7.5 13.6629V8.79865L2 5.83711ZM8.5 13.6629L14 10.7014V5.83711L8.5 8.79865V13.6629ZM8 7.93212L13.4454 5L8 2.06788L2.55463 5L8 7.93212Z" fill="black"/>
</svg>
