<svg width="16" height="16" viewBox="0 0 16 16" fill="none" xmlns="http://www.w3.org/2000/svg">
<path d="M1.35374 0.646355C1.15847 0.451093 0.841892 0.451093 0.64663 0.646355C0.451368 0.841617 0.451368 1.1582 0.64663 1.35346L14.6466 15.3535C14.8419 15.5487 15.1585 15.5487 15.3537 15.3535C15.549 15.1582 15.549 14.8416 15.3537 14.6464L1.35374 0.646355Z" fill="black"/>
<path d="M7.12901 1.87088C7.12901 1.38985 7.51896 0.999908 7.99998 0.999908C8.481 0.999908 8.87095 1.38985 8.87095 1.87088V2.3882C11.0102 2.79564 12.6273 4.67581 12.6273 6.93369V9.20195L13.9225 10.9289C14.1451 11.2257 14.1432 11.588 13.9903 11.8688L11.6273 9.50578V6.93369C11.6273 4.93037 10.0033 3.30636 7.99998 3.30636C7.26824 3.30636 6.58711 3.52303 6.01724 3.89572L5.29815 3.17663C5.83393 2.79065 6.4556 2.51646 7.12901 2.3882V1.87088Z" fill="black"/>
<path d="M9.20137 11.3225L10.2014 12.3225H10.1774C10.1774 13.525 9.20254 14.4999 7.99998 14.4999C6.79742 14.4999 5.82256 13.525 5.82256 12.3225L2.77416 12.3225C2.05644 12.3225 1.64676 11.5031 2.07739 10.9289L3.37265 9.20193V6.93369C3.37265 6.49513 3.43366 6.07081 3.54766 5.66878L4.39628 6.5174C4.38067 6.654 4.37265 6.79291 4.37265 6.93369V9.53526L3.03223 11.3225H9.20137ZM6.69353 12.3225C6.69353 13.044 7.27845 13.6289 7.99998 13.6289C8.72151 13.6289 9.30643 13.044 9.30643 12.3225H6.69353Z" fill="black"/>
</svg>
