<svg width="16" height="16" viewBox="0 0 16 16" fill="none" xmlns="http://www.w3.org/2000/svg">
<path d="M8.68899 0.965116C8.30296 0.598136 7.69703 0.598135 7.311 0.965116L1.56265 6.42978C0.908077 7.05205 1.34849 8.15455 2.25165 8.15455H5V12.5C5 13.0523 5.44771 13.5 6 13.5H10C10.5523 13.5 11 13.0523 11 12.5V8.15455H13.7483C14.6515 8.15455 15.0919 7.05206 14.4373 6.42978L8.68899 0.965116ZM2.25165 7.15455L8 1.68988L13.7483 7.15455L11 7.15455C10.4477 7.15455 10 7.60226 10 8.15455V12.5L6 12.5V8.15455C6 7.60226 5.55228 7.15455 5 7.15455H2.25165Z" fill="black"/>
<path d="M3 14.5C2.72386 14.5 2.5 14.7239 2.5 15C2.5 15.2761 2.72385 15.5 3 15.5L13 15.5C13.2761 15.5 13.5 15.2761 13.5 15C13.5 14.7239 13.2761 14.5 13 14.5L3 14.5Z" fill="black"/>
</svg>
