<svg width="16" height="16" viewBox="0 0 16 16" fill="none" xmlns="http://www.w3.org/2000/svg">
<path d="M8 1C11.866 1 15 4.13401 15 8C15 11.866 11.866 15 8 15C4.13401 15 1 11.866 1 8C1 4.13401 4.13401 1 8 1ZM2.50645 5.5836C2.1808 6.32287 2 7.14032 2 8C2 10.4215 3.43447 12.5079 5.5 13.456V11.8285L6.86554 9.83686L10.5 12.2379V13.456C11.9053 12.811 13.0186 11.6389 13.5866 10.193L11.748 9.12015V6.30629L13.5462 5.70689C13.0659 4.54645 12.232 3.56948 11.1788 2.91032L11.1072 3.02683L10.9847 3.16234L9.567 4.244L9.56704 5.9778L7.638 6.902L7.63818 9.01651H4.9599L2.50659 5.94017L2.50645 5.5836ZM13.8498 6.65978L12.748 7.027V8.546L13.8788 9.20573C13.9583 8.81622 14 8.41298 14 8C14 7.53929 13.9481 7.0907 13.8498 6.65978ZM8 14C8.51786 14 9.02039 13.9344 9.49975 13.811L9.499 12.775L7.134 11.213L6.499 12.139L6.49983 13.8109C6.97931 13.9344 7.48199 14 8 14ZM3.50656 4.02384L3.506 5.59L5.441 8.016H6.638L6.63818 6.27311L8.567 5.348L8.56704 3.75026L10.2738 2.44584C9.57254 2.15844 8.80477 2 8 2C6.21152 2 4.60581 2.78251 3.50656 4.02384Z" fill="black"/>
</svg>
