<svg width="17" height="17" viewBox="0 0 17 17" fill="none" xmlns="http://www.w3.org/2000/svg">
<path d="M14.996 8.75976C14.996 8.75975 14.996 8.75976 14.996 8.75976C14.8774 5.24466 12.1672 2.38666 8.71571 2.03614C8.4866 2.01287 8.25422 2.00065 8.01912 2.00003C8.01275 2.00001 8.00638 2 8 2C4.13401 2 1 5.13401 1 9C1 12.866 4.13401 16 8 16C11.866 16 15 12.866 15 9C15 8.91959 14.9986 8.83951 14.996 8.75976ZM7.52641 3.01842L7.52674 9.49L13.9803 9.48945C13.7313 12.5742 11.1489 15 8 15C4.68629 15 2 12.3137 2 9C2 5.84568 4.43408 3.25988 7.52641 3.01842ZM8.52574 8.49V2.97176L9.11634 3.10364C11.5405 3.55975 13.4497 5.47402 13.8994 7.89983C13.9352 8.09313 13.9617 8.28968 13.9785 8.48901L8.52574 8.49Z" fill="black"/>
</svg>
