<svg width="16" height="16" viewBox="0 0 16 16" fill="none" xmlns="http://www.w3.org/2000/svg">
<path d="M7.99999 5.33333C8.73332 5.33333 9.33332 4.73333 9.33332 4C9.33332 3.26666 8.73332 2.66666 7.99999 2.66666C7.26666 2.66666 6.66666 3.26666 6.66666 4C6.66666 4.73333 7.26666 5.33333 7.99999 5.33333ZM7.99999 6.66666C7.26666 6.66666 6.66666 7.26666 6.66666 8C6.66666 8.73333 7.26666 9.33333 7.99999 9.33333C8.73332 9.33333 9.33332 8.73333 9.33332 8C9.33332 7.26666 8.73332 6.66666 7.99999 6.66666ZM7.99999 10.6667C7.26666 10.6667 6.66666 11.2667 6.66666 12C6.66666 12.7333 7.26666 13.3333 7.99999 13.3333C8.73332 13.3333 9.33332 12.7333 9.33332 12C9.33332 11.2667 8.73332 10.6667 7.99999 10.6667Z" fill="black"/>
</svg>
