<svg width="16" height="16" viewBox="0 0 16 16" fill="none" xmlns="http://www.w3.org/2000/svg">
<path d="M3.4038 3.40379C4.57952 2.22808 6.2052 1.5 7.99999 1.5C9.79478 1.5 11.4205 2.22809 12.5962 3.40382L12.9497 3.75737L9.81826 6.88885L9.46471 6.53529C9.08931 6.15988 8.57213 5.92858 7.99998 5.92858C7.42784 5.92858 6.91067 6.15987 6.53527 6.53527L6.18172 6.88881L3.05025 3.75734L3.4038 3.40379ZM4.48045 3.77334L6.21057 5.50345C6.71432 5.14188 7.33253 4.92858 7.99998 4.92858C8.66744 4.92858 9.28567 5.14189 9.78942 5.50348L11.5195 3.77336C10.5655 2.97794 9.33894 2.5 7.99999 2.5C6.66105 2.5 5.43447 2.97794 4.48045 3.77334ZM9.81829 9.11121L12.9498 12.2427L12.5962 12.5962C11.4205 13.772 9.7948 14.5001 7.99999 14.5001C6.20518 14.5001 4.57948 13.772 3.40375 12.5962L3.0502 12.2427L6.18168 9.11122L6.53524 9.46478C6.91064 9.84019 7.42782 10.0715 7.99998 10.0715C8.57214 10.0715 9.08933 9.84019 9.46473 9.46477L9.81829 9.11121ZM9.78945 10.4966C9.2857 10.8582 8.66746 11.0715 7.99998 11.0715C7.33251 11.0715 6.71428 10.8582 6.21052 10.4966L4.4804 12.2267C5.43443 13.0221 6.66102 13.5001 7.99999 13.5001C9.33895 13.5001 10.5655 13.0221 11.5196 12.2267L9.78945 10.4966Z" fill="black"/>
<path d="M8.00001 2.5C4.96244 2.5 2.5 4.96243 2.5 8C2.5 11.0376 4.96244 13.5 8.00001 13.5C11.0376 13.5 13.5 11.0376 13.5 8C13.5 4.96243 11.0376 2.5 8.00001 2.5ZM1.5 8C1.5 4.41015 4.41015 1.5 8.00001 1.5C11.5899 1.5 14.5 4.41015 14.5 8C14.5 11.5899 11.5899 14.5 8.00001 14.5C4.41015 14.5 1.5 11.5899 1.5 8ZM8 5.92858C6.85598 5.92858 5.92857 6.85599 5.92857 8C5.92857 9.14402 6.85598 10.0714 8 10.0714C9.14402 10.0714 10.0714 9.14402 10.0714 8C10.0714 6.85599 9.14402 5.92858 8 5.92858ZM4.92857 8C4.92857 6.3037 6.3037 4.92858 8 4.92858C9.6963 4.92858 11.0714 6.3037 11.0714 8C11.0714 9.69631 9.6963 11.0714 8 11.0714C6.3037 11.0714 4.92857 9.69631 4.92857 8Z" fill="black"/>
</svg>
