<svg width="16" height="16" viewBox="0 0 16 16" fill="none" xmlns="http://www.w3.org/2000/svg">
<path d="M1.5 1C0.947715 1 0.5 1.44772 0.5 2V4C0.5 4.55228 0.947715 5 1.5 5H14.5C15.0523 5 15.5 4.55228 15.5 4V2C15.5 1.44772 15.0523 1 14.5 1H1.5ZM12.5 4C11.9477 4 11.5 3.55228 11.5 3C11.5 2.44772 11.9477 2 12.5 2C13.0523 2 13.5 2.44772 13.5 3C13.5 3.55228 13.0523 4 12.5 4Z" fill="black"/>
<path d="M1.5 6C0.947715 6 0.5 6.44772 0.5 7V9C0.5 9.55228 0.947715 10 1.5 10H14.5C15.0523 10 15.5 9.55228 15.5 9V7C15.5 6.44772 15.0523 6 14.5 6H1.5ZM12.5 9C11.9477 9 11.5 8.55228 11.5 8C11.5 7.44772 11.9477 7 12.5 7C13.0523 7 13.5 7.44772 13.5 8C13.5 8.55228 13.0523 9 12.5 9Z" fill="black"/>
<path d="M0.5 12C0.5 11.4477 0.947715 11 1.5 11H14.5C15.0523 11 15.5 11.4477 15.5 12V14C15.5 14.5523 15.0523 15 14.5 15H1.5C0.947715 15 0.5 14.5523 0.5 14V12ZM13.5 13C13.5 12.4477 13.0523 12 12.5 12C11.9477 12 11.5 12.4477 11.5 13C11.5 13.5523 11.9477 14 12.5 14C13.0523 14 13.5 13.5523 13.5 13Z" fill="black"/>
</svg>
