<svg width="16" height="16" viewBox="0 0 16 16" fill="none" xmlns="http://www.w3.org/2000/svg">
<path d="M6.93699 4.5C6.71497 5.36261 5.93192 6 5 6C4.06808 6 3.28503 5.36261 3.06301 4.5H2V3.5H3.06301C3.28503 2.63739 4.06808 2 5 2C5.93192 2 6.71497 2.63739 6.93699 3.5H14V4.5H6.93699ZM6 4C6 3.44772 5.55228 3 5 3C4.44772 3 4 3.44772 4 4C4 4.55228 4.44772 5 5 5C5.55228 5 6 4.55228 6 4Z" fill="black"/>
<path d="M9.06301 7.5C9.28503 6.63739 10.0681 6 11 6C11.9319 6 12.715 6.63739 12.937 7.5H14V8.5H12.937C12.715 9.36261 11.9319 10 11 10C10.0681 10 9.28503 9.36261 9.06301 8.5H2V7.5H9.06301ZM12 8C12 7.44772 11.5523 7 11 7C10.4477 7 10 7.44772 10 8C10 8.55228 10.4477 9 11 9C11.5523 9 12 8.55228 12 8Z" fill="black"/>
<path d="M5 10C4.06808 10 3.28503 10.6374 3.06301 11.5H2V12.5H3.06301C3.28503 13.3626 4.06808 14 5 14C5.93192 14 6.71497 13.3626 6.93699 12.5H14V11.5H6.93699C6.71497 10.6374 5.93192 10 5 10ZM5 13C4.44772 13 4 12.5523 4 12C4 11.4477 4.44772 11 5 11C5.55228 11 6 11.4477 6 12C6 12.5523 5.55228 13 5 13Z" fill="black"/>
</svg>
