<svg width="16" height="16" viewBox="0 0 16 16" fill="none" xmlns="http://www.w3.org/2000/svg">
<path d="M0.727264 8.19427C0.727264 11.4559 2.76343 14.2289 5.60011 15.2461C5.98168 15.3444 5.92323 15.066 5.92323 14.8759V13.5819C3.71819 13.847 3.62889 12.348 3.4795 12.0978C3.17911 11.5726 2.47441 11.4392 2.68387 11.1891C3.18723 10.9239 3.69871 11.2558 4.28975 12.1562C4.71842 12.8082 5.55464 12.6981 5.98006 12.5898C6.07261 12.1979 6.27071 11.8477 6.5435 11.5743C4.2589 11.1541 3.30576 9.72168 3.30576 8.01752C3.30576 7.19211 3.57206 6.43174 4.09165 5.81977C3.76041 4.80928 4.1225 3.94552 4.17122 3.81713C5.11623 3.73042 6.09535 4.5108 6.17329 4.5725C6.71074 4.42409 7.32289 4.34405 8.00649 4.34405C8.69495 4.34405 9.31035 4.42576 9.84943 4.57583C10.0329 4.43243 10.9422 3.7621 11.8207 3.84381C11.8677 3.9722 12.2217 4.81595 11.91 5.8131C12.4377 6.42674 12.7056 7.19378 12.7056 8.02085C12.7056 9.72669 11.7476 11.1607 9.45486 11.5759C9.83644 11.9644 10.0735 12.5014 10.0735 13.095V14.9743C10.0865 15.1243 10.0735 15.2727 10.3187 15.2727C13.1992 14.2806 15.2727 11.4859 15.2727 8.19594C15.2727 4.06892 12.0155 0.72728 7.99999 0.72728C3.98124 0.725613 0.727264 4.06725 0.727264 8.19427Z" fill="black"/>
</svg>
