<svg width="16" height="16" viewBox="0 0 16 16" fill="none" xmlns="http://www.w3.org/2000/svg">
<path d="M7.99547 4.78725C6.22362 4.78725 4.78725 6.22362 4.78725 7.99547C4.78725 9.76733 6.22362 11.2037 7.99547 11.2037C9.76733 11.2037 11.2037 9.76733 11.2037 7.99547C11.2037 6.22362 9.76733 4.78725 7.99547 4.78725ZM7.99547 5.78725C9.21504 5.78725 10.2037 6.7759 10.2037 7.99547C10.2037 9.21504 9.21504 10.2037 7.99547 10.2037C6.7759 10.2037 5.78725 9.21504 5.78725 7.99547C5.78725 6.7759 6.7759 5.78725 7.99547 5.78725Z" fill="black"/>
<path d="M5.82108 1.02171C5.98126 1.05244 6.13348 1.11549 6.26847 1.20703L7.322 1.92141C7.72865 2.19715 8.2623 2.19715 8.66894 1.92141L9.72248 1.20703C10.271 0.835078 11.0172 0.978224 11.3891 1.52675C11.4807 1.66174 11.5437 1.81397 11.5745 1.97414L11.8143 3.22425C11.9068 3.70676 12.2842 4.08411 12.7667 4.17668L14.0168 4.41649C14.6677 4.54135 15.0941 5.17021 14.9692 5.82108C14.9385 5.98126 14.8755 6.13348 14.7839 6.26847L14.0695 7.322C13.7938 7.72865 13.7938 8.2623 14.0695 8.66894L14.7839 9.72248C15.1559 10.271 15.0127 11.0172 14.4642 11.3891C14.3292 11.4807 14.177 11.5437 14.0168 11.5745L12.7667 11.8143C12.2842 11.9068 11.9068 12.2842 11.8143 12.7667L11.5745 14.0168C11.4496 14.6677 10.8207 15.0941 10.1699 14.9692C10.0097 14.9385 9.85746 14.8755 9.72248 14.7839L8.66894 14.0695C8.2623 13.7938 7.72865 13.7938 7.322 14.0695L6.26847 14.7839C5.71994 15.1559 4.97375 15.0127 4.60181 14.4642C4.51027 14.3292 4.44722 14.177 4.41649 14.0168L4.17668 12.7667C4.08411 12.2842 3.70676 11.9068 3.22425 11.8143L1.97414 11.5745C1.32327 11.4496 0.89685 10.8207 1.02171 10.1699C1.05244 10.0097 1.11549 9.85746 1.20703 9.72248L1.92141 8.66894C2.19715 8.2623 2.19715 7.72865 1.92141 7.322L1.20703 6.26847C0.835078 5.71994 0.978224 4.97375 1.52675 4.60181C1.66174 4.51027 1.81397 4.44722 1.97414 4.41649L3.22425 4.17668C3.70676 4.08411 4.08411 3.70676 4.17668 3.22425L4.41649 1.97414C4.54135 1.32327 5.17021 0.89685 5.82108 1.02171ZM10.5615 2.08798C10.5119 2.01484 10.4224 1.98494 10.3417 2.00765L10.2837 2.03469L9.23017 2.74907C8.53436 3.22089 7.63571 3.25235 6.91285 2.84344L6.76078 2.74907L5.70725 2.03469C5.68475 2.01943 5.65938 2.00892 5.63268 2.0038C5.54228 1.98646 5.45443 2.03292 5.41562 2.11167L5.39858 2.16254L5.15877 3.41265C4.99967 4.24197 4.3817 4.90184 3.57617 5.12091L3.41265 5.15877L2.16254 5.39858C2.13585 5.4037 2.11047 5.41421 2.08798 5.42947C2.01484 5.47906 1.98494 5.56857 2.00765 5.6492L2.03469 5.70725L2.74907 6.76078C3.22089 7.45659 3.25235 8.35524 2.84344 9.0781L2.74907 9.23017L2.03469 10.2837C2.01943 10.3062 2.00892 10.3316 2.0038 10.3583C1.98646 10.4487 2.03292 10.5365 2.11167 10.5753L2.16254 10.5924L3.41265 10.8322C4.24197 10.9913 4.90184 11.6092 5.12091 12.4148L5.15877 12.5783L5.39858 13.8284C5.4037 13.8551 5.41421 13.8805 5.42947 13.903C5.47906 13.9761 5.56857 14.006 5.6492 13.9833L5.70725 13.9563L6.76078 13.2419C7.45659 12.7701 8.35524 12.7386 9.0781 13.1475L9.23017 13.2419L10.2837 13.9563C10.3062 13.9715 10.3316 13.982 10.3583 13.9871C10.4487 14.0045 10.5365 13.958 10.5753 13.8793L10.5924 13.8284L10.8322 12.5783C10.9913 11.749 11.6092 11.0891 12.4148 10.87L12.5783 10.8322L13.8284 10.5924C13.8551 10.5872 13.8805 10.5767 13.903 10.5615C13.9761 10.5119 14.006 10.4224 13.9833 10.3417L13.9563 10.2837L13.2419 9.23017C12.7701 8.53436 12.7386 7.63571 13.1475 6.91285L13.2419 6.76078L13.9563 5.70725C13.9715 5.68475 13.982 5.65938 13.9871 5.63268C14.0045 5.54228 13.958 5.45443 13.8793 5.41562L13.8284 5.39858L12.5783 5.15877C11.749 4.99967 11.0891 4.3817 10.87 3.57617L10.8322 3.41265L10.5924 2.16254C10.5872 2.13585 10.5767 2.11047 10.5615 2.08798Z" fill="black"/>
</svg>
