<svg width="16" height="16" viewBox="0 0 16 16" fill="none" xmlns="http://www.w3.org/2000/svg">
<path d="M6.66646 2.01743C5.38926 0.771799 3.32357 0.771799 2.04637 2.01743C0.762173 3.26988 0.762172 5.30581 2.04637 6.55827L4.3995 8.85323C4.59719 9.04603 4.91375 9.04207 5.10655 8.84438C5.29935 8.64669 5.29539 8.33013 5.0977 8.13733L2.74457 5.84237C1.86277 4.98236 1.86277 3.59333 2.74457 2.73333C3.63337 1.8665 5.07946 1.8665 5.96825 2.73333L8.32138 5.02829C9.20318 5.88829 9.20318 7.27733 8.32138 8.13733C8.12369 8.33013 8.11973 8.64669 8.31254 8.84438C8.50534 9.04207 8.8219 9.04603 9.01959 8.85323C10.3038 7.60078 10.3038 5.56484 9.01959 4.31239L6.66646 2.01743ZM7.68179 7.8658C7.87948 7.67299 7.88344 7.35643 7.69063 7.15874C7.49783 6.96105 7.18127 6.95709 6.98358 7.1499C5.69939 8.40235 5.69939 10.4383 6.98358 11.6907L9.33671 13.9857C10.6139 15.2313 12.6796 15.2313 13.9568 13.9857C15.241 12.7332 15.241 10.6973 13.9568 9.44486L11.6037 7.1499C11.406 6.95709 11.0894 6.96105 10.8966 7.15874C10.7038 7.35643 10.7078 7.67299 10.9055 7.8658L13.2586 10.1608C14.1404 11.0208 14.1404 12.4098 13.2586 13.2698C12.3698 14.1366 10.9237 14.1366 10.0349 13.2698L7.68179 10.9748C6.79999 10.1148 6.79999 8.7258 7.68179 7.8658Z" fill="black"/>
</svg>
