<svg width="16" height="16" viewBox="0 0 16 16" fill="none" xmlns="http://www.w3.org/2000/svg">
<path d="M11.5 7H4.5V6H11.5V7Z" fill="black"/>
<path d="M4.5 9.5H11.5V8.5H4.5V9.5Z" fill="black"/>
<path d="M11.5 12H4.5V11H11.5V12Z" fill="black"/>
<path d="M5.5 2V1L4.5 1V2L3 2.00002C2.17157 2.00002 1.5 2.67159 1.5 3.50001V14C1.5 14.8284 2.17157 15.5 3 15.5H13C13.8284 15.5 14.5 14.8284 14.5 14V3.50002C14.5 2.67159 13.8284 2.00002 13 2.00002H11.5V1L10.5 1V2H8.5V1L7.5 1V2H5.5ZM7.5 3V4H8.5V3H10.5V4H11.5V3.00002H13C13.2761 3.00002 13.5 3.22387 13.5 3.50002V14C13.5 14.2761 13.2761 14.5 13 14.5H3C2.72386 14.5 2.5 14.2761 2.5 14V3.50001C2.5 3.22387 2.72386 3.00002 3 3.00002H4.5V4H5.5V3H7.5Z" fill="black"/>
</svg>
