<svg width="16" height="16" viewBox="0 0 16 16" fill="none" xmlns="http://www.w3.org/2000/svg">
<path d="M10 4C10 5.41369 9.26663 6.65609 8.15958 7.36751C8.47754 7.47948 8.78423 7.61548 9.07743 7.77334L7.79793 8.30044C7.23489 8.10578 6.63013 8 6 8C4.45545 8 3.21449 8.50733 2.36091 9.3609C1.6015 10.1203 1.11616 11.1863 1.01831 12.5H7.5V13.5H0V13C0 11.2308 0.585812 9.72177 1.65381 8.65378C2.24463 8.06297 2.97043 7.61971 3.80058 7.34157C2.71581 6.62614 2 5.39666 2 4C2 1.79086 3.79086 0 6 0C8.20914 0 10 1.79086 10 4ZM3 4C3 5.65685 4.34315 7 6 7C7.65685 7 9 5.65685 9 4C9 2.34315 7.65685 1 6 1C4.34315 1 3 2.34315 3 4Z" fill="black"/>
<path d="M12 7.44098L8.5 9.19098V13.809L12 15.559L15.5 13.809V9.19098L12 7.44098ZM11.5 11.309V14.191L9.5 13.191V10.309L11.5 11.309ZM14.5 13.191L12.5 14.191V11.309L14.5 10.309V13.191ZM13.882 9.5L12 10.441L10.118 9.5L12 8.55902L13.882 9.5Z" fill="black"/>
</svg>
