<svg width="16" height="16" viewBox="0 0 16 16" fill="none" xmlns="http://www.w3.org/2000/svg">
<path d="M8.47379 4.50069C8.67239 4.49027 8.85828 4.59852 8.94721 4.7764L10.137 7.15592L10.6464 6.64645C10.7402 6.55268 10.8674 6.5 11 6.5H13V7.5H11.2071L10.3536 8.35356C10.2399 8.4672 10.0786 8.51929 9.91991 8.49355C9.76126 8.4678 9.62466 8.36736 9.55279 8.22361L8.56556 6.24917L7.46816 9.17557C7.39834 9.36177 7.2248 9.48889 7.02621 9.49932C6.82761 9.50974 6.64172 9.40148 6.55279 9.22361L5.69098 7.5H3V6.5H6C6.18939 6.5 6.36252 6.607 6.44721 6.7764L6.93444 7.75084L8.03184 4.82444C8.10166 4.63824 8.2752 4.51111 8.47379 4.50069Z" fill="black"/>
<path d="M2 2C1.44772 2 1 2.44772 1 3V11C1 11.5523 1.44772 12 2 12H14C14.5523 12 15 11.5523 15 11V3C15 2.44772 14.5523 2 14 2H2ZM14 3V11H2V3H14Z" fill="black"/>
<path d="M3 13C2.72386 13 2.5 13.2239 2.5 13.5C2.5 13.7761 2.72386 14 3 14H13C13.2761 14 13.5 13.7761 13.5 13.5C13.5 13.2239 13.2761 13 13 13H3Z" fill="black"/>
</svg>
