<svg width="16" height="16" viewBox="0 0 16 16" fill="none" xmlns="http://www.w3.org/2000/svg">
<path d="M8 5.99503C8.24546 5.99503 8.44961 6.17191 8.49194 6.40516L8.5 6.49503V9.49503C8.5 9.77118 8.27614 9.99503 8 9.99503C7.75454 9.99503 7.55039 9.81816 7.50806 9.58491L7.5 9.49503V6.49503C7.5 6.21889 7.72386 5.99503 8 5.99503Z" fill="black"/>
<path d="M6.49194 8.40562C6.44961 8.17237 6.24546 7.99549 6 7.99549C5.72386 7.99549 5.5 8.21935 5.5 8.49549V9.49503L5.50806 9.58491C5.55039 9.81816 5.75454 9.99503 6 9.99503C6.27614 9.99503 6.5 9.77118 6.5 9.49503V8.49549L6.49194 8.40562Z" fill="black"/>
<path d="M4 7.99549C4.24546 7.99549 4.44961 8.17237 4.49194 8.40562L4.5 8.49549V9.49503C4.5 9.77118 4.27614 9.99503 4 9.99503C3.75454 9.99503 3.55039 9.81816 3.50806 9.58491L3.5 9.49503V8.49549C3.5 8.21935 3.72386 7.99549 4 7.99549Z" fill="black"/>
<path d="M10.4919 5.40516C10.4496 5.17191 10.2455 4.99503 10 4.99503C9.72386 4.99503 9.5 5.21889 9.5 5.49503V9.49503L9.50806 9.58491C9.55039 9.81816 9.75454 9.99503 10 9.99503C10.2761 9.99503 10.5 9.77118 10.5 9.49503V5.49503L10.4919 5.40516Z" fill="black"/>
<path d="M12 5.99503C12.2455 5.99503 12.4496 6.17191 12.4919 6.40516L12.5 6.49503V9.49503C12.5 9.77118 12.2761 9.99503 12 9.99503C11.7545 9.99503 11.5504 9.81816 11.5081 9.58491L11.5 9.49503V6.49503C11.5 6.21889 11.7239 5.99503 12 5.99503Z" fill="black"/>
<path d="M13.0826 11.4776C13.0826 11.2014 12.8587 10.9776 12.5826 10.9776H3.43555L3.34568 10.9856C3.11243 11.0279 2.93555 11.2321 2.93555 11.4776C2.93555 11.7537 3.15941 11.9776 3.43555 11.9776H12.5826L12.6725 11.9695C12.9057 11.9272 13.0826 11.723 13.0826 11.4776Z" fill="black"/>
<path d="M15.0024 3C15.0024 2.44772 14.5547 2 14.0024 2H2C1.44772 2 1 2.44772 1 3V13C1 13.5523 1.44772 14 2 14H14.0024C14.5547 14 15.0024 13.5523 15.0024 13V3ZM2 3H14.0024V13H2V3Z" fill="black"/>
</svg>
