<svg width="16" height="16" viewBox="0 0 16 16" fill="none" xmlns="http://www.w3.org/2000/svg">
<path d="M2 6.5C2 3.18629 4.68629 0.5 8 0.5C11.3137 0.5 14 3.18629 14 6.5V7H14.5C15.0523 7 15.5 7.44772 15.5 8V12C15.5 12.5523 15.0523 13 14.5 13H13.2071L11.7071 14.5H9.5C9.47174 14.5 9.44403 14.4977 9.41705 14.4932C9.21308 15.0793 8.65567 15.5 8 15.5C7.17157 15.5 6.5 14.8284 6.5 14C6.5 13.1716 7.17157 12.5 8 12.5C8.65567 12.5 9.21308 12.9207 9.41705 13.5068C9.44403 13.5023 9.47174 13.5 9.5 13.5H11.2929L11.9546 12.8383C11.6809 12.6599 11.5 12.3511 11.5 12V8C11.5 7.44772 11.9477 7 12.5 7H13V6.5C13 3.73858 10.7614 1.5 8 1.5C5.23858 1.5 3 3.73858 3 6.5V7H3.5C4.05228 7 4.5 7.44772 4.5 8V12C4.5 12.5523 4.05228 13 3.5 13H1.5C0.947715 13 0.5 12.5523 0.5 12V8C0.5 7.44772 0.947715 7 1.5 7H2V6.5ZM14.5 12V8H12.5V12H14.5ZM1.5 8V12H3.5V8H1.5ZM8 14.5C8.27614 14.5 8.5 14.2761 8.5 14C8.5 13.7239 8.27614 13.5 8 13.5C7.72386 13.5 7.5 13.7239 7.5 14C7.5 14.2761 7.72386 14.5 8 14.5Z" fill="black"/>
</svg>
