<svg width="16" height="16" viewBox="0 0 16 16" fill="none" xmlns="http://www.w3.org/2000/svg">
<path d="M10.2842 1.6333C10.8365 1.6333 11.2842 2.08102 11.2842 2.6333V6.36631C11.2842 6.91859 10.8365 7.36631 10.2842 7.36631H8.60325V8.43512H12.1964C12.9761 8.43512 13.6168 9.03001 13.6895 9.79066L13.6964 9.93512V10.5425H14.1085C14.6608 10.5425 15.1085 10.9902 15.1085 11.5425V13.3667C15.1085 13.919 14.6608 14.3667 14.1085 14.3667H12.2842C11.732 14.3667 11.2842 13.919 11.2842 13.3667V11.5425C11.2842 10.9902 11.732 10.5425 12.2842 10.5425H12.6964V9.93512C12.6964 9.68966 12.5195 9.48551 12.2862 9.44318L12.1964 9.43512H8.60325V10.5425H9.01536C9.56764 10.5425 10.0154 10.9902 10.0154 11.5425V13.3667C10.0154 13.919 9.56764 14.3667 9.01536 14.3667H7.19113C6.63885 14.3667 6.19113 13.919 6.19113 13.3667V11.5425C6.19113 10.9902 6.63885 10.5425 7.19113 10.5425H7.60325V9.43512H4.01013C3.76467 9.43512 3.56053 9.612 3.51819 9.84525L3.51013 9.93512V10.5425H3.92224C4.47453 10.5425 4.92224 10.9902 4.92224 11.5425V13.3667C4.92224 13.919 4.47453 14.3667 3.92224 14.3667H2.09802C1.54574 14.3667 1.09802 13.919 1.09802 13.3667V11.5425C1.09802 10.9902 1.54574 10.5425 2.09802 10.5425H2.51013V9.93512C2.51013 9.15543 3.10502 8.51467 3.86567 8.44199L4.01013 8.43512H7.60325V7.36631H5.92224C5.36996 7.36631 4.92224 6.91859 4.92224 6.36631V2.6333C4.92224 2.08102 5.36996 1.6333 5.92224 1.6333H10.2842ZM10.2842 2.6333H5.92224V6.36631H10.2842V2.6333ZM3.92224 11.5425H2.09802V13.3667H3.92224V11.5425ZM7.19113 11.5425V13.3667H9.01536V11.5425H7.19113ZM14.1085 11.5425H12.2842V13.3667H14.1085V11.5425Z" fill="black"/>
</svg>
