<svg width="16" height="16" viewBox="0 0 16 16" fill="none" xmlns="http://www.w3.org/2000/svg">
<path d="M5 1.5C4.17157 1.5 3.5 2.17157 3.5 3V5H4.5V3C4.5 2.72386 4.72386 2.5 5 2.5H13C13.2761 2.5 13.5 2.72386 13.5 3V13C13.5 13.2761 13.2761 13.5 13 13.5H5C4.72386 13.5 4.5 13.2761 4.5 13V11H3.5V13C3.5 13.8284 4.17157 14.5 5 14.5H13C13.8284 14.5 14.5 13.8284 14.5 13V3C14.5 2.17157 13.8284 1.5 13 1.5H5Z" fill="black"/>
<path d="M9.35355 5.64645C9.15829 5.45118 8.84171 5.45118 8.64645 5.64645C8.45118 5.84171 8.45118 6.15829 8.64645 6.35355L9.79289 7.5H2C1.72386 7.5 1.5 7.72386 1.5 8C1.5 8.27614 1.72386 8.5 2 8.5H9.79289L8.64645 9.64645C8.45118 9.84171 8.45118 10.1583 8.64645 10.3536C8.84171 10.5488 9.15829 10.5488 9.35355 10.3536L11.3536 8.35355C11.5488 8.15829 11.5488 7.84171 11.3536 7.64645L9.35355 5.64645Z" fill="black"/>
</svg>
