<svg width="16" height="16" viewBox="0 0 16 16" fill="none" xmlns="http://www.w3.org/2000/svg">
<path d="M1 2C1 1.44772 1.44772 1 2 1H14C14.5523 1 15 1.44772 15 2V14C15 14.5523 14.5523 15 14 15H2C1.44772 15 1 14.5523 1 14V2ZM2 2V7.5H4.20711L4.86302 8.15592L6.55279 4.77639C6.64549 4.59099 6.84299 4.48201 7.04927 4.50243C7.25555 4.52286 7.42784 4.66845 7.48238 4.86844L8.6131 9.01441L10.0431 5.79693C10.1151 5.63488 10.2676 5.5231 10.4438 5.50317C10.62 5.48324 10.7936 5.55813 10.9 5.7L12.25 7.5H14V2H2ZM2 8.5V14H14V8.5H12C11.8426 8.5 11.6944 8.4259 11.6 8.3L10.611 6.98134L8.95691 10.7031C8.87103 10.8963 8.67288 11.0146 8.46204 10.9986C8.2512 10.9825 8.07325 10.8356 8.01762 10.6316L6.86195 6.39412L5.44721 9.22361C5.37534 9.36736 5.23874 9.4678 5.08009 9.49354C4.92144 9.51929 4.76009 9.4672 4.64645 9.35355L3.79289 8.5H2Z" fill="black"/>
</svg>
