<svg width="16" height="16" viewBox="0 0 16 16" fill="none" xmlns="http://www.w3.org/2000/svg">
<path d="M10 3.5C10 3.22386 10.2239 3 10.5 3C13.039 3 15 5.29557 15 8C15 10.7044 13.039 13 10.5 13C10.2239 13 10 12.7761 10 12.5C10 12.2239 10.2239 12 10.5 12C12.3793 12 14 10.2661 14 8C14 5.73387 12.3793 4 10.5 4C10.2239 4 10 3.77614 10 3.5Z" fill="black"/>
<path d="M4 5.5L6.4 3.7C7.05924 3.20557 8 3.67595 8 4.5V11.5C8 12.324 7.05924 12.7944 6.4 12.3L4 10.5H2C1.44772 10.5 1 10.0523 1 9.5V6.5C1 5.94772 1.44772 5.5 2 5.5H4ZM7 11.5V4.5L5 6V10L7 11.5ZM4 9.5V6.5H2V9.5H4Z" fill="black"/>
<path d="M9.5 5C9.22386 5 9 5.22386 9 5.5C9 5.77614 9.22386 6 9.5 6C9.89761 6 10.4063 6.21053 10.8239 6.59853C11.2363 6.98176 11.5 7.48202 11.5 8C11.5 8.51798 11.2363 9.01824 10.8239 9.40147C10.4063 9.78947 9.89761 10 9.5 10C9.22386 10 9 10.2239 9 10.5C9 10.7761 9.22386 11 9.5 11C10.207 11 10.9483 10.6509 11.5045 10.1341C12.0659 9.61247 12.5 8.86273 12.5 8C12.5 7.13727 12.0659 6.38753 11.5045 5.86593C10.9483 5.34911 10.207 5 9.5 5Z" fill="black"/>
</svg>
