<svg width="16" height="16" viewBox="0 0 16 16" fill="none" xmlns="http://www.w3.org/2000/svg">
<path d="M8.50423 9.86375V10.5C8.50423 10.7761 8.28038 11 8.00423 11C7.72809 11 7.50423 10.7761 7.50423 10.5V9.86865C7.203 9.69636 7 9.37189 7 9C7 8.44772 7.44772 8 8 8L8.00248 8L8.00423 8C8.00784 8 8.01144 8.00004 8.01503 8.00011C8.56039 8.00815 9 8.45274 9 9C9 9.36839 8.8008 9.69026 8.50423 9.86375Z" fill="black"/>
<path d="M4.5 6C4.5 4.067 6.067 2.5 8 2.5C9.933 2.5 11.5 4.067 11.5 6H12C12.5523 6 13 6.44772 13 7V12C13 12.5523 12.5523 13 12 13H4C3.44772 13 3 12.5523 3 12V7C3 6.44772 3.44772 6 4 6H4.5ZM5.5 6H10.5C10.5 4.61929 9.38071 3.5 8 3.5C6.61929 3.5 5.5 4.61929 5.5 6ZM4 7V12H12V7H4Z" fill="black"/>
</svg>
