<svg width="16" height="16" viewBox="0 0 16 16" fill="none" xmlns="http://www.w3.org/2000/svg">
<path d="M7.92432 9.45996V7.99512H6.70117V8.53467H7.21143V9.18896C7.19027 9.20036 7.16341 9.21663 7.13086 9.23779C7.09994 9.25732 7.05843 9.27604 7.00635 9.29395C6.95426 9.31185 6.88509 9.3208 6.79883 9.3208C6.69141 9.3208 6.59782 9.30452 6.51807 9.27197C6.43994 9.23779 6.37484 9.18327 6.32275 9.1084C6.2723 9.03353 6.23405 8.93669 6.20801 8.81787C6.18197 8.69906 6.16895 8.55583 6.16895 8.38818V7.77783C6.16895 7.60856 6.18034 7.46533 6.20312 7.34814C6.22591 7.23096 6.2609 7.13493 6.30811 7.06006C6.35531 6.98519 6.4139 6.93148 6.48389 6.89893C6.55387 6.86475 6.63607 6.84766 6.73047 6.84766C6.83952 6.84766 6.92822 6.86637 6.99658 6.90381C7.06494 6.93962 7.11784 6.99984 7.15527 7.08447C7.19434 7.16911 7.21956 7.2863 7.23096 7.43604H7.92188C7.90397 7.1805 7.85026 6.96484 7.76074 6.78906C7.67285 6.61328 7.54264 6.48063 7.37012 6.39111C7.19922 6.3016 6.98031 6.25684 6.71338 6.25684C6.51969 6.25684 6.34554 6.28776 6.19092 6.34961C6.03792 6.41146 5.90609 6.50586 5.79541 6.63281C5.68473 6.75977 5.6001 6.91927 5.5415 7.11133C5.48454 7.30176 5.45605 7.52555 5.45605 7.78271V8.38818C5.45605 8.6486 5.48617 8.87402 5.54639 9.06445C5.60661 9.25326 5.69369 9.41113 5.80762 9.53809C5.92318 9.66341 6.06071 9.757 6.22021 9.81885C6.38135 9.8807 6.56038 9.91162 6.75732 9.91162C6.98031 9.91162 7.16911 9.88558 7.32373 9.8335C7.47998 9.77979 7.60612 9.71794 7.70215 9.64795C7.7998 9.57633 7.87386 9.51367 7.92432 9.45996Z" fill="black"/>
<path d="M3.66236 7.48129C3.73447 7.3874 3.81804 7.31454 3.91309 7.2627C4.02214 7.20247 4.14339 7.17236 4.27686 7.17236C4.37939 7.17236 4.47298 7.19027 4.55762 7.22607C4.64388 7.26188 4.71794 7.31885 4.77979 7.39697C4.84163 7.4751 4.88965 7.57926 4.92383 7.70947C4.95801 7.83805 4.9751 7.99593 4.9751 8.18311V9.86279H4.28906V8.17822C4.28906 8.06429 4.27767 7.9764 4.25488 7.91455C4.2321 7.85107 4.19792 7.80713 4.15234 7.78271C4.10677 7.75667 4.0498 7.74365 3.98145 7.74365C3.91634 7.74365 3.85856 7.76237 3.80811 7.7998C3.76003 7.83393 3.71934 7.88061 3.68604 7.93986V9.86279H3V7.22119H3.64209L3.66236 7.48129Z" fill="black"/>
<path d="M9.65771 9.91162C9.72392 9.91162 9.78805 9.90769 9.85012 9.89982L10.5 10.5L10.9492 10.0874L10.4584 9.6445C10.5024 9.60788 10.5439 9.56752 10.583 9.52344C10.6969 9.39323 10.784 9.23128 10.8442 9.0376C10.9045 8.84229 10.9346 8.61686 10.9346 8.36133V7.80957C10.9346 7.55404 10.9045 7.32943 10.8442 7.13574C10.784 6.94206 10.6961 6.78092 10.5806 6.65234C10.4666 6.52214 10.3315 6.42448 10.1753 6.35938C10.019 6.29264 9.84489 6.25928 9.65283 6.25928C9.4624 6.25928 9.28906 6.29264 9.13281 6.35938C8.97656 6.42448 8.84147 6.52214 8.72754 6.65234C8.61523 6.78092 8.52816 6.94206 8.46631 7.13574C8.40446 7.32943 8.37354 7.55404 8.37354 7.80957V8.36133C8.37354 8.61686 8.40446 8.84229 8.46631 9.0376C8.52979 9.23128 8.61768 9.39323 8.72998 9.52344C8.84391 9.65202 8.979 9.74886 9.13525 9.81396C9.29313 9.87907 9.46729 9.91162 9.65771 9.91162ZM10.2217 8.36133C10.2217 8.5306 10.2095 8.67627 10.1851 8.79834C10.1623 8.91878 10.1265 9.01725 10.0776 9.09375C10.0304 9.17025 9.97103 9.22721 9.89941 9.26465C9.82943 9.30046 9.74886 9.31836 9.65771 9.31836C9.56331 9.31836 9.48031 9.30046 9.40869 9.26465C9.3387 9.22721 9.2793 9.17025 9.23047 9.09375C9.18327 9.01562 9.14746 8.91634 9.12305 8.7959C9.09863 8.67546 9.08643 8.5306 9.08643 8.36133V7.80469C9.08643 7.63704 9.09863 7.493 9.12305 7.37256C9.14909 7.25212 9.18571 7.15365 9.23291 7.07715C9.28011 7.00065 9.3387 6.9445 9.40869 6.90869C9.48031 6.87288 9.56169 6.85498 9.65283 6.85498C9.74561 6.85498 9.82699 6.87288 9.89697 6.90869C9.96859 6.9445 10.028 7.00065 10.0752 7.07715C10.124 7.15365 10.1606 7.25212 10.1851 7.37256C10.2095 7.493 10.2217 7.63704 10.2217 7.80469V8.36133Z" fill="black"/>
<path d="M13.4297 9.86279V9.27197H12.1724V6.30811H11.457V9.86279H13.4297Z" fill="black"/>
<path d="M3 1.5C2.17157 1.5 1.5 2.17157 1.5 3V13C1.5 13.8284 2.17157 14.5 3 14.5H13C13.8284 14.5 14.5 13.8284 14.5 13V3C14.5 2.17157 13.8284 1.5 13 1.5H3ZM2.5 3C2.5 2.72386 2.72386 2.5 3 2.5H13C13.2761 2.5 13.5 2.72386 13.5 3V13C13.5 13.2761 13.2761 13.5 13 13.5H3C2.72386 13.5 2.5 13.2761 2.5 13V3Z" fill="black"/>
</svg>
