<svg width="16" height="16" viewBox="0 0 16 16" fill="none" xmlns="http://www.w3.org/2000/svg">
<path d="M8 3.5C9.38071 3.5 10.5 4.61929 10.5 6C10.5 7.1598 9.71023 8.13514 8.63915 8.41755L8.5 8.449V10.0157H7.5V7.5H8C8.82843 7.5 9.5 6.82843 9.5 6C9.5 5.17157 8.82843 4.5 8 4.5C7.2203 4.5 6.57955 5.09489 6.50687 5.85554L6.5 6H5.5C5.5 4.61929 6.61929 3.5 8 3.5Z" fill="black"/>
<path d="M8.5 12.0085V11.0022H7.5V12.0085H8.5Z" fill="black"/>
<path d="M15 8C15 4.13401 11.866 1 8 1C4.13401 1 1 4.13401 1 8C1 11.866 4.13401 15 8 15C11.866 15 15 11.866 15 8ZM2 8C2 4.68629 4.68629 2 8 2C11.3137 2 14 4.68629 14 8C14 11.3137 11.3137 14 8 14C4.68629 14 2 11.3137 2 8Z" fill="black"/>
</svg>
