<svg width="24" height="24" viewBox="0 0 24 24" fill="none" xmlns="http://www.w3.org/2000/svg">
<path fill-rule="evenodd" clip-rule="evenodd" d="M12 3C8.71552 3 6 5.75609 6 9.22222C6 11.2697 6.95177 13.0777 8.41197 14.2097C8.84847 14.548 8.92803 15.1762 8.58967 15.6127C8.25131 16.0492 7.62316 16.1287 7.18666 15.7903C5.24719 14.2869 4 11.8998 4 9.22222C4 4.7109 7.55249 1 12 1C16.4475 1 20 4.7109 20 9.22222C20 11.9002 18.7522 14.2871 16.8126 15.7904C16.3761 16.1287 15.7479 16.0491 15.4096 15.6126C15.0713 15.1761 15.1509 14.5479 15.5874 14.2096C17.0479 13.0776 18 11.2697 18 9.22222C18 5.75609 15.2845 3 12 3ZM9.04289 7.54289C9.43342 7.15237 10.0666 7.15237 10.4571 7.54289L12 9.08579L13.5429 7.54289C13.9334 7.15237 14.5666 7.15237 14.9571 7.54289C15.3476 7.93342 15.3476 8.56658 14.9571 8.95711L13 10.9142V15C13 15.5523 12.5523 16 12 16C11.4477 16 11 15.5523 11 15V10.9142L9.04289 8.95711C8.65237 8.56658 8.65237 7.93342 9.04289 7.54289ZM12 23C12.8284 23 13.5 22.3284 13.5 21.5H10.5C10.5 22.3284 11.1716 23 12 23ZM6.5 17.5C6.5 16.9477 6.94772 16.5 7.5 16.5H16.5C17.0523 16.5 17.5 16.9477 17.5 17.5C17.5 18.0523 17.0523 18.5 16.5 18.5H7.5C6.94772 18.5 6.5 18.0523 6.5 17.5ZM7.5 19C6.94772 19 6.5 19.4477 6.5 20C6.5 20.5523 6.94772 21 7.5 21H16.5C17.0523 21 17.5 20.5523 17.5 20C17.5 19.4477 17.0523 19 16.5 19H7.5Z" fill="#71717A"/>
</svg>
