<svg width="16" height="16" viewBox="0 0 16 16" fill="none" xmlns="http://www.w3.org/2000/svg">
<path d="M10.8716 10.1645C12.4809 8.20052 12.3688 5.29776 10.5355 3.46447C8.58291 1.51184 5.41709 1.51184 3.46447 3.46447C1.51184 5.41709 1.51184 8.58291 3.46447 10.5355C5.29776 12.3688 8.20052 12.4809 10.1645 10.8716L13.0754 13.7825C13.2706 13.9777 13.5872 13.9777 13.7825 13.7825C13.9777 13.5872 13.9777 13.2706 13.7825 13.0754L10.8716 10.1645ZM9.82843 4.17157C11.3905 5.73367 11.3905 8.26633 9.82843 9.82843C8.26633 11.3905 5.73367 11.3905 4.17157 9.82843C2.60948 8.26633 2.60948 5.73367 4.17157 4.17157C5.73367 2.60948 8.26633 2.60948 9.82843 4.17157Z" fill="black"/>
</svg>
