<svg width="16" height="16" viewBox="0 0 16 16" fill="none" xmlns="http://www.w3.org/2000/svg">
<path d="M2.9 1.94995C2.40294 1.94995 2 2.3529 2 2.84995C2 3.34701 2.40294 3.74995 2.9 3.74995H13.1C13.5971 3.74995 14 3.34701 14 2.84995C14 2.3529 13.5971 1.94995 13.1 1.94995H2.9Z" fill="black"/>
<path d="M7.66357 4.6561C7.85428 4.48273 8.14553 4.48273 8.33624 4.6561L13.6429 9.48037C13.9811 9.78779 13.7636 10.3503 13.3066 10.3503H10.9999V13.8003C10.9999 14.2146 10.6641 14.5503 10.2499 14.5503H5.7499C5.33569 14.5503 4.9999 14.2146 4.9999 13.8003V10.3503H2.6932C2.23619 10.3503 2.0187 9.78779 2.35687 9.48037L7.66357 4.6561Z" fill="black"/>
</svg>
