<svg width="16" height="16" viewBox="0 0 16 16" fill="none" xmlns="http://www.w3.org/2000/svg">
<path d="M8.00008 2C6.15913 2 4.66675 3.49238 4.66675 5.33333V6.66667C4.66675 8.50762 6.15913 10 8.00008 10C9.84103 10 11.3334 8.50762 11.3334 6.66667V5.33333C11.3334 3.49238 9.84103 2 8.00008 2Z" fill="black"/>
<path d="M2 13.282C2 11.5498 3.11544 10.078 4.66725 9.5459C5.38395 10.6232 6.60907 11.3332 8 11.3332C9.39093 11.3332 10.6161 10.6232 11.3327 9.5459C12.8846 10.078 14 11.5498 14 13.282C14 13.6785 13.6786 14 13.2821 14H2.71795C2.32144 14 2 13.6785 2 13.282Z" fill="black"/>
</svg>
