<svg width="17" height="16" viewBox="0 0 17 16" fill="none" xmlns="http://www.w3.org/2000/svg">
<path d="M5.22907 3.63635C4.92631 3.63635 4.63205 3.73654 4.39219 3.9213L0.534545 6.89273C-0.178181 7.44172 -0.178182 8.5167 0.534544 9.06569L4.39219 12.0371C4.63205 12.2219 4.92631 12.3221 5.22907 12.3221H14.6669C15.4243 12.3221 16.0383 11.7081 16.0383 10.9506V5.00778C16.0383 4.25036 15.4243 3.63635 14.6669 3.63635H5.22907ZM7.40351 9.57298L9.05443 7.92207L7.40351 6.27115L8.05001 5.62465L9.70092 7.27557L11.3518 5.62465L11.9983 6.27115L10.3474 7.92207L11.9983 9.57298L11.3518 10.2195L9.70092 8.56856L8.05001 10.2195L7.40351 9.57298Z" fill="black"/>
</svg>
