<svg width="16" height="16" viewBox="0 0 16 16" fill="none" xmlns="http://www.w3.org/2000/svg">
<path d="M8.5 3C8.77614 3 9 3.22386 9 3.5V5.5H10V3.5C10 2.67157 9.32843 2 8.5 2H4C3.17157 2 2.5 2.67157 2.5 3.5V8.5C2.5 9.32843 3.17157 10 4 10H5.5V9L4 9C3.72386 9 3.5 8.77614 3.5 8.5L3.5 3.5C3.5 3.22386 3.72386 3 4 3L8.5 3Z" fill="black"/>
<path d="M13.5 7.5C13.5 6.67157 12.8284 6 12 6L7.5 6C6.67157 6 6 6.67157 6 7.5L6 12.5C6 13.3284 6.67157 14 7.5 14H12C12.8284 14 13.5 13.3284 13.5 12.5V7.5ZM12 7C12.2761 7 12.5 7.22386 12.5 7.5V12.5C12.5 12.7761 12.2761 13 12 13H7.5C7.22386 13 7 12.7761 7 12.5L7 7.5C7 7.22386 7.22386 7 7.5 7L12 7Z" fill="black"/>
</svg>
