<svg width="16" height="16" viewBox="0 0 16 16" fill="none" xmlns="http://www.w3.org/2000/svg">
<path d="M11.7835 2.78581C11.8541 2.85486 11.9101 2.93683 11.9483 3.02705C11.9865 3.11727 12.0062 3.21397 12.0062 3.31163C12.0062 3.40929 11.9865 3.50599 11.9483 3.59621C11.9101 3.68643 11.8541 3.7684 11.7835 3.83745L11.0886 4.51673H11.7999C12.0994 4.51673 12.3959 4.57444 12.6726 4.68658C12.9492 4.79871 13.2006 4.96306 13.4123 5.17025C13.6241 5.37744 13.792 5.62341 13.9065 5.8941C14.0211 6.16479 14.08 6.45491 14.0799 6.74788V11.209C14.0799 11.8006 13.8397 12.3679 13.4121 12.7863C12.9845 13.2046 12.4046 13.4396 11.7999 13.4396H4.19992C3.59523 13.4396 3.0153 13.2046 2.58772 12.7863C2.16014 12.3679 1.91992 11.8006 1.91992 11.209V6.74788C1.91992 6.1563 2.16014 5.58895 2.58772 5.17064C3.0153 4.75233 3.59523 4.51732 4.19992 4.51732H4.90885L4.21512 3.83804C4.14251 3.76947 4.08459 3.68745 4.04474 3.59675C4.00488 3.50604 3.98389 3.40848 3.98298 3.30976C3.98207 3.21104 4.00128 3.11313 4.03946 3.02174C4.07765 2.93035 4.13406 2.84732 4.2054 2.77749C4.27673 2.70766 4.36157 2.65243 4.45496 2.61502C4.54835 2.57761 4.64843 2.55877 4.74934 2.5596C4.85025 2.56043 4.94998 2.58091 5.04272 2.61985C5.13545 2.65879 5.21933 2.71541 5.28946 2.78641L6.90187 4.36386C6.94991 4.41085 6.99003 4.462 7.02226 4.51673H8.97576C9.00798 4.462 9.04872 4.40966 9.09675 4.36326L10.7086 2.78581C10.7791 2.71675 10.8629 2.66196 10.9551 2.62459C11.0474 2.58721 11.1462 2.56797 11.246 2.56797C11.3459 2.56797 11.4447 2.58721 11.5369 2.62459C11.6291 2.66196 11.7129 2.71675 11.7835 2.78581ZM11.7999 6.00972H4.19992C4.0081 6.00965 3.82334 6.08055 3.68272 6.20819C3.5421 6.33583 3.45602 6.51077 3.44175 6.69792L3.43992 6.75383V11.215C3.43992 11.6069 3.75 11.9281 4.14338 11.9561L4.19992 11.9585H11.7999C11.9917 11.9585 12.1765 11.8876 12.3171 11.76C12.4577 11.6324 12.5438 11.4574 12.5581 11.2703L12.5599 11.215V6.75383C12.5599 6.34341 12.2194 6.00972 11.7999 6.00972ZM5.71992 7.49676C6.13944 7.49676 6.47992 7.82985 6.47992 8.24028V8.9838C6.47992 9.18099 6.39985 9.37011 6.25732 9.50955C6.1148 9.64898 5.92149 9.72732 5.71992 9.72732C5.51836 9.72732 5.32505 9.64898 5.18252 9.50955C5.03999 9.37011 4.95992 9.18099 4.95992 8.9838V8.24028C4.95992 7.82985 5.3004 7.49676 5.71992 7.49676ZM10.2799 7.49676C10.6994 7.49676 11.0399 7.82985 11.0399 8.24028V8.9838C11.0399 9.18099 10.9599 9.37011 10.8173 9.50955C10.6748 9.64898 10.4815 9.72732 10.2799 9.72732C10.0784 9.72732 9.88505 9.64898 9.74252 9.50955C9.59999 9.37011 9.51992 9.18099 9.51992 8.9838V8.24028C9.51992 7.82985 9.8604 7.49676 10.2799 7.49676Z" fill="black"/>
</svg>
