<svg width="16" height="16" viewBox="0 0 16 16" fill="none" xmlns="http://www.w3.org/2000/svg">
<path d="M3.8 2H11.6545C12.6487 2 13.4545 2.80589 13.4545 3.8V11.6545C13.4545 12.6487 12.6487 13.4545 11.6545 13.4545H3.8C2.80589 13.4545 2 12.6487 2 11.6545V3.8C2 3.32261 2.18964 2.86477 2.52721 2.52721C2.86477 2.18964 3.32261 2 3.8 2ZM6.58051 6.41818C6.58051 5.98182 6.36233 5.76364 5.92596 5.76364C5.4896 5.76364 5.27142 5.98182 5.27142 6.41818V7.07273C5.27142 7.50909 5.4896 7.72727 5.92596 7.72727C6.36233 7.72727 6.58051 7.50909 6.58051 7.07273V6.41818ZM9.85324 5.76364C9.41687 5.76364 9.19869 5.98182 9.19869 6.41818V7.07273C9.19869 7.50909 9.41687 7.72727 9.85324 7.72727C10.2896 7.72727 10.5078 7.50909 10.5078 7.07273V6.41818C10.5078 5.98182 10.2896 5.76364 9.85324 5.76364ZM10.3487 9.2504C10.1933 9.02808 9.88705 8.97387 9.66473 9.12931C9.14633 9.49258 8.56116 9.67258 7.89615 9.67258C7.23047 9.67258 6.64531 9.49258 6.12691 9.12931C5.90459 8.97387 5.59835 9.02808 5.44291 9.2504C5.28747 9.47272 5.34168 9.77896 5.564 9.9344C6.24931 10.4135 7.03149 10.6544 7.89615 10.6544C8.76015 10.6544 9.54233 10.4135 10.2276 9.9344C10.45 9.77896 10.5042 9.47272 10.3487 9.2504Z" fill="black"/>
</svg>
