<svg width="16" height="16" viewBox="0 0 16 16" fill="none" xmlns="http://www.w3.org/2000/svg">
<path d="M2 4.08524C2 3.62395 2.37395 3.25 2.83524 3.25H13.165C13.6263 3.25 14.0002 3.62395 14.0002 4.08524C14.0002 4.54653 13.6263 4.92048 13.165 4.92048H2.83524C2.37395 4.92048 2 4.54653 2 4.08524Z" fill="black"/>
<path d="M2 7.98311C2 7.52182 2.37395 7.14787 2.83524 7.14787H13.165C13.6263 7.14787 14.0002 7.52182 14.0002 7.98311C14.0002 8.4444 13.6263 8.81835 13.165 8.81835H2.83524C2.37395 8.81835 2 8.4444 2 7.98311Z" fill="black"/>
<path d="M14.0002 11.881C14.0002 11.4197 13.6263 11.0457 13.165 11.0457H2.83524C2.37395 11.0457 2 11.4197 2 11.881C2 12.3423 2.37395 12.7162 2.83524 12.7162H13.165C13.6263 12.7162 14.0002 12.3423 14.0002 11.881Z" fill="black"/>
</svg>
