<svg width="16" height="16" viewBox="0 0 16 16" fill="none" xmlns="http://www.w3.org/2000/svg">
<path d="M11.5535 10.7486C13.3853 8.51289 13.2578 5.20856 11.1709 3.12165C8.94812 0.898903 5.34434 0.898903 3.12159 3.12165C0.898842 5.3444 0.898842 8.94818 3.12159 11.1709C5.20851 13.2578 8.51283 13.3854 10.7485 11.5535L14.0621 14.8671C14.2843 15.0893 14.6447 15.0893 14.867 14.8671C15.0893 14.6448 15.0893 14.2844 14.867 14.0621L11.5535 10.7486ZM10.3659 3.92658C12.1441 5.70478 12.1441 8.5878 10.3659 10.366C8.58774 12.1442 5.70471 12.1442 3.92652 10.366C2.14832 8.5878 2.14832 5.70478 3.92652 3.92658C5.70471 2.14838 8.58774 2.14838 10.3659 3.92658Z" fill="black"/>
</svg>
