<svg width="16" height="16" viewBox="0 0 16 16" fill="none" xmlns="http://www.w3.org/2000/svg">
<path d="M12.7233 3.76437C13.2647 3.90922 13.6922 4.33672 13.837 4.87953C14.1 5.8625 14.1 7.91562 14.1 7.91562C14.1 7.91562 14.1 9.96875 13.837 10.9517C13.6922 11.4945 13.2661 11.922 12.7233 12.0669C11.7403 12.3312 7.8 12.3312 7.8 12.3312C7.8 12.3312 3.85969 12.3312 2.87672 12.0669C2.33531 11.922 1.90781 11.4945 1.76297 10.9517C1.5 9.96875 1.5 7.91562 1.5 7.91562C1.5 7.91562 1.5 5.8625 1.76297 4.87812C1.90781 4.33531 2.33391 3.90781 2.87672 3.76297C3.85969 3.5 7.8 3.5 7.8 3.5C7.8 3.5 11.7403 3.5 12.7233 3.76437ZM9.81084 7.90156L6.54834 6.03125V9.8L9.81084 7.90156Z" fill="black"/>
</svg>
