<svg width="16" height="16" viewBox="0 0 16 16" fill="none" xmlns="http://www.w3.org/2000/svg">
<path d="M2.8855 2H13.111C13.6 2 14 2.387 14 2.8645V13.1355C14 13.6135 13.6 14 13.111 14H2.8855C2.396 14 2 13.6135 2 13.1355V2.8645C2 2.387 2.396 2 2.8855 2ZM3.93858 5.41402C4.13209 5.60771 4.39468 5.71648 4.66846 5.71634C5.23842 5.71662 5.70069 5.2548 5.70096 4.68484C5.70124 4.11489 5.23942 3.65262 4.66946 3.65234C4.09951 3.65207 3.63724 4.11389 3.63696 4.68384C3.63657 4.95763 3.74508 5.22033 3.93858 5.41402ZM10.4465 12.226H12.2235L12.224 9.08297C12.224 7.54047 11.891 6.35547 10.0905 6.35547C9.22404 6.35547 8.64404 6.83047 8.40554 7.28047H8.38254V6.49997H6.67554V12.226H8.45254V9.39247C8.45254 8.64547 8.59404 7.92297 9.52054 7.92297C10.433 7.92297 10.4465 8.77747 10.4465 9.44147V12.226ZM5.55959 12.226V6.5H3.77759V12.226H5.55959Z" fill="black"/>
</svg>
