<svg width="16" height="16" viewBox="0 0 16 16" fill="none" xmlns="http://www.w3.org/2000/svg">
<path d="M4.66675 2.66667C4.66675 2.29848 4.96522 2 5.33341 2C5.7016 2 6.00008 2.29848 6.00008 2.66667V3.3335H10V2.66667C10 2.29848 10.2985 2 10.6667 2C11.0349 2 11.3333 2.29848 11.3333 2.66667V3.3335H12.6667C13.403 3.3335 14 3.93045 14 4.66683V12.6667C14 13.403 13.403 14.0002 12.6667 14.0002H3.33333C2.59695 14.0002 2 13.4032 2 12.6668V4.66683C2 3.93045 2.59695 3.3335 3.33333 3.3335H4.66675V2.66667ZM10 4.66683H6.00008C5.99999 5.03494 5.70155 5.33333 5.33341 5.33333C4.96528 5.33333 4.66684 5.03494 4.66675 4.66683H3.33333V6H12.6667V4.66683H11.3333C11.3332 5.03494 11.0348 5.33333 10.6667 5.33333C10.2985 5.33333 10.0001 5.03494 10 4.66683ZM3.33333 9.33333H4.66659V8H3.33333L3.33333 9.33333ZM3.33333 11.9998H4.66659V10.6665H3.33333V11.9998ZM7.33333 8H6V9.33333H7.33333V8ZM6 10.6665V11.9998H7.33333V10.6665H6ZM10.0001 8H8.66675V9.33333H10.0001V8ZM8.66675 10.6665V11.9998H10.0001V10.6665H8.66675ZM12.6666 8H11.3333V9.33333H12.6666V8ZM11.3333 10.6665V11.9998H12.6666V10.6665H11.3333Z" fill="black"/>
</svg>
