<svg width="16" height="16" viewBox="0 0 16 16" fill="none" xmlns="http://www.w3.org/2000/svg">
<path d="M11.3165 14.4228L14.5731 10.2482C14.744 10.029 14.8078 9.74239 14.7468 9.46916L13.5836 4.26317C13.5227 3.99052 13.3439 3.76088 13.0968 3.63938L8.38928 1.3227C8.14223 1.20103 7.85504 1.20103 7.60799 1.3227L2.90216 3.64054C2.65508 3.76205 2.47626 3.9911 2.41534 4.26433L1.25326 9.47032C1.19286 9.74362 1.25661 10.0304 1.42645 10.2493L4.68476 14.4234C4.85625 14.6427 5.11492 14.7701 5.38821 14.7699L10.6124 14.7682C10.8857 14.7688 11.1446 14.6419 11.3165 14.4228ZM7.16311 6.97782C7.23707 7.03345 7.33475 7.04259 7.41723 7.00161C7.49971 6.96063 7.55359 6.87618 7.55743 6.7819L7.56307 6.779L7.64768 5.25586C7.00701 5.33304 6.40956 5.62801 5.94971 6.09417L7.16086 6.97956L7.16311 6.97782ZM6.69372 7.9395C6.67331 8.03139 6.60553 8.10427 6.5173 8.12916L6.51618 8.13439L5.098 8.55587C5.02744 7.89547 5.17233 7.22967 5.5098 6.66357L6.61602 7.68326L6.6149 7.68966C6.68383 7.75161 6.71412 7.84762 6.69372 7.9395ZM6.99043 9.37259L6.98648 9.36677C7.0225 9.28012 7.00878 9.18008 6.9517 9.10642C6.89462 9.03277 6.80285 8.99743 6.71288 9.01448L6.71063 9.01157L5.25635 9.26562C5.47465 9.88792 5.8861 10.4186 6.42688 10.7754L6.99043 9.37259ZM7.99955 8.77957L7.5917 8.57668L7.49072 8.12439L7.77278 7.76221H8.22633L8.50838 8.12439L8.40684 8.57784L7.99955 8.77957ZM8.43813 6.77765C8.44202 6.87203 8.49607 6.95652 8.57871 6.9974C8.66135 7.03827 8.75912 7.02889 8.83301 6.97298L8.83752 6.97472L10.0413 6.09514C9.58307 5.63265 8.99006 5.33811 8.35352 5.25684L8.437 6.77707L8.43813 6.77765ZM12.718 9.05218C12.8844 9.09345 12.9905 9.251 12.9566 9.40564C12.9222 9.56086 12.7603 9.65504 12.5928 9.61783L12.5888 9.61725L12.5838 9.61551L12.5596 9.61043C12.5421 9.60684 12.5242 9.60317 12.5104 9.59923C12.4457 9.58167 12.3931 9.55806 12.3392 9.5339C12.3129 9.52208 12.2862 9.51011 12.2577 9.49865L12.2479 9.49503C12.0661 9.42803 11.9143 9.3721 11.7669 9.34983C11.7002 9.34478 11.6621 9.37222 11.6255 9.39857L11.609 9.41029C11.5881 9.40564 11.5249 9.39401 11.4888 9.3882C11.2163 10.2717 10.6381 11.0212 9.86417 11.4938C9.86857 11.5048 9.87403 11.5198 9.87969 11.5354C9.89141 11.5676 9.90414 11.6027 9.91099 11.6113C9.90852 11.6182 9.90587 11.625 9.9032 11.6319C9.88699 11.6738 9.87017 11.7173 9.88955 11.7822C9.94427 11.9287 10.0323 12.0711 10.1395 12.2432C10.1576 12.2714 10.176 12.2972 10.1942 12.3228C10.2275 12.3697 10.2604 12.416 10.2906 12.4746C10.2966 12.4863 10.3034 12.5012 10.3102 12.516C10.3161 12.529 10.322 12.5419 10.3273 12.5525C10.3995 12.7124 10.3465 12.8966 10.2071 12.9652C10.0672 13.035 9.89294 12.9618 9.81791 12.8013L9.80887 12.7824C9.79972 12.7633 9.78962 12.7423 9.78293 12.7263C9.75666 12.6645 9.7418 12.6085 9.72672 12.5517C9.71881 12.5219 9.71084 12.4918 9.70114 12.4606L9.70008 12.4574C9.63681 12.2653 9.58451 12.1064 9.50821 11.9723C9.47116 11.9155 9.42652 11.9017 9.38377 11.8885C9.37705 11.8865 9.37038 11.8844 9.3638 11.8822L9.304 11.7706C8.46605 12.0982 7.54029 12.0957 6.70401 11.7636L6.64027 11.8828C6.59232 11.8961 6.54719 11.9089 6.51898 11.9438C6.44666 12.0327 6.40485 12.1593 6.36043 12.2939C6.34178 12.3504 6.32268 12.4082 6.30067 12.4653C6.29089 12.4969 6.28286 12.5274 6.27492 12.5575C6.25995 12.6142 6.24523 12.67 6.21944 12.7315C6.21041 12.7531 6.19575 12.7827 6.18446 12.8054V12.8065C6.10887 12.9664 5.93513 13.0402 5.79523 12.9705C5.65589 12.9013 5.60286 12.7176 5.67507 12.5577C5.67904 12.5493 5.68349 12.5394 5.68807 12.5291C5.69586 12.5117 5.70407 12.4933 5.71117 12.4798C5.74205 12.4196 5.77562 12.3723 5.80963 12.3244C5.8272 12.2997 5.84487 12.2748 5.86235 12.2479C5.96897 12.0758 6.06261 11.9217 6.11733 11.7752C6.13144 11.727 6.11113 11.6601 6.09251 11.6113L6.14328 11.4845C5.37223 11.0155 4.79435 10.2719 4.51864 9.39401L4.39623 9.41552L4.38297 9.40775C4.34749 9.38671 4.28932 9.3522 4.23376 9.3568C4.08636 9.37908 3.93459 9.43501 3.75281 9.50201L3.74299 9.50563C3.71355 9.51725 3.68606 9.5294 3.65885 9.54144C3.60574 9.56492 3.55367 9.58794 3.49026 9.60562L3.41749 9.62248L3.41185 9.62423L3.4079 9.62481C3.24093 9.66201 3.07846 9.56783 3.04405 9.41261C3.00964 9.25798 3.11626 9.10043 3.28267 9.05915L3.28662 9.05799L3.28888 9.05683L3.30582 9.05273C3.32604 9.04781 3.34769 9.04255 3.3639 9.03939C3.42835 9.02686 3.48465 9.0245 3.54169 9.0221C3.57202 9.02082 3.60257 9.01954 3.63468 9.01672L3.65165 9.01486C3.84095 8.99421 3.99877 8.97699 4.13956 8.93126C4.18113 8.91401 4.22089 8.85967 4.25104 8.81845L4.26084 8.8051L4.37818 8.77022C4.25018 7.8538 4.45509 6.92094 4.95357 6.15066L4.86331 6.06753L4.86147 6.05503C4.85569 6.01471 4.84538 5.94288 4.8069 5.9001C4.69577 5.79313 4.55644 5.70418 4.38777 5.59663C4.36082 5.5804 4.33463 5.56607 4.3087 5.55188C4.25755 5.5239 4.20738 5.49645 4.15422 5.45595L4.09556 5.40769L4.09161 5.40479C3.95622 5.29375 3.92519 5.1019 4.02222 4.97633C4.07695 4.90729 4.16035 4.86929 4.24674 4.87402C4.31846 4.87726 4.38728 4.90416 4.44305 4.95075C4.46435 4.96724 4.48523 4.9843 4.50567 5.00191C4.55591 5.04635 4.59321 5.09055 4.63129 5.13568C4.65049 5.15843 4.66989 5.18142 4.69126 5.2048L4.69491 5.20863C4.83205 5.35226 4.94621 5.47183 5.07091 5.55826C5.1279 5.5929 5.17354 5.58549 5.21762 5.57833C5.22459 5.5772 5.23152 5.57608 5.23845 5.57512C5.27197 5.60039 5.30582 5.62519 5.33999 5.64954C5.95601 4.97432 6.79365 4.55928 7.69008 4.48509L7.69685 4.36243C7.74052 4.3224 7.77223 4.27037 7.78823 4.21244C7.8004 4.05916 7.78113 3.89469 7.75805 3.69772L7.75664 3.68574C7.75228 3.65385 7.74696 3.62382 7.74168 3.59407C7.73129 3.5354 7.72109 3.47787 7.71885 3.4096C7.71809 3.39556 7.71835 3.37757 7.7186 3.36007L7.71885 3.33518L7.71828 3.32704C7.71828 3.14915 7.84464 3.00439 7.99978 3.00439C8.15547 3.00439 8.28183 3.14915 8.28183 3.32704C8.28183 3.33686 8.28201 3.34818 8.28218 3.35963C8.28246 3.37732 8.28274 3.39549 8.2824 3.4096C8.2798 3.47728 8.26963 3.53441 8.25929 3.59255C8.25391 3.62279 8.24848 3.65331 8.24404 3.68574L8.24146 3.7077C8.21887 3.90026 8.19992 4.06173 8.21188 4.21186C8.22165 4.27983 8.25597 4.31205 8.28881 4.34287C8.29388 4.34764 8.29892 4.35237 8.30383 4.3572L8.3106 4.48684C9.20133 4.57023 10.0324 4.98401 10.6494 5.65128L10.7566 5.5728L10.7701 5.57382C10.8102 5.57704 10.8789 5.58256 10.9275 5.55361C11.0522 5.46661 11.1663 5.34706 11.3035 5.20344L11.3072 5.19957C11.3285 5.17623 11.3479 5.15327 11.3672 5.13054C11.4055 5.08533 11.443 5.04097 11.4933 4.9961C11.5049 4.98605 11.5203 4.9737 11.5349 4.96193L11.5559 4.94494C11.6908 4.8339 11.8792 4.84553 11.9762 4.9711C12.0732 5.09667 12.0422 5.28794 11.9068 5.39897C11.8992 5.40521 11.8904 5.41268 11.8818 5.42002C11.8688 5.43109 11.8556 5.44236 11.8448 5.45072C11.7929 5.49022 11.7437 5.51708 11.6936 5.54434C11.6664 5.5592 11.6389 5.57418 11.6107 5.5914C11.442 5.69837 11.3027 5.78732 11.1915 5.89487C11.146 5.9448 11.143 5.99211 11.14 6.03793L11.1385 6.05881C11.129 6.06821 11.104 6.09111 11.0795 6.11365L11.0386 6.15124C11.2879 6.53351 11.4669 6.95975 11.5667 7.4087C11.6662 7.85313 11.6863 8.31256 11.6259 8.76441L11.7393 8.79871L11.7471 8.81044C11.7695 8.84434 11.8087 8.90369 11.8611 8.92428C12.0049 8.97099 12.1659 8.98852 12.3612 9.00979L12.366 9.01032C12.3971 9.01286 12.4267 9.01402 12.4561 9.01517C12.5141 9.01744 12.5711 9.01968 12.6362 9.03241C12.6532 9.03575 12.6757 9.04147 12.6958 9.04658L12.718 9.05218ZM9.38245 7.67919L10.4825 6.66416C10.6513 6.94642 10.7741 7.25477 10.8458 7.57804C10.917 7.89689 10.9376 8.22556 10.9067 8.55122L9.48173 8.12799L9.48004 8.12218C9.39157 8.09742 9.32355 8.02442 9.30312 7.93232C9.2827 7.84021 9.3132 7.74401 9.38245 7.6821V7.67919ZM8.21789 9.7596C8.17345 9.67318 8.08482 9.62072 7.98999 9.62473C7.90162 9.62813 7.82168 9.67973 7.78014 9.76018H7.77902L7.06372 11.0926C7.67183 11.3064 8.33147 11.3071 8.93996 11.0944L8.22354 9.7596H8.21789ZM9.13075 9.02858C9.17809 9.00518 9.23142 8.99785 9.28306 9.00765L9.28532 9.00474L10.752 9.26054C10.5356 9.88767 10.1225 10.4226 9.57809 10.7808L9.00834 9.36344L9.01003 9.36111C8.95692 9.23485 9.01026 9.08791 9.13075 9.02858Z" fill="black"/>
</svg>
