<svg width="16" height="16" viewBox="0 0 16 16" fill="none" xmlns="http://www.w3.org/2000/svg">
<path d="M7.38197 6.50655V6.2294C7.38197 6.13102 7.39986 6.03864 7.43566 5.95225C7.47384 5.86347 7.52992 5.79268 7.6039 5.73989C7.68026 5.6871 7.77333 5.6607 7.8831 5.6607C7.99765 5.6607 8.09191 5.6871 8.16589 5.73989C8.23987 5.79268 8.29475 5.86347 8.33055 5.95225C8.36873 6.03864 8.38782 6.13102 8.38782 6.2294V6.50655C8.38782 6.60254 8.36992 6.69372 8.33413 6.7801C8.29833 6.86649 8.24345 6.93608 8.16947 6.98887C8.09788 7.04166 8.00481 7.06805 7.89026 7.06805C7.7781 7.06805 7.68384 7.04166 7.60748 6.98887C7.53111 6.93608 7.47384 6.86649 7.43566 6.7801C7.39986 6.69372 7.38197 6.60254 7.38197 6.50655Z" fill="black"/>
<path d="M9.8984 9.45803V9.17728C9.8984 9.0789 9.91629 8.98651 9.95209 8.90013C9.99027 8.81374 10.0464 8.74415 10.1203 8.69136C10.1943 8.63857 10.2874 8.61218 10.3995 8.61218C10.5141 8.61218 10.6083 8.63857 10.6823 8.69136C10.7587 8.74415 10.8148 8.81374 10.8506 8.90013C10.8887 8.98651 10.9078 9.0789 10.9078 9.17728V9.45803C10.9078 9.55641 10.8911 9.64879 10.8577 9.73518C10.8267 9.81916 10.7742 9.88875 10.7002 9.94394C10.6262 9.99673 10.5284 10.0231 10.4067 10.0231C10.2993 10.0231 10.2074 9.99673 10.1311 9.94394C10.0547 9.88875 9.99624 9.81796 9.95567 9.73158C9.91749 9.64519 9.8984 9.55401 9.8984 9.45803Z" fill="black"/>
<path d="M0.604492 2.11328H3.6374C4.12475 2.11328 4.54273 2.46097 4.63147 2.94016L4.86772 4.13525H15.0951L13.7472 11.549L4.98536 11.549L3.51658 3.70755C3.48983 3.56474 3.36514 3.46124 3.21985 3.46124H0.604492V2.11328ZM6.78418 6.2294V6.50655C6.78418 6.70092 6.82713 6.87969 6.91304 7.04286C6.99895 7.20603 7.12424 7.33681 7.2889 7.43519C7.45594 7.53357 7.6564 7.58276 7.89026 7.58276C8.12651 7.58276 8.32578 7.53357 8.48805 7.43519C8.65271 7.33681 8.7768 7.20603 8.86032 7.04286C8.94623 6.87969 8.98919 6.70092 8.98919 6.50655V6.2294C8.98919 6.03024 8.94623 5.84907 8.86032 5.6859C8.77441 5.52273 8.64913 5.39195 8.48447 5.29357C8.3222 5.19519 8.12174 5.146 7.8831 5.146C7.65163 5.146 7.45356 5.19519 7.2889 5.29357C7.12424 5.39195 6.99895 5.52273 6.91304 5.6859C6.82713 5.84907 6.78418 6.03024 6.78418 6.2294ZM9.29703 9.17728V9.45803C9.29703 9.65479 9.33998 9.83476 9.42589 9.99793C9.51419 10.1611 9.64067 10.2919 9.80533 10.3903C9.97237 10.4886 10.174 10.5378 10.4103 10.5378C10.6441 10.5378 10.8422 10.4886 11.0045 10.3903C11.1668 10.2919 11.2897 10.1611 11.3732 9.99793C11.4591 9.83476 11.502 9.65479 11.502 9.45803V9.17728C11.502 8.98051 11.4591 8.80054 11.3732 8.63737C11.2897 8.4742 11.1656 8.34343 11.0009 8.24504C10.8386 8.14666 10.6382 8.09747 10.3995 8.09747C10.1681 8.09747 9.96999 8.14666 9.80533 8.24504C9.64067 8.34343 9.51419 8.4742 9.42589 8.63737C9.33998 8.80054 9.29703 8.98051 9.29703 9.17728ZM8.06924 10.0663L10.6143 5.97025L10.174 5.71469L7.62896 9.81076L8.06924 10.0663Z" fill="black"/>
<path d="M5.65916 13.9077C6.21751 13.9077 6.67013 13.4551 6.67013 12.8967C6.67013 12.3384 6.21751 11.8857 5.65916 11.8857C5.10082 11.8857 4.64819 12.3384 4.64819 12.8967C4.64819 13.4551 5.10082 13.9077 5.65916 13.9077Z" fill="black"/>
<path d="M14.0837 12.8967C14.0837 13.4551 13.6311 13.9077 13.0727 13.9077C12.5144 13.9077 12.0618 13.4551 12.0618 12.8967C12.0618 12.3384 12.5144 11.8857 13.0727 11.8857C13.6311 11.8857 14.0837 12.3384 14.0837 12.8967Z" fill="black"/>
</svg>
