<svg width="16" height="16" viewBox="0 0 16 16" fill="none" xmlns="http://www.w3.org/2000/svg">
<path d="M1.5 7.91694C1.5 10.7199 3.24983 13.1029 5.6876 13.9771C6.01552 14.0616 5.96528 13.8223 5.96528 13.6589V12.5469C4.07033 12.7748 3.99358 11.4865 3.8652 11.2716C3.60705 10.8202 3.00145 10.7055 3.18146 10.4906C3.61403 10.2628 4.05358 10.5479 4.56151 11.3217C4.92989 11.882 5.64853 11.7875 6.01412 11.6943C6.09366 11.3576 6.2639 11.0566 6.49832 10.8216C4.535 10.4605 3.7159 9.22957 3.7159 7.76505C3.7159 7.05572 3.94474 6.40227 4.39127 5.87636C4.10661 5.00797 4.41778 4.26568 4.45964 4.15534C5.27177 4.08082 6.11319 4.75146 6.18017 4.80448C6.64205 4.67695 7.16812 4.60816 7.75558 4.60816C8.34723 4.60816 8.87609 4.67838 9.33936 4.80735C9.49704 4.68411 10.2785 4.10805 11.0334 4.17827C11.0738 4.28861 11.378 5.0137 11.1101 5.87063C11.5636 6.39797 11.7939 7.05715 11.7939 7.76791C11.7939 9.23386 10.9706 10.4662 9.00028 10.8231C9.3282 11.1569 9.53193 11.6184 9.53193 12.1285V13.7435C9.54309 13.8725 9.53193 14 9.74263 14C12.2181 13.1474 14 10.7457 14 7.91838C14 4.37172 11.2008 1.5 7.75 1.5C4.29638 1.49857 1.5 4.37029 1.5 7.91694Z" fill="black"/>
</svg>
