<svg width="16" height="16" viewBox="0 0 16 16" fill="none" xmlns="http://www.w3.org/2000/svg">
<path d="M4.75 1.5C4.05964 1.5 3.5 2.05964 3.5 2.75C3.5 3.44036 4.05964 4 4.75 4H7.5V3.83333C7.5 2.54467 6.45533 1.5 5.16667 1.5H4.75Z" fill="black"/>
<path d="M2 5C2 4.72386 2.22386 4.5 2.5 4.5H7V6.5H2.5C2.22386 6.5 2 6.27614 2 6V5Z" fill="black"/>
<path d="M7 7H3V13C3 13.5523 3.44772 14 4 14H7V7Z" fill="black"/>
<path d="M9 14H12C12.5523 14 13 13.5523 13 13V7H9V14Z" fill="black"/>
<path d="M9 6.5V4.5H13.5C13.7761 4.5 14 4.72386 14 5V6C14 6.27614 13.7761 6.5 13.5 6.5H9Z" fill="black"/>
<path d="M12.5 2.75C12.5 2.05964 11.9404 1.5 11.25 1.5H10.8333C9.54467 1.5 8.5 2.54467 8.5 3.83333V4H11.25C11.9404 4 12.5 3.44036 12.5 2.75Z" fill="black"/>
</svg>
