<svg width="16" height="16" viewBox="0 0 16 16" fill="none" xmlns="http://www.w3.org/2000/svg">
<path d="M13.3386 7.70597C13.1452 7.51728 12.9041 7.42294 12.6153 7.42294C12.5128 7.42294 12.4056 7.44158 12.2938 7.47885L11.1477 7.87019L10.4139 5.66188L11.5111 5.28451C11.7161 5.21463 11.8885 5.09466 12.0282 4.92461C12.168 4.75456 12.2379 4.56471 12.2379 4.35507C12.2379 4.08019 12.1389 3.85074 11.9409 3.66672C11.7429 3.48269 11.5041 3.39068 11.2246 3.39068C11.1221 3.39068 11.0219 3.40465 10.9241 3.43261L9.79198 3.81696L9.4216 2.69184C9.35172 2.48685 9.22709 2.3203 9.04773 2.19218C8.86836 2.06406 8.66919 2 8.45022 2C8.17535 2 7.93891 2.10017 7.74091 2.3005C7.54291 2.50083 7.4439 2.73843 7.4439 3.01331C7.4439 3.12046 7.46254 3.22995 7.49981 3.34176L7.87718 4.45989L5.7108 5.19366L5.33343 4.07553C5.26355 3.86588 5.14009 3.69816 4.96305 3.57237C4.78601 3.44658 4.58801 3.38369 4.36904 3.38369C4.08951 3.38369 3.85191 3.48269 3.65623 3.68069C3.46056 3.87869 3.36272 4.11746 3.36272 4.397C3.36272 4.50415 3.38136 4.61363 3.41863 4.72545L3.78901 5.83659L2.69184 6.20697C2.48685 6.27685 2.3203 6.40031 2.19218 6.57735C2.06406 6.75439 2 6.95239 2 7.17136C2 7.45089 2.09551 7.685 2.28652 7.87369C2.47754 8.06237 2.71281 8.15671 2.99234 8.15671C3.09484 8.15671 3.20665 8.13808 3.32778 8.10081L4.41796 7.72344L5.15173 9.91078L4.06156 10.2812C3.85656 10.351 3.69001 10.4745 3.56189 10.6515C3.43377 10.8286 3.36971 11.0266 3.36971 11.2456C3.36971 11.5297 3.46405 11.765 3.65274 11.9514C3.84142 12.1377 4.07786 12.2309 4.36205 12.2309C4.45989 12.2309 4.57636 12.2099 4.71147 12.168L5.78068 11.7976L6.16504 12.9367C6.23492 13.1464 6.35838 13.3141 6.53542 13.4399C6.71246 13.5657 6.91046 13.6286 7.12943 13.6286C7.40896 13.6286 7.64657 13.5284 7.84224 13.3281C8.03791 13.1277 8.13575 12.8901 8.13575 12.6153C8.13575 12.5081 8.11711 12.3986 8.07984 12.2868L7.69548 11.1407L9.86186 10.4L10.2462 11.553C10.3161 11.7627 10.4407 11.9304 10.6201 12.0562C10.7995 12.182 10.9986 12.2449 11.2176 12.2449C11.4925 12.2449 11.7277 12.1447 11.9234 11.9444C12.1191 11.7441 12.2169 11.5065 12.2169 11.2316C12.2169 11.1104 12.2006 11.001 12.168 10.9031L11.7767 9.73607L12.9787 9.32376C13.4119 9.17002 13.6286 8.86719 13.6286 8.41528C13.6286 8.13109 13.5319 7.89465 13.3386 7.70597ZM9.23316 8.51968L7.06678 9.25346L6.33301 7.06611L8.49939 6.31836L9.23316 8.51968Z" fill="black"/>
</svg>
