<svg width="16" height="16" viewBox="0 0 16 16" fill="none" xmlns="http://www.w3.org/2000/svg">
<path d="M7.51755 7.14769C8.03112 7.20558 8.03112 8.25883 8.03112 8.25883H5.4023L4.96447 10.0479L5.57965 9.49136C5.57965 9.49136 6.99105 11.1254 7.24968 11.5325C7.50831 11.9396 7.28848 13.3794 7.28848 13.3794L4.87395 10.3541C4.87395 10.3541 4.11468 13.0582 3.08569 13.6726C2.0567 14.287 1 13.8481 1 13.8481C1 13.8481 2.45758 12.7949 3.23163 11.4466C4.00384 10.1001 4.26062 8.25696 4.26062 8.25696H1.25863C1.25863 8.25696 1.48586 7.1757 1.88674 7.14582C2.28578 7.11594 4.25877 7.14582 4.25877 7.14582L4.23106 3.80866L3.08754 3.86656C3.08754 3.86656 2.88617 4.68637 2.25806 5.15511C1.62811 5.62384 1.25679 5.4483 1.25679 5.4483C1.25679 5.4483 2.3726 2.28855 2.71437 1.67229C3.05798 1.05789 4.0297 1 4.0297 1L3.4293 2.78529H7.28848C7.74662 2.78529 7.77434 3.86842 7.77434 3.86842H5.4023V7.14769C5.4023 7.14769 7.00213 7.0898 7.51755 7.14769ZM8.59272 2.68258V12.5372H9.5589L9.9099 13.7734L11.6095 12.5372H14V2.68258H8.59272ZM12.9027 11.4186H11.7795L10.3459 12.5241L10.0337 11.4186H9.7381V3.78065H12.9027V11.4186Z" fill="black"/>
</svg>
