<svg width="16" height="16" viewBox="0 0 16 16" fill="none" xmlns="http://www.w3.org/2000/svg">
<path d="M14.7199 3.85246C14.2492 4.06491 13.737 4.21781 13.2093 4.27736C13.7539 3.93776 14.1677 3.40181 14.363 2.76446C13.86 3.07831 13.2909 3.30846 12.6986 3.42756C12.2187 2.89161 11.5372 2.56006 10.7819 2.56006C9.32826 2.56006 8.15917 3.79291 8.15917 5.30581C8.15917 5.51826 8.18378 5.73071 8.22378 5.93511C6.04712 5.81601 4.10581 4.72801 2.8152 3.06221C2.58753 3.47102 2.45832 3.93776 2.45832 4.44796C2.45832 5.40077 2.92134 6.24091 3.62741 6.73502C3.19669 6.71731 2.79059 6.59017 2.4414 6.38576V6.41956C2.4414 7.75381 3.34283 8.85951 4.54422 9.11381C4.32425 9.17336 4.08889 9.20716 3.85354 9.20716C3.68279 9.20716 3.52127 9.18946 3.35821 9.16531C3.69048 10.2533 4.65805 11.0436 5.81022 11.0693C4.90879 11.8081 3.7797 12.2426 2.55369 12.2426C2.33372 12.2426 2.13067 12.2346 1.91992 12.2088C3.08286 12.9894 4.46269 13.4401 5.94867 13.4401C10.7727 13.4401 13.4124 9.25866 13.4124 5.62931C13.4124 5.51021 13.4124 5.39111 13.4047 5.27201C13.9154 4.88091 14.363 4.39646 14.7199 3.85246Z" fill="black"/>
</svg>
