<svg width="16" height="16" viewBox="0 0 16 16" fill="none" xmlns="http://www.w3.org/2000/svg">
<path d="M11.0799 6.03233C10.5499 4.23897 8.6405 2.91113 6.36442 2.91113C3.67868 2.91113 1.5 4.76036 1.5 7.04217C1.5 8.40151 2.27206 9.60616 3.46525 10.3596L3.14726 11.898L4.73292 10.9354C5.24286 11.0901 5.7929 11.1746 6.36442 11.1746C6.71679 11.1746 7.05913 11.1417 7.39002 11.0815C7.03622 10.5802 6.82995 9.99434 6.82995 9.36695C6.82995 7.51772 8.59467 6.01944 10.7705 6.01944C10.8586 6.01944 10.9458 6.02453 11.0319 6.02956L11.0799 6.03233ZM11.1602 6.357C11.0327 6.34554 10.9023 6.33838 10.7706 6.33838C8.80101 6.33838 7.20532 7.69486 7.20532 9.36647C7.20532 9.96807 7.41445 10.5267 7.76969 10.998C8.40281 11.8374 9.50862 12.396 10.7706 12.396C11.2676 12.396 11.7403 12.3086 12.17 12.1539L13.3489 12.681L13.0782 11.6726C13.8488 11.1169 14.3372 10.2904 14.3372 9.36647C14.3372 7.80515 12.9464 6.52173 11.1602 6.357ZM9.63332 7.70806C9.88399 7.70806 10.0874 7.91146 10.0874 8.16213C10.0874 8.4128 9.88399 8.6162 9.63332 8.6162C9.38265 8.6162 9.17925 8.4128 9.17925 8.16213C9.17925 7.91146 9.38265 7.70806 9.63332 7.70806ZM11.4549 8.15773C11.4549 7.90706 11.6583 7.70366 11.909 7.70366C12.1596 7.70366 12.363 7.90706 12.363 8.15773C12.363 8.4084 12.1596 8.6118 11.909 8.6118C11.6583 8.6118 11.4549 8.4084 11.4549 8.15773ZM4.78601 4.86475C5.10974 4.86475 5.3733 5.12687 5.3733 5.45203C5.3733 5.77575 5.11117 6.03931 4.78601 6.03931C4.46086 6.03931 4.19873 5.77718 4.19873 5.45203C4.19873 5.12831 4.46229 4.86475 4.78601 4.86475ZM7.1377 5.44861C7.1377 5.12489 7.40126 4.86133 7.72498 4.86133C8.0487 4.86133 8.31226 5.12346 8.31226 5.44861C8.31226 5.77233 8.05013 6.03589 7.72498 6.03589C7.40126 6.03589 7.1377 5.77377 7.1377 5.44861Z" fill="black"/>
</svg>
