<svg width="16" height="16" viewBox="0 0 16 16" fill="none" xmlns="http://www.w3.org/2000/svg">
<path d="M7.27979 2.46191H8.83764V4.01499H7.27979V2.46191ZM8.83636 4.4541H7.27979V6.00718H8.83764V4.45603L8.83636 4.4541ZM13.9701 7.04311C13.8836 6.40648 13.4893 5.88793 12.97 5.49003L12.7681 5.32959L12.6053 5.52854C12.2886 5.88793 12.1629 6.5252 12.2014 7.0014C12.2398 7.36207 12.3552 7.72018 12.5565 7.9987C12.4776 8.03914 12.3897 8.07807 12.3023 8.11673C12.2094 8.15783 12.1172 8.19866 12.0372 8.24065C11.6892 8.35186 11.3255 8.40603 10.9602 8.40109H0.677061L0.638595 8.63855C0.5591 9.41432 0.683293 10.1974 0.99889 10.9104L1.15532 11.1896V11.2281C2.11696 12.8216 3.82868 13.5385 5.69298 13.5385C9.27926 13.5385 12.2206 11.9854 13.615 8.63983C14.5285 8.67962 15.4511 8.44088 15.8845 7.56423L15.9998 7.36528L15.8075 7.24527C15.2882 6.92824 14.5766 6.88588 13.9804 7.04632L13.9689 7.0476L13.9701 7.04311ZM3.70464 11.384C3.26613 11.384 2.86865 11.0246 2.86865 10.5882C2.86865 10.1518 3.22766 9.79053 3.70528 9.79053C4.18482 9.79053 4.54511 10.1499 4.54511 10.5876C4.54511 11.0253 4.14635 11.3834 3.70849 11.3834L3.70464 11.384ZM7.27979 6.40705H8.83636L8.83764 6.40576V7.96012H7.27979V6.40705ZM10.7397 6.40705H9.19214V7.96012H10.7436V6.40576L10.7397 6.40705ZM3.42529 6.40705H4.97225L4.97802 6.40576V7.96012H3.42529V6.40705ZM6.91436 6.40705H5.37573V7.96012H6.92333V6.40576L6.91436 6.40705ZM1.51221 6.40705H3.04827L3.04955 6.40769L3.06878 6.40576V7.96012H1.51221V6.40705ZM6.91372 4.4541H5.37573V6.00718H6.92333V4.45603L6.91372 4.4541ZM3.42773 4.4541H4.96444L4.97469 4.45603V6.00718H3.42773V4.4541Z" fill="black"/>
</svg>
