<svg width="16" height="16" viewBox="0 0 16 16" fill="none" xmlns="http://www.w3.org/2000/svg">
<path d="M15.2727 8.00002C15.2727 12.0166 12.0166 15.2727 8.00002 15.2727C3.98341 15.2727 0.727295 12.0166 0.727295 8.00002C0.727295 3.98341 3.98341 0.727295 8.00002 0.727295C12.0166 0.727295 15.2727 3.98341 15.2727 8.00002ZM13.807 8.36366H10.5408C10.525 8.97504 10.4698 9.54074 10.3863 10.0617C11.0346 10.2023 11.5721 10.3881 12.0031 10.5757C12.4105 10.7531 12.7216 10.9316 12.9406 11.0743C13.4366 10.2788 13.7459 9.35481 13.807 8.36366ZM9.81327 8.36366H6.18678C6.20224 8.92968 6.25332 9.45257 6.32976 9.93336C6.83219 9.86137 7.38847 9.8182 8.00002 9.8182C8.61158 9.8182 9.16785 9.86137 9.67029 9.93336C9.74673 9.45257 9.7978 8.92968 9.81327 8.36366ZM10.5408 7.63639H13.807C13.7459 6.64523 13.4366 5.72122 12.9406 4.92571C12.7216 5.0684 12.4105 5.24698 12.0031 5.42434C11.5721 5.612 11.0346 5.79773 10.3863 5.93832C10.4698 6.4593 10.525 7.025 10.5408 7.63639ZM9.67029 6.06669C9.16785 6.13868 8.61158 6.18184 8.00002 6.18184C7.38847 6.18184 6.83219 6.13868 6.32976 6.06669C6.25332 6.54748 6.20224 7.07036 6.18678 7.63639H9.81327C9.7978 7.07036 9.74673 6.54748 9.67029 6.06669ZM10.2489 5.22392C10.8421 5.09412 11.3284 4.92488 11.7128 4.75752C12.0639 4.60466 12.331 4.4529 12.5175 4.3332C11.6675 3.2873 10.4616 2.5423 9.08429 2.28269C9.19199 2.45832 9.30367 2.65566 9.41514 2.87512C9.7254 3.48594 10.0331 4.26631 10.2489 5.22392ZM8.14189 2.18354C8.09473 2.18241 8.04744 2.18184 8.00002 2.18184C7.9526 2.18184 7.90531 2.18241 7.85816 2.18354C7.67866 2.42607 7.4565 2.76509 7.23332 3.20447C6.95269 3.75697 6.66955 4.46987 6.46789 5.35171C6.9276 5.41592 7.4378 5.45457 8.00002 5.45457C8.56225 5.45457 9.07244 5.41592 9.53215 5.35171C9.3305 4.46987 9.04735 3.75697 8.76672 3.20447C8.54354 2.76509 8.32138 2.42607 8.14189 2.18354ZM9.53215 10.6483C9.07244 10.5841 8.56225 10.5455 8.00002 10.5455C7.4378 10.5455 6.9276 10.5841 6.46789 10.6483C6.66955 11.5302 6.95269 12.2431 7.23332 12.7956C7.4565 13.235 7.67866 13.574 7.85816 13.8165C7.90531 13.8176 7.9526 13.8182 8.00002 13.8182C8.04744 13.8182 8.09473 13.8176 8.14188 13.8165C8.32138 13.574 8.54354 13.235 8.76672 12.7956C9.04735 12.2431 9.3305 11.5302 9.53215 10.6483ZM9.08429 13.7174C10.4616 13.4577 11.6675 12.7127 12.5175 11.6668C12.331 11.5471 12.0639 11.3954 11.7128 11.2425C11.3284 11.0752 10.8421 10.9059 10.2489 10.7761C10.0331 11.7337 9.7254 12.5141 9.41514 13.1249C9.30367 13.3444 9.19199 13.5417 9.08429 13.7174ZM3.99691 10.5757C4.42793 10.3881 4.96542 10.2023 5.61376 10.0617C5.53029 9.54074 5.47507 8.97504 5.45925 8.36366H2.19302C2.25414 9.35481 2.56341 10.2788 3.05947 11.0743C3.27839 10.9316 3.58954 10.7531 3.99691 10.5757ZM5.45925 7.63639C5.47507 7.025 5.53029 6.4593 5.61376 5.93832C4.96542 5.79773 4.42793 5.61199 3.99691 5.42434C3.58954 5.24698 3.27839 5.0684 3.05947 4.92571C2.56341 5.72122 2.25414 6.64523 2.19302 7.63639H5.45925ZM6.5849 2.87512C6.69637 2.65566 6.80806 2.45832 6.91575 2.28269C5.53842 2.5423 4.3325 3.2873 3.48252 4.3332C3.66902 4.4529 3.93611 4.60466 4.28722 4.75752C4.67162 4.92488 5.15796 5.09411 5.75112 5.22392C5.96696 4.26631 6.27464 3.48594 6.5849 2.87512ZM6.5849 13.1249C6.27465 12.5141 5.96696 11.7337 5.75112 10.7761C5.15796 10.9059 4.67162 11.0752 4.28723 11.2425C3.93611 11.3954 3.66902 11.5471 3.48252 11.6668C4.33251 12.7127 5.53842 13.4577 6.91575 13.7174C6.80806 13.5417 6.69637 13.3444 6.5849 13.1249Z" fill="black"/>
</svg>
