<svg width="16" height="16" viewBox="0 0 16 16" fill="none" xmlns="http://www.w3.org/2000/svg">
<path d="M2.4576 2H12.9824C13.2355 2 13.44 2.20449 13.44 2.4576V12.9824C13.44 13.2355 13.2355 13.44 12.9824 13.44H9.89213V9.00853H11.3793L11.6024 7.28252H9.89213V6.17999C9.89213 5.67949 10.0308 5.33915 10.7473 5.33915H11.6625V3.79618C11.5037 3.77473 10.9618 3.72754 10.3297 3.72754C9.01125 3.72754 8.10892 4.53263 8.10892 6.00982V7.28252H6.61743V9.00996H8.10892V13.44H2.4576C2.20449 13.44 2 13.2355 2 12.9824V2.4576C2 2.20449 2.20449 2 2.4576 2Z" fill="black"/>
</svg>
