<svg width="16" height="16" viewBox="0 0 16 16" fill="none" xmlns="http://www.w3.org/2000/svg">
<path d="M11.96 14.2887C11.679 14.5698 11.2962 14.7263 10.9065 14.6453C9.87149 14.4292 7.61454 13.65 4.80336 10.8388C1.99217 8.02765 1.21297 5.7707 0.996906 4.73567C0.915897 4.34599 1.0724 3.96319 1.35345 3.68214L3.03559 2L5.86402 4.82843L4.90032 5.79212C4.56219 6.13025 4.5021 6.66637 4.711 7.09652C4.93276 7.55313 5.22305 8.07655 6.39435 9.24784C7.56564 10.4191 8.08906 10.7094 8.54567 10.9312C8.97582 11.1401 9.51194 11.08 9.85007 10.7419L10.8138 9.77817L13.6422 12.6066L11.96 14.2887Z" fill="black"/>
<path d="M13.75 7.25005C13.75 7.33188 13.748 7.41326 13.7441 7.49413H13.2435C13.2478 7.41332 13.25 7.33194 13.25 7.25005C13.25 4.76476 11.2352 2.75005 8.74997 2.75005C8.66608 2.75005 8.58272 2.75234 8.49997 2.75687V2.25619C8.58279 2.25211 8.66614 2.25005 8.74997 2.25005C11.5114 2.25005 13.75 4.48862 13.75 7.25005Z" fill="black"/>
<path d="M8.49999 3.94585C10.4597 3.94585 12.0484 5.53444 12.0486 7.49413H11.5486C11.5484 5.81056 10.1835 4.44585 8.49999 4.44585V3.94585Z" fill="black"/>
<path d="M8.49997 5.76552C9.40267 5.87808 10.1186 6.59224 10.2337 7.49413H9.72822C9.62073 6.86881 9.12612 6.37583 8.49997 6.27079V5.76552Z" fill="black"/>
</svg>
