<svg width="16" height="16" viewBox="0 0 16 16" fill="none" xmlns="http://www.w3.org/2000/svg">
<path d="M6.03845 2.11328H0.604492V12.9812H6.03845C7.54789 12.9812 7.54789 13.8869 7.54789 13.8869V3.01894C7.54789 3.01894 7.54789 2.11328 6.03845 2.11328ZM6.34031 4.52832V5.13209H1.81201V4.52832H6.34031ZM1.81201 6.33984H6.34031V6.94362H1.81201V6.33984ZM5.13277 8.15088V8.75465H1.81201V8.15088H5.13277ZM1.81201 9.9624H4.22711V10.5662H1.81201V9.9624Z" fill="black"/>
<path d="M9.96256 2.11328H15.3965V12.9812H9.96256C8.45312 12.9812 8.45312 13.8869 8.45312 13.8869V3.01894C8.45312 3.01894 8.45312 2.11328 9.96256 2.11328ZM14.1889 4.52832H9.66064V5.13209H14.1889V4.52832ZM9.66064 6.33984V6.94362H14.1889V6.33984H9.66064ZM12.9814 8.15088H9.66064V8.75465H12.9814V8.15088ZM9.66064 9.9624V10.5662H12.0757V9.9624H9.66064Z" fill="black"/>
</svg>
