<svg width="16" height="16" viewBox="0 0 16 16" fill="none" xmlns="http://www.w3.org/2000/svg">
<path d="M10.465 2.61508C11.6539 2.36283 12.9413 2.73198 13.8135 3.69946C14.6871 4.66541 14.9209 5.98359 14.5502 7.14334C14.4641 7.41097 14.178 7.55709 13.9104 7.47096C13.6427 7.38329 13.4966 7.09719 13.5827 6.82956C13.8473 6.0082 13.6796 5.06994 13.0598 4.38239C12.4384 3.69485 11.5247 3.43183 10.6788 3.61179C10.4034 3.67024 10.1327 3.49489 10.0743 3.21957C10.0143 2.94424 10.1896 2.67353 10.465 2.61508ZM11.4126 7.72198C11.225 7.66661 11.0973 7.62816 11.1958 7.38206C11.408 6.84832 11.4296 6.38689 11.2004 6.05926C10.7697 5.44247 9.58842 5.47631 8.23487 6.04234C8.23487 6.04234 7.81034 6.22846 7.91801 5.89161C8.12566 5.22252 8.0949 4.66264 7.77035 4.3381C7.03666 3.60287 5.08477 4.36578 3.40975 6.03927C2.15771 7.29284 1.43018 8.62179 1.43018 9.77077C1.43018 11.9688 4.24803 13.3054 7.0059 13.3054C10.6205 13.3054 13.0246 11.2058 13.0246 9.53698C13.0246 8.5295 12.1756 7.95886 11.4126 7.72198ZM7.23336 8.39833C6.18589 8.12608 5.00307 8.64751 4.54778 9.57038C4.08481 10.5117 4.5324 11.5561 5.59063 11.8976C6.68578 12.2513 7.97781 11.7099 8.42695 10.6932C8.86839 9.69959 8.3162 8.67827 7.23336 8.39833ZM6.43381 10.8011C6.22155 11.1411 5.76472 11.2887 5.42172 11.1334C5.08333 10.9795 4.98335 10.5842 5.19715 10.2536C5.40788 9.92439 5.84778 9.77673 6.18771 9.91978C6.53225 10.0659 6.643 10.4581 6.43381 10.8011ZM6.75341 10.0408C6.62266 9.98699 6.58114 9.83933 6.65497 9.71013C6.73187 9.58092 6.89491 9.5194 7.02566 9.57016C7.15947 9.61938 7.20715 9.76857 7.13332 9.90085C7.05642 10.0331 6.88569 10.0962 6.75341 10.0408ZM7.01341 12.5171C4.81388 12.734 2.91429 11.7404 2.77125 10.2945C2.6282 8.8502 4.29707 7.5028 6.4966 7.28592C8.69613 7.06751 10.5957 8.06268 10.7388 9.50698C10.8803 10.9513 9.21294 12.2987 7.01341 12.5171ZM12.4739 4.91037C12.0494 4.43971 11.4218 4.25975 10.8435 4.3828C10.6066 4.43355 10.4559 4.66581 10.5067 4.90268C10.5574 5.13802 10.7897 5.29029 11.0265 5.238C11.3096 5.17801 11.6157 5.26568 11.8248 5.49486C12.0325 5.72558 12.0894 6.03936 11.9986 6.31469C11.9233 6.54695 12.0479 6.79305 12.2786 6.86841C12.5093 6.94225 12.7554 6.81612 12.8308 6.58694C13.0123 6.02398 12.8985 5.38104 12.4739 4.91037Z" fill="black"/>
</svg>
