<svg width="16" height="16" viewBox="0 0 16 16" fill="none" xmlns="http://www.w3.org/2000/svg">
<path d="M8 1C4.96243 1 2.5 3.46243 2.5 6.5V7.08535C1.9174 7.29127 1.5 7.84689 1.5 8.5V10C1.5 10.8284 2.17157 11.5 3 11.5H4.5V7H3.5V6.5C3.5 4.01472 5.51472 2 8 2C10.4853 2 12.5 4.01472 12.5 6.5V7H11.5V11.5H12.1169L11.5082 12.5145C11.3275 12.8157 11.002 13 10.6507 13H9V12H7V14H10.6507C11.3532 14 12.0043 13.6314 12.3657 13.029L13.3013 11.4697C13.9853 11.3303 14.5 10.7252 14.5 10V8.5C14.5 7.84689 14.0826 7.29127 13.5 7.08535V6.5C13.5 3.46243 11.0376 1 8 1Z" fill="black"/>
</svg>
