<svg width="16" height="16" viewBox="0 0 16 16" fill="none" xmlns="http://www.w3.org/2000/svg">
<path d="M0.940918 6.79524C0.940918 4.60162 3.25075 2.82324 6.10003 2.82324C8.9494 2.82324 11.2592 4.60162 11.2592 6.79524C11.2592 8.98912 8.9494 10.7673 6.10003 10.7673C5.77832 10.7673 5.46345 10.7447 5.15791 10.7012C5.14934 10.7067 2.03628 11.9349 2.03628 11.9349C2.03628 11.9349 3.05574 10.016 3.05916 10.0044C1.77506 9.28193 0.940918 8.11361 0.940918 6.79524ZM6.69019 11.2482C9.92964 11.2482 13.9044 7.54236 10.5295 4.06445C12.8841 4.07998 15.0588 5.84283 15.0588 8.03645C15.0588 9.35472 14.2247 10.5231 12.9405 11.2455C12.944 11.2572 13.9635 13.1761 13.9635 13.1761C13.9635 13.1761 10.8504 11.9479 10.8419 11.9424C10.5363 11.9857 10.2215 12.0085 9.89985 12.0085C7.05023 12.0085 6.69019 11.2482 6.69019 11.2482Z" fill="black"/>
</svg>
