<svg width="16" height="16" viewBox="0 0 16 16" fill="none" xmlns="http://www.w3.org/2000/svg">
<path d="M5.33332 2C5.33332 1.44772 5.78104 1 6.33332 1H9.66666C10.2189 1 10.6667 1.44772 10.6667 2V2.83333L13.3333 2.83333C13.6095 2.83333 13.8333 3.05719 13.8333 3.33333C13.8333 3.60947 13.6095 3.83333 13.3333 3.83333L2.66666 3.83333C2.39051 3.83333 2.16666 3.60948 2.16666 3.33333C2.16666 3.05719 2.39051 2.83333 2.66666 2.83333L5.33332 2.83333V2ZM6.33332 2V2.66667H9.66666V2L6.33332 2Z" fill="black"/>
<path d="M6.99999 8C6.99999 7.72386 6.77613 7.5 6.49999 7.5C6.22385 7.5 5.99999 7.72386 5.99999 8V12C5.99999 12.2761 6.22385 12.5 6.49999 12.5C6.77613 12.5 6.99999 12.2761 6.99999 12V8Z" fill="black"/>
<path d="M9.49999 7.5C9.77613 7.5 9.99999 7.72386 9.99999 8V12C9.99999 12.2761 9.77613 12.5 9.49999 12.5C9.22385 12.5 8.99999 12.2761 8.99999 12V8C8.99999 7.72386 9.22385 7.5 9.49999 7.5Z" fill="black"/>
<path d="M3.75949 4.66667C3.17226 4.66667 2.71142 5.17028 2.76342 5.75521L3.47453 13.7552C3.52039 14.2711 3.95263 14.6667 4.4706 14.6667H11.5294C12.0474 14.6667 12.4796 14.2711 12.5255 13.7552L13.2366 5.75521C13.2886 5.17028 12.8277 4.66667 12.2405 4.66667H3.75949ZM12.2405 5.66667L11.5294 13.6667H4.4706L3.75949 5.66667H12.2405Z" fill="black"/>
</svg>
