<svg width="16" height="16" viewBox="0 0 16 16" fill="none" xmlns="http://www.w3.org/2000/svg">
<path d="M7 9.00543C7 8.72928 6.77614 8.50543 6.5 8.50543H5.5L5.41012 8.51348C5.17688 8.55582 5 8.75997 5 9.00543C5 9.28157 5.22386 9.50543 5.5 9.50543H6.5L6.58988 9.49737C6.82312 9.45503 7 9.25089 7 9.00543Z" fill="black"/>
<path d="M6.5 10.5054C6.77614 10.5054 7 10.7293 7 11.0054C7 11.2509 6.82312 11.455 6.58988 11.4974L6.5 11.5054H5.5C5.22386 11.5054 5 11.2816 5 11.0054C5 10.76 5.17688 10.5558 5.41012 10.5135L5.5 10.5054H6.5Z" fill="black"/>
<path d="M11 9.00543C11 8.72928 10.7761 8.50543 10.5 8.50543H9.5L9.41012 8.51348C9.17688 8.55582 9 8.75997 9 9.00543C9 9.28157 9.22386 9.50543 9.5 9.50543H10.5L10.5899 9.49737C10.8231 9.45503 11 9.25089 11 9.00543Z" fill="black"/>
<path d="M10.5 10.5054C10.7761 10.5054 11 10.7293 11 11.0054C11 11.2509 10.8231 11.455 10.5899 11.4974L10.5 11.5054H9.5C9.22386 11.5054 9 11.2816 9 11.0054C9 10.76 9.17688 10.5558 9.41012 10.5135L9.5 10.5054H10.5Z" fill="black"/>
<path d="M5.99194 2.16012C5.94961 1.92688 5.74546 1.75 5.5 1.75C5.22386 1.75 5 1.97386 5 2.25V3H3C2.44772 3 2 3.44772 2 4V13C2 13.5523 2.44772 14 3 14H13C13.5523 14 14 13.5523 14 13V4C14 3.44772 13.5523 3 13 3H11V2.25L10.9919 2.16012C10.9496 1.92688 10.7455 1.75 10.5 1.75C10.2239 1.75 10 1.97386 10 2.25V3H6V2.25L5.99194 2.16012ZM13 6H3V4H5V4.75L5.00806 4.83988C5.05039 5.07312 5.25454 5.25 5.5 5.25C5.77614 5.25 6 5.02614 6 4.75V4H10V4.75L10.0081 4.83988C10.0504 5.07312 10.2545 5.25 10.5 5.25C10.7761 5.25 11 5.02614 11 4.75V4H13V6ZM3 7H13V13H3V7Z" fill="black"/>
</svg>
