<svg width="16" height="16" viewBox="0 0 16 16" fill="none" xmlns="http://www.w3.org/2000/svg">
<path d="M3.64645 12.3536C3.84171 12.5488 4.15829 12.5488 4.35355 12.3536L8.35355 8.35355L8.41141 8.28431C8.5464 8.08944 8.52712 7.82001 8.35355 7.64645L4.35355 3.64645L4.28431 3.58859C4.08944 3.4536 3.82001 3.47288 3.64645 3.64645L3.58859 3.71569C3.4536 3.91056 3.47288 4.17999 3.64645 4.35355L7.293 8L3.64645 11.6464L3.58859 11.7157C3.4536 11.9106 3.47288 12.18 3.64645 12.3536Z" fill="black"/>
<path d="M7.64645 12.3536C7.84171 12.5488 8.15829 12.5488 8.35355 12.3536L12.3536 8.35355L12.4114 8.28431C12.5464 8.08944 12.5271 7.82001 12.3536 7.64645L8.35355 3.64645L8.28431 3.58859C8.08944 3.4536 7.82001 3.47288 7.64645 3.64645L7.58859 3.71569C7.4536 3.91056 7.47288 4.17999 7.64645 4.35355L11.293 8L7.64645 11.6464L7.58859 11.7157C7.4536 11.9106 7.47288 12.18 7.64645 12.3536Z" fill="black"/>
</svg>
