<svg width="16" height="16" viewBox="0 0 16 16" fill="none" xmlns="http://www.w3.org/2000/svg">
<path d="M8.35355 3.64645C8.15829 3.45118 7.84171 3.45118 7.64645 3.64645L3.64645 7.64645L3.58859 7.71569C3.4536 7.91056 3.47288 8.17999 3.64645 8.35355L7.64645 12.3536L7.71569 12.4114C7.91056 12.5464 8.17999 12.5271 8.35355 12.3536L8.41141 12.2843C8.5464 12.0894 8.52712 11.82 8.35355 11.6464L4.707 8L8.35355 4.35355L8.41141 4.28431C8.5464 4.08944 8.52712 3.82001 8.35355 3.64645Z" fill="black"/>
<path d="M12.3536 3.64645C12.1583 3.45118 11.8417 3.45118 11.6464 3.64645L7.64645 7.64645L7.58859 7.71569C7.4536 7.91056 7.47288 8.17999 7.64645 8.35355L11.6464 12.3536L11.7157 12.4114C11.9106 12.5464 12.18 12.5271 12.3536 12.3536L12.4114 12.2843C12.5464 12.0894 12.5271 11.82 12.3536 11.6464L8.707 8L12.3536 4.35355L12.4114 4.28431C12.5464 4.08944 12.5271 3.82001 12.3536 3.64645Z" fill="black"/>
</svg>
