<svg width="16" height="16" viewBox="0 0 16 16" fill="none" xmlns="http://www.w3.org/2000/svg">
<path d="M8.5 1.5C8.5 1.22386 8.27614 1 8 1C7.72386 1 7.5 1.22386 7.5 1.5V8.83757L5.84387 7.2686C5.64341 7.07869 5.32694 7.08724 5.13702 7.28771C4.94711 7.48817 4.95566 7.80464 5.15613 7.99456L7.65613 10.363C7.84898 10.5457 8.15102 10.5457 8.34387 10.363L10.8439 7.99456C11.0443 7.80464 11.0529 7.48817 10.863 7.28771C10.6731 7.08724 10.3566 7.07869 10.1561 7.2686L8.5 8.83757V1.5Z" fill="black"/>
<path d="M2 9.5C1.72386 9.5 1.5 9.72386 1.5 10V14C1.5 14.2761 1.72386 14.5 2 14.5H14C14.2761 14.5 14.5 14.2761 14.5 14V10C14.5 9.72386 14.2761 9.5 14 9.5H12.5C12.2239 9.5 12 9.72386 12 10C12 10.2761 12.2239 10.5 12.5 10.5H13.5V13.5H2.5V10.5H3.5C3.77614 10.5 4 10.2761 4 10C4 9.72386 3.77614 9.5 3.5 9.5H2Z" fill="black"/>
</svg>
