<svg width="16" height="16" viewBox="0 0 16 16" fill="none" xmlns="http://www.w3.org/2000/svg">
<path d="M2.88341 0.933685C1.66425 0.933685 0.954346 2.31094 1.66166 3.30394L5.04055 8.04753V13.3127H6.04055V7.72779L2.47616 2.72377C2.24039 2.39277 2.47702 1.93369 2.88341 1.93369H10.3757C10.7853 1.93369 11.0212 2.39922 10.7789 2.72946L7.11443 7.72391V14.8795H8.11443V8.05142L11.5851 3.32102C12.312 2.33027 11.6046 0.933685 10.3757 0.933685H2.88341Z" fill="black"/>
<path d="M15.2015 9.53347H9.49829V8.53347H15.2015V9.53347Z" fill="black"/>
<path d="M9.49829 11.8719H13.4905V10.8719H9.49829V11.8719Z" fill="black"/>
<path d="M9.49829 14.2103H12.3499V13.2103H9.49829V14.2103Z" fill="black"/>
</svg>
