<svg width="16" height="16" viewBox="0 0 16 16" fill="none" xmlns="http://www.w3.org/2000/svg">
<path d="M12.1787 4.16198C12.3483 3.94418 12.6624 3.90499 12.8804 4.07445C13.0741 4.22508 13.1266 4.48987 13.0168 4.69982L12.968 4.77565L10.4778 7.97407C10.2839 8.22305 9.91854 8.22801 9.71522 8.0059L9.65942 7.93247L8.93474 6.77682L7.31854 8.05877C7.15685 8.18689 6.93602 8.20097 6.76145 8.10204L6.68978 8.05273L5.61874 7.16955L3.84679 9.92271C3.71399 10.129 3.45478 10.2049 3.23571 10.1144L3.15577 10.0726C2.94934 9.93988 2.87335 9.68085 2.96394 9.46192L3.00579 9.38203L5.08228 6.15645C5.22631 5.93273 5.51535 5.86531 5.74006 5.98682L5.82091 6.0413L7.01374 7.02465L8.75205 5.64757C8.95964 5.48309 9.25344 5.51137 9.42728 5.69696L9.48644 5.77387L10.1267 6.7958L12.1787 4.16198Z" fill="black"/>
<path d="M13.0733 11.4765C13.0733 11.2004 12.8495 10.9765 12.5733 10.9765H3.42629L3.33641 10.9846C3.10316 11.0269 2.92629 11.2311 2.92629 11.4765C2.92629 11.7527 3.15015 11.9765 3.42629 11.9765H12.5733L12.6632 11.9685C12.8965 11.9261 13.0733 11.722 13.0733 11.4765Z" fill="black"/>
<path d="M15.0024 3.00429V13.0056C15.0024 13.5575 14.5547 14.005 14.0024 14.005H2C1.44772 14.005 1 13.5575 1 13.0056V3.00429C1 2.45238 1.44772 2.00496 2 2.00496H14.0024C14.5547 2.00496 15.0024 2.45238 15.0024 3.00429ZM2 3.00429V13.0056H14.0024V3.00429H2Z" fill="black"/>
</svg>
