<svg width="16" height="16" viewBox="0 0 16 16" fill="none" xmlns="http://www.w3.org/2000/svg">
<path d="M9.29554 2.22883C8.71672 1.23657 7.28302 1.23657 6.7042 2.22883L1.44524 11.2442C0.861914 12.2442 1.58322 13.5 2.74091 13.5H13.2588C14.4165 13.5 15.1378 12.2442 14.5545 11.2442L9.29554 2.22883ZM7.56798 2.7327C7.76092 2.40195 8.23882 2.40195 8.43176 2.7327L13.6907 11.7481C13.8852 12.0814 13.6447 12.5 13.2588 12.5H2.74091C2.35501 12.5 2.11458 12.0814 2.30902 11.7481L7.56798 2.7327ZM8.49987 5.5C8.49987 5.22386 8.27601 5 7.99987 5C7.72373 5 7.49987 5.22386 7.49987 5.5V8.5C7.49987 8.77614 7.72373 9 7.99987 9C8.27601 9 8.49987 8.77614 8.49987 8.5V5.5ZM8.49987 10.5C8.49987 10.2239 8.27601 10 7.99987 10C7.72373 10 7.49987 10.2239 7.49987 10.5V11C7.49987 11.2761 7.72373 11.5 7.99987 11.5C8.27601 11.5 8.49987 11.2761 8.49987 11V10.5Z" fill="black"/>
</svg>
