<svg width="16" height="16" viewBox="0 0 16 16" fill="none" xmlns="http://www.w3.org/2000/svg">
<path d="M14.3814 4.36862L8.41781 1.33016C8.13261 1.18485 7.79508 1.18485 7.50987 1.33016L1.54624 4.36862C1.35806 4.46449 1.20507 4.61748 1.1092 4.80566C0.858475 5.29776 1.05415 5.89993 1.54624 6.15065L7.50987 9.18911C7.79508 9.33442 8.13261 9.33442 8.41781 9.18911L14.3814 6.15065C14.5696 6.05477 14.7226 5.90178 14.8185 5.7136C15.0692 5.22151 14.8735 4.61934 14.3814 4.36862ZM7.96384 2.22118L13.9275 5.25963L7.96384 8.29809L2.00021 5.25963L7.96384 2.22118Z" fill="black"/>
<path d="M14.1984 7.9573C14.4444 7.83194 14.7455 7.92977 14.8709 8.17582C14.9823 8.39453 14.9174 8.65673 14.7288 8.80034L14.6523 8.84832L8.19083 12.1404C8.07674 12.1986 7.94592 12.2102 7.82514 12.1753L7.73686 12.1404L1.27534 8.84832C1.0293 8.72295 0.931462 8.42187 1.05682 8.17582C1.16825 7.95711 1.41853 7.85551 1.64558 7.92368L1.72932 7.9573L7.96343 11.133L14.1984 7.9573Z" fill="black"/>
<path d="M14.8709 10.8163C14.7455 10.5703 14.4444 10.4725 14.1984 10.5978L7.96343 13.773L1.72932 10.5978L1.64558 10.5642C1.41853 10.496 1.16825 10.5976 1.05682 10.8163C0.931462 11.0624 1.0293 11.3635 1.27534 11.4888L7.73686 14.781L7.82514 14.8158C7.94592 14.8507 8.07674 14.8391 8.19083 14.781L14.6523 11.4888L14.7288 11.4409C14.9174 11.2972 14.9823 11.035 14.8709 10.8163Z" fill="black"/>
</svg>
