<svg width="16" height="16" viewBox="0 0 16 16" fill="none" xmlns="http://www.w3.org/2000/svg">
<path d="M13 1C13.5523 1 14 1.44772 14 2V14C14 14.5523 13.5523 15 13 15H4C2.89543 15 2 14.1046 2 13V3C2 1.89543 2.89543 1 4 1H13ZM3 13C3 13.5523 3.44772 14 4 14H13V12H4C3.86669 12 3.66228 12.0711 3.43417 12.1754C3.17195 12.3556 3 12.6577 3 13ZM13 2H12V6C12 6.41202 11.5296 6.64721 11.2 6.4L10.3 5.725C10.1222 5.59167 9.87778 5.59167 9.7 5.725L8.8 6.4C8.47038 6.64721 8 6.41202 8 6V2H4C3.44772 2 3 2.44772 3 3V11.2676C3.29417 11.0974 3.63571 11 4 11H13V2ZM11 2H9V5L9.1 4.925C9.63333 4.525 10.3667 4.525 10.9 4.925L11 5V2Z" fill="black"/>
</svg>
