<svg width="16" height="16" viewBox="0 0 16 16" fill="none" xmlns="http://www.w3.org/2000/svg">
<path d="M8.69722 4C8.89465 4 9.08766 4.05844 9.25192 4.16795L11.5547 5.70313C11.8329 5.8886 12 6.20083 12 6.53518V7C12 7.55228 11.5523 8 11 8H5C4.44772 8 4 7.55228 4 7V5C4 4.44772 4.44772 4 5 4H8.69722ZM11 6.53518L8.69722 5H5V7H11V6.53518Z" fill="black"/>
<path d="M9.6668 2C9.88309 2 10.0935 2.07012 10.2666 2.19986L13.5998 4.69851C13.8517 4.88735 14 5.18381 14 5.49865V13C14 13.5523 13.5523 14 13 14H3C2.44772 14 2 13.5523 2 13V3C2 2.44772 2.44772 2 3 2H9.6668ZM6.5 13V11H7.5V13H8.5V11H9.5V13H10.5V11H11.5V13H13V5.49865L9.6668 3H3V13H4.5V11H5.5V13H6.5Z" fill="black"/>
</svg>
