<svg width="16" height="16" viewBox="0 0 16 16" fill="none" xmlns="http://www.w3.org/2000/svg">
<path d="M10 4C10 5.41369 9.26663 6.65609 8.15958 7.36751C8.47754 7.47948 8.78423 7.61548 9.07743 7.77334L7.79793 8.30044C7.23489 8.10578 6.63013 8 6 8C4.45545 8 3.21449 8.50733 2.36091 9.3609C1.6015 10.1203 1.11616 11.1863 1.01831 12.5H7.5V13.5H0V13C0 11.2308 0.585812 9.72177 1.65381 8.65378C2.24463 8.06297 2.97043 7.61971 3.80058 7.34157C2.71581 6.62614 2 5.39666 2 4C2 1.79086 3.79086 0 6 0C8.20914 0 10 1.79086 10 4ZM3 4C3 5.65685 4.34315 7 6 7C7.65685 7 9 5.65685 9 4C9 2.34315 7.65685 1 6 1C4.34315 1 3 2.34315 3 4Z" fill="black"/>
<path d="M12.5 7.5C10 7.5 9 9 9 9V14C9 14 10 15.5 12.5 15.5C15 15.5 16 14 16 14V9C16 9 15 7.5 12.5 7.5ZM10 13.6258V10.4376C10.6141 10.7499 11.4389 11 12.5 11C13.5611 11 14.3859 10.7499 15 10.4376V13.6258C14.9118 13.7101 14.7902 13.813 14.6328 13.9179C14.2205 14.1928 13.5364 14.5 12.5 14.5C11.4636 14.5 10.7795 14.1928 10.3672 13.9179C10.2098 13.813 10.0882 13.7101 10 13.6258ZM14.6328 9.08205C14.7556 9.16389 14.8565 9.24448 14.9369 9.31599L14.9102 9.33397C14.4228 9.6589 13.6432 10 12.5 10C11.3568 10 10.5772 9.6589 10.0899 9.33397L10.0631 9.31599C10.1435 9.24448 10.2444 9.16389 10.3672 9.08205C10.7795 8.8072 11.4636 8.5 12.5 8.5C13.5364 8.5 14.2205 8.8072 14.6328 9.08205Z" fill="black"/>
</svg>
