<svg width="16" height="16" viewBox="0 0 16 16" fill="none" xmlns="http://www.w3.org/2000/svg">
<path d="M5.51086 11C5.51086 11.5523 5.06315 12 4.51086 12H3.51086C2.95858 12 2.51086 11.5523 2.51086 11V5C2.51086 4.44772 2.95858 4 3.51086 4H4.51086C5.06315 4 5.51086 4.44772 5.51086 5V11ZM3.51086 5L3.51086 11H4.51086V5H3.51086ZM7.51086 5V11H8.51086V5H7.51086ZM6.51086 5C6.51086 4.44772 6.95858 4 7.51086 4H8.51086C9.06315 4 9.51086 4.44772 9.51086 5V11C9.51086 11.5523 9.06315 12 8.51086 12H7.51086C6.95858 12 6.51086 11.5523 6.51086 11V5ZM12.5109 5V11H11.5109V5H12.5109ZM11.5109 4C10.9586 4 10.5109 4.44772 10.5109 5V11C10.5109 11.5523 10.9586 12 11.5109 12H12.5109C13.0631 12 13.5109 11.5523 13.5109 11V5C13.5109 4.44772 13.0631 4 12.5109 4H11.5109Z" fill="black"/>
</svg>
