<svg width="16" height="16" viewBox="0 0 16 16" fill="none" xmlns="http://www.w3.org/2000/svg">
<path d="M1.49759 5.00095C1.49759 3.22389 4.43496 2.00003 8 2.00003C11.565 2.00003 14.5024 3.22389 14.5024 5.00095C14.5024 6.77801 11.565 8.00188 8 8.00188C4.43496 8.00188 1.49759 6.77801 1.49759 5.00095ZM13.5024 5.00095C13.5024 4.01557 11.065 3.00003 8 3.00003C4.93496 3.00003 2.49759 4.01557 2.49759 5.00095C2.49759 5.98634 4.93496 7.00188 8 7.00188C11.065 7.00188 13.5024 5.98634 13.5024 5.00095Z" fill="black"/>
<path d="M14.0024 7.5C14.2785 7.5 14.5024 7.72386 14.5024 8C14.5024 9.77706 11.565 11.0009 8 11.0009C4.43496 11.0009 1.49759 9.77706 1.49759 8C1.49759 7.72386 1.72145 7.5 1.99759 7.5C2.24305 7.5 2.4472 7.67688 2.48953 7.91013L2.49759 8C2.49759 8.98539 4.93496 10.0009 8 10.0009C10.9722 10.0009 13.3541 9.046 13.4957 8.08964L13.5024 8C13.5024 7.72386 13.7263 7.5 14.0024 7.5Z" fill="black"/>
<path d="M14.5024 10.999C14.5024 10.7229 14.2785 10.499 14.0024 10.499C13.7263 10.499 13.5024 10.7229 13.5024 10.999L13.4957 11.0887C13.3541 12.045 10.9722 13 8 13C4.93496 13 2.49759 11.9844 2.49759 10.999L2.48953 10.9092C2.4472 10.6759 2.24305 10.499 1.99759 10.499C1.72145 10.499 1.49759 10.7229 1.49759 10.999C1.49759 12.7761 4.43496 14 8 14C11.565 14 14.5024 12.7761 14.5024 10.999Z" fill="black"/>
</svg>
