<svg width="16" height="16" viewBox="0 0 16 16" fill="none" xmlns="http://www.w3.org/2000/svg">
<path d="M5.59611 10.1998C4.56247 9.16617 3.65934 8.01476 2.3708 6.24394L2.35185 6.2179L2.05527 5.67551C1.52274 4.70162 1.69612 3.49321 2.481 2.70833L3.76257 1.42676C4.40706 0.782265 5.44285 0.839342 6.07493 1.47142L7.72484 3.12133C8.35692 3.75341 8.414 4.7892 7.76951 5.43369L7.09029 6.11291C6.94255 6.26065 6.91101 6.46619 6.98536 6.62241C7.25787 7.19498 7.53093 7.60422 7.86132 7.93461C8.1917 8.265 8.60094 8.53806 9.17351 8.81056C9.32973 8.88491 9.53528 8.85337 9.68302 8.70563L10.3622 8.02642C11.0067 7.38193 12.0425 7.43901 12.6746 8.07108L14.3245 9.721C14.9566 10.3531 15.0137 11.3889 14.3692 12.0334L13.0876 13.3149C12.3027 14.0998 11.0943 14.2732 10.1204 13.7406L9.57803 13.4441L9.55199 13.4251C7.78117 12.1366 6.62976 11.2335 5.59611 10.1998ZM10.1143 12.5976L10.6002 12.8633C11.1845 13.1828 11.9096 13.0787 12.3805 12.6078L13.6621 11.3263C13.8795 11.1089 13.8965 10.7073 13.6174 10.4281L11.9675 8.77819C11.6883 8.49904 11.2867 8.51613 11.0693 8.73353L10.3901 9.41274C9.96887 9.83399 9.31413 9.98496 8.74377 9.71351C8.10275 9.40843 7.5884 9.07591 7.15421 8.64172C6.72002 8.20752 6.38749 7.69318 6.08241 7.05216C5.81096 6.4818 5.96193 5.82705 6.38319 5.4058L7.0624 4.72659C7.2798 4.50919 7.29689 4.10759 7.01774 3.82844L5.36782 2.17852C5.08867 1.89938 4.68707 1.91646 4.46967 2.13386L3.1881 3.41543C2.71718 3.88636 2.61315 4.61141 2.93267 5.19575L3.19833 5.68159C4.47115 7.42991 5.33266 8.52214 6.30322 9.4927C7.27378 10.4633 8.36602 11.3248 10.1143 12.5976Z" fill="black"/>
</svg>
