<svg width="16" height="16" viewBox="0 0 16 16" fill="none" xmlns="http://www.w3.org/2000/svg">
<path d="M8 2C9.10457 2 10 2.89543 10 4C10 4.56205 9.76816 5.06995 9.39489 5.43328L11.4731 9.07014C11.641 9.02441 11.8176 9 12 9C13.1046 9 14 9.89543 14 11C14 12.1046 13.1046 13 12 13C11.0681 13 10.285 12.3626 10.063 11.5H5.93699C5.71497 12.3626 4.93192 13 4 13C2.89543 13 2 12.1046 2 11C2 9.89543 2.89543 9 4 9C4.18236 9 4.35903 9.02441 4.5269 9.07014L6.60511 5.43328C6.23184 5.06995 6 4.56205 6 4C6 2.89543 6.89543 2 8 2ZM7.4731 5.92987L5.39489 9.56672C5.6535 9.81845 5.84422 10.1396 5.93699 10.5H10.063C10.1558 10.1396 10.3465 9.81845 10.6051 9.56672L8.5269 5.92986C8.35903 5.97559 8.18236 6 8 6C7.81764 6 7.64097 5.97559 7.4731 5.92987ZM8 3C7.44772 3 7 3.44772 7 4C7 4.55228 7.44772 5 8 5C8.55228 5 9 4.55228 9 4C9 3.44772 8.55228 3 8 3ZM4 10C3.44772 10 3 10.4477 3 11C3 11.5523 3.44772 12 4 12C4.55228 12 5 11.5523 5 11C5 10.4477 4.55228 10 4 10ZM11 11C11 11.5523 11.4477 12 12 12C12.5523 12 13 11.5523 13 11C13 10.4477 12.5523 10 12 10C11.4477 10 11 10.4477 11 11Z" fill="black"/>
</svg>
