<svg width="16" height="16" viewBox="0 0 16 16" fill="none" xmlns="http://www.w3.org/2000/svg">
<path d="M8 8H3V7H8V8Z" fill="black"/>
<path d="M3 11.682H8V10.682H3V11.682Z" fill="black"/>
<path d="M9.08578 7.79289L9.79289 7.08579L10.5 7.79289L12.2678 6.02513L12.9749 6.73223L10.5 9.20711L9.08578 7.79289Z" fill="black"/>
<path d="M9.08578 11.4749L10.5 12.8891L12.9749 10.4142L12.2678 9.7071L10.5 11.4749L9.79289 10.7678L9.08578 11.4749Z" fill="black"/>
<path d="M15 2C15 1.44772 14.5523 1 14 1H2C1.44772 1 1 1.44772 1 2V14C1 14.5523 1.44772 15 2 15H14C14.5523 15 15 14.5523 15 14V2ZM14 5V14H2V5H14ZM14 4H2V2H14V4Z" fill="black"/>
</svg>
