<svg width="16" height="16" viewBox="0 0 16 16" fill="none" xmlns="http://www.w3.org/2000/svg">
<path d="M4.5 6C4.5 4.067 6.067 2.5 8 2.5C9.933 2.5 11.5 4.067 11.5 6V7H11.0396C11.0177 7 11 7.01773 11 7.0396V11.9604C11 11.9823 11.0177 12 11.0396 12H11.5V12.5034C11.5 12.7796 11.2761 13.0034 11 13.0034H9C8.72386 13.0034 8.5 13.2273 8.5 13.5034C8.5 13.7796 8.72386 14.0034 9 14.0034H11C11.8284 14.0034 12.5 13.3319 12.5 12.5034V12C13.8807 12 15 10.8807 15 9.5C15 8.11929 13.8807 7 12.5 7V6C12.5 3.51472 10.4853 1.5 8 1.5C5.51472 1.5 3.5 3.51472 3.5 6V7C2.11929 7 1 8.11929 1 9.5C1 10.8807 2.11929 12 3.5 12H4.9604C4.98227 12 5 11.9823 5 11.9604V7.0396C5 7.01773 4.98227 7 4.9604 7H4.5V6ZM12.5 11H12V8H12.5C13.3284 8 14 8.67157 14 9.5C14 10.3284 13.3284 11 12.5 11ZM4 8V11H3.5C2.67157 11 2 10.3284 2 9.5C2 8.67157 2.67157 8 3.5 8H4Z" fill="black"/>
</svg>
