<svg width="17" height="17" viewBox="0 0 17 17" fill="none" xmlns="http://www.w3.org/2000/svg">
<path d="M8.98793 6.55538C9.14425 6.55538 9.27753 6.50127 9.38775 6.39305C9.49798 6.28482 9.55309 6.15355 9.55309 5.99924C9.55309 5.84492 9.49798 5.71365 9.38775 5.60543C9.27753 5.4972 9.14425 5.44309 8.98793 5.44309C8.83361 5.44309 8.70084 5.4972 8.58961 5.60543C8.47838 5.71365 8.42277 5.84492 8.42277 5.99924C8.42277 6.15355 8.47838 6.28482 8.58961 6.39305C8.70084 6.50127 8.83361 6.55538 8.98793 6.55538Z" fill="black"/>
<path d="M9.52003 12.3656V7.48054H8.45283V12.3656H9.52003Z" fill="black"/>
<path d="M9 2C12.866 2 16 5.13401 16 9C16 12.866 12.866 16 9 16C5.13401 16 2 12.866 2 9C2 5.13401 5.13401 2 9 2ZM9 3C5.68629 3 3 5.68629 3 9C3 12.3137 5.68629 15 9 15C12.3137 15 15 12.3137 15 9C15 5.68629 12.3137 3 9 3Z" fill="black"/>
</svg>
