<svg width="16" height="16" viewBox="0 0 16 16" fill="none" xmlns="http://www.w3.org/2000/svg">
<path d="M3 1.5C2.17157 1.5 1.5 2.17157 1.5 3V9C1.5 9.82843 2.17157 10.5 3 10.5H4.66667V9.5H3C2.72386 9.5 2.5 9.27614 2.5 9V3C2.5 2.72386 2.72386 2.5 3 2.5H9C9.27614 2.5 9.5 2.72386 9.5 3V9C9.5 9.27614 9.27614 9.5 9 9.5H7.5V10.5H9C9.82843 10.5 10.5 9.82843 10.5 9V3C10.5 2.17157 9.82843 1.5 9 1.5H3Z" fill="black"/>
<path d="M7 5.5C6.17157 5.5 5.5 6.17157 5.5 7V13C5.5 13.8284 6.17157 14.5 7 14.5H13C13.8284 14.5 14.5 13.8284 14.5 13V7C14.5 6.17157 13.8284 5.5 13 5.5H11.3333V6.5H13C13.2761 6.5 13.5 6.72386 13.5 7V13C13.5 13.2761 13.2761 13.5 13 13.5H7C6.72386 13.5 6.5 13.2761 6.5 13V7C6.5 6.72386 6.72386 6.5 7 6.5H8.5V5.5H7Z" fill="black"/>
</svg>
