<svg width="16" height="16" viewBox="0 0 16 16" fill="none" xmlns="http://www.w3.org/2000/svg">
<path d="M7 1C7 0.447715 7.44772 0 8 0C8.55228 0 9 0.447715 9 1V1.59397C11.4561 2.06177 13.3129 4.22048 13.3129 6.81286V9.41716L14.8 11.4C15.2944 12.0592 14.824 13 14 13H10.5C10.5 14.3807 9.38071 15.5 8 15.5C6.61929 15.5 5.5 14.3807 5.5 13H1.99998C1.17594 13 0.705557 12.0592 1.19998 11.4L2.68714 9.41713V6.81286C2.68714 4.22048 4.54385 2.06176 7 1.59397V1ZM6.5 13C6.5 13.8284 7.17157 14.5 8 14.5C8.82843 14.5 9.5 13.8284 9.5 13H6.5ZM3.68714 6.81286V9.75046L1.99998 12H14L12.3129 9.75049V6.81286C12.3129 4.43093 10.3819 2.5 8 2.5C5.61807 2.5 3.68714 4.43093 3.68714 6.81286Z" fill="black"/>
</svg>
