<svg width="16" height="16" viewBox="0 0 16 16" fill="none" xmlns="http://www.w3.org/2000/svg">
<path d="M5.5961 10.1998C4.56246 9.16616 3.65933 8.01475 2.37079 6.24393L2.35184 6.21789L2.05526 5.6755C1.52273 4.7016 1.6961 3.4932 2.48098 2.70832L3.76255 1.42675C4.40705 0.782254 5.44284 0.839332 6.07492 1.47141L7.72483 3.12132C8.35691 3.7534 8.41398 4.78919 7.76949 5.43368L7.09028 6.1129C6.94254 6.26063 6.911 6.46618 6.98535 6.6224C7.25786 7.19497 7.53091 7.60421 7.8613 7.9346C8.19169 8.26499 8.60093 8.53805 9.1735 8.81055C9.32972 8.8849 9.53527 8.85336 9.68301 8.70562L10.3622 8.02641C11.0067 7.38192 12.0425 7.43899 12.6746 8.07107L14.3245 9.72099C14.9566 10.3531 15.0136 11.3889 14.3692 12.0333L13.0876 13.3149C12.3027 14.0998 11.0943 14.2732 10.1204 13.7406L9.57802 13.4441L9.55198 13.4251C7.78116 12.1366 6.62974 11.2334 5.5961 10.1998ZM10.1143 12.5976L10.6002 12.8632C11.1845 13.1828 11.9096 13.0787 12.3805 12.6078L13.6621 11.3262C13.8795 11.1088 13.8965 10.7072 13.6174 10.4281L11.9675 8.77818C11.6883 8.49903 11.2867 8.51612 11.0693 8.73352L10.3901 9.41273C9.96886 9.83398 9.31411 9.98495 8.74376 9.7135C8.10274 9.40842 7.58839 9.0759 7.1542 8.64171C6.72 8.20751 6.38748 7.69317 6.0824 7.05215C5.81095 6.48179 5.96192 5.82704 6.38317 5.40579L7.06239 4.72658C7.27979 4.50918 7.29687 4.10758 7.01773 3.82843L5.36781 2.17851C5.08866 1.89937 4.68706 1.91645 4.46966 2.13385L3.18809 3.41542C2.71716 3.88635 2.61314 4.6114 2.93266 5.19573L3.19832 5.68158C4.47113 7.4299 5.33264 8.52213 6.30321 9.49269C7.27377 10.4633 8.36601 11.3248 10.1143 12.5976Z" fill="black"/>
</svg>
