<svg width="16" height="16" viewBox="0 0 16 16" fill="none" xmlns="http://www.w3.org/2000/svg">
<path d="M4.83333 1C6.18379 1 7.36374 1.73008 8 2.81707C8.63627 1.73008 9.81621 1 11.1667 1C12.1792 1 13 1.82081 13 2.83333V3C13 3.36429 12.9026 3.70583 12.7324 4H14C14.5523 4 15 4.44772 15 5V8C15 8.55228 14.5523 9 14 9V14C14 14.5523 13.5523 15 13 15H3C2.44772 15 2 14.5523 2 14L2 9C1.44772 9 1 8.55228 1 8V5C1 4.44772 1.44772 4 2 4H3.26756C3.09739 3.70583 3 3.36429 3 3V2.83333C3 1.82081 3.82081 1 4.83333 1ZM11 4C11.5523 4 12 3.55228 12 3V2.83333C12 2.3731 11.6269 2 11.1667 2C9.92411 2 8.88004 2.84985 8.58401 4H11ZM8.5 5V8H14V5H8.5ZM7.5 5H2V8H7.5V5ZM7.5 9H3L3 14H7.5V9ZM8.5 14H13V9H8.5V14ZM5 4H7.41599C7.11996 2.84985 6.07589 2 4.83333 2C4.3731 2 4 2.3731 4 2.83333V3C4 3.55228 4.44772 4 5 4Z" fill="black"/>
</svg>
