<svg width="16" height="16" viewBox="0 0 16 16" fill="none" xmlns="http://www.w3.org/2000/svg">
<path d="M7 0.5C6.17157 0.5 5.5 1.17157 5.5 2V4.5H10.5V2C10.5 1.17157 9.82843 0.5 9 0.5H7ZM6.5 2C6.5 1.72386 6.72386 1.5 7 1.5H9C9.27614 1.5 9.5 1.72386 9.5 2V3.5H6.5V2Z" fill="black"/>
<path d="M3 3.00002C2.72386 3.00002 2.5 3.22387 2.5 3.50001V14C2.5 14.2761 2.72386 14.5 3 14.5H13C13.2761 14.5 13.5 14.2761 13.5 14V3.50002C13.5 3.22387 13.2761 3.00002 13 3.00002H11.5V2.00002H13C13.8284 2.00002 14.5 2.67159 14.5 3.50002V14C14.5 14.8284 13.8284 15.5 13 15.5H3C2.17157 15.5 1.5 14.8284 1.5 14V3.50001C1.5 2.67159 2.17157 2.00002 3 2.00002H4.5V3.00002H3Z" fill="black"/>
<path d="M11.5 7H4.5V6H11.5V7Z" fill="black"/>
<path d="M11.5 9.5H4.5V8.5H11.5V9.5Z" fill="black"/>
<path d="M11.5 12H4.5V11H11.5V12Z" fill="black"/>
</svg>
