<svg width="16" height="16" viewBox="0 0 16 16" fill="none" xmlns="http://www.w3.org/2000/svg">
<path d="M3 1.5C2.17157 1.5 1.5 2.17157 1.5 3V13C1.5 13.8284 2.17157 14.5 3 14.5H7V13.5H3C2.72386 13.5 2.5 13.2761 2.5 13V3C2.5 2.72386 2.72386 2.5 3 2.5H12C12.2761 2.5 12.5 2.72386 12.5 3V6H13.5V3C13.5 2.17157 12.8284 1.5 12 1.5H3Z" fill="black"/>
<path d="M4 5.5H11V4.5H4V5.5Z" fill="black"/>
<path d="M4 8.5H7V7.5H4V8.5Z" fill="black"/>
<path d="M4 11.5H6V10.5H4V11.5Z" fill="black"/>
<path d="M7.5 11C7.5 9.067 9.067 7.5 11 7.5C12.933 7.5 14.5 9.067 14.5 11C14.5 11.7862 14.2408 12.5118 13.8032 13.0961L15.3536 14.6464L14.6464 15.3536L13.0961 13.8032C12.5118 14.2408 11.7862 14.5 11 14.5C9.067 14.5 7.5 12.933 7.5 11ZM11 8.5C9.61929 8.5 8.5 9.61929 8.5 11C8.5 12.3807 9.61929 13.5 11 13.5C12.3807 13.5 13.5 12.3807 13.5 11C13.5 9.61929 12.3807 8.5 11 8.5Z" fill="black"/>
</svg>
