<svg width="16" height="16" viewBox="0 0 16 16" fill="none" xmlns="http://www.w3.org/2000/svg">
<path d="M5.64057 7.71462C5.4581 7.89709 5.35323 8.14303 5.34789 8.40103L5.3219 9.65567C5.3102 10.221 5.76915 10.6836 6.33454 10.6763L7.6053 10.66C7.86604 10.6566 8.11516 10.5515 8.29955 10.3671L13.6604 5.00626C14.051 4.61574 14.051 3.98258 13.6604 3.59205L12.4189 2.35051C12.0284 1.95999 11.3952 1.95999 11.0047 2.35051L5.64057 7.71462ZM12.9533 4.29916L12.3102 4.94224L11.0636 3.7058L11.7118 3.05762L12.9533 4.29916ZM11.6031 5.64935L7.59244 9.66004L6.32169 9.67638L6.34767 8.42173L10.3565 4.41291L11.6031 5.64935Z" fill="black"/>
<path d="M2.50003 3.66666C2.50003 3.39052 2.72389 3.16666 3.00003 3.16666H6.97983C7.25597 3.16666 7.47983 2.94281 7.47983 2.66666C7.47983 2.39052 7.25597 2.16666 6.97983 2.16666H3.00003C2.1716 2.16666 1.50003 2.83823 1.50003 3.66666V13C1.50003 13.8284 2.1716 14.5 3.00003 14.5H12.3334C13.1618 14.5 13.8334 13.8284 13.8334 13V8.94358C13.8334 8.66744 13.6095 8.44358 13.3334 8.44358C13.0572 8.44358 12.8334 8.66744 12.8334 8.94358V13C12.8334 13.2761 12.6095 13.5 12.3334 13.5H3.00003C2.72389 13.5 2.50003 13.2761 2.50003 13V3.66666Z" fill="black"/>
</svg>
