<svg width="16" height="16" viewBox="0 0 16 16" fill="none" xmlns="http://www.w3.org/2000/svg">
<path d="M8.65992 1.63866C8.78611 1.17914 9.27016 0.906437 9.74109 1.02956C10.212 1.15269 10.4915 1.62502 10.3653 2.08454L10.2296 2.57875C12.217 3.51555 13.307 5.72562 12.7147 7.88256L12.1197 10.0494L12.9347 12.0308C13.2057 12.6895 12.5897 13.3674 11.887 13.1837L8.90258 12.4034C8.58712 13.5522 7.37698 14.2339 6.19966 13.9261C5.02234 13.6183 4.32367 12.4374 4.63913 11.2886L1.65473 10.5084C0.952075 10.3246 0.765929 9.43702 1.33814 8.99874L3.05926 7.68048L3.65428 5.51364C4.24658 3.35669 6.323 1.9745 8.52421 2.13286L8.65992 1.63866ZM5.49182 11.5116C5.30254 12.2009 5.72175 12.9094 6.42814 13.0941C7.13453 13.2787 7.86061 12.8697 8.04989 12.1804L5.49182 11.5116Z" fill="black"/>
</svg>
