<svg width="16" height="16" viewBox="0 0 16 16" fill="none" xmlns="http://www.w3.org/2000/svg">
<path d="M1 9C1 9.55229 1.44772 10 2 10L4 10C4.55229 10 5 9.55228 5 9L5 8.5H6.5L6.5 12C6.5 12.8284 7.17157 13.5 8 13.5H9V14C9 14.5523 9.44772 15 10 15H14C14.5523 15 15 14.5523 15 14V12C15 11.4477 14.5523 11 14 11H10C9.44771 11 9 11.4477 9 12V12.5H8C7.72386 12.5 7.5 12.2761 7.5 12L7.5 8.5L9 8.5V9C9 9.55229 9.44772 10 10 10H14C14.5523 10 15 9.55228 15 9V7C15 6.44772 14.5523 6 14 6H10C9.44771 6 9 6.44772 9 7V7.5L7.5 7.5V4C7.5 3.72386 7.72386 3.5 8 3.5H9V4C9 4.55228 9.44772 5 10 5H14C14.5523 5 15 4.55229 15 4V2C15 1.44772 14.5523 1 14 1L10 1C9.44771 1 9 1.44772 9 2V2.5H8C7.17157 2.5 6.5 3.17157 6.5 4V7.5H5L5 7C5 6.44772 4.55228 6 4 6H2C1.44772 6 1 6.44772 1 7L1 9ZM2 7H4V9L2 9L2 7ZM10 14V12H14V14H10ZM10 9V7H14V9H10ZM10 4V2L14 2V4L10 4Z" fill="black"/>
</svg>
