<svg width="16" height="16" viewBox="0 0 16 16" fill="none" xmlns="http://www.w3.org/2000/svg">
<path d="M8 7.5C8.27614 7.5 8.5 7.27614 8.5 7C8.5 6.72386 8.27614 6.5 8 6.5C7.72386 6.5 7.5 6.72386 7.5 7C7.5 7.27614 7.72386 7.5 8 7.5Z" fill="black"/>
<path d="M6.83893 4.58901L6.11601 4.91892C5.82594 5.0513 5.61638 5.31407 5.55187 5.62633L5.39109 6.40453L5.1983 7.17542C5.12094 7.48475 5.19573 7.81243 5.39964 8.05756L5.90782 8.66846L6.39032 9.29984C6.58393 9.55318 6.88675 9.69901 7.20554 9.69242L8 9.676L8.79446 9.69242C9.11325 9.69901 9.41607 9.55318 9.60968 9.29984L10.0922 8.66846L10.6004 8.05756C10.8043 7.81243 10.8791 7.48475 10.8017 7.17542L10.6089 6.40453L10.4481 5.62633C10.3836 5.31407 10.1741 5.0513 9.88399 4.91892L9.16107 4.58901L8.45241 4.22951C8.16805 4.08525 7.83195 4.08525 7.54759 4.22951L6.83893 4.58901ZM8.7271 5.49017L9.46881 5.82866L9.63377 6.6271L9.83158 7.41805L9.31018 8.04484L8.81513 8.69264L8 8.67579L7.18487 8.69264L6.68982 8.04484L6.16842 7.41805L6.36623 6.6271L6.53119 5.82866L7.2729 5.49017L8 5.12132L8.7271 5.49017Z" fill="black"/>
<path d="M10 12H14C14.5523 12 15 11.5523 15 11V3C15 2.44772 14.5523 2 14 2H2C1.44772 2 1 2.44772 1 3V11C1 11.5523 1.44772 12 2 12H6V13H3.5C3.22386 13 3 13.2239 3 13.5C3 13.7761 3.22386 14 3.5 14H12.5C12.7761 14 13 13.7761 13 13.5C13 13.2239 12.7761 13 12.5 13H10V12ZM14 3V11H2V3H14ZM7 12H9V13H7V12Z" fill="black"/>
</svg>
