<svg width="16" height="16" viewBox="0 0 16 16" fill="none" xmlns="http://www.w3.org/2000/svg">
<path d="M2 2C1.44772 2 1 2.44772 1 3V13C1 13.5523 1.44772 14 2 14H4C4.55228 14 5 13.5523 5 13V3C5 2.44772 4.55228 2 4 2H2ZM4 3V13H2V3H4Z" fill="black"/>
<path d="M7 2C6.44772 2 6 2.44772 6 3V13C6 13.5523 6.44772 14 7 14H9C9.55228 14 10 13.5523 10 13V3C10 2.44772 9.55228 2 9 2H7ZM9 3V13H7V3H9Z" fill="black"/>
<path d="M11 3C11 2.44772 11.4477 2 12 2H14C14.5523 2 15 2.44772 15 3V13C15 13.5523 14.5523 14 14 14H12C11.4477 14 11 13.5523 11 13V3ZM12 3V13H14V3H12Z" fill="black"/>
</svg>
