<svg width="16" height="16" viewBox="0 0 16 16" fill="none" xmlns="http://www.w3.org/2000/svg">
<path d="M11.5355 5.17157C11.7308 4.97631 11.7308 4.65973 11.5355 4.46446C11.3403 4.2692 11.0237 4.2692 10.8284 4.46446L8 7.29289L5.17158 4.46446C4.97631 4.2692 4.65973 4.2692 4.46447 4.46446C4.26921 4.65972 4.26921 4.97631 4.46447 5.17157L7.2929 8L4.46447 10.8284C4.26921 11.0237 4.26921 11.3403 4.46447 11.5355C4.65973 11.7308 4.97632 11.7308 5.17158 11.5355L8 8.7071L10.8284 11.5355C11.0237 11.7308 11.3403 11.7308 11.5355 11.5355C11.7308 11.3403 11.7308 11.0237 11.5355 10.8284L8.70711 8L11.5355 5.17157Z" fill="black"/>
</svg>
