<svg width="16" height="16" viewBox="0 0 16 16" fill="none" xmlns="http://www.w3.org/2000/svg">
<path d="M11.5228 3.74952C11.5228 3.47338 11.7466 3.24952 12.0228 3.24952C12.2989 3.24952 12.5228 3.47338 12.5228 3.74952C12.5228 4.02567 12.2989 4.24952 12.0228 4.24952C11.7466 4.24952 11.5228 4.02567 11.5228 3.74952Z" fill="black"/>
<path d="M10.6211 3.24952C10.3449 3.24952 10.1211 3.47338 10.1211 3.74952C10.1211 4.02567 10.3449 4.24952 10.6211 4.24952C10.8972 4.24952 11.1211 4.02567 11.1211 3.74952C11.1211 3.47338 10.8972 3.24952 10.6211 3.24952Z" fill="black"/>
<path fill-rule="evenodd" clip-rule="evenodd" d="M14.5192 2.99741C14.5192 2.44512 14.0715 1.99741 13.5192 1.99741H2.50223C1.94994 1.99741 1.50223 2.44512 1.50223 2.99741V4.50164C1.50223 5.05393 1.94994 5.50164 2.50223 5.50164H13.5192C14.0715 5.50164 14.5192 5.05393 14.5192 4.50164V2.99741ZM2.50223 2.99741H13.5192V4.50164H2.50223V2.99741Z" fill="black"/>
<path d="M12.0228 7.49954C11.7466 7.49954 11.5228 7.72339 11.5228 7.99954C11.5228 8.27568 11.7466 8.49954 12.0228 8.49954C12.2989 8.49954 12.5228 8.27568 12.5228 7.99954C12.5228 7.72339 12.2989 7.49954 12.0228 7.49954Z" fill="black"/>
<path d="M10.1211 7.99954C10.1211 7.72339 10.3449 7.49954 10.6211 7.49954C10.8972 7.49954 11.1211 7.72339 11.1211 7.99954C11.1211 8.27568 10.8972 8.49954 10.6211 8.49954C10.3449 8.49954 10.1211 8.27568 10.1211 7.99954Z" fill="black"/>
<path fill-rule="evenodd" clip-rule="evenodd" d="M14.5192 7.24742C14.5192 6.69513 14.0715 6.24742 13.5192 6.24742H2.50223C1.94994 6.24742 1.50223 6.69513 1.50223 7.24742V8.75165C1.50223 9.30394 1.94994 9.75165 2.50223 9.75165H13.5192C14.0715 9.75165 14.5192 9.30394 14.5192 8.75165V7.24742ZM2.50223 7.24742H13.5192V8.75165H2.50223V7.24742Z" fill="black"/>
<path d="M11.5228 12.2559C11.5228 11.9797 11.7466 11.7559 12.0228 11.7559C12.2989 11.7559 12.5228 11.9797 12.5228 12.2559C12.5228 12.532 12.2989 12.7559 12.0228 12.7559C11.7466 12.7559 11.5228 12.532 11.5228 12.2559Z" fill="black"/>
<path d="M10.6211 11.7559C10.3449 11.7559 10.1211 11.9797 10.1211 12.2559C10.1211 12.532 10.3449 12.7559 10.6211 12.7559C10.8972 12.7559 11.1211 12.532 11.1211 12.2559C11.1211 11.9797 10.8972 11.7559 10.6211 11.7559Z" fill="black"/>
<path fill-rule="evenodd" clip-rule="evenodd" d="M13.5192 10.5037C14.0715 10.5037 14.5192 10.9515 14.5192 11.5037V13.008C14.5192 13.5603 14.0715 14.008 13.5192 14.008H2.50223C1.94994 14.008 1.50223 13.5603 1.50223 13.008V11.5037C1.50223 10.9515 1.94994 10.5037 2.50223 10.5037H13.5192ZM13.5192 11.5037H2.50223V13.008H13.5192V11.5037Z" fill="black"/>
</svg>
