<svg width="16" height="16" viewBox="0 0 16 16" fill="none" xmlns="http://www.w3.org/2000/svg">
<path d="M9.69912 6.84036C10.138 5.60702 9.86388 4.17669 8.87662 3.18943C7.88936 2.20217 6.45904 1.92801 5.2257 2.36694C4.90147 2.48233 4.59086 2.64699 4.30549 2.86094L6.08156 4.63701C6.10031 4.65576 6.11085 4.6812 6.11085 4.70772V5.98051C6.11085 6.03574 6.06607 6.08051 6.01085 6.08051H4.73805C4.71153 6.08051 4.6861 6.06998 4.66734 6.05122L2.89128 4.27516C2.67733 4.56053 2.51266 4.87114 2.39727 5.19536C1.95834 6.4287 2.23251 7.85903 3.21977 8.84629C4.20703 9.83355 5.63735 10.1077 6.87069 9.66878L10.6444 13.4425C11.0349 13.833 11.6681 13.833 12.0586 13.4425L13.4728 12.0283C13.8633 11.6377 13.8633 11.0046 13.4728 10.6141L9.69912 6.84036ZM3.21951 6.0176L3.96024 6.75833C4.16653 6.96462 4.44631 7.08051 4.73805 7.08051L6.01085 7.08051C6.61835 7.08051 7.11085 6.58803 7.11085 5.98051V4.70772C7.11085 4.41598 6.99495 4.13619 6.78866 3.9299L6.04793 3.18917C6.79987 3.08247 7.59141 3.31843 8.16951 3.89654C8.87364 4.60066 9.07139 5.62169 8.757 6.50507L8.54508 7.10053L12.7657 11.3212L11.3515 12.7354L7.13087 8.51475L6.5354 8.72667C5.65202 9.04105 4.631 8.8433 3.92687 8.13918C3.34876 7.56107 3.11281 6.76954 3.21951 6.0176Z" fill="black"/>
</svg>
