<svg width="16" height="16" viewBox="0 0 16 16" fill="none" xmlns="http://www.w3.org/2000/svg">
<path d="M3 1.5C2.17157 1.5 1.5 2.17157 1.5 3V13C1.5 13.8284 2.17157 14.5 3 14.5H9V13.5H3C2.72386 13.5 2.5 13.2761 2.5 13V3C2.5 2.72386 2.72386 2.5 3 2.5H12C12.2761 2.5 12.5 2.72386 12.5 3V7.5H13.5V3C13.5 2.17157 12.8284 1.5 12 1.5H3Z" fill="black"/>
<path d="M4 5.5H11V4.5H4V5.5Z" fill="black"/>
<path d="M4 8.5H11V7.5H4V8.5Z" fill="black"/>
<path d="M4 11.5H7.5V10.5H4V11.5Z" fill="black"/>
<path d="M15.1094 8.90227C14.4958 8.28871 13.4912 8.32216 12.9198 8.97517L10 12.3121V14.5H12.2269L15.2602 11.0333C15.7802 10.439 15.7504 9.54331 15.192 8.98491L15.1094 8.90227ZM13.6724 9.63367C13.8629 9.41601 14.1977 9.40486 14.4023 9.60938L14.4849 9.69202C14.671 9.87815 14.681 10.1767 14.5076 10.3748L11.7731 13.5H11V12.6879L13.6724 9.63367Z" fill="black"/>
</svg>
