<svg width="16" height="16" viewBox="0 0 16 16" fill="none" xmlns="http://www.w3.org/2000/svg">
<path d="M7.18285 1.5C5.12553 1.5 3.33251 2.71008 2.448 4.49476L1.552 4.05069C2.59319 1.94991 4.719 0.5 7.18285 0.5C10.6862 0.5 13.5 3.42485 13.5 7C13.5 8.62244 12.9205 10.111 11.9601 11.253L15.3536 14.6464L14.6464 15.3536L11.2591 11.9662C10.1609 12.9222 8.74001 13.5 7.18285 13.5C4.719 13.5 2.59319 12.0501 1.552 9.94931L2.448 9.50524C3.33251 11.2899 5.12553 12.5 7.18285 12.5C10.105 12.5 12.5 10.0523 12.5 7C12.5 3.94773 10.105 1.5 7.18285 1.5Z" fill="black"/>
<path d="M7.04757 3.97711L9.0619 8.00576L10.584 5.72265L11.416 6.27735L8.9381 9.99424L6.95243 6.02289L5.72222 8H1V7H5.16667L7.04757 3.97711Z" fill="black"/>
</svg>
