<svg width="16" height="16" viewBox="0 0 16 16" fill="none" xmlns="http://www.w3.org/2000/svg">
<path d="M10 8C10 6.89543 9.10457 6 8 6C6.89543 6 6 6.89543 6 8C6 9.10457 6.89543 10 8 10C9.10457 10 10 9.10457 10 8ZM3 7C2.44772 7 2 7.44772 2 8C2 8.55228 2.44772 9 3 9C3.55228 9 4 8.55228 4 8C4 7.44772 3.55228 7 3 7ZM8 7C8.55228 7 9 7.44772 9 8C9 8.55228 8.55228 9 8 9C7.44772 9 7 8.55228 7 8C7 7.44772 7.44772 7 8 7ZM13 7C12.4477 7 12 7.44772 12 8C12 8.55228 12.4477 9 13 9C13.5523 9 14 8.55228 14 8C14 7.44772 13.5523 7 13 7ZM1 8C1 6.89543 1.89543 6 3 6C4.10457 6 5 6.89543 5 8C5 9.10457 4.10457 10 3 10C1.89543 10 1 9.10457 1 8ZM11 8C11 6.89543 11.8954 6 13 6C14.1046 6 15 6.89543 15 8C15 9.10457 14.1046 10 13 10C11.8954 10 11 9.10457 11 8Z" fill="black"/>
</svg>
