<svg width="16" height="16" viewBox="0 0 16 16" fill="none" xmlns="http://www.w3.org/2000/svg">
<path d="M15 3.5C15 4.88071 13.8807 6 12.5 6C11.1193 6 10 4.88071 10 3.5C10 2.11929 11.1193 1 12.5 1C13.8807 1 15 2.11929 15 3.5ZM14 3.5C14 2.67157 13.3284 2 12.5 2C11.6716 2 11 2.67157 11 3.5C11 4.32843 11.6716 5 12.5 5C13.3284 5 14 4.32843 14 3.5Z" fill="black"/>
<path d="M2.5 4C2.5 3.17157 3.17157 2.5 4 2.5H8V1.5H4C2.61929 1.5 1.5 2.61929 1.5 4V12C1.5 13.3807 2.61929 14.5 4 14.5H12C13.3807 14.5 14.5 13.3807 14.5 12V8H13.5V12C13.5 12.8284 12.8284 13.5 12 13.5H4C3.17157 13.5 2.5 12.8284 2.5 12V4Z" fill="black"/>
<path d="M4.5 7H10V6H4.5V7Z" fill="black"/>
<path d="M12 10.5H4.5V9.5H12V10.5Z" fill="black"/>
</svg>
