<svg width="16" height="16" viewBox="0 0 16 16" fill="none" xmlns="http://www.w3.org/2000/svg">
<path d="M7.50854 2.5C7.50854 2.22386 7.7324 2 8.00854 2C8.28469 2 8.50854 2.22386 8.50854 2.5V3.03564C10.256 3.28273 11.6 4.78452 11.6 6.60012V8.4C11.6 9.36325 11.8528 10.3166 12.0904 11H12.5C12.7761 11 13 11.2239 13 11.5C13 11.7761 12.7761 12 12.5 12H9C9 12.5523 8.55228 13 8 13C7.44772 13 7 12.5523 7 12H3.5C3.22386 12 3 11.7761 3 11.5C3 11.2239 3.22386 11 3.5 11H3.90963C4.14724 10.3166 4.4 9.36325 4.4 8.4V6.60012C4.4 4.7786 5.75282 3.27295 7.50854 3.03327V2.5ZM11.0372 11C10.8155 10.2946 10.6 9.36584 10.6 8.4V6.60012C10.6 5.16414 9.4359 4 8 4C6.5641 4 5.4 5.16414 5.4 6.60012V8.4C5.4 9.36584 5.18446 10.2946 4.96284 11H11.0372Z" fill="black"/>
</svg>
