<svg width="17" height="17" viewBox="0 0 17 17" fill="none" xmlns="http://www.w3.org/2000/svg">
<path d="M7.99547 5.78725C6.22362 5.78725 4.78725 7.22362 4.78725 8.99547C4.78725 10.7673 6.22362 12.2037 7.99547 12.2037C9.76733 12.2037 11.2037 10.7673 11.2037 8.99547C11.2037 7.22362 9.76733 5.78725 7.99547 5.78725ZM7.99547 6.78725C9.21504 6.78725 10.2037 7.7759 10.2037 8.99547C10.2037 10.215 9.21504 11.2037 7.99547 11.2037C6.7759 11.2037 5.78725 10.215 5.78725 8.99547C5.78725 7.7759 6.7759 6.78725 7.99547 6.78725Z" fill="black"/>
<path d="M5.82108 2.02171C5.98126 2.05244 6.13348 2.11549 6.26847 2.20703L7.322 2.92141C7.72865 3.19715 8.2623 3.19715 8.66894 2.92141L9.72248 2.20703C10.271 1.83508 11.0172 1.97822 11.3891 2.52675C11.4807 2.66174 11.5437 2.81397 11.5745 2.97414L11.8143 4.22425C11.9068 4.70676 12.2842 5.08411 12.7667 5.17668L14.0168 5.41649C14.6677 5.54135 15.0941 6.17021 14.9692 6.82108C14.9385 6.98126 14.8755 7.13348 14.7839 7.26847L14.0695 8.322C13.7938 8.72865 13.7938 9.2623 14.0695 9.66894L14.7839 10.7225C15.1559 11.271 15.0127 12.0172 14.4642 12.3891C14.3292 12.4807 14.177 12.5437 14.0168 12.5745L12.7667 12.8143C12.2842 12.9068 11.9068 13.2842 11.8143 13.7667L11.5745 15.0168C11.4496 15.6677 10.8207 16.0941 10.1699 15.9692C10.0097 15.9385 9.85746 15.8755 9.72248 15.7839L8.66894 15.0695C8.2623 14.7938 7.72865 14.7938 7.322 15.0695L6.26847 15.7839C5.71994 16.1559 4.97375 16.0127 4.60181 15.4642C4.51027 15.3292 4.44722 15.177 4.41649 15.0168L4.17668 13.7667C4.08411 13.2842 3.70676 12.9068 3.22425 12.8143L1.97414 12.5745C1.32327 12.4496 0.89685 11.8207 1.02171 11.1699C1.05244 11.0097 1.11549 10.8575 1.20703 10.7225L1.92141 9.66894C2.19715 9.2623 2.19715 8.72865 1.92141 8.322L1.20703 7.26847C0.835078 6.71994 0.978224 5.97375 1.52675 5.60181C1.66174 5.51027 1.81397 5.44722 1.97414 5.41649L3.22425 5.17668C3.70676 5.08411 4.08411 4.70676 4.17668 4.22425L4.41649 2.97414C4.54135 2.32327 5.17021 1.89685 5.82108 2.02171ZM10.5615 3.08798C10.5119 3.01484 10.4224 2.98494 10.3417 3.00765L10.2837 3.03469L9.23017 3.74907C8.53436 4.22089 7.63571 4.25235 6.91285 3.84344L6.76078 3.74907L5.70725 3.03469C5.68475 3.01943 5.65938 3.00892 5.63268 3.0038C5.54228 2.98646 5.45443 3.03292 5.41562 3.11167L5.39858 3.16254L5.15877 4.41265C4.99967 5.24197 4.3817 5.90184 3.57617 6.12091L3.41265 6.15877L2.16254 6.39858C2.13585 6.4037 2.11047 6.41421 2.08798 6.42947C2.01484 6.47906 1.98494 6.56857 2.00765 6.6492L2.03469 6.70725L2.74907 7.76078C3.22089 8.45659 3.25235 9.35524 2.84344 10.0781L2.74907 10.2302L2.03469 11.2837C2.01943 11.3062 2.00892 11.3316 2.0038 11.3583C1.98646 11.4487 2.03292 11.5365 2.11167 11.5753L2.16254 11.5924L3.41265 11.8322C4.24197 11.9913 4.90184 12.6092 5.12091 13.4148L5.15877 13.5783L5.39858 14.8284C5.4037 14.8551 5.41421 14.8805 5.42947 14.903C5.47906 14.9761 5.56857 15.006 5.6492 14.9833L5.70725 14.9563L6.76078 14.2419C7.45659 13.7701 8.35524 13.7386 9.0781 14.1475L9.23017 14.2419L10.2837 14.9563C10.3062 14.9715 10.3316 14.982 10.3583 14.9871C10.4487 15.0045 10.5365 14.958 10.5753 14.8793L10.5924 14.8284L10.8322 13.5783C10.9913 12.749 11.6092 12.0891 12.4148 11.87L12.5783 11.8322L13.8284 11.5924C13.8551 11.5872 13.8805 11.5767 13.903 11.5615C13.9761 11.5119 14.006 11.4224 13.9833 11.3417L13.9563 11.2837L13.2419 10.2302C12.7701 9.53436 12.7386 8.63571 13.1475 7.91285L13.2419 7.76078L13.9563 6.70725C13.9715 6.68475 13.982 6.65938 13.9871 6.63268C14.0045 6.54228 13.958 6.45443 13.8793 6.41562L13.8284 6.39858L12.5783 6.15877C11.749 5.99967 11.0891 5.3817 10.87 4.57617L10.8322 4.41265L10.5924 3.16254C10.5872 3.13585 10.5767 3.11047 10.5615 3.08798Z" fill="black"/>
</svg>
