<svg width="16" height="16" viewBox="0 0 16 16" fill="none" xmlns="http://www.w3.org/2000/svg">
<path d="M11 8C11 9.65685 9.65687 11 8.00002 11C6.34316 11 5.00002 9.65685 5.00002 8C5.00002 6.34315 6.34316 5 8.00002 5C9.65687 5 11 6.34315 11 8ZM10 8C10 6.89543 9.10458 6 8.00002 6C6.89545 6 6.00002 6.89543 6.00002 8C6.00002 9.10457 6.89545 10 8.00002 10C9.10458 10 10 9.10457 10 8Z" fill="black"/>
<path d="M10.3453 1.93782C11.0598 1.93782 11.7201 2.31902 12.0774 2.93782L14.4227 7C14.7799 7.6188 14.7799 8.3812 14.4227 9L12.0774 13.0622C11.7201 13.681 11.0598 14.0622 10.3453 14.0622H5.65472C4.94019 14.0622 4.27993 13.681 3.92267 13.0622L1.57737 9C1.2201 8.3812 1.2201 7.6188 1.57737 7L3.92267 2.93782C4.27993 2.31902 4.94019 1.93782 5.65472 1.93782H10.3453ZM11.2113 3.43782C11.0327 3.12842 10.7026 2.93782 10.3453 2.93782L5.65472 2.93782C5.29745 2.93782 4.96732 3.12842 4.78869 3.43782L2.44339 7.5C2.26476 7.8094 2.26476 8.1906 2.44339 8.5L4.78869 12.5622C4.96732 12.8716 5.29745 13.0622 5.65472 13.0622H10.3453C10.7026 13.0622 11.0327 12.8716 11.2113 12.5622L13.5566 8.5C13.7353 8.1906 13.7353 7.8094 13.5566 7.5L11.2113 3.43782Z" fill="black"/>
</svg>
