<svg width="17" height="17" viewBox="0 0 17 17" fill="none" xmlns="http://www.w3.org/2000/svg">
<path d="M8.42796 5.17684C8.38148 4.94438 8.17421 4.77117 7.92879 4.77555C7.65269 4.78047 7.43286 5.00828 7.43778 5.28438L7.50424 9.01306L7.51513 9.10832C7.53502 9.20168 7.58139 9.2881 7.64963 9.35673L9.67683 11.3951L9.74592 11.4532C9.94042 11.5887 10.2099 11.5702 10.3839 11.3971L10.442 11.328C10.5775 11.1335 10.559 10.864 10.3859 10.69L8.49952 8.79267L8.43762 5.26656L8.42796 5.17684Z" fill="black"/>
<path d="M8 2C11.866 2 15 5.13401 15 9C15 12.866 11.866 16 8 16C4.13401 16 1 12.866 1 9C1 5.13401 4.13401 2 8 2ZM8 3C4.68629 3 2 5.68629 2 9C2 12.3137 4.68629 15 8 15C11.3137 15 14 12.3137 14 9C14 5.68629 11.3137 3 8 3Z" fill="black"/>
</svg>
