<svg width="16" height="16" viewBox="0 0 16 16" fill="none" xmlns="http://www.w3.org/2000/svg">
<path d="M2 1C1.44772 1 1 1.44772 1 2V6C1 6.55228 1.44772 7 2 7H3.5V9H2C1.44772 9 1 9.44772 1 10V14C1 14.5523 1.44772 15 2 15H6C6.55228 15 7 14.5523 7 14V12.5H9V14C9 14.5523 9.44772 15 10 15H14C14.5523 15 15 14.5523 15 14V10C15 9.44772 14.5523 9 14 9H12.5V7H14C14.5523 7 15 6.55228 15 6V2C15 1.44772 14.5523 1 14 1H10C9.44772 1 9 1.44772 9 2V3.5H7V2C7 1.44772 6.55228 1 6 1H2ZM6 2V6H2V2H6ZM9 4.5V6C9 6.55228 9.44772 7 10 7H11.5V9H10C9.44772 9 9 9.44772 9 10V11.5H7V10C7 9.44772 6.55228 9 6 9H4.5V7H6C6.55228 7 7 6.55228 7 6V4.5H9ZM14 10V14H10V10H14ZM2 10H6V14H2V10ZM10 2H14V6H10V2Z" fill="black"/>
</svg>
