<svg width="16" height="16" viewBox="0 0 16 16" fill="none" xmlns="http://www.w3.org/2000/svg">
<path d="M14.1722 5.24479C14.8119 3.7164 14.0915 1.95883 12.5631 1.31913L12.9492 0.396667C14.987 1.2496 15.9476 3.59304 15.0947 5.63088L14.1722 5.24479Z" fill="black"/>
<path d="M9.1273 9.38803C10.2523 8.68014 11 7.42737 11 5.99999C11 3.79085 9.20914 1.99999 7 1.99999C4.79086 1.99999 3 3.79085 3 5.99999C3 7.42737 3.74765 8.68014 4.8727 9.38803C2.90978 10.1325 1.43908 11.8773 1.08296 14C1.0284 14.3252 1 14.6593 1 15H13C13 14.6593 12.9716 14.3252 12.917 14C12.5609 11.8773 11.0902 10.1325 9.1273 9.38803ZM10 5.99999C10 7.65684 8.65685 8.99999 7 8.99999C5.34315 8.99999 4 7.65684 4 5.99999C4 4.34313 5.34315 2.99999 7 2.99999C8.65685 2.99999 10 4.34313 10 5.99999ZM7 9.99999C9.41896 9.99999 11.4367 11.7177 11.9 14H2.10002C2.56329 11.7177 4.58104 9.99999 7 9.99999Z" fill="black"/>
<path d="M11.3297 2.97098C12.0939 3.29083 12.4541 4.16962 12.1343 4.93381L13.0567 5.31991C13.5898 4.04625 12.9894 2.58161 11.7158 2.04852L11.3297 2.97098Z" fill="black"/>
</svg>
