<svg width="16" height="16" viewBox="0 0 16 16" fill="none" xmlns="http://www.w3.org/2000/svg">
<path d="M8 2C11.3137 2 14 4.68629 14 8C14 11.3137 11.3137 14 8 14C4.68629 14 2 11.3137 2 8C2 4.68629 4.68629 2 8 2ZM6.08612 3.37938C4.89271 3.87425 3.93249 4.81799 3.41604 6H5.17071C5.35317 4.9675 5.67293 4.06471 6.08612 3.37938ZM6.1883 6H9.8117C9.46165 4.20859 8.68407 3 8 3C7.31593 3 6.53835 4.20859 6.1883 6ZM5.04148 7H3.10002C3.03443 7.32311 3 7.65753 3 8C3 8.34247 3.03443 8.67689 3.10002 9H5.04148C5.0142 8.67479 5 8.34071 5 8C5 7.65929 5.0142 7.32521 5.04148 7ZM6.04573 9H9.95427C9.98401 8.67827 10 8.34404 10 8C10 7.65596 9.98401 7.32173 9.95427 7H6.04573C6.01599 7.32173 6 7.65596 6 8C6 8.34404 6.01599 8.67827 6.04573 9ZM5.17071 10H3.41604C3.93249 11.182 4.89271 12.1258 6.08612 12.6206C5.67294 11.9353 5.35317 11.0325 5.17071 10ZM9.91388 12.6206C11.1073 12.1258 12.0675 11.182 12.584 10H10.8293C10.6468 11.0325 10.3271 11.9353 9.91388 12.6206ZM9.8117 10H6.1883C6.53835 11.7914 7.31593 13 8 13C8.68407 13 9.46165 11.7914 9.8117 10ZM10.9585 9H12.9C12.9656 8.67689 13 8.34247 13 8C13 7.65753 12.9656 7.32311 12.9 7H10.9585C10.9858 7.32521 11 7.65929 11 8C11 8.34071 10.9858 8.67479 10.9585 9ZM10.8293 6H12.584C12.0675 4.81799 11.1073 3.87425 9.91388 3.37938C10.3271 4.06471 10.6468 4.9675 10.8293 6Z" fill="black"/>
</svg>
