<svg width="16" height="16" viewBox="0 0 16 16" fill="none" xmlns="http://www.w3.org/2000/svg">
<path d="M1.5 3C1.5 2.17157 2.17157 1.5 3 1.5H12C12.8284 1.5 13.5 2.17157 13.5 3V6H12.5V3C12.5 2.72386 12.2761 2.5 12 2.5H3C2.72386 2.5 2.5 2.72386 2.5 3V13C2.5 13.2761 2.72386 13.5 3 13.5H7V14.5H3C2.17157 14.5 1.5 13.8284 1.5 13V3Z" fill="black"/>
<path d="M11 5.5H4V4.5H11V5.5Z" fill="black"/>
<path d="M4 8.5H7V7.5H4V8.5Z" fill="black"/>
<path d="M6 11.5H4V10.5H6V11.5Z" fill="black"/>
<path d="M9.39477 7.74492C9.0834 7.89366 9.01274 8.30563 9.25674 8.54964L10.5503 9.84315V10.5503H9.84315L8.54964 9.25674C8.30563 9.01274 7.89366 9.0834 7.74492 9.39477C7.12374 10.6951 7.3508 12.3005 8.42893 13.3787C9.41664 14.3664 10.8469 14.6398 12.0797 14.2011L13.3787 15.5C13.9645 16.0858 14.9142 16.0858 15.5 15.5C16.0858 14.9142 16.0858 13.9645 15.5 13.3787L14.2011 12.0797C14.6398 10.8469 14.3664 9.41664 13.3787 8.42893C12.3005 7.3508 10.6951 7.12374 9.39477 7.74492ZM9.13604 12.6716C8.558 12.0935 8.32182 11.3023 8.4287 10.55L9.13604 11.2574C9.72183 11.8431 11.2574 11.2574 11.2574 11.2574C11.2574 11.2574 11.8431 9.72183 11.2574 9.13604L10.55 8.4287C11.3023 8.32182 12.0935 8.558 12.6716 9.13604C13.4407 9.90518 13.6046 11.0519 13.1604 11.9818L13.0079 12.3008L14.7929 14.0858C14.9882 14.281 14.9882 14.5976 14.7929 14.7929C14.5976 14.9882 14.281 14.9882 14.0858 14.7929L12.3008 13.0079L11.9818 13.1604C11.0519 13.6046 9.90518 13.4407 9.13604 12.6716Z" fill="black"/>
</svg>
