<svg width="16" height="16" viewBox="0 0 16 16" fill="none" xmlns="http://www.w3.org/2000/svg">
<path d="M12.5 1C13.3284 1 14 1.67157 14 2.5V10.5C14 11.3284 13.3284 12 12.5 12H10.5V13.5C10.5 14.3284 9.82843 15 9 15H3C2.17157 15 1.5 14.3284 1.5 13.5V5.5C1.5 4.67157 2.17157 4 3 4H5V2.5C5 1.67157 5.67157 1 6.5 1H12.5ZM6 4H9C9.82843 4 10.5 4.67157 10.5 5.5V11H12.5C12.7761 11 13 10.7761 13 10.5V2.5C13 2.22386 12.7761 2 12.5 2H6.5C6.22386 2 6 2.22386 6 2.5V4ZM2.5 5.5V13.5C2.5 13.7761 2.72386 14 3 14H9C9.27614 14 9.5 13.7761 9.5 13.5V5.5C9.5 5.22386 9.27614 5 9 5H3C2.72386 5 2.5 5.22386 2.5 5.5Z" fill="black"/>
</svg>
