<svg width="16" height="16" viewBox="0 0 16 16" fill="none" xmlns="http://www.w3.org/2000/svg">
<path d="M15 8C15 11.866 11.866 15 8 15C4.13401 15 1 11.866 1 8C1 4.13401 4.13401 1 8 1C11.866 1 15 4.13401 15 8ZM3.59533 12.0742C3.89453 10.6435 4.87325 9.46238 6.17849 8.88391C5.46207 8.33567 5 7.4718 5 6.5C5 4.84315 6.34315 3.5 8 3.5C9.65685 3.5 11 4.84315 11 6.5C11 7.4718 10.5379 8.33567 9.82151 8.88391C11.1268 9.46238 12.1055 10.6435 12.4047 12.0742C13.3948 11.0042 14 9.57279 14 8C14 4.68629 11.3137 2 8 2C4.68629 2 2 4.68629 2 8C2 9.57279 2.60516 11.0042 3.59533 12.0742ZM11.4978 12.8755C11.4323 11.0002 9.89133 9.5 8 9.5C6.10867 9.5 4.56773 11.0002 4.50217 12.8755C5.4869 13.5832 6.69478 14 8 14C9.30522 14 10.5131 13.5832 11.4978 12.8755ZM10 6.5C10 5.39543 9.10457 4.5 8 4.5C6.89543 4.5 6 5.39543 6 6.5C6 7.60457 6.89543 8.5 8 8.5C9.10457 8.5 10 7.60457 10 6.5Z" fill="black"/>
</svg>
