<svg width="16" height="17" viewBox="0 0 16 17" fill="none" xmlns="http://www.w3.org/2000/svg">
<path d="M8 6.99503C8.24546 6.99503 8.44961 7.17191 8.49194 7.40516L8.5 7.49503V10.495C8.5 10.7712 8.27614 10.995 8 10.995C7.75454 10.995 7.55039 10.8182 7.50806 10.5849L7.5 10.495V7.49503C7.5 7.21889 7.72386 6.99503 8 6.99503Z" fill="black"/>
<path d="M6.49194 9.40562C6.44961 9.17237 6.24546 8.99549 6 8.99549C5.72386 8.99549 5.5 9.21935 5.5 9.49549V10.495L5.50806 10.5849C5.55039 10.8182 5.75454 10.995 6 10.995C6.27614 10.995 6.5 10.7712 6.5 10.495V9.49549L6.49194 9.40562Z" fill="black"/>
<path d="M4 8.99549C4.24546 8.99549 4.44961 9.17237 4.49194 9.40562L4.5 9.49549V10.495C4.5 10.7712 4.27614 10.995 4 10.995C3.75454 10.995 3.55039 10.8182 3.50806 10.5849L3.5 10.495V9.49549C3.5 9.21935 3.72386 8.99549 4 8.99549Z" fill="black"/>
<path d="M10.4919 6.40516C10.4496 6.17191 10.2455 5.99503 10 5.99503C9.72386 5.99503 9.5 6.21889 9.5 6.49503V10.495L9.50806 10.5849C9.55039 10.8182 9.75454 10.995 10 10.995C10.2761 10.995 10.5 10.7712 10.5 10.495V6.49503L10.4919 6.40516Z" fill="black"/>
<path d="M12 6.99503C12.2455 6.99503 12.4496 7.17191 12.4919 7.40516L12.5 7.49503V10.495C12.5 10.7712 12.2761 10.995 12 10.995C11.7545 10.995 11.5504 10.8182 11.5081 10.5849L11.5 10.495V7.49503C11.5 7.21889 11.7239 6.99503 12 6.99503Z" fill="black"/>
<path d="M13.0826 12.4776C13.0826 12.2014 12.8587 11.9776 12.5826 11.9776H3.43555L3.34568 11.9856C3.11243 12.0279 2.93555 12.2321 2.93555 12.4776C2.93555 12.7537 3.15941 12.9776 3.43555 12.9776H12.5826L12.6725 12.9695C12.9057 12.9272 13.0826 12.723 13.0826 12.4776Z" fill="black"/>
<path d="M15.0024 4C15.0024 3.44772 14.5547 3 14.0024 3H2C1.44772 3 1 3.44772 1 4V14C1 14.5523 1.44772 15 2 15H14.0024C14.5547 15 15.0024 14.5523 15.0024 14V4ZM2 4H14.0024V14H2V4Z" fill="black"/>
</svg>
