<svg width="17" height="16" viewBox="0 0 17 16" fill="none" xmlns="http://www.w3.org/2000/svg">
<path d="M11.1135 8.59094C11.1135 6.86385 9.7134 5.46377 7.98631 5.46377C6.25923 5.46377 4.85914 6.86385 4.85914 8.59094C4.85914 10.318 6.25923 11.7181 7.98631 11.7181C9.7134 11.7181 11.1135 10.318 11.1135 8.59094ZM5.85914 8.59094C5.85914 7.41613 6.81151 6.46377 7.98631 6.46377C9.16112 6.46377 10.1135 7.41613 10.1135 8.59094C10.1135 9.76574 9.16112 10.7181 7.98631 10.7181C6.81151 10.7181 5.85914 9.76574 5.85914 8.59094Z" fill="black"/>
<path d="M11.8448 5.5017C11.5687 5.5017 11.3448 5.72556 11.3448 6.0017C11.3448 6.27784 11.5687 6.5017 11.8448 6.5017H12.8448C13.121 6.5017 13.3448 6.27784 13.3448 6.0017C13.3448 5.72556 13.121 5.5017 12.8448 5.5017H11.8448Z" fill="black"/>
<path d="M10.6051 3.30132C10.4358 2.96217 10.0894 2.74786 9.71031 2.74786H6.28726C5.90821 2.74786 5.56175 2.96217 5.39249 3.30132L5.088 3.91086L2 3.91103C1.44772 3.91103 1 4.35875 1 4.91103V12.2521C1 12.8044 1.44772 13.2521 2 13.2521H13.9994C14.5517 13.2521 14.9994 12.8044 14.9994 12.2521V4.91103C14.9994 4.35875 14.5517 3.91103 13.9994 3.91103L10.909 3.91086L10.6051 3.30132ZM9.71031 3.74786L10.2902 4.91083L13.9994 4.91103V12.2521H2V4.91103L5.7063 4.91083L6.28708 3.74821L9.71031 3.74786Z" fill="black"/>
</svg>
