<svg width="16" height="16" viewBox="0 0 16 16" fill="none" xmlns="http://www.w3.org/2000/svg">
<path d="M2.67515 6.61775L3.64645 5.64645L4.35356 6.35355L1.81738 8.88973L0.535767 5.6857L1.46424 5.3143L1.78055 6.10507C2.59163 3.43955 5.06932 1.5 8 1.5C11.5899 1.5 14.5 4.41015 14.5 8C14.5 11.5899 11.5899 14.5 8 14.5C6.05856 14.5 4.31544 13.6482 3.12514 12.2996L3.87487 11.6379C4.8834 12.7805 6.35737 13.5 8 13.5C11.0376 13.5 13.5 11.0376 13.5 8C13.5 4.96243 11.0376 2.5 8 2.5C5.43984 2.5 3.28823 4.24924 2.67515 6.61775Z" fill="black"/>
<path d="M7.5 4V8.20711L10.6465 11.3536L11.3536 10.6464L8.5 7.79289V4H7.5Z" fill="black"/>
</svg>
