<svg width="16" height="16" viewBox="0 0 16 16" fill="none" xmlns="http://www.w3.org/2000/svg">
<path d="M4.98959 9.26777L5.6967 8.56066L7.46447 10.3284L10.6464 7.14645L11.3536 7.85355L7.46447 11.7426L4.98959 9.26777Z" fill="black"/>
<path d="M5.40135 2.5C5.92006 1.6033 6.88958 1 8 1C9.11042 1 10.0799 1.6033 10.5987 2.5H13C13.8284 2.5 14.5 3.17157 14.5 4V14C14.5 14.8284 13.8284 15.5 13 15.5H3C2.17157 15.5 1.5 14.8284 1.5 14V4C1.5 3.17157 2.17157 2.5 3 2.5H5.40135ZM8 2C6.89543 2 6 2.89543 6 4H10C10 2.89543 9.10457 2 8 2ZM10.9585 3.5C10.9858 3.6626 11 3.82964 11 4V4.90698C11 4.95835 10.9584 5 10.907 5H5.09302C5.04165 5 5 4.95835 5 4.90698V4C5 3.82964 5.0142 3.6626 5.04148 3.5H3C2.72386 3.5 2.5 3.72386 2.5 4V14C2.5 14.2761 2.72386 14.5 3 14.5H13C13.2761 14.5 13.5 14.2761 13.5 14V4C13.5 3.72386 13.2761 3.5 13 3.5H10.9585Z" fill="black"/>
</svg>
