<svg width="16" height="16" viewBox="0 0 16 16" fill="none" xmlns="http://www.w3.org/2000/svg">
<path d="M8 0C7.44772 0 7 0.447715 7 1V1.59397C4.54385 2.06176 2.68714 4.22048 2.68714 6.81286V9.41713L1.19998 11.4C0.705557 12.0592 1.17594 13 1.99998 13H7V12H1.99998L3.68714 9.75046V6.81286C3.68714 4.43093 5.61807 2.5 8 2.5C10.3819 2.5 12.3129 4.43093 12.3129 6.81286V7H13.3129V6.81286C13.3129 4.22048 11.4561 2.06177 9 1.59397V1C9 0.447715 8.55228 0 8 0Z" fill="black"/>
<path d="M13 12C13 12.5523 12.5523 13 12 13C11.4477 13 11 12.5523 11 12C11 11.4477 11.4477 11 12 11C12.5523 11 13 11.4477 13 12Z" fill="black"/>
<path d="M12.8863 8.67379C12.624 7.7754 11.376 7.7754 11.1137 8.67379C10.9581 9.20653 10.3866 9.48714 9.88103 9.27898C9.02851 8.92793 8.25041 9.92266 8.77581 10.6919C9.08737 11.148 8.94621 11.7786 8.47137 12.0517C7.67062 12.5124 7.94833 13.7528 8.86582 13.8136C9.40989 13.8497 9.80542 14.3553 9.71884 14.9041C9.57284 15.8296 10.6972 16.3816 11.3159 15.6882C11.6828 15.277 12.3172 15.277 12.6841 15.6882C13.3028 16.3816 14.4272 15.8296 14.2812 14.9041C14.1946 14.3553 14.5901 13.8497 15.1342 13.8136C16.0517 13.7528 16.3294 12.5124 15.5286 12.0517C15.0538 11.7786 14.9126 11.148 15.2242 10.6919C15.7496 9.92266 14.9715 8.92793 14.119 9.27898C13.6134 9.48714 13.0419 9.20653 12.8863 8.67379ZM9.83084 10.3939C10.7033 10.5761 11.5958 10.1379 12 9.32894C12.4042 10.1379 13.2967 10.5761 14.1692 10.3939C13.8008 11.2205 14.0212 12.2051 14.7049 12.7869C13.8413 13.0086 13.2237 13.7982 13.2038 14.7059C12.4953 14.1558 11.5047 14.1558 10.7962 14.7059C10.7763 13.7982 10.1587 13.0086 9.2951 12.7869C9.9788 12.2051 10.1992 11.2205 9.83084 10.3939Z" fill="black"/>
</svg>
