<svg width="16" height="16" viewBox="0 0 16 16" fill="none" xmlns="http://www.w3.org/2000/svg">
<path d="M10.2773 8.69922H10.2266L9.05859 5.02344C8.94922 4.66406 8.77734 4.5 8.50391 4.5C8.19922 4.5 7.97656 4.69531 7.97656 4.97656C7.97656 5.08594 8.00781 5.23828 8.0625 5.39844L9.37891 9.1875C9.55078 9.69922 9.80469 9.92188 10.2461 9.92188C10.6797 9.92188 10.9258 9.70312 11.0977 9.1875L12.418 5.39844C12.4648 5.25391 12.5 5.07812 12.5 4.97266C12.5 4.69141 12.2812 4.5 11.9805 4.5C11.6992 4.5 11.5391 4.65234 11.4297 5.02344L10.2773 8.69922Z" fill="black"/>
<path d="M5.38281 9.92188C5.70703 9.92188 5.91016 9.70703 5.91016 9.35938V5.4375H7.04297C7.30859 5.4375 7.49609 5.25391 7.49609 4.99609C7.49609 4.73438 7.30859 4.55078 7.04297 4.55078H3.72656C3.46484 4.55078 3.27344 4.73828 3.27344 4.99609C3.27344 5.25 3.46484 5.4375 3.72656 5.4375H4.85547V9.35938C4.85547 9.71094 5.05469 9.92188 5.38281 9.92188Z" fill="black"/>
<path d="M2 1C1.44772 1 1 1.44772 1 2V12C1 12.5523 1.44772 13 2 13H14C14.5523 13 15 12.5523 15 12V2C15 1.44772 14.5523 1 14 1H2ZM14 2V12H2V2H14Z" fill="black"/>
<path d="M3 14C2.72386 14 2.5 14.2239 2.5 14.5C2.5 14.7761 2.72386 15 3 15H13C13.2761 15 13.5 14.7761 13.5 14.5C13.5 14.2239 13.2761 14 13 14H3Z" fill="black"/>
</svg>
