<svg width="16" height="16" viewBox="0 0 16 16" fill="none" xmlns="http://www.w3.org/2000/svg">
<path d="M8 0.25C3.71979 0.25 0.25 3.71979 0.25 8C0.25 12.2802 3.71979 15.75 8 15.75C12.2802 15.75 15.75 12.2802 15.75 8C15.75 3.71979 12.2802 0.25 8 0.25ZM3.00658 4.24064V5.76521L5.20069 8.51651H7.13818V6.58787L9.06704 5.66303V3.99757L10.6812 2.76495L10.871 2.44698C12.3045 3.18961 13.4138 4.47098 13.9309 6.02304L12 6.66667V8.83301L13.9357 9.96248C13.3208 11.8232 11.8555 13.2969 10 13.9232V12.5069L7 10.5249L6 11.9834V13.9232C3.52908 13.0891 1.75 10.7523 1.75 8C1.75 6.58879 2.21771 5.28682 3.00658 4.24064Z" fill="black"/>
</svg>
