<svg width="16" height="16" viewBox="0 0 16 16" fill="none" xmlns="http://www.w3.org/2000/svg">
<path d="M11 10.5C11 10.2239 10.7761 10 10.5 10H5.50001L5.41013 10.0081C5.17688 10.0504 5.00001 10.2545 5.00001 10.5C5.00001 10.7761 5.22386 11 5.50001 11H10.5L10.5899 10.9919C10.8231 10.9496 11 10.7455 11 10.5Z" fill="black"/>
<path d="M10.6089 3.00043C11.1866 3.00043 11.7083 3.33157 11.9575 3.84366L12.014 3.97537L13.7925 8.73482C13.8836 8.88726 13.9484 9.05722 13.9807 9.23844L14.0132 9.32541L13.9944 9.33244C14.0007 9.38849 14.004 9.44547 14.004 9.50321V11.5032C14.004 12.3316 13.3324 13.0032 12.504 13.0032H3.49655C2.66812 13.0032 1.99655 12.3316 1.99655 11.5032V9.50321C1.99655 9.44548 1.99981 9.38851 2.00616 9.33248L1.98734 9.32545L2.01985 9.2384C2.05211 9.05729 2.11688 8.88743 2.20789 8.73507L3.98602 3.97548C4.18823 3.43422 4.68106 3.0614 5.24801 3.00724L5.39116 3.00043H10.6089ZM11.0772 4.32541C11.0146 4.15789 10.8685 4.03878 10.6967 4.00817L10.6089 4.00043H5.39116C5.21232 4.00043 5.0496 4.09562 4.96077 4.2459L4.92278 4.32545L3.54881 8.00321H12.4516L11.0772 4.32541ZM3.10425 9.19318L2.99708 9.48006C2.99673 9.48773 2.99655 9.49545 2.99655 9.50321V11.5032C2.99655 11.7794 3.22041 12.0032 3.49655 12.0032H12.504C12.7801 12.0032 13.004 11.7794 13.004 11.5032V9.50321C13.004 9.49547 13.0038 9.48777 13.0034 9.48012L12.8962 9.19307C12.8046 9.07741 12.6629 9.00321 12.504 9.00321H3.49655C3.33752 9.00321 3.19583 9.07746 3.10425 9.19318Z" fill="black"/>
</svg>
