<svg width="16" height="16" viewBox="0 0 16 16" fill="none" xmlns="http://www.w3.org/2000/svg">
<path d="M9 6C9.55228 6 10 6.44772 10 7V9C10 9.55228 9.55228 10 9 10H7C6.44772 10 6 9.55228 6 9V7C6 6.44772 6.44772 6 7 6H9ZM9 7H7V9H9V7Z" fill="black"/>
<path d="M10 4C11.1046 4 12 4.89543 12 6H13.5C13.7761 6 14 6.22386 14 6.5C14 6.77614 13.7761 7 13.5 7H12V9H13.5C13.7761 9 14 9.22386 14 9.5C14 9.77614 13.7761 10 13.5 10H12C12 11.1046 11.1046 12 10 12V13.5C10 13.7761 9.77614 14 9.5 14C9.22386 14 9 13.7761 9 13.5V12H7V13.5C7 13.7761 6.77614 14 6.5 14C6.22386 14 6 13.7761 6 13.5V12C4.89543 12 4 11.1046 4 10H2.5C2.22386 10 2 9.77614 2 9.5C2 9.22386 2.22386 9 2.5 9H4V7H2.5C2.22386 7 2 6.77614 2 6.5C2 6.22386 2.22386 6 2.5 6H4C4 4.89543 4.89543 4 6 4V2.5C6 2.22386 6.22386 2 6.5 2C6.77614 2 7 2.22386 7 2.5V4H9V2.5C9 2.22386 9.22386 2 9.5 2C9.77614 2 10 2.22386 10 2.5V4ZM6 11H10C10.5128 11 10.9355 10.614 10.9933 10.1166L11 10V6C11 5.48716 10.614 5.06449 10.1166 5.00673L10 5H6C5.48716 5 5.06449 5.38604 5.00673 5.88338L5 6V10C5 10.5128 5.38604 10.9355 5.88338 10.9933L6 11Z" fill="black"/>
</svg>
