<svg width="16" height="16" viewBox="0 0 16 16" fill="none" xmlns="http://www.w3.org/2000/svg">
<path d="M3.99979 2.00128C5.10436 2.00128 5.99979 2.89671 5.99979 4.00128C5.99979 4.37231 5.89876 4.71973 5.72271 5.01755L6.98653 6.28204C7.28415 6.10632 7.63125 6.0055 8.00189 6.0055C8.37163 6.0055 8.71793 6.10583 9.01506 6.28075L10.2789 5.01736C10.1029 4.71958 10.0019 4.37222 10.0019 4.00128C10.0019 2.89671 10.8973 2.00128 12.0019 2.00128C13.1065 2.00128 14.0019 2.89671 14.0019 4.00128C14.0019 5.10585 13.1065 6.00128 12.0019 6.00128C11.631 6.00128 11.2837 5.90034 10.986 5.72443L9.72332 6.9867C9.90029 7.28509 10.0019 7.63343 10.0019 8.0055C10.0019 8.37634 9.90097 8.7236 9.72508 9.02132L10.9861 10.2823C11.2838 10.1064 11.6311 10.0055 12.0019 10.0055C13.1065 10.0055 14.0019 10.9009 14.0019 12.0055C14.0019 13.1101 13.1065 14.0055 12.0019 14.0055C10.8973 14.0055 10.0019 13.1101 10.0019 12.0055C10.0019 11.6345 10.1029 11.2871 10.2789 10.9894L9.01804 9.72849C8.72025 9.9045 8.37287 10.0055 8.00189 10.0055C7.63001 10.0055 7.28183 9.904 6.98355 9.7272L5.72266 10.9892C5.89874 11.287 5.99979 11.6344 5.99979 12.0055C5.99979 13.1101 5.10436 14.0055 3.99979 14.0055C2.89522 14.0055 1.99979 13.1101 1.99979 12.0055C1.99979 10.9009 2.89522 10.0055 3.99979 10.0055C4.37054 10.0055 4.71773 10.1064 5.01541 10.2822L6.27741 9.01912C6.10233 8.72189 6.00189 8.37542 6.00189 8.0055C6.00189 7.63434 6.103 7.28679 6.27917 6.9889L5.01548 5.72454C4.71779 5.90038 4.37057 6.00128 3.99979 6.00128C2.89522 6.00128 1.99979 5.10585 1.99979 4.00128C1.99979 2.89671 2.89522 2.00128 3.99979 2.00128ZM3.99979 3.00128C3.4475 3.00128 2.99979 3.449 2.99979 4.00128C2.99979 4.55357 3.4475 5.00128 3.99979 5.00128C4.55207 5.00128 4.99979 4.55357 4.99979 4.00128C4.99979 3.449 4.55207 3.00128 3.99979 3.00128ZM12.0019 3.00128C11.4496 3.00128 11.0019 3.449 11.0019 4.00128C11.0019 4.55357 11.4496 5.00128 12.0019 5.00128C12.5542 5.00128 13.0019 4.55357 13.0019 4.00128C13.0019 3.449 12.5542 3.00128 12.0019 3.00128ZM11.0019 12.0055C11.0019 12.5578 11.4496 13.0055 12.0019 13.0055C12.5542 13.0055 13.0019 12.5578 13.0019 12.0055C13.0019 11.4532 12.5542 11.0055 12.0019 11.0055C11.4496 11.0055 11.0019 11.4532 11.0019 12.0055ZM7.00189 8.0055C7.00189 8.55778 7.44961 9.0055 8.00189 9.0055C8.55418 9.0055 9.00189 8.55778 9.00189 8.0055C9.00189 7.45322 8.55418 7.0055 8.00189 7.0055C7.44961 7.0055 7.00189 7.45322 7.00189 8.0055ZM3.99979 11.0055C3.4475 11.0055 2.99979 11.4532 2.99979 12.0055C2.99979 12.5578 3.4475 13.0055 3.99979 13.0055C4.55207 13.0055 4.99979 12.5578 4.99979 12.0055C4.99979 11.4532 4.55207 11.0055 3.99979 11.0055Z" fill="black"/>
</svg>
