<svg width="16" height="16" viewBox="0 0 16 16" fill="none" xmlns="http://www.w3.org/2000/svg">
<path d="M9 5.5C9 6.72053 8.37525 7.79514 7.4281 8.42149C9.25037 9.2582 10.5 11.2441 10.5 13.5H9.5C9.5 10.9639 7.66089 9 5.5 9C3.33911 9 1.5 10.9639 1.5 13.5H0.5C0.5 11.2441 1.74963 9.2582 3.5719 8.42149C2.62475 7.79514 2 6.72053 2 5.5C2 3.567 3.567 2 5.5 2C7.433 2 9 3.567 9 5.5ZM5.5 8C6.88071 8 8 6.88071 8 5.5C8 4.11929 6.88071 3 5.5 3C4.11929 3 3 4.11929 3 5.5C3 6.88071 4.11929 8 5.5 8Z" fill="black"/>
<path d="M10.5 5H16V4H10.5V5Z" fill="black"/>
<path d="M16 8.5H11V7.5H16V8.5Z" fill="black"/>
<path d="M12 12H16V11H12V12Z" fill="black"/>
</svg>
