<svg width="16" height="16" viewBox="0 0 16 16" fill="none" xmlns="http://www.w3.org/2000/svg">
<path d="M10.063 3.5C10.285 2.63739 11.0681 2 12 2C13.1046 2 14 2.89543 14 4C14 5.10457 13.1046 6 12 6C11.0681 6 10.285 5.36261 10.063 4.5H4.5C3.67157 4.5 3 5.17157 3 6C3 6.82843 3.67157 7.5 4.5 7.5H6V8.5H4.5C3.11929 8.5 2 7.38071 2 6C2 4.61929 3.11929 3.5 4.5 3.5H10.063ZM12 5C12.5523 5 13 4.55228 13 4C13 3.44772 12.5523 3 12 3C11.4477 3 11 3.44772 11 4C11 4.55228 11.4477 5 12 5Z" fill="black"/>
<path d="M7 8C7 7.44772 7.44772 7 8 7C8.55228 7 9 7.44772 9 8C9 8.55228 8.55228 9 8 9C7.44772 9 7 8.55228 7 8Z" fill="black"/>
<path d="M4 10C2.89543 10 2 10.8954 2 12C2 13.1046 2.89543 14 4 14C4.93192 14 5.71497 13.3626 5.93699 12.5H11.5C12.8807 12.5 14 11.3807 14 10C14 8.61929 12.8807 7.5 11.5 7.5H10V8.5H11.5C12.3284 8.5 13 9.17157 13 10C13 10.8284 12.3284 11.5 11.5 11.5H5.93699C5.71497 10.6374 4.93192 10 4 10ZM3 12C3 11.4477 3.44772 11 4 11C4.55228 11 5 11.4477 5 12C5 12.5523 4.55228 13 4 13C3.44772 13 3 12.5523 3 12Z" fill="black"/>
</svg>
