<svg width="16" height="16" viewBox="0 0 16 16" fill="none" xmlns="http://www.w3.org/2000/svg">
<path d="M11.0011 8.00001C11.0011 9.65628 9.65841 10.999 8.00214 10.999C6.34586 10.999 5.00319 9.65628 5.00319 8.00001C5.00319 6.34373 6.34586 5.00106 8.00214 5.00106C9.65841 5.00106 11.0011 6.34373 11.0011 8.00001ZM9.99967 8.00001C9.99967 6.8968 9.10534 6.00247 8.00214 6.00247C6.89893 6.00247 6.0046 6.8968 6.0046 8.00001C6.0046 9.10321 6.89893 9.99754 8.00214 9.99754C9.10534 9.99754 9.99967 9.10321 9.99967 8.00001Z" fill="black"/>
<path d="M8.61696 1.43203L13.3897 4.18757C13.7701 4.40723 14.0045 4.81316 14.0045 5.25247V10.7636C14.0045 11.2029 13.7701 11.6088 13.3897 11.8285L8.61696 14.584C8.2365 14.8037 7.76777 14.8037 7.38732 14.584L2.61458 11.8285C2.23412 11.6088 1.99976 11.2029 1.99976 10.7636V5.25247C1.99976 4.81316 2.23412 4.40723 2.61458 4.18757L7.38732 1.43203C7.76777 1.21237 8.2365 1.21237 8.61696 1.43203ZM13.0162 5.11312L8.00214 2.21823L2.98803 5.11312V10.9029L8.00214 13.7978L13.0162 10.9029V5.11312Z" fill="black"/>
</svg>
