<svg width="16" height="16" viewBox="0 0 16 16" fill="none" xmlns="http://www.w3.org/2000/svg">
<path d="M7.5 1.5C4.18629 1.5 1.5 4.18629 1.5 7.5C1.5 10.8137 4.18629 13.5 7.5 13.5C9.1553 13.5 10.6532 12.8303 11.7393 11.746L12.4459 12.4536C11.18 13.7176 9.43088 14.5 7.5 14.5C3.63401 14.5 0.5 11.366 0.5 7.5C0.5 3.63401 3.63401 0.5 7.5 0.5C10.8416 0.5 13.6363 2.84144 14.333 5.97318L15.0713 4.74275L15.9287 5.25725L14.1715 8.18599L11.2428 6.42875L11.7572 5.57125L13.429 6.57432C12.9839 3.70013 10.4989 1.5 7.5 1.5Z" fill="black"/>
</svg>
