<svg width="16" height="16" viewBox="0 0 16 16" fill="none" xmlns="http://www.w3.org/2000/svg">
<path d="M13.796 4.66666C14.9006 4.66666 15.796 3.77123 15.796 2.66666C15.796 1.56209 14.9006 0.666656 13.796 0.666656C12.6914 0.666656 11.796 1.56209 11.796 2.66666C11.796 3.07076 11.9158 3.44687 12.1219 3.76138L10.3029 5.47577C9.67377 4.96959 8.87416 4.66666 8.00381 4.66666C7.13101 4.66666 6.32937 4.97129 5.6994 5.48003L3.87772 3.76192C4.08403 3.4473 4.20401 3.07099 4.20401 2.66666C4.20401 1.56209 3.30858 0.666656 2.20401 0.666656C1.09944 0.666656 0.20401 1.56209 0.20401 2.66666C0.20401 3.77123 1.09944 4.66666 2.20401 4.66666C2.54048 4.66666 2.85755 4.58357 3.13581 4.43679L5.01368 6.2079C4.58533 6.80836 4.33334 7.54332 4.33334 8.33713C4.33334 9.12948 4.5844 9.86319 5.01132 10.463L3.39578 11.9857C3.06294 11.7383 2.65056 11.592 2.20401 11.592C1.09944 11.592 0.20401 12.4874 0.20401 13.592C0.20401 14.6965 1.09944 15.592 2.20401 15.592C3.30858 15.592 4.20401 14.6965 4.20401 13.592C4.20401 13.2974 4.14032 13.0177 4.02597 12.7659L5.69624 11.1917C6.32668 11.7019 7.12955 12.0076 8.00381 12.0076C8.87614 12.0076 9.6774 11.7033 10.3072 11.195L11.974 12.7659C11.8597 13.0177 11.796 13.2974 11.796 13.592C11.796 14.6965 12.6914 15.592 13.796 15.592C14.9006 15.592 15.796 14.6965 15.796 13.592C15.796 12.4874 14.9006 11.592 13.796 11.592C13.3494 11.592 12.937 11.7383 12.6042 11.9857L10.9932 10.4674C11.422 9.86675 11.6743 9.1314 11.6743 8.33713C11.6743 7.54088 11.4207 6.80385 10.99 6.20237L12.8636 4.43649C13.142 4.58345 13.4593 4.66666 13.796 4.66666ZM9.81209 5.93838L9.06559 6.64194C8.7579 6.44881 8.3939 6.33713 8.00381 6.33713C7.61101 6.33713 7.24467 6.45036 6.93563 6.64597L6.1899 5.94264C6.69391 5.56024 7.32236 5.33332 8.00381 5.33332C8.68272 5.33332 9.30903 5.55856 9.81209 5.93838ZM9.75356 7.36769L10.4994 6.66476C10.8204 7.14277 11.0076 7.71808 11.0076 8.33713C11.0076 8.9542 10.8215 9.52781 10.5025 10.0049L9.75627 9.30168C9.91403 9.01566 10.0038 8.68688 10.0038 8.33713C10.0038 7.98539 9.91301 7.65485 9.75356 7.36769ZM8.00381 11.3409C7.32098 11.3409 6.69136 11.1131 6.18683 10.7293L6.93263 10.0264C7.24229 10.2232 7.60974 10.3371 8.00381 10.3371C8.3959 10.3371 8.76164 10.2243 9.07033 10.0293L9.81649 10.7326C9.31269 11.1144 8.6847 11.3409 8.00381 11.3409ZM6.00381 8.33713C6.00381 8.68491 6.09258 9.01195 6.24869 9.29684L5.50217 10.0004C5.18491 9.52422 5 8.95227 5 8.33713C5 7.72061 5.18574 7.14748 5.5043 6.67062L6.2504 7.3743C6.09322 7.65992 6.00381 7.98808 6.00381 8.33713Z" fill="black"/>
</svg>
