<svg width="16" height="16" viewBox="0 0 16 16" fill="none" xmlns="http://www.w3.org/2000/svg">
<path d="M9.49139 6C9.49139 6.55228 9.04368 7 8.49139 7H7.49139C6.93911 7 6.49139 6.55228 6.49139 6V5C6.49139 4.44772 6.93911 4 7.49139 4H8.49139C9.04368 4 9.49139 4.44772 9.49139 5V6ZM5.49139 6V5C5.49139 4.44772 5.04368 4 4.49139 4H3.49139C2.93911 4 2.49139 4.44772 2.49139 5V6C2.49139 6.55228 2.93911 7 3.49139 7H4.49139C5.04368 7 5.49139 6.55228 5.49139 6ZM4.49139 5V6H3.49139L3.49139 5H4.49139ZM4.49139 10V11H3.49139L3.49139 10H4.49139ZM3.49139 9C2.93911 9 2.49139 9.44772 2.49139 10V11C2.49139 11.5523 2.93911 12 3.49139 12H4.49139C5.04368 12 5.49139 11.5523 5.49139 11V10C5.49139 9.44772 5.04368 9 4.49139 9H3.49139ZM7.49139 5V6H8.49139V5H7.49139ZM8.49139 10V11H7.49139V10H8.49139ZM7.49139 9C6.93911 9 6.49139 9.44772 6.49139 10V11C6.49139 11.5523 6.93911 12 7.49139 12H8.49139C9.04368 12 9.49139 11.5523 9.49139 11V10C9.49139 9.44772 9.04368 9 8.49139 9H7.49139ZM11.4914 5V6H12.4914V5H11.4914ZM10.4914 5C10.4914 4.44772 10.9391 4 11.4914 4H12.4914C13.0437 4 13.4914 4.44772 13.4914 5V6C13.4914 6.55228 13.0437 7 12.4914 7H11.4914C10.9391 7 10.4914 6.55228 10.4914 6V5ZM12.4914 10V11H11.4914V10H12.4914ZM11.4914 9C10.9391 9 10.4914 9.44772 10.4914 10V11C10.4914 11.5523 10.9391 12 11.4914 12H12.4914C13.0437 12 13.4914 11.5523 13.4914 11V10C13.4914 9.44772 13.0437 9 12.4914 9H11.4914Z" fill="black"/>
</svg>
