<svg width="16" height="16" viewBox="0 0 16 16" fill="none" xmlns="http://www.w3.org/2000/svg">
<path d="M4.529 5H3.529V11H4.529V5Z" fill="black"/>
<path d="M7.529 5H8.529V11H7.529V5Z" fill="black"/>
<path d="M12.529 5H11.529V11H12.529V5Z" fill="black"/>
<path d="M3 0C1.34315 0 0 1.34315 0 3V13C0 14.6569 1.34315 16 3 16H13C14.6569 16 16 14.6569 16 13V3C16 1.34315 14.6569 0 13 0H3ZM4.529 4C5.08128 4 5.529 4.44772 5.529 5V11C5.529 11.5523 5.08128 12 4.529 12H3.529C2.97671 12 2.529 11.5523 2.529 11V5C2.529 4.44772 2.97671 4 3.529 4H4.529ZM8.529 4C9.08128 4 9.529 4.44772 9.529 5V11C9.529 11.5523 9.08128 12 8.529 12H7.529C6.97671 12 6.529 11.5523 6.529 11V5C6.529 4.44772 6.97671 4 7.529 4H8.529ZM13.529 5V11C13.529 11.5523 13.0813 12 12.529 12H11.529C10.9767 12 10.529 11.5523 10.529 11V5C10.529 4.44772 10.9767 4 11.529 4H12.529C13.0813 4 13.529 4.44772 13.529 5Z" fill="black"/>
</svg>
