<svg width="16" height="16" viewBox="0 0 16 16" fill="none" xmlns="http://www.w3.org/2000/svg">
<path d="M4.49139 5H3.49139V6H4.49139V5Z" fill="black"/>
<path d="M4.49139 10H3.49139V11H4.49139V10Z" fill="black"/>
<path d="M7.49139 10H8.49139V11H7.49139V10Z" fill="black"/>
<path d="M12.4914 10H11.4914V11H12.4914V10Z" fill="black"/>
<path d="M7.49139 5H8.49139V6H7.49139V5Z" fill="black"/>
<path d="M12.4914 5H11.4914V6H12.4914V5Z" fill="black"/>
<path d="M3 0C1.34315 0 0 1.34315 0 3V13C0 14.6569 1.34315 16 3 16H13C14.6569 16 16 14.6569 16 13V3C16 1.34315 14.6569 0 13 0H3ZM5.49139 5V6C5.49139 6.55228 5.04367 7 4.49139 7H3.49139C2.9391 7 2.49139 6.55228 2.49139 6V5C2.49139 4.44772 2.9391 4 3.49139 4H4.49139C5.04367 4 5.49139 4.44772 5.49139 5ZM4.49139 9C5.04367 9 5.49139 9.44772 5.49139 10V11C5.49139 11.5523 5.04367 12 4.49139 12H3.49139C2.9391 12 2.49139 11.5523 2.49139 11V10C2.49139 9.44772 2.9391 9 3.49139 9H4.49139ZM8.49139 9C9.04367 9 9.49139 9.44772 9.49139 10V11C9.49139 11.5523 9.04367 12 8.49139 12H7.49139C6.9391 12 6.49139 11.5523 6.49139 11V10C6.49139 9.44772 6.9391 9 7.49139 9H8.49139ZM13.4914 10V11C13.4914 11.5523 13.0437 12 12.4914 12H11.4914C10.9391 12 10.4914 11.5523 10.4914 11V10C10.4914 9.44772 10.9391 9 11.4914 9H12.4914C13.0437 9 13.4914 9.44772 13.4914 10ZM8.49139 4C9.04367 4 9.49139 4.44772 9.49139 5V6C9.49139 6.55228 9.04367 7 8.49139 7H7.49139C6.9391 7 6.49139 6.55228 6.49139 6V5C6.49139 4.44772 6.9391 4 7.49139 4H8.49139ZM13.4914 5V6C13.4914 6.55228 13.0437 7 12.4914 7H11.4914C10.9391 7 10.4914 6.55228 10.4914 6V5C10.4914 4.44772 10.9391 4 11.4914 4H12.4914C13.0437 4 13.4914 4.44772 13.4914 5Z" fill="black"/>
</svg>
