<svg width="16" height="16" viewBox="0 0 16 16" fill="none" xmlns="http://www.w3.org/2000/svg">
<path d="M8 10.9199C9.61263 10.9199 10.9199 9.61263 10.9199 8C10.9199 6.38737 9.61263 5.08008 8 5.08008C6.38738 5.08008 5.08009 6.38737 5.08009 8C5.08009 9.61263 6.38738 10.9199 8 10.9199Z" fill="black"/>
<path d="M8.72968 0.195517L14.394 3.46584C14.8456 3.72653 15.1237 4.2083 15.1237 4.72968V11.2703C15.1237 11.7917 14.8456 12.2735 14.394 12.5342L8.72968 15.8045C8.27815 16.0652 7.72185 16.0652 7.27032 15.8045L1.60596 12.5342C1.15443 12.2735 0.876282 11.7917 0.876282 11.2703V4.72968C0.876282 4.2083 1.15443 3.72653 1.60596 3.46584L7.27032 0.195517C7.72185 -0.0651723 8.27815 -0.0651723 8.72968 0.195517ZM13.6644 4.72968L8 1.45936L2.33564 4.72968V11.2703L8 14.5406L13.6644 11.2703V4.72968Z" fill="black"/>
</svg>
