<svg width="16" height="16" viewBox="0 0 16 16" fill="none" xmlns="http://www.w3.org/2000/svg">
<path d="M0 2.66667C2.78318e-06 1.74619 3.58172 1 8 1C12.4183 1 16 1.74619 16 2.66667V5C16 5.92048 12.4183 6.66667 8 6.66667C3.58172 6.66667 0 5.92048 0 5V2.66667Z" fill="black"/>
<path d="M8 8.33333C12.4183 8.33333 16 7.58714 16 6.66667V9C16 9.92047 12.4183 10.6667 8 10.6667C3.58172 10.6667 0 9.92047 0 9V6.66667C0 7.58714 3.58172 8.33333 8 8.33333Z" fill="black"/>
<path d="M16 10.6667C16 11.5871 12.4183 12.3333 8 12.3333C3.58172 12.3333 0 11.5871 0 10.6667V13C0 13.9205 3.58172 14.6667 8 14.6667C12.4183 14.6667 16 13.9205 16 13V10.6667Z" fill="black"/>
</svg>
