<svg width="16" height="16" viewBox="0 0 16 16" fill="none" xmlns="http://www.w3.org/2000/svg">
<path d="M12.7693 4.06553L11.9317 3.23015L11.8562 3.16373C11.5466 2.92473 11.0998 2.94748 10.8164 3.23136L6.48336 7.57441C6.38156 7.67639 6.30979 7.80431 6.27589 7.9442L6.0087 9.04679C5.97929 9.16812 5.97929 9.29469 6.0087 9.41602C6.11092 9.83784 6.53661 10.0971 6.95951 9.99517L8.06312 9.72909C8.2045 9.695 8.33365 9.62254 8.43628 9.51973L12.7705 5.17556C13.077 4.86851 13.0764 4.37192 12.7693 4.06553ZM10.4836 4.76045L11.2428 4L12 4.75459L11.243 5.51284L10.4836 4.76045ZM9.77714 5.46816L10.5365 6.22054L7.98438 8.777L6.98664 9.01735L7.22821 8.0214L9.77714 5.46816Z" fill="black"/>
<path d="M7.54545 3C7.79649 3 8 3.20351 8 3.45455C8 3.70558 7.79649 3.90909 7.54545 3.90909H4.21212C4.06568 3.90909 3.9435 4.01296 3.91525 4.15105L3.90909 4.21212V11.7879C3.90909 11.9343 4.01296 12.0565 4.15105 12.0848L4.21212 12.0909H11.7879C11.9343 12.0909 12.0565 11.987 12.0848 11.849L12.0909 11.7879V8.45455C12.0909 8.20351 12.2944 8 12.5455 8C12.7965 8 13 8.20351 13 8.45455V11.7879C13 12.4179 12.5193 12.9357 11.9046 12.9945L11.7879 13H4.21212C3.58206 13 3.06428 12.5193 3.00555 11.9046L3 11.7879V4.21212C3 3.58206 3.48072 3.06428 4.09539 3.00555L4.21212 3H7.54545Z" fill="black"/>
</svg>
