<svg width="16" height="16" viewBox="0 0 16 16" fill="none" xmlns="http://www.w3.org/2000/svg">
<path d="M8 5.93717C6.86942 5.93717 5.95291 6.88213 5.95291 8.04779C5.95291 9.21345 6.86942 10.1584 8 10.1584C9.13058 10.1584 10.0471 9.21345 10.0471 8.04779C10.0471 6.88213 9.13058 5.93717 8 5.93717ZM8 6.97257C8.57595 6.97257 9.04286 7.45396 9.04286 8.04779C9.04286 8.64162 8.57595 9.12301 8 9.12301C7.42405 9.12301 6.95714 8.64162 6.95714 8.04779C6.95714 7.45396 7.42405 6.97257 8 6.97257Z" fill="black"/>
<path d="M8 3.54779C5.81047 3.54779 3.86443 4.98096 2.16715 7.77284L2 8.04779L2.16715 8.32274C3.86443 11.1146 5.81047 12.5478 8 12.5478C10.1895 12.5478 12.1356 11.1146 13.8328 8.32274L14 8.04779L13.8328 7.77284C12.1356 4.98096 10.1895 3.54779 8 3.54779ZM8.17879 4.58726C9.78393 4.66064 11.2811 5.7256 12.6741 7.83643L12.8103 8.04779L12.6741 8.25915C11.2295 10.4482 9.67288 11.5124 8 11.5124L7.82121 11.5083C6.21607 11.4349 4.71892 10.37 3.3259 8.25915L3.18896 8.04779L3.3259 7.83643C4.77051 5.64742 6.32712 4.58319 8 4.58319L8.17879 4.58726Z" fill="black"/>
</svg>
