<svg width="16" height="16" viewBox="0 0 16 16" fill="none" xmlns="http://www.w3.org/2000/svg">
<path d="M13.4856 6.47514C13.4856 6.76447 13.2682 7 13 7L9.50104 7C9.36831 7 9.23338 6.94261 9.1377 6.82784C9.12941 6.81947 9.12167 6.8105 9.11669 6.80213C9.04258 6.71366 9 6.59291 9 6.46378L9 3C9 2.71067 9.21789 2.47514 9.48556 2.47514C9.75322 2.47514 9.97111 2.71007 9.97111 3L9.97111 5.30168L13.1886 2.13699C13.3877 1.94212 13.693 1.95646 13.8733 2.17167C14.0535 2.38687 14.0403 2.71685 13.8412 2.91173L10.7487 5.95028L13 5.95028C13.2677 5.95028 13.4856 6.18581 13.4856 6.47514Z" fill="black"/>
<path d="M7 3C7 2.73178 6.76447 2.51444 6.47514 2.51444C6.18581 2.51444 5.95028 2.73234 5.95028 3L5.95028 5.25133L2.91173 2.15881C2.71685 1.95972 2.38687 1.94645 2.17167 2.12674C1.95646 2.30702 1.94212 2.61229 2.13699 2.81138L5.30168 6.02889L3 6.02889C2.71007 6.02889 2.47514 6.24678 2.47514 6.51444C2.47514 6.78211 2.71067 7 3 7H6.46378C6.59291 7 6.71366 6.95742 6.80213 6.88331C6.8105 6.87833 6.81947 6.87059 6.82784 6.8623C6.94261 6.76662 7 6.63168 7 6.49896V3Z" fill="black"/>
<path d="M3 9C2.73178 9 2.51444 9.23553 2.51444 9.52486C2.51444 9.81419 2.73234 10.0497 3 10.0497H5.25133L2.15881 13.0883C1.95972 13.2832 1.94645 13.6131 2.12674 13.8283C2.30702 14.0435 2.61229 14.0579 2.81138 13.863L6.02889 10.6983V13C6.02889 13.2899 6.24678 13.5249 6.51444 13.5249C6.78211 13.5249 7 13.2893 7 13L7 9.53622C7 9.40709 6.95742 9.28634 6.88331 9.19787C6.87833 9.1895 6.87059 9.18053 6.8623 9.17216C6.76662 9.05739 6.63168 9 6.49896 9L3 9Z" fill="black"/>
<path d="M9 13C9 13.2682 9.23553 13.4856 9.52486 13.4856C9.81419 13.4856 10.0497 13.2677 10.0497 13V10.7487L13.0883 13.8412C13.2832 14.0403 13.6131 14.0535 13.8283 13.8733C14.0435 13.693 14.0579 13.3877 13.863 13.1886L10.6983 9.97111L13 9.97111C13.2899 9.97111 13.5249 9.75322 13.5249 9.48556C13.5249 9.21789 13.2893 9 13 9L9.53622 9C9.40709 9 9.28634 9.04258 9.19787 9.11669C9.1895 9.12167 9.18053 9.12941 9.17216 9.1377C9.05739 9.23338 9 9.36832 9 9.50104L9 13Z" fill="black"/>
</svg>
