<svg width="16" height="16" viewBox="0 0 16 16" fill="none" xmlns="http://www.w3.org/2000/svg">
<path d="M2.52486 6.4961C2.23553 6.4961 2 6.27876 2 6.01054V2.50104C2 2.36832 2.05739 2.23338 2.17216 2.1377C2.18053 2.12941 2.1895 2.12167 2.19787 2.11669C2.28634 2.04258 2.40709 2 2.53622 2H6.32679C6.61612 2 6.85165 2.21789 6.85165 2.48556C6.85165 2.75322 6.61672 2.97111 6.32679 2.97111H3.69832L6.86301 6.18862C7.05788 6.38771 7.04354 6.69298 6.82833 6.87326C6.61313 7.05355 6.28315 7.04028 6.08827 6.84119L3.04972 3.74867V6.01054C3.04972 6.27821 2.81419 6.4961 2.52486 6.4961ZM13.4751 6.49356C13.7645 6.49356 14 6.27632 14 6.00822V2.50027C14 2.3676 13.9426 2.23272 13.8278 2.13764C13.8195 2.1299 13.8105 2.12216 13.8021 2.11664C13.7137 2.04256 13.5929 2 13.4638 2H9.67321C9.38388 2 9.14835 2.2178 9.14835 2.48534C9.14835 2.75289 9.38328 2.97068 9.67321 2.97068H12.3017L9.13699 6.18898C8.94212 6.38798 8.95646 6.69311 9.17167 6.87332C9.38687 7.05353 9.71685 7.04026 9.91173 6.84126L12.9503 3.74734V6.00822C12.9503 6.27576 13.1852 6.49356 13.4751 6.49356ZM2 9.98946C2 9.72124 2.23553 9.5039 2.52486 9.5039C2.81419 9.5039 3.04972 9.72179 3.04972 9.98946V12.2513L6.08827 9.15881C6.28315 8.95972 6.61313 8.94645 6.82833 9.12674C7.04354 9.30702 7.05788 9.61229 6.86301 9.81138L3.69832 13.0289H6.32679C6.61672 13.0289 6.85165 13.2468 6.85165 13.5144C6.85165 13.7821 6.61612 14 6.32679 14H2.53622C2.40709 14 2.28634 13.9574 2.19787 13.8833C2.1895 13.8778 2.18053 13.87 2.17216 13.8623C2.05739 13.7672 2 13.6344 2 13.499V9.98946ZM14 9.98902V13.497C14 13.6324 13.9426 13.7651 13.8278 13.8624C13.8195 13.8701 13.8105 13.8778 13.8021 13.8834C13.7137 13.9574 13.5929 14 13.4638 14H9.67321C9.38388 14 9.14835 13.7822 9.14835 13.5147C9.14835 13.2471 9.38328 13.0293 9.67321 13.0293H12.3017L9.13699 9.81102C8.94212 9.61202 8.95646 9.30689 9.17167 9.12668C9.38687 8.94647 9.71685 8.95974 9.91173 9.15874L12.9503 12.2499V9.98902C12.9503 9.72147 13.1852 9.50368 13.4751 9.50368C13.7645 9.50368 14 9.72092 14 9.98902Z" fill="black"/>
</svg>
