<svg width="16" height="16" viewBox="0 0 16 16" fill="none" xmlns="http://www.w3.org/2000/svg">
<path d="M1 3C1 2.44772 1.44772 2 2 2H14C14.5523 2 15 2.44772 15 3V5C14.4477 5 14 5.44772 14 6C14 6.55228 14.4477 7 15 7V10H1V7C1.55228 7 2 6.55228 2 6C2 5.44772 1.55228 5 1 5V3ZM4 4.5V7.5C4 7.77614 4.22386 8 4.5 8H5.5C5.77614 8 6 7.77614 6 7.5V4.5C6 4.22386 5.77614 4 5.5 4H4.5C4.22386 4 4 4.22386 4 4.5ZM7.5 4C7.22386 4 7 4.22386 7 4.5V7.5C7 7.77614 7.22386 8 7.5 8H8.5C8.77614 8 9 7.77614 9 7.5V4.5C9 4.22386 8.77614 4 8.5 4H7.5ZM10 4.5V7.5C10 7.77614 10.2239 8 10.5 8H11.5C11.7761 8 12 7.77614 12 7.5V4.5C12 4.22386 11.7761 4 11.5 4H10.5C10.2239 4 10 4.22386 10 4.5ZM6 11H7H9H10H12H13H15V12.5V13C15 13.5523 14.5523 14 14 14H13V12.5H12V14H10V12.5H9V14H7V12.5H6V14H4V12.5H3V14H2C1.44772 14 1 13.5523 1 13V12.5V11H3H4H6Z" fill="black"/>
</svg>
