<svg width="16" height="16" viewBox="0 0 16 16" fill="none" xmlns="http://www.w3.org/2000/svg">
<path d="M2 3C2 1.89543 2.89543 1 4 1H8V6C8 6.41202 8.47038 6.64721 8.8 6.4L9.7 5.725C9.87778 5.59167 10.1222 5.59167 10.3 5.725L11.2 6.4C11.5296 6.64721 12 6.41202 12 6V1H13C13.5523 1 14 1.44772 14 2V14C14 14.5523 13.5523 15 13 15H4C2.89543 15 2 14.1046 2 13V3ZM3.43417 12.1754C3.17195 12.3556 3 12.6577 3 13C3 13.5523 3.44772 14 4 14H13V12H4C3.86669 12 3.66228 12.0711 3.43417 12.1754Z" fill="black"/>
<path d="M9 1H11V5L10.9 4.925C10.3667 4.525 9.63333 4.525 9.1 4.925L9 5V1Z" fill="black"/>
</svg>
