<svg width="16" height="16" viewBox="0 0 16 16" fill="none" xmlns="http://www.w3.org/2000/svg">
<path d="M8.5 4.5V7.5H11.5V8.5H8.5V11.5H7.5V8.5H4.5V7.5H7.5V4.5H8.5Z" fill="black"/>
<path d="M1.5 4.5C1.5 2.84315 2.84315 1.5 4.5 1.5H11.5C13.1569 1.5 14.5 2.84315 14.5 4.5V11.5C14.5 13.1569 13.1569 14.5 11.5 14.5H4.5C2.84315 14.5 1.5 13.1569 1.5 11.5V4.5ZM13.5 4.5C13.5 3.39543 12.6046 2.5 11.5 2.5H4.5C3.39543 2.5 2.5 3.39543 2.5 4.5V11.5C2.5 12.6046 3.39543 13.5 4.5 13.5H11.5C12.6046 13.5 13.5 12.6046 13.5 11.5V4.5Z" fill="black"/>
</svg>
