<svg width="16" height="16" viewBox="0 0 16 16" fill="none" xmlns="http://www.w3.org/2000/svg">
<path d="M4.76923 2.5C4.76923 1.9902 5.18251 1.57692 5.69231 1.57692H13.0769C13.5867 1.57692 14 1.9902 14 2.5V10.8077C14 11.3175 13.5867 11.7308 13.0769 11.7308H12.1539V4.34616C12.1539 3.83636 11.7406 3.42308 11.2308 3.42308H4.76923V2.5Z" fill="black"/>
<path d="M2 5.26923C2 4.75943 2.41328 4.34615 2.92308 4.34615H10.3077C10.8175 4.34615 11.2308 4.75943 11.2308 5.26923V13.5769C11.2308 14.0867 10.8175 14.5 10.3077 14.5H2.92308C2.41327 14.5 2 14.0867 2 13.5769V5.26923ZM3.84616 6.19232V7.1154H6.61539V6.19232H3.84616ZM9.38462 9.88463V8.96155H3.84616V9.88463H9.38462ZM9.38462 11.7308H3.84616V12.6539H9.38462V11.7308Z" fill="black"/>
</svg>
