<svg width="16" height="16" viewBox="0 0 16 16" fill="none" xmlns="http://www.w3.org/2000/svg">
<path d="M8 1C7.44772 1 7 1.44772 7 2V6C7 6.55228 7.44772 7 8 7C8.55228 7 9 6.55228 9 6V2C9 1.44772 8.55228 1 8 1Z" fill="black"/>
<path d="M2 8.00002C2 5.38758 3.66962 3.1651 6 2.34143V4.53515C4.8044 5.22677 4 6.51945 4 8.00002C4 10.2092 5.79086 12 8 12C10.2091 12 12 10.2092 12 8.00002C12 6.51945 11.1956 5.22677 10 4.53515V2.34143C12.3304 3.1651 14 5.38758 14 8.00002C14 11.3137 11.3137 14 8 14C4.68629 14 2 11.3137 2 8.00002Z" fill="black"/>
</svg>
