<svg width="16" height="16" viewBox="0 0 16 16" fill="none" xmlns="http://www.w3.org/2000/svg">
<path d="M2.13333 3.19999C2.13333 2.31634 2.84968 1.59999 3.73333 1.59999H12.2667C13.1503 1.59999 13.8667 2.31634 13.8667 3.19999V12.8C13.8667 13.6836 13.1503 14.4 12.2667 14.4H3.73333C2.84968 14.4 2.13333 13.6836 2.13333 12.8V3.19999ZM4.76665 4.26669C4.4905 4.26669 4.26665 4.49055 4.26665 4.76669V5.36669C4.26665 5.64283 4.4905 5.86669 4.76665 5.86669H11.2333C11.5095 5.86669 11.7333 5.64283 11.7333 5.36669V4.76669C11.7333 4.49055 11.5095 4.26669 11.2333 4.26669H4.76665ZM4.26665 7.70006V8.30006C4.26665 8.5762 4.4905 8.80006 4.76665 8.80006H11.2333C11.5095 8.80006 11.7333 8.5762 11.7333 8.30006V7.70006C11.7333 7.42392 11.5095 7.20006 11.2333 7.20006H4.76665C4.4905 7.20006 4.26665 7.42392 4.26665 7.70006ZM4.76665 10.1334C4.4905 10.1334 4.26665 10.3572 4.26665 10.6334V11.2334C4.26665 11.5095 4.4905 11.7334 4.76665 11.7334H7.49998C7.77612 11.7334 7.99998 11.5095 7.99998 11.2334V10.6334C7.99998 10.3572 7.77612 10.1334 7.49998 10.1334H4.76665Z" fill="black"/>
</svg>
