<svg width="16" height="16" viewBox="0 0 16 16" fill="none" xmlns="http://www.w3.org/2000/svg">
<path d="M8 10C9.10457 10 10 9.10457 10 8C10 6.89543 9.10457 6 8 6C6.89543 6 6 6.89543 6 8C6 9.10457 6.89543 10 8 10Z" fill="black"/>
<path d="M14.4228 7.06218C14.7801 7.68098 14.7801 8.44338 14.4228 9.06218L12.0775 13.1244C11.7203 13.7432 11.06 14.1244 10.3455 14.1244H5.65487C4.94034 14.1244 4.28008 13.7432 3.92282 13.1244L1.57752 9.06218C1.22025 8.44338 1.22025 7.68098 1.57752 7.06218L3.92282 3C4.28009 2.3812 4.94034 2 5.65487 2H10.3455C11.06 2 11.7203 2.3812 12.0775 3L14.4228 7.06218ZM11.0002 8C11.0002 6.34315 9.65702 5 8.00017 5C6.34331 5 5.00017 6.34315 5.00017 8C5.00017 9.65685 6.34331 11 8.00017 11C9.65702 11 11.0002 9.65685 11.0002 8Z" fill="black"/>
</svg>
