<svg width="16" height="16" viewBox="0 0 16 16" fill="none" xmlns="http://www.w3.org/2000/svg">
<path d="M4 1C2.34315 1 1 2.34315 1 4V12C1 13.6569 2.34315 15 4 15H12C13.6569 15 15 13.6569 15 12V11H13V12C13 12.5523 12.5523 13 12 13H4C3.44772 13 3 12.5523 3 12V4C3 3.44772 3.44772 3 4 3H12C12.5523 3 13 3.44772 13 4V5H15V4C15 2.34315 13.6569 1 12 1H4Z" fill="black"/>
<path d="M11 5.88322C11 5.49457 11.424 5.25451 11.7573 5.45447L15.2855 7.57138C15.6091 7.76558 15.6091 8.23467 15.2855 8.42887L11.7573 10.5458C11.424 10.7457 11 10.5057 11 10.117V9.00004H5.5C4.94772 9.00004 4.5 8.55232 4.5 8.00004C4.5 7.44775 4.94772 7.00004 5.5 7.00004H11V5.88322Z" fill="black"/>
</svg>
