<svg width="15" height="15" viewBox="0 0 15 15" fill="none" xmlns="http://www.w3.org/2000/svg">
<path d="M5 2C5 1.44772 5.44772 1 6 1H9C9.55228 1 10 1.44772 10 2H12C12.5523 2 13 2.44772 13 3V13C13 13.5523 12.5523 14 12 14H3C2.44771 14 2 13.5523 2 13V3C2 2.44772 2.44772 2 3 2H5ZM8.14235 8.82071C8.26663 8.93849 8.32877 9.09797 8.32877 9.29916C8.32877 9.49299 8.25988 9.64756 8.12209 9.76288C7.9843 9.87574 7.79652 9.93218 7.55876 9.93218C7.27237 9.93218 7.05218 9.85489 6.89818 9.70032C6.74688 9.54329 6.67123 9.31879 6.67123 9.02681H5.5C5.5 9.52979 5.6513 9.9334 5.9539 10.2376C6.2592 10.5394 6.68879 10.7173 7.24265 10.7713V11.5H7.88703V10.7676C8.38956 10.721 8.78403 10.5676 9.07042 10.3076C9.35681 10.0475 9.5 9.7089 9.5 9.2918C9.5 9.06852 9.46218 8.87347 9.38653 8.70662C9.31087 8.53733 9.20145 8.38766 9.05826 8.25762C8.91506 8.12513 8.73945 8.00736 8.53141 7.90431C8.32337 7.79881 8.05724 7.68717 7.73303 7.5694C7.41152 7.45163 7.19132 7.33631 7.07244 7.22345C6.95356 7.11059 6.89412 6.96092 6.89412 6.77445C6.89412 6.57326 6.95491 6.41623 7.07649 6.30336C7.19808 6.18805 7.36964 6.13039 7.59119 6.13039C7.81543 6.13039 7.99375 6.204 8.12614 6.35121C8.26123 6.49597 8.32877 6.71556 8.32877 7.00999H9.5C9.5 6.53155 9.36491 6.14266 9.09473 5.84332C8.82455 5.54154 8.45035 5.35997 7.97214 5.29863V4.5H7.32371V5.28759C6.84009 5.33176 6.45238 5.48633 6.16059 5.75131C5.86879 6.0163 5.7229 6.35612 5.7229 6.77077C5.7229 7.01122 5.76478 7.21854 5.84853 7.39274C5.93499 7.56695 6.05387 7.71907 6.20517 7.84911C6.35917 7.97669 6.54289 8.09078 6.75633 8.19138C6.96977 8.28952 7.22374 8.38889 7.51824 8.48948C7.81273 8.59008 8.02077 8.70049 8.14235 8.82071Z" fill="black"/>
</svg>
