<svg width="16" height="16" viewBox="0 0 16 16" fill="none" xmlns="http://www.w3.org/2000/svg">
<path d="M6.29775 6.4868C5.9832 6.66652 5.61898 6.76923 5.23077 6.76923C5.05865 6.76923 4.89124 6.74903 4.73079 6.71089L3.68349 9.43387C4.41592 9.77773 4.92308 10.5219 4.92308 11.3846C4.92308 12.5741 3.95877 13.5385 2.76923 13.5385C1.5797 13.5385 0.615387 12.5741 0.615387 11.3846C0.615387 10.1951 1.5797 9.23076 2.76923 9.23076C2.87927 9.23076 2.98738 9.23902 3.09298 9.25493L4.15876 6.48391C3.51227 6.1122 3.07693 5.41463 3.07693 4.61538C3.07693 3.42584 4.04124 2.46153 5.23077 2.46153C6.42031 2.46153 7.38462 3.42584 7.38462 4.61538C7.38462 5.19484 7.15579 5.72086 6.78356 6.10799L9.70229 9.51317C10.0168 9.33346 10.381 9.23076 10.7692 9.23076C10.9801 9.23076 11.184 9.26108 11.3766 9.31758L12.4178 6.6105C11.6312 6.28967 11.0769 5.51726 11.0769 4.61538C11.0769 3.42584 12.0412 2.46153 13.2308 2.46153C14.4203 2.46153 15.3846 3.42584 15.3846 4.61538C15.3846 5.80492 14.4203 6.76923 13.2308 6.76923C13.1596 6.76923 13.0893 6.76578 13.02 6.75904L11.9371 9.57455C12.5304 9.95815 12.9231 10.6255 12.9231 11.3846C12.9231 12.5741 11.9588 13.5385 10.7692 13.5385C9.5797 13.5385 8.61539 12.5741 8.61539 11.3846C8.61539 10.8051 8.84422 10.2791 9.21646 9.89197L6.29775 6.4868ZM6.15385 4.61538C6.15385 4.10558 5.74057 3.6923 5.23077 3.6923C4.72097 3.6923 4.30769 4.10558 4.30769 4.61538C4.30769 5.12518 4.72097 5.53846 5.23077 5.53846C5.74057 5.53846 6.15385 5.12518 6.15385 4.61538ZM2.76923 12.3077C3.27903 12.3077 3.69231 11.8944 3.69231 11.3846C3.69231 10.8748 3.27903 10.4615 2.76923 10.4615C2.25943 10.4615 1.84616 10.8748 1.84616 11.3846C1.84616 11.8944 2.25943 12.3077 2.76923 12.3077ZM10.7692 12.3077C11.279 12.3077 11.6923 11.8944 11.6923 11.3846C11.6923 10.8748 11.279 10.4615 10.7692 10.4615C10.2594 10.4615 9.84616 10.8748 9.84616 11.3846C9.84616 11.8944 10.2594 12.3077 10.7692 12.3077ZM14.1538 4.61538C14.1538 4.10558 13.7406 3.6923 13.2308 3.6923C12.721 3.6923 12.3077 4.10558 12.3077 4.61538C12.3077 5.12518 12.721 5.53846 13.2308 5.53846C13.7406 5.53846 14.1538 5.12518 14.1538 4.61538Z" fill="black"/>
</svg>
