<svg width="16" height="16" viewBox="0 0 16 16" fill="none" xmlns="http://www.w3.org/2000/svg">
<path d="M7.5 5.91657C7.17027 5.93309 6.91683 5.98947 6.74839 6.07807C6.65197 6.12879 6.59602 6.18345 6.56231 6.23722C6.52955 6.28949 6.49999 6.3691 6.49999 6.5C6.49999 6.68212 6.54167 6.79385 6.59101 6.8697C6.64241 6.94873 6.72512 7.02381 6.85889 7.09462C7.0308 7.18561 7.24525 7.25005 7.5 7.30661V5.91657Z" fill="black"/>
<path d="M8.5 8.51629V9.90636C8.82972 9.88983 9.08315 9.83345 9.25158 9.74484C9.34801 9.69412 9.40396 9.63945 9.43767 9.58568C9.47043 9.5334 9.49999 9.45379 9.49999 9.32289C9.49999 9.14077 9.45831 9.02904 9.40897 8.95319C9.35757 8.87416 9.27486 8.79908 9.14109 8.72828C8.96919 8.63729 8.75474 8.57285 8.5 8.51629Z" fill="black"/>
<path d="M2 2C2 1.44772 2.44772 1 3 1H13C13.5523 1 14 1.44772 14 2V14C14 14.5523 13.5523 15 13 15H3C2.44772 15 2 14.5523 2 14V2ZM8.5 4.95774V4H7.5V4.91552C7.07205 4.93241 6.63927 5.00556 6.28284 5.19305C6.06156 5.30945 5.85969 5.47529 5.71501 5.70611C5.56939 5.93842 5.49999 6.20747 5.49999 6.5C5.49999 6.84718 5.58331 7.15447 5.75272 7.41494C5.92007 7.67223 6.14986 7.85077 6.39109 7.97845C6.72379 8.15455 7.12379 8.25474 7.5 8.32853V9.85882C6.81122 9.77542 6.11104 9.60923 5.62791 9.48137L5.37207 10.4481C5.8834 10.5834 6.69031 10.7775 7.5 10.8652V12H8.5V10.9074C8.92795 10.8905 9.36073 10.8174 9.71715 10.6299C9.93843 10.5134 10.1403 10.3476 10.285 10.1168C10.4306 9.88448 10.5 9.61543 10.5 9.32289C10.5 8.97572 10.4167 8.66842 10.2473 8.40795C10.0799 8.15066 9.85012 7.97212 9.60889 7.84444C9.27619 7.66835 8.87621 7.56816 8.5 7.49437V5.96414C9.18877 6.04755 9.88894 6.21375 10.3721 6.34161L10.6279 5.37489C10.1166 5.23957 9.30969 5.04552 8.5 4.95774Z" fill="black"/>
</svg>
