<svg width="16" height="16" viewBox="0 0 16 16" fill="none" xmlns="http://www.w3.org/2000/svg">
<path d="M8.00002 9.44902C8.7736 9.44902 9.40071 8.82191 9.40071 8.04833C9.40071 7.27474 8.7736 6.64763 8.00002 6.64763C7.22643 6.64763 6.59932 7.27474 6.59932 8.04833C6.59932 8.82191 7.22643 9.44902 8.00002 9.44902Z" fill="black"/>
<path d="M7.11203 1.35855C7.48501 0.63846 8.51495 0.638459 8.88793 1.35855L9.37329 2.29559C9.61249 2.75739 10.1657 2.95875 10.6458 2.75875L11.6199 2.35292C12.3685 2.04105 13.1575 2.70308 12.9804 3.49445L12.7499 4.52425C12.6363 5.03176 12.9306 5.54164 13.4269 5.69701L14.434 6.01228C15.208 6.25456 15.3868 7.26885 14.7424 7.76121L13.9039 8.40191C13.4906 8.71767 13.3884 9.29747 13.6687 9.73553L14.2376 10.6244C14.6747 11.3074 14.1597 12.1994 13.3496 12.1624L12.2954 12.1142C11.7759 12.0904 11.3249 12.4689 11.2581 12.9846L11.1225 14.0312C11.0182 14.8354 10.0504 15.1877 9.45365 14.6386L8.67707 13.924C8.29435 13.5719 7.7056 13.5719 7.32288 13.924L6.54631 14.6386C5.94953 15.1877 4.98171 14.8354 4.8775 14.0312L4.7419 12.9846C4.67507 12.4689 4.22406 12.0904 3.70453 12.1142L2.65035 12.1624C1.84024 12.1994 1.32527 11.3074 1.76239 10.6244L2.33121 9.73553C2.61155 9.29747 2.50931 8.71767 2.09606 8.40191L1.25754 7.76121C0.613159 7.26885 0.792005 6.25456 1.56592 6.01228L2.57301 5.69701C3.06933 5.54164 3.36371 5.03176 3.2501 4.52425L3.01959 3.49445C2.84245 2.70308 3.63143 2.04105 4.38002 2.35292L5.35414 2.75875C5.83422 2.95875 6.38747 2.75739 6.62667 2.29559L7.11203 1.35855ZM10.8014 8.04838C10.8014 6.50121 9.54716 5.24699 7.99999 5.24699C6.45283 5.24699 5.1986 6.50121 5.1986 8.04838C5.1986 9.59554 6.45283 10.8498 7.99999 10.8498C9.54716 10.8498 10.8014 9.59554 10.8014 8.04838Z" fill="black"/>
</svg>
