<svg width="16" height="16" viewBox="0 0 16 16" fill="none" xmlns="http://www.w3.org/2000/svg">
<path d="M4.36073 5.28853C4.49877 4.97796 4.86244 4.83809 5.17301 4.97612L7.63455 6.07014C7.84775 6.16489 7.98903 6.37207 7.9994 6.60514C8.00976 6.83822 7.88742 7.05712 7.68348 7.17042L5.22194 8.53795C4.92484 8.703 4.55019 8.59596 4.38514 8.29886C4.22008 8.00176 4.32713 7.62711 4.62422 7.46206L6.00722 6.69373L4.67315 6.10081C4.36257 5.96278 4.2227 5.59911 4.36073 5.28853Z" fill="black"/>
<path d="M8.61538 9.53846C8.27552 9.53846 8 9.81398 8 10.1538C8 10.4937 8.27552 10.7692 8.61538 10.7692H11.0769C11.4168 10.7692 11.6923 10.4937 11.6923 10.1538C11.6923 9.81398 11.4168 9.53846 11.0769 9.53846H8.61538Z" fill="black"/>
<path d="M3.07693 1.84616C2.05733 1.84616 1.23077 2.67271 1.23077 3.69231V12.3077C1.23077 13.3273 2.05733 14.1539 3.07693 14.1539H12.9231C13.9427 14.1539 14.7692 13.3273 14.7692 12.3077V3.69231C14.7692 2.67271 13.9427 1.84616 12.9231 1.84616H3.07693ZM13.2308 3.38462V12.6154H2.76924L2.76924 3.38462H13.2308Z" fill="black"/>
</svg>
