<svg width="16" height="16" viewBox="0 0 16 16" fill="none" xmlns="http://www.w3.org/2000/svg">
<path d="M8 1C4.13401 1 1 4.13401 1 8C1 11.866 4.13401 15 8 15C11.866 15 15 11.866 15 8C15 4.13401 11.866 1 8 1ZM9.85703 2.88047C11.9496 3.63966 13.4445 5.64526 13.4445 8C13.4445 9.71256 12.6537 11.2404 11.4175 12.2385L11.8424 9.17197C11.906 8.71273 11.5672 8.29574 11.1046 8.26405L7.95352 8.04815C7.64378 8.02693 7.47524 7.67628 7.65217 7.42115L8.38078 6.37048C8.70373 5.90476 8.9634 5.39822 9.15297 4.86413L9.85703 2.88047ZM3.73806 4.61177L4.30351 6.02429C4.42162 6.31934 4.62493 6.57254 4.88751 6.75159L6.39222 7.77763C6.60176 7.92052 6.74919 8.13768 6.80465 8.38516L7.38512 10.9754C7.43622 11.2034 7.53664 11.4175 7.67933 11.6025L9.02524 13.3481C8.6932 13.4113 8.35047 13.4444 8.00001 13.4444C4.99312 13.4444 2.55556 11.0069 2.55556 8C2.55556 6.71915 2.99786 5.54161 3.73806 4.61177Z" fill="black"/>
</svg>
