<svg width="15" height="15" viewBox="0 0 15 15" fill="none" xmlns="http://www.w3.org/2000/svg">
<path d="M4 1C2.89543 1 2 1.89543 2 3V12.5723C2 13.2663 2.68956 13.7493 3.34174 13.5121L7.15826 12.1243C7.37901 12.044 7.62099 12.044 7.84174 12.1243L11.6583 13.5121C12.3104 13.7493 13 13.2663 13 12.5723V3C13 1.89543 12.1046 1 11 1H4ZM7.5 4C7.77614 4 8 4.22386 8 4.5V6H9.5C9.77614 6 10 6.22386 10 6.5C10 6.77614 9.77614 7 9.5 7H8V8.5C8 8.77614 7.77614 9 7.5 9C7.22386 9 7 8.77614 7 8.5V7H5.5C5.22386 7 5 6.77614 5 6.5C5 6.22386 5.22386 6 5.5 6H7V4.5C7 4.22386 7.22386 4 7.5 4Z" fill="black"/>
</svg>
