<svg width="24" height="25" viewBox="0 0 24 25" fill="none" xmlns="http://www.w3.org/2000/svg">
<path d="M3 5.17578C3 4.64535 3.21071 4.13664 3.58579 3.76157C3.96086 3.38649 4.46957 3.17578 5 3.17578H19C19.5304 3.17578 20.0391 3.38649 20.4142 3.76157C20.7893 4.13664 21 4.64535 21 5.17578V19.1758C21 19.7062 20.7893 20.2149 20.4142 20.59C20.0391 20.9651 19.5304 21.1758 19 21.1758H5C3.89 21.1758 3 20.2758 3 19.1758V5.17578ZM6 6.17578V18.1758H10V16.1758H8V8.17578H10V6.17578H6ZM16 16.1758H14V18.1758H18V6.17578H14V8.17578H16V16.1758Z" fill="#757575"/>
</svg>
