<svg width="16" height="16" viewBox="0 0 16 16" fill="none" xmlns="http://www.w3.org/2000/svg">
<path d="M6 1C5.44772 1 5 1.44772 5 2V3C5 3.55228 5.44772 4 6 4H10C10.5523 4 11 3.55228 11 3V2C11 1.44772 10.5523 1 10 1H6Z" fill="black"/>
<path d="M3 2H4V3.6C4 4.3732 4.6268 5 5.4 5H10.6C11.3732 5 12 4.3732 12 3.6V2H13C13.5523 2 14 2.44772 14 3V14C14 14.5523 13.5523 15 13 15H3C2.44772 15 2 14.5523 2 14V3C2 2.44772 2.44772 2 3 2ZM5 7C4.72386 7 4.5 7.22386 4.5 7.5C4.5 7.77614 4.72386 8 5 8H11C11.2761 8 11.5 7.77614 11.5 7.5C11.5 7.22386 11.2761 7 11 7H5ZM4.5 9.5C4.5 9.77614 4.72386 10 5 10H11C11.2761 10 11.5 9.77614 11.5 9.5C11.5 9.22386 11.2761 9 11 9H5C4.72386 9 4.5 9.22386 4.5 9.5ZM5 11C4.72386 11 4.5 11.2239 4.5 11.5C4.5 11.7761 4.72386 12 5 12H11C11.2761 12 11.5 11.7761 11.5 11.5C11.5 11.2239 11.2761 11 11 11H5Z" fill="black"/>
</svg>
