<svg width="16" height="16" viewBox="0 0 16 16" fill="none" xmlns="http://www.w3.org/2000/svg">
<path d="M2 3C2 2.44772 2.44772 2 3 2H13C13.5523 2 14 2.44772 14 3V9.37509C13.8147 9.1437 13.5305 9 13.2192 9H2.78078C2.46951 9 2.18535 9.1437 2 9.37509V3ZM3 10C2.44772 10 2 10.4477 2 11V13C2 13.5523 2.44772 14 3 14H13C13.5523 14 14 13.5523 14 13V11C14 10.4477 13.5523 10 13 10H3ZM5 13H4V11H5V13ZM7 11V13H6V11H7ZM9 13H8V11H9V13ZM11 12C11 11.7239 11.2239 11.5 11.5 11.5C11.7761 11.5 12 11.7239 12 12C12 12.2761 11.7761 12.5 11.5 12.5C11.2239 12.5 11 12.2761 11 12Z" fill="black"/>
</svg>
