<svg width="16" height="16" viewBox="0 0 16 16" fill="none" xmlns="http://www.w3.org/2000/svg">
<path d="M5.64025 9.03436C5.32783 9.34678 5.32783 9.85331 5.64025 10.1657C5.95267 10.4782 6.4592 10.4782 6.77162 10.1657L10.1657 6.77162C10.4782 6.4592 10.4782 5.95267 10.1657 5.64025C9.85331 5.32783 9.34678 5.32783 9.03436 5.64025L5.64025 9.03436Z" fill="black"/>
<path d="M2.24614 13.5598C0.89232 12.206 0.89232 10.0111 2.24614 8.65724L3.37751 7.52587C4.25084 6.65254 5.47421 6.34258 6.596 6.596C6.34258 5.47421 6.65254 4.25084 7.52587 3.37751L8.65724 2.24614C10.0111 0.892319 12.206 0.89232 13.5598 2.24614C14.9137 3.59995 14.9137 5.79493 13.5598 7.14874L12.4285 8.28012C11.5551 9.15345 10.3318 9.4634 9.20998 9.20998C9.4634 10.3318 9.15345 11.5551 8.28012 12.4285L7.14874 13.5598C5.79493 14.9137 3.59995 14.9137 2.24614 13.5598ZM3.37751 9.78861C2.64853 10.5176 2.64853 11.6995 3.37751 12.4285C4.10649 13.1575 5.28839 13.1575 6.01737 12.4285L7.14874 11.2971C7.50839 10.9375 7.6906 10.4676 7.69538 9.99622L9.99622 7.69538C10.4676 7.6906 10.9375 7.50839 11.2971 7.14874L12.4285 6.01737C13.1575 5.28839 13.1575 4.10649 12.4285 3.37751C11.6995 2.64853 10.5176 2.64853 9.78861 3.37751L8.65724 4.50888C8.29759 4.86852 8.11538 5.33841 8.1106 5.80976L5.80976 8.1106C5.33841 8.11538 4.86852 8.29759 4.50888 8.65724L3.37751 9.78861Z" fill="black"/>
</svg>
