<svg width="16" height="16" viewBox="0 0 16 16" fill="none" xmlns="http://www.w3.org/2000/svg">
<path d="M8.37383 2.41523C9.54292 1.24614 11.3305 1.07247 12.6833 1.89422L10.1496 4.42788L10.268 5.49336L11.3335 5.61175L13.8672 3.07811C14.6888 4.43093 14.5152 6.21843 13.3461 7.38749C12.284 8.44957 10.7115 8.69011 9.41822 8.10913L8.82901 8.83698L9.29715 9.30512L9.09703 9.50524C9.57823 9.03176 10.3521 9.03414 10.8304 9.51239L13.0676 11.7496C13.5483 12.2303 13.5483 13.0096 13.0676 13.4902L12.8193 13.7385C12.3387 14.2192 11.5594 14.2192 11.0787 13.7385L8.84149 11.5013C8.36324 11.023 8.36086 10.2491 8.83434 9.76793L8.63418 9.96809L8.23582 9.56973L5.57181 12.8606C4.86237 13.7369 3.55008 13.8058 2.7528 13.0085C1.95552 12.2113 2.0244 10.899 2.90076 10.1895L6.19161 7.52552L3.66192 4.99583L4.32489 4.33286L6.92436 6.93233L7.65221 6.34312C7.07121 5.04983 7.31175 3.47731 8.37383 2.41523ZM4.41023 12.0141C4.5933 11.831 4.5933 11.5342 4.41023 11.3511C4.22715 11.168 3.93033 11.168 3.74726 11.3511C3.56418 11.5342 3.56418 11.831 3.74726 12.0141C3.93033 12.1971 4.22715 12.1971 4.41023 12.0141Z" fill="black"/>
<path d="M2.99895 3.00684L2.33598 3.66981L3.16469 4.83001L3.66192 4.99583L4.32489 4.33286L4.15914 3.83555L2.99895 3.00684Z" fill="black"/>
</svg>
