<svg width="16" height="16" viewBox="0 0 16 16" fill="none" xmlns="http://www.w3.org/2000/svg">
<path d="M4 1C2.34315 1 1 2.34315 1 4V10C1 11.6569 2.34315 13 4 13L4 15L7.33333 13H12C13.6569 13 15 11.6569 15 10V4C15 2.34315 13.6569 1 12 1H4ZM4.5 5H11.5C11.7761 5 12 5.22386 12 5.5C12 5.77614 11.7761 6 11.5 6H4.5C4.22386 6 4 5.77614 4 5.5C4 5.22386 4.22386 5 4.5 5ZM4 8.5C4 8.22386 4.22386 8 4.5 8H11.5C11.7761 8 12 8.22386 12 8.5C12 8.77614 11.7761 9 11.5 9H4.5C4.22386 9 4 8.77614 4 8.5Z" fill="black"/>
</svg>
