<svg width="16" height="16" viewBox="0 0 16 16" fill="none" xmlns="http://www.w3.org/2000/svg">
<path d="M11.0769 4.9231C11.0769 6.62244 9.69932 8.00002 7.99998 8.00002C6.30064 8.00002 4.92306 6.62244 4.92306 4.9231C4.92306 3.22376 6.30064 1.84618 7.99998 1.84618C9.69932 1.84618 11.0769 3.22376 11.0769 4.9231Z" fill="black"/>
<path d="M7.99998 9.2308C9.29848 9.2308 10.4628 8.65627 11.2526 7.74754C12.6378 8.75427 13.5384 10.3874 13.5384 12.2308C13.5384 12.9955 12.9185 13.6154 12.1538 13.6154H3.84613C3.08143 13.6154 2.46152 12.9955 2.46152 12.2308C2.46152 10.3874 3.36214 8.75427 4.74739 7.74754C5.53717 8.65627 6.70148 9.2308 7.99998 9.2308Z" fill="black"/>
</svg>
