<svg width="16" height="16" viewBox="0 0 16 16" fill="none" xmlns="http://www.w3.org/2000/svg">
<path d="M7.38464 4.92308H8.61541V7.49017L9.80295 8.67771L8.93266 9.54799L7.38467 8L7.38464 4.92308Z" fill="black"/>
<path d="M1.84613 3.23078C1.84613 2.12621 2.74156 1.23077 3.84613 1.23077H9.84613L14.1538 5.23077V12.7692C14.1538 13.8738 13.2584 14.7692 12.1538 14.7692H3.84613C2.74156 14.7692 1.84613 13.8738 1.84613 12.7692V3.23078ZM11.6923 8C11.6923 5.96079 10.0392 4.30769 8 4.30769C5.96079 4.30769 4.30769 5.96079 4.30769 8C4.30769 10.0392 5.96079 11.6923 8 11.6923C10.0392 11.6923 11.6923 10.0392 11.6923 8Z" fill="black"/>
</svg>
