<svg width="16" height="16" viewBox="0 0 16 16" fill="none" xmlns="http://www.w3.org/2000/svg">
<path d="M8 15C11.866 15 15 11.866 15 8C15 4.13401 11.866 1 8 1C4.13401 1 1 4.13401 1 8C1 11.866 4.13401 15 8 15ZM10.937 13.2333C10.0688 13.7215 9.06694 14 8 14C6.93307 14 5.93119 13.7215 5.06307 13.2333L6.56244 11.7339C7.00858 11.9058 7.49329 12 8 12C8.50673 12 8.99144 11.9058 9.43759 11.7339L10.937 13.2333ZM13.2333 10.9369L11.7339 9.43757C11.9058 8.99143 12 8.50672 12 8C12 7.49329 11.9058 7.00858 11.7339 6.56244L13.2333 5.06307C13.7215 5.93119 14 6.93307 14 8C14 9.06693 13.7215 10.0688 13.2333 10.9369ZM10.937 2.76674L9.4376 4.26611C8.99145 4.09423 8.50673 4 8 4C7.49328 4 7.00857 4.09422 6.56243 4.2661L5.06306 2.76673C5.93118 2.27848 6.93307 2 8 2C9.06695 2 10.0688 2.27849 10.937 2.76674ZM2.76674 5.06304L4.26611 6.56241C4.09422 7.00855 4 7.49327 4 8C4 8.50673 4.09423 8.99146 4.26611 9.43761L2.76674 10.937C2.27849 10.0688 2 9.06695 2 8C2 6.93306 2.27849 5.93116 2.76674 5.06304ZM8 11C6.34315 11 5 9.65685 5 8C5 6.34315 6.34315 5 8 5C9.65685 5 11 6.34315 11 8C11 9.65685 9.65685 11 8 11Z" fill="black"/>
</svg>
