<svg width="16" height="16" viewBox="0 0 16 16" fill="none" xmlns="http://www.w3.org/2000/svg">
<path d="M11.7071 2.09132C11.3166 1.7008 10.6834 1.7008 10.2929 2.09132L8.14921 4.235C7.75869 4.62553 7.75869 5.25869 8.14921 5.64922L10.2929 7.7929C10.6834 8.18342 11.3166 8.18342 11.7071 7.7929L13.8508 5.64922C14.2413 5.25869 14.2413 4.62553 13.8508 4.235L11.7071 2.09132Z" fill="black"/>
<path d="M3 3C2.44772 3 2 3.44772 2 4V7C2 7.55229 2.44772 8 3 8H6C6.55228 8 7 7.55229 7 7V4C7 3.44772 6.55228 3 6 3H3Z" fill="black"/>
<path d="M3 9C2.44772 9 2 9.44772 2 10V13C2 13.5523 2.44772 14 3 14H6C6.55228 14 7 13.5523 7 13V10C7 9.44772 6.55228 9 6 9H3Z" fill="black"/>
<path d="M8 10C8 9.44772 8.44772 9 9 9H12C12.5523 9 13 9.44772 13 10V13C13 13.5523 12.5523 14 12 14H9C8.44772 14 8 13.5523 8 13V10Z" fill="black"/>
</svg>
