<svg width="16" height="16" viewBox="0 0 16 16" fill="none" xmlns="http://www.w3.org/2000/svg">
<path d="M7.00002 7.00001C8.69936 7.00001 10.0769 5.62242 10.0769 3.92308C10.0769 2.22375 8.69936 0.846161 7.00002 0.846161C5.30068 0.846161 3.9231 2.22375 3.9231 3.92308C3.9231 5.62242 5.30068 7.00001 7.00002 7.00001ZM10.2526 6.74754C9.46282 7.65627 8.29851 8.2308 7.00001 8.2308C5.70151 8.2308 4.5372 7.65627 3.74742 6.74754C2.36217 7.75427 1.46155 9.38736 1.46155 11.2308C1.46155 11.9955 2.08146 12.6154 2.84616 12.6154H8.00059C7.98808 12.1261 8.182 11.6298 8.61891 11.2868C8.01252 10.0519 9.15716 8.6166 10.496 8.933C10.7147 8.46991 11.1063 8.17921 11.5422 8.06088C11.1883 7.55471 10.7519 7.11043 10.2526 6.74754ZM11.3463 9.50908C11.5178 8.83029 12.4822 8.83029 12.6537 9.50908C12.7567 9.9165 13.2032 10.1315 13.5859 9.95799C14.2236 9.66887 14.8249 10.4229 14.4011 10.9802C14.1468 11.3147 14.2571 11.7979 14.6314 11.9889C15.255 12.3072 15.0403 13.2474 14.3404 13.2636C13.9203 13.2733 13.6113 13.6608 13.6953 14.0725C13.8353 14.7585 12.9664 15.177 12.5173 14.6398C12.2478 14.3174 11.7522 14.3174 11.4827 14.6398C11.0336 15.177 10.1647 14.7585 10.3047 14.0725C10.3887 13.6608 10.0797 13.2733 9.65961 13.2636C8.95967 13.2474 8.74507 12.3072 9.36867 11.9889C9.74297 11.7979 9.85325 11.3147 9.5989 10.9802C9.17515 10.4229 9.77646 9.66887 10.4141 9.95799C10.7968 10.1315 11.2433 9.9165 11.3463 9.50908ZM12.8562 12.0589C12.8562 11.5861 12.4728 11.2027 12 11.2027C11.5272 11.2027 11.1438 11.5861 11.1438 12.0589C11.1438 12.5317 11.5272 12.9151 12 12.9151C12.4728 12.9151 12.8562 12.5317 12.8562 12.0589Z" fill="black"/>
</svg>
