<svg width="16" height="16" viewBox="0 0 16 16" fill="none" xmlns="http://www.w3.org/2000/svg">
<path d="M2.74703 9.29463C2.74703 6.35582 5.1065 3.98732 8 3.98732C10.8935 3.98732 13.253 6.35582 13.253 9.29463C13.253 10.3577 12.9443 11.3462 12.4127 12.1754C12.1364 12.6064 12.1525 13.1895 12.5291 13.5363C12.9057 13.8831 13.4978 13.8618 13.7932 13.4437C14.6204 12.2727 15.107 10.8398 15.107 9.29463C15.107 5.34722 11.9327 2.13333 8 2.13333C4.0673 2.13333 0.893036 5.34722 0.893036 9.29463C0.893036 10.8567 1.39027 12.304 2.23396 13.4819C2.53208 13.8981 3.12432 13.9155 3.49868 13.5663C3.87304 13.2171 3.88532 12.6338 3.60619 12.2046C3.06297 11.3694 2.74703 10.3702 2.74703 9.29463Z" fill="black"/>
<path d="M7.67898 11.4138C8.25587 11.7143 8.96708 11.4902 9.26753 10.9133C9.56797 10.3364 10.569 5.86467 10.569 5.86467C10.569 5.86467 7.47888 9.24839 7.17843 9.82528C6.87799 10.4022 7.10209 11.1134 7.67898 11.4138Z" fill="black"/>
</svg>
