<svg width="16" height="16" viewBox="0 0 16 16" fill="none" xmlns="http://www.w3.org/2000/svg">
<path d="M5.08333 2.16667H3.625C2.81958 2.16667 2.16667 2.81958 2.16667 3.625V5.08333H1V6.25H2.16667V7.41667H1V8.58333H2.16667V9.75H1V10.9167H2.16667V12.375C2.16667 13.1804 2.81958 13.8333 3.625 13.8333H5.08333V15H6.25V13.8333H7.41667V15H8.58333V13.8333H9.75V15H10.9167V13.8333H12.375C13.1804 13.8333 13.8333 13.1804 13.8333 12.375V10.9167H15V9.75H13.8333V8.58333H15V7.41667H13.8333V6.25H15V5.08333H13.8333V3.625C13.8333 2.81958 13.1804 2.16667 12.375 2.16667H10.9167V1H9.75V2.16667H8.58333L8.58333 1H7.41667L7.41667 2.16667H6.25L6.25 1H5.08333V2.16667ZM3.625 3.625H12.375V12.375H3.625V3.625ZM5.375 4.5C4.89175 4.5 4.5 4.89175 4.5 5.375V10.625C4.5 11.1082 4.89175 11.5 5.375 11.5H10.625C11.1082 11.5 11.5 11.1082 11.5 10.625V5.375C11.5 4.89175 11.1082 4.5 10.625 4.5H5.375Z" fill="black"/>
</svg>
