<svg width="16" height="16" viewBox="0 0 16 16" fill="none" xmlns="http://www.w3.org/2000/svg">
<path d="M8 15C11.866 15 15 11.866 15 8C15 4.13401 11.866 1 8 1C4.13401 1 1 4.13401 1 8C1 11.866 4.13401 15 8 15ZM7.70709 9.35389L7.4798 4.29413H8.71509L8.4878 9.35389H7.70709ZM7.58851 10.1346C7.72686 9.99625 7.89486 9.93695 8.09251 9.93695C8.30003 9.93695 8.47792 9.99625 8.61627 10.1346C8.75462 10.2631 8.8238 10.4311 8.8238 10.6386C8.8238 10.8461 8.75462 11.0141 8.61627 11.1525C8.46804 11.281 8.29015 11.3501 8.09251 11.3501C7.89486 11.3501 7.72686 11.281 7.58851 11.1426C7.44027 11.0042 7.37109 10.8362 7.37109 10.6386C7.37109 10.4311 7.44027 10.2631 7.58851 10.1346Z" fill="black"/>
</svg>
