<svg width="16" height="16" viewBox="0 0 16 16" fill="none" xmlns="http://www.w3.org/2000/svg">
<path d="M7 1C6.17157 1 5.5 1.67157 5.5 2.5V3H3C2.72386 3 2.5 3.22386 2.5 3.5C2.5 3.77614 2.72386 4 3 4H13C13.2761 4 13.5 3.77614 13.5 3.5C13.5 3.22386 13.2761 3 13 3H10.5V2.5C10.5 1.67157 9.82843 1 9 1H7ZM9.5 3H6.5V2.5C6.5 2.22386 6.72386 2 7 2H9C9.27614 2 9.5 2.22386 9.5 2.5V3Z" fill="black"/>
<path d="M3.10995 6.09951C3.05108 5.51082 3.51337 5 4.10499 5H11.895C12.4866 5 12.9489 5.51082 12.89 6.0995L12.09 14.0995C12.0389 14.6107 11.6088 15 11.095 15H4.90499C4.39124 15 3.96107 14.6107 3.90995 14.0995L3.10995 6.09951Z" fill="black"/>
</svg>
