<svg width="24" height="24" viewBox="0 0 24 24" fill="none" xmlns="http://www.w3.org/2000/svg">
<path d="M9.00011 10C9.01047 9.20761 9.32986 8.45055 9.89024 7.89017C10.4506 7.32979 11.2077 7.0104 12.0001 7.00004C12.7925 7.0104 13.5496 7.32979 14.11 7.89017C14.6704 8.45055 14.9897 9.20761 15.0001 10C14.9897 10.7925 14.6704 11.5495 14.11 12.1099C13.5496 12.6703 12.7925 12.9897 12.0001 13C11.2077 12.9897 10.4506 12.6703 9.89024 12.1099C9.32986 11.5495 9.01047 10.7925 9.00011 10ZM12.0001 19L16.0001 20V16.92C14.7938 17.6465 13.4081 18.0206 12.0001 18C10.5921 18.0206 9.20643 17.6465 8.00011 16.92V20M12.0001 4.00004C11.2121 3.98566 10.4294 4.1326 9.70027 4.43183C8.97112 4.73106 8.31087 5.17625 7.76011 5.74004C7.19022 6.2914 6.73988 6.95414 6.4371 7.68701C6.13431 8.41988 5.98557 9.20722 6.00011 10C5.98969 10.7878 6.14044 11.5695 6.4431 12.2969C6.74576 13.0243 7.19394 13.6821 7.76011 14.23C8.3083 14.7993 8.9674 15.25 9.69668 15.5544C10.426 15.8589 11.2099 16.0105 12.0001 16C12.7903 16.0105 13.5743 15.8589 14.3035 15.5544C15.0328 15.25 15.6919 14.7993 16.2401 14.23C16.8063 13.6821 17.2545 13.0243 17.5571 12.2969C17.8598 11.5695 18.0105 10.7878 18.0001 10C18.0146 9.20722 17.8659 8.41988 17.5631 7.68701C17.2603 6.95414 16.81 6.2914 16.2401 5.74004C15.6893 5.17625 15.0291 4.73106 14.2999 4.43183C13.5708 4.1326 12.7881 3.98566 12.0001 4.00004ZM20.0001 10C19.9788 10.9599 19.7858 11.9082 19.4301 12.8C19.1097 13.7075 18.6249 14.5481 18.0001 15.28V23L12.0001 21L6.00011 23V15.28C4.7058 13.8265 3.99361 11.9463 4.00011 10C3.98248 8.95062 4.18014 7.90873 4.58089 6.93868C4.98163 5.96864 5.57696 5.09103 6.33011 4.36004C7.06381 3.60013 7.94547 2.99867 8.92067 2.59277C9.89587 2.18686 10.9439 1.98514 12.0001 2.00004C13.0563 1.98514 14.1043 2.18686 15.0795 2.59277C16.0547 2.99867 16.9364 3.60013 17.6701 4.36004C18.4233 5.09103 19.0186 5.96864 19.4193 6.93868C19.8201 7.90873 20.0177 8.95062 20.0001 10Z" fill="#757575"/>
</svg>
