<svg width="24" height="25" viewBox="0 0 24 25" fill="none" xmlns="http://www.w3.org/2000/svg">
<path d="M18.13 12.1797L19.39 10.9197C19.83 10.4797 20.39 10.2397 21 10.1797V9.17969L15 3.17969H5C3.89 3.17969 3 4.06969 3 5.17969V19.1797C3 20.2797 3.89 21.1797 5 21.1797H11V19.3097L11.13 19.1797H5V5.17969H12V12.1797H18.13ZM14 4.67969L19.5 10.1797H14V4.67969ZM19.13 14.0097L21.17 16.0497L15.04 22.1797H13V20.1397L19.13 14.0097ZM22.85 14.3697L21.87 15.3497L19.83 13.3097L20.81 12.3297C21 12.1297 21.33 12.1297 21.53 12.3297L22.85 13.6497C23.05 13.8497 23.05 14.1797 22.85 14.3697Z" fill="#757575"/>
</svg>
