<svg width="16" height="16" viewBox="0 0 16 16" fill="none" xmlns="http://www.w3.org/2000/svg">
<path d="M2.75 3V3.20711H2.25V3C2.25 2.58579 2.58579 2.25 3 2.25H3.08579V2.75H3C2.86193 2.75 2.75 2.86193 2.75 3Z" fill="black"/>
<path d="M2.75 5.20711V4.20711H2.25V5.20711H2.75Z" fill="black"/>
<path d="M2.75 6.20711V7.20711H2.25V6.20711H2.75Z" fill="black"/>
<path d="M2.75 9.20711V8.20711H2.25V9.20711H2.75Z" fill="black"/>
<path d="M2.75 10.2071V11.2071H2.25V10.2071H2.75Z" fill="black"/>
<path d="M3.5 12.25H3C2.9096 12.25 2.82786 12.2018 2.78332 12.1249L2.35056 12.3753C2.4836 12.6052 2.72932 12.75 3 12.75H3.5V12.25Z" fill="black"/>
<path d="M4.5 12.25H5.5V12.75H4.5V12.25Z" fill="black"/>
<path d="M6.5 12.25H7.5V12.75H6.5V12.25Z" fill="black"/>
<path d="M4.08579 2.75H5.08579V2.25H4.08579V2.75Z" fill="black"/>
<path d="M7.08579 2.75H6.08579V2.25H7.08579V2.75Z" fill="black"/>
<path d="M8.08579 2.75H9.08579V2.25H8.08579V2.75Z" fill="black"/>
<path d="M11.0858 2.75H10.0858V2.25H11.0858V2.75Z" fill="black"/>
<path d="M12.043 2.75365C12.1565 2.7732 12.2429 2.86944 12.2496 2.98521L12.25 3.37919L12.75 3.37817L12.7492 2.97036C12.7287 2.6079 12.47 2.31984 12.1279 2.26091L12.043 2.75365Z" fill="black"/>
<path d="M12.25 5.37868V4.37868H12.75V5.37868H12.25Z" fill="black"/>
<path d="M12.25 6.37868V7.37868H12.75V6.37868H12.25Z" fill="black"/>
<path fill-rule="evenodd" clip-rule="evenodd" d="M9.54056 7.54169C9.64275 7.52942 9.74575 7.55702 9.82812 7.61874L14.0986 10.8189C14.2754 10.9514 14.3113 11.2021 14.1788 11.3789C14.1464 11.4222 14.1055 11.4584 14.0587 11.4854L12.9096 12.148L13.6702 13.4637C13.7807 13.655 13.7151 13.8997 13.5238 14.0101L12.8783 14.3828C12.687 14.4932 12.4424 14.4277 12.3319 14.2364L11.5715 12.9205L10.4245 13.5837C10.2331 13.6941 9.9885 13.6286 9.87805 13.4373C9.85101 13.3904 9.83375 13.3386 9.82731 13.285L9.1911 7.98653C9.16476 7.76719 9.32122 7.56803 9.54056 7.54169ZM9.71441 8.15862L10.3048 13.0751L11.7543 12.2373L12.714 13.9L13.1868 13.627L12.2261 11.9649L13.6771 11.1281L9.71441 8.15862Z" fill="black"/>
</svg>
