<svg width="16" height="16" viewBox="0 0 16 16" fill="none" xmlns="http://www.w3.org/2000/svg">
<path fill-rule="evenodd" clip-rule="evenodd" d="M12.5833 5.72108L9.37515 2.5H4.41666C3.86438 2.5 3.41666 2.94772 3.41666 3.5V12.5C3.41666 13.0523 3.86438 13.5 4.41666 13.5H11.5833C12.1356 13.5 12.5833 13.0523 12.5833 12.5V5.72108ZM4.41666 3H9.167L12.083 5.926L12.0833 12.5L12.0753 12.5899C12.0329 12.8231 11.8288 13 11.5833 13H4.41666L4.32679 12.9919C4.09354 12.9496 3.91666 12.7455 3.91666 12.5V3.5L3.92472 3.41012C3.96706 3.17688 4.1712 3 4.41666 3ZM9.16704 3.44175V5.73341C9.16704 5.8293 9.23181 5.91005 9.31999 5.9343L9.37537 5.94175H11.6814V6.44175H9.37537C9.01677 6.44175 8.72041 6.17527 8.6735 5.82953L8.66704 5.73341V3.44175H9.16704ZM6.44666 12.318C6.25416 12.472 6.02316 12.549 5.75366 12.549C5.33716 12.549 5.02566 12.416 4.82266 12.157C4.64416 11.933 4.55666 11.632 4.55666 11.254C4.55666 10.883 4.64766 10.5785 4.83316 10.3475C5.04316 10.0815 5.34766 9.952 5.74666 9.952C6.04066 9.952 6.28566 10.029 6.47466 10.183C6.65666 10.33 6.76516 10.533 6.80366 10.785H6.40466C6.36266 10.6205 6.28566 10.5015 6.17016 10.4245C6.05816 10.3475 5.91466 10.3125 5.73966 10.3125C5.47716 10.3125 5.28116 10.4 5.14816 10.582C5.02566 10.743 4.96616 10.967 4.96616 11.254C4.96616 11.548 5.02566 11.7755 5.14466 11.933C5.27416 12.101 5.47716 12.1885 5.75016 12.1885C5.92866 12.1885 6.07566 12.143 6.18766 12.059C6.30666 11.9645 6.39066 11.821 6.43966 11.632H6.83866C6.78266 11.926 6.65316 12.1535 6.44666 12.318ZM8.80216 12.3565C8.62716 12.4825 8.37866 12.549 8.06016 12.549C7.75216 12.549 7.51066 12.4895 7.33916 12.3705C7.12916 12.2235 7.01366 11.9925 6.99616 11.674H7.40216C7.43016 11.863 7.49666 11.9995 7.60516 12.08C7.70316 12.15 7.85366 12.1885 8.06016 12.1885C8.24216 12.1885 8.38916 12.157 8.49416 12.0975C8.59916 12.0345 8.65516 11.954 8.65516 11.849C8.65516 11.716 8.57466 11.611 8.42066 11.534C8.37166 11.5095 8.21066 11.4535 7.93416 11.3695C7.62616 11.2715 7.43366 11.2015 7.36016 11.1595C7.16766 11.044 7.07316 10.876 7.07316 10.6555C7.07316 10.435 7.16416 10.26 7.35316 10.134C7.52816 10.0115 7.74866 9.952 8.01816 9.952C8.31216 9.952 8.54316 10.0115 8.70766 10.134C8.88266 10.2635 8.98416 10.4665 9.00866 10.7395H8.60266C8.56766 10.5855 8.50116 10.4735 8.41016 10.407C8.31916 10.337 8.17916 10.3055 7.99716 10.3055C7.83966 10.3055 7.72066 10.3265 7.63666 10.372C7.53166 10.4245 7.48266 10.512 7.48266 10.631C7.48266 10.736 7.53866 10.8235 7.65766 10.8865C7.71016 10.9145 7.85366 10.967 8.08466 11.0405C8.42416 11.1455 8.64116 11.2295 8.73916 11.2855C8.95616 11.415 9.06466 11.5935 9.06466 11.8245C9.06466 12.0485 8.97716 12.227 8.80216 12.3565ZM10.4822 12.5L11.3712 10.001H10.9267L10.2407 12.038H10.2302L9.54416 10.001H9.09966L9.98866 12.5H10.4822Z" fill="black"/>
</svg>
