<svg width="16" height="16" viewBox="0 0 16 16" fill="none" xmlns="http://www.w3.org/2000/svg">
<path d="M9.87129 10.2902C9.06659 10.9973 8.01132 11.4261 6.8559 11.4261C4.33186 11.4261 2.28572 9.37993 2.28572 6.85589C2.28572 4.33185 4.33186 2.28571 6.8559 2.28571C9.37994 2.28571 11.4261 4.33185 11.4261 6.85589C11.4261 8.01125 10.9974 9.06648 10.2903 9.87117L13.7219 13.3028L13.3029 13.7218L9.87129 10.2902ZM10.8335 6.85589C10.8335 4.65912 9.05266 2.8783 6.8559 2.8783C4.65914 2.8783 2.87831 4.65912 2.87831 6.85589C2.87831 9.05265 4.65914 10.8335 6.8559 10.8335C9.05266 10.8335 10.8335 9.05265 10.8335 6.85589Z" fill="black"/>
</svg>
