<svg width="16" height="17" viewBox="0 0 16 17" fill="none" xmlns="http://www.w3.org/2000/svg">
<path d="M15.7473 8.70337L13.127 6.3326L12.4561 7.07414L13.7042 8.20337H6.0016L6.0016 9.20337L13.7042 9.20337L12.4561 10.3326L13.127 11.0741L15.7473 8.70337Z" fill="black"/>
<path d="M11.002 3.20337C11.2781 3.20337 11.502 3.42723 11.502 3.70337V5.20337H12.502V3.70337C12.502 2.87494 11.8304 2.20337 11.002 2.20337L2.00195 2.20337C1.17353 2.20337 0.501954 2.87494 0.501954 3.70337L0.501953 13.7034C0.501953 14.5318 1.17353 15.2034 2.00195 15.2034H11.002C11.8304 15.2034 12.502 14.5318 12.502 13.7034V12.2034H11.502V13.7034C11.502 13.9795 11.2781 14.2034 11.002 14.2034H2.00195C1.72581 14.2034 1.50195 13.9795 1.50195 13.7034L1.50195 3.70337C1.50195 3.42723 1.72581 3.20337 2.00195 3.20337L11.002 3.20337Z" fill="black"/>
</svg>
