<svg width="16" height="16" viewBox="0 0 16 16" fill="none" xmlns="http://www.w3.org/2000/svg">
<path d="M12.4327 4.70541L12.8872 4.25086L12.4158 3.77945L11.9612 4.234L12.4327 4.70541Z" fill="black"/>
<path d="M11.5236 5.6145L11.9781 5.15995L11.5067 4.68855L11.0522 5.14309L11.5236 5.6145Z" fill="black"/>
<path d="M10.6145 6.52359L11.069 6.06904L10.5976 5.59764L10.1431 6.05218L10.6145 6.52359Z" fill="black"/>
<path d="M9.70538 7.43268L10.1599 6.97813L9.68852 6.50673L9.23397 6.96127L9.70538 7.43268Z" fill="black"/>
<path d="M8.79629 8.34177L9.25083 7.88722L8.77943 7.41582L8.32488 7.87036L8.79629 8.34177Z" fill="black"/>
<path d="M7.8872 9.25086L8.34174 8.79631L7.87034 8.32491L7.41579 8.77945L7.8872 9.25086Z" fill="black"/>
<path d="M6.97811 10.1599L7.43265 9.7054L6.96125 9.234L6.5067 9.68855L6.97811 10.1599Z" fill="black"/>
<path d="M6.06902 11.069L6.52356 10.6145L6.05216 10.1431L5.59761 10.5976L6.06902 11.069Z" fill="black"/>
<path d="M5.15992 11.9781L5.61447 11.5236L5.14307 11.0522L4.68852 11.5067L5.15992 11.9781Z" fill="black"/>
<path d="M4.25083 12.8872L4.70538 12.4327L4.23397 11.9613L3.77943 12.4158L4.25083 12.8872Z" fill="black"/>
<path d="M16 2.33334C16 3.25381 15.2538 4.00001 14.3333 4.00001C14.1153 4.00001 13.9071 3.95816 13.7163 3.88206C13.7205 3.9561 13.7242 4.03617 13.7272 4.12177C13.7453 4.63342 13.737 5.34558 13.6314 6.14945C13.4211 7.75091 12.8193 9.75516 11.2277 11.2435C9.64687 12.7216 7.65544 13.3219 6.08162 13.557C5.29209 13.6749 4.59991 13.7021 4.10433 13.6998C4.02204 13.6994 3.9451 13.6982 3.87396 13.6965C3.95515 13.8927 3.99996 14.1078 3.99996 14.3333C3.99996 15.2538 3.25377 16 2.33329 16C1.41282 16 0.666626 15.2538 0.666626 14.3333C0.666626 13.4129 1.41282 12.6667 2.33329 12.6667C2.5653 12.6667 2.78623 12.7141 2.98694 12.7997C2.98731 12.7159 2.98865 12.6237 2.99139 12.524C3.00545 12.0131 3.05647 11.3022 3.20455 10.5001C3.49956 8.90214 4.18661 6.90588 5.77226 5.4232C7.34985 3.94805 9.2545 3.34612 10.7489 3.11015C11.4976 2.99191 12.1491 2.96459 12.6144 2.96687C12.6771 2.96718 12.7364 2.96802 12.7922 2.96925C12.7113 2.7733 12.6666 2.55853 12.6666 2.33334C12.6666 1.41286 13.4128 0.666672 14.3333 0.666672C15.2538 0.666672 16 1.41286 16 2.33334ZM15.3333 2.33334C15.3333 1.78105 14.8856 1.33334 14.3333 1.33334C13.781 1.33334 13.3333 1.78105 13.3333 2.33334C13.3333 2.88562 13.781 3.33334 14.3333 3.33334C14.8856 3.33334 15.3333 2.88562 15.3333 2.33334ZM4.10739 13.0331C4.57671 13.0353 5.23408 13.0095 5.98314 12.8976C7.48651 12.6731 9.32844 12.1067 10.7723 10.7565C12.2053 9.41657 12.7702 7.58747 12.9704 6.06266C13.0701 5.3034 13.078 4.6292 13.061 4.14526C13.0538 3.94168 13.0422 3.77229 13.0313 3.64503C12.9213 3.63931 12.7796 3.63435 12.6111 3.63353C12.1741 3.63139 11.5593 3.6571 10.8528 3.76865C9.43671 3.99227 7.67469 4.55701 6.22759 5.91015C4.78855 7.25574 4.14229 9.09282 3.86014 10.6211C3.71965 11.3821 3.67114 12.0577 3.6578 12.5423C3.65251 12.7348 3.65277 12.8968 3.65498 13.0216C3.77375 13.0273 3.92641 13.0323 4.10739 13.0331ZM2.33329 15.3333C2.88558 15.3333 3.33329 14.8856 3.33329 14.3333C3.33329 13.7811 2.88558 13.3333 2.33329 13.3333C1.78101 13.3333 1.33329 13.7811 1.33329 14.3333C1.33329 14.8856 1.78101 15.3333 2.33329 15.3333Z" fill="black"/>
<path d="M3.63245 4.10389L1.66664 2.13808L1.66664 4H0.999969L0.99997 1L3.99997 1V1.66667L2.13804 1.66667L4.10385 3.63249L3.63245 4.10389Z" fill="black"/>
<path d="M13.0341 12.5628L15 14.5286V12.6667H15.6666V15.6667H12.6666V15H14.5286L12.5627 13.0342L13.0341 12.5628Z" fill="black"/>
</svg>
