<svg width="16" height="17" viewBox="0 0 16 17" fill="none" xmlns="http://www.w3.org/2000/svg">
<path d="M13.4 3.54897L10.8105 3.54897V6.06897L13.4 6.06897V3.54897ZM13.4 2.94897C13.7314 2.94897 14 3.2176 14 3.54897V6.06897C14 6.40034 13.7314 6.66897 13.4 6.66897L10.8105 6.66897C10.4792 6.66897 10.2105 6.40034 10.2105 6.06897V3.54897C10.2105 3.2176 10.4792 2.94897 10.8105 2.94897H13.4ZM7.3842 5.40899C7.3842 4.91193 7.78715 4.50899 8.2842 4.50899H10.2105V5.10899H8.2842C8.11852 5.10899 7.9842 5.2433 7.9842 5.40899V8.84899H10.2105V9.44899H7.9842V12.889C7.9842 13.0547 8.11852 13.189 8.2842 13.189H10.2105V13.789H8.2842C7.78715 13.789 7.3842 13.386 7.3842 12.889V9.44899H5.78947V11.029C5.78947 11.3603 5.52084 11.629 5.18947 11.629H2.6C2.26863 11.629 2 11.3603 2 11.029L2 7.26898C2 6.93761 2.26863 6.66898 2.6 6.66898L5.18947 6.66898C5.52084 6.66898 5.78947 6.9376 5.78947 7.26898V8.84899H7.3842V5.40899ZM5.18947 11.029V7.26898H2.6L2.6 11.029H5.18947ZM13.4 10.409L10.8105 10.409V7.88897L13.4 7.88897V10.409ZM14 7.88897C14 7.5576 13.7314 7.28897 13.4 7.28897H10.8105C10.4792 7.28897 10.2105 7.5576 10.2105 7.88897V10.409C10.2105 10.7403 10.4792 11.009 10.8105 11.009H13.4C13.7314 11.009 14 10.7403 14 10.409V7.88897ZM13.4 12.229L10.8105 12.229V14.749L13.4 14.749V12.229ZM13.4 11.629C13.7314 11.629 14 11.8976 14 12.229V14.749C14 15.0803 13.7314 15.349 13.4 15.349H10.8105C10.4792 15.349 10.2105 15.0803 10.2105 14.749V12.229C10.2105 11.8976 10.4792 11.629 10.8105 11.629H13.4Z" fill="black"/>
</svg>
