<svg width="16" height="16" viewBox="0 0 16 16" fill="none" xmlns="http://www.w3.org/2000/svg">
<path d="M1 8C1 4.13438 4.13438 1 8 1C11.8656 1 15 4.13438 15 8C15 11.8656 11.8656 15 8 15C4.13438 15 1 11.8656 1 8ZM4.5 6.57812C4.5 6.16391 4.83579 5.82812 5.25 5.82812C5.66421 5.82812 6 6.16391 6 6.57812C6 6.99234 5.66421 7.32812 5.25 7.32812C4.83579 7.32812 4.5 6.99234 4.5 6.57812ZM10 6.57812C10 6.16391 10.3358 5.82812 10.75 5.82812C11.1642 5.82812 11.5 6.16391 11.5 6.57812C11.5 6.99234 11.1642 7.32812 10.75 7.32812C10.3358 7.32812 10 6.99234 10 6.57812ZM12.1094 12.1094C12.6438 11.5766 13.0641 10.9547 13.3562 10.2625C13.6594 9.54688 13.8125 8.78594 13.8125 8C13.8125 7.21406 13.6594 6.45312 13.3578 5.73906C13.0641 5.04688 12.6453 4.425 12.1109 3.89062C11.5766 3.35625 10.9547 2.93594 10.2625 2.64375C9.54688 2.34063 8.78594 2.1875 8 2.1875C7.21406 2.1875 6.45312 2.34063 5.73906 2.64219C5.04688 2.93594 4.425 3.35469 3.89062 3.88906C3.35625 4.42344 2.93594 5.04531 2.64375 5.7375C2.34063 6.45312 2.1875 7.21406 2.1875 8C2.1875 8.78594 2.34063 9.54688 2.64219 10.2609C2.93594 10.9531 3.35469 11.575 3.88906 12.1094C4.42344 12.6438 5.04531 13.0641 5.7375 13.3562C6.45312 13.6594 7.21406 13.8125 8 13.8125C8.78594 13.8125 9.54688 13.6594 10.2609 13.3562C10.9531 13.0625 11.575 12.6438 12.1094 12.1094ZM9.62344 8.32812C9.55781 8.32812 9.50156 8.37813 9.49688 8.44375C9.4375 9.21719 8.78906 9.82812 8 9.82812C7.21094 9.82812 6.56094 9.21719 6.50313 8.44375C6.49844 8.37813 6.44219 8.32812 6.37656 8.32812H5.625C5.55313 8.32812 5.49688 8.3875 5.5 8.45937C5.56875 9.77656 6.66406 10.8281 8 10.8281C9.33594 10.8281 10.4312 9.77656 10.5 8.45937C10.5031 8.3875 10.4469 8.32812 10.375 8.32812H9.62344Z" fill="black"/>
</svg>
