<svg width="16" height="16" viewBox="0 0 16 16" fill="none" xmlns="http://www.w3.org/2000/svg">
<path d="M12.3016 10.2578C12.8338 10.7953 13.2533 11.4215 13.5449 12.1194C13.8318 12.8033 13.9845 13.5276 13.9999 14.2723C14.0015 14.3424 13.9459 14.4 13.8765 14.4H12.951C12.8831 14.4 12.8291 14.347 12.8276 14.2785C12.7968 13.0759 12.3186 11.9496 11.4733 11.0959C10.5986 10.2127 9.43711 9.72663 8.19999 9.72663C6.96288 9.72663 5.80135 10.2127 4.92673 11.0959C4.08142 11.9496 3.60323 13.0759 3.57238 14.2785C3.57084 14.3455 3.51685 14.4 3.44898 14.4H2.52346C2.45404 14.4 2.39851 14.3424 2.40006 14.2723C2.41548 13.5276 2.56819 12.8033 2.8551 12.121C3.14819 11.4231 3.56621 10.7968 4.09839 10.2594C4.63056 9.7204 5.25066 9.29824 5.94172 9.00382C5.94481 9.00226 5.94789 9.00109 5.95098 8.99992C5.95406 8.99876 5.95715 8.99759 5.96023 8.99603C4.99923 8.29347 4.3745 7.15161 4.3745 5.86332C4.3745 3.72915 6.08672 2 8.19999 2C10.3133 2 12.0255 3.72915 12.0255 5.86332C12.0255 7.15161 11.4008 8.29347 10.4398 8.99447C10.4428 8.99603 10.4459 8.9972 10.449 8.99837C10.4521 8.99954 10.4552 9.0007 10.4583 9.00226C11.1493 9.29824 11.7694 9.7204 12.3016 10.2578ZM6.32427 7.75759C6.82559 8.26387 7.49197 8.54271 8.19999 8.54271C8.90802 8.54271 9.57439 8.26387 10.0757 7.75759C10.577 7.25131 10.8532 6.57834 10.8532 5.86332C10.8532 5.14829 10.577 4.47533 10.0757 3.96905C9.57439 3.46276 8.90802 3.18392 8.19999 3.18392C7.49197 3.18392 6.82559 3.46276 6.32427 3.96905C5.82295 4.47533 5.54683 5.14829 5.54683 5.86332C5.54683 6.57834 5.82295 7.25131 6.32427 7.75759Z" fill="black"/>
</svg>
