<svg width="16" height="16" viewBox="0 0 16 16" fill="none" xmlns="http://www.w3.org/2000/svg">
<path d="M7.90475 3.80952C6.85278 3.80952 5.99998 2.95673 5.99998 1.90476C5.99998 0.852791 6.85278 -4.59831e-08 7.90475 0C8.95672 4.59831e-08 9.80951 0.852791 9.80951 1.90476C9.80951 2.95673 8.95672 3.80952 7.90475 3.80952Z" fill="black"/>
<path d="M7.90475 9.90476C6.85278 9.90476 5.99998 9.05197 5.99998 8C5.99998 6.94803 6.85278 6.09524 7.90475 6.09524C8.95672 6.09524 9.80951 6.94803 9.80951 8C9.80951 9.05197 8.95672 9.90476 7.90475 9.90476Z" fill="black"/>
<path d="M5.99998 14.0952C5.99998 15.1472 6.85278 16 7.90475 16C8.95672 16 9.80951 15.1472 9.80951 14.0952C9.80951 13.0433 8.95672 12.1905 7.90475 12.1905C6.85278 12.1905 5.99998 13.0433 5.99998 14.0952Z" fill="black"/>
</svg>
