<svg width="16" height="16" viewBox="0 0 16 16" fill="none" xmlns="http://www.w3.org/2000/svg">
<path d="M5.25898 1.86666H11.2667V2.39999H6.60767L9.16769 4.80001L6.60767 7.2H11.2667V7.73333H5.25898L8.38789 4.8L5.25898 1.86666Z" fill="black"/>
<path d="M4.25949 12.5851C4.05057 12.721 3.80121 12.8 3.53341 12.8C2.79703 12.8 2.20007 12.203 2.20007 11.4667C2.20007 10.7303 2.79703 10.1333 3.53341 10.1333C3.80121 10.1333 4.05057 10.2123 4.25948 10.3482C4.28157 10.3251 4.30634 10.2999 4.33385 10.2729L4.70761 10.6533C4.68192 10.6786 4.65931 10.7017 4.63974 10.7222C4.73559 10.8644 4.80476 11.0261 4.84007 11.2H11.8267C11.862 11.0261 11.9311 10.8644 12.027 10.7223C12.0074 10.7017 11.9848 10.6786 11.9591 10.6533L12.3329 10.2729C12.3604 10.2999 12.3851 10.3251 12.4072 10.3482C12.6162 10.2123 12.8655 10.1333 13.1333 10.1333C13.8697 10.1333 14.4667 10.7303 14.4667 11.4667C14.4667 12.203 13.8697 12.8 13.1333 12.8C12.8655 12.8 12.6161 12.721 12.4072 12.5851C12.3851 12.6082 12.3604 12.6334 12.3329 12.6605L11.9591 12.28C11.9848 12.2548 12.0074 12.2317 12.027 12.2111C11.9311 12.0689 11.862 11.9073 11.8267 11.7333H4.84007C4.80476 11.9073 4.73559 12.0689 4.63974 12.2111C4.65931 12.2317 4.68192 12.2548 4.70761 12.28L4.33385 12.6605C4.30634 12.6334 4.28157 12.6082 4.25949 12.5851ZM4.33335 11.4763V11.457C4.32819 11.0196 3.97202 10.6667 3.53341 10.6667C3.09158 10.6667 2.73341 11.0248 2.73341 11.4667C2.73341 11.9085 3.09158 12.2667 3.53341 12.2667C3.97202 12.2667 4.32819 11.9137 4.33335 11.4763ZM12.3334 11.4718C12.3361 11.9113 12.6932 12.2667 13.1333 12.2667C13.5752 12.2667 13.9333 11.9085 13.9333 11.4667C13.9333 11.0248 13.5752 10.6667 13.1333 10.6667C12.6932 10.6667 12.3361 11.0221 12.3334 11.4616V11.4718Z" fill="black"/>
<path d="M8.33335 9.33333C8.24251 9.33333 8.15347 9.33512 8.06621 9.33857L8.04515 8.80565C8.13945 8.80192 8.23551 8.8 8.33335 8.8C8.43119 8.8 8.52725 8.80192 8.62155 8.80565L8.60049 9.33857C8.51323 9.33512 8.42419 9.33333 8.33335 9.33333Z" fill="black"/>
<path d="M7.53518 9.38166C7.35203 9.40442 7.17798 9.43451 7.01286 9.47044L6.89946 8.9493C7.08022 8.90997 7.27016 8.87715 7.46941 8.8524L7.53518 9.38166Z" fill="black"/>
<path d="M9.65384 9.47044C9.48872 9.43451 9.31467 9.40442 9.13152 9.38166L9.19729 8.8524C9.39653 8.87715 9.58648 8.90997 9.76724 8.9493L9.65384 9.47044Z" fill="black"/>
<path d="M6.5018 9.60763C6.32492 9.66454 6.16071 9.72767 6.0089 9.79439L5.79433 9.30612C5.96239 9.23226 6.14368 9.1626 6.33844 9.09993L6.5018 9.60763Z" fill="black"/>
<path d="M10.6578 9.79439C10.506 9.72767 10.3418 9.66454 10.1649 9.60763L10.3283 9.09993C10.523 9.1626 10.7043 9.23226 10.8724 9.30612L10.6578 9.79439Z" fill="black"/>
<path d="M5.54011 10.0312C5.37234 10.1278 5.22653 10.2256 5.10206 10.3181L4.78392 9.89005C4.924 9.78594 5.08711 9.67661 5.27394 9.56901L5.54011 10.0312Z" fill="black"/>
<path d="M11.5646 10.3181C11.4402 10.2256 11.2944 10.1278 11.1266 10.0312L11.3928 9.56901C11.5796 9.67661 11.7427 9.78594 11.8828 9.89005L11.5646 10.3181Z" fill="black"/>
<path d="M8.60049 13.5948C8.51323 13.5982 8.42419 13.6 8.33335 13.6C8.24251 13.6 8.15347 13.5982 8.06621 13.5948L8.04515 14.1277C8.13945 14.1314 8.23551 14.1333 8.33335 14.1333C8.43119 14.1333 8.52725 14.1314 8.62155 14.1277L8.60049 13.5948Z" fill="black"/>
<path d="M9.65384 13.4629C9.48872 13.4988 9.31467 13.5289 9.13152 13.5517L9.19729 14.0809C9.39653 14.0562 9.58648 14.0234 9.76724 13.984L9.65384 13.4629Z" fill="black"/>
<path d="M7.53518 13.5517C7.35203 13.5289 7.17798 13.4988 7.01286 13.4629L6.89946 13.984C7.08022 14.0234 7.27016 14.0562 7.46941 14.0809L7.53518 13.5517Z" fill="black"/>
<path d="M10.6578 13.1389C10.506 13.2057 10.3418 13.2688 10.1649 13.3257L10.3283 13.8334C10.523 13.7707 10.7043 13.7011 10.8724 13.6272L10.6578 13.1389Z" fill="black"/>
<path d="M6.5018 13.3257C6.32492 13.2688 6.16071 13.2057 6.0089 13.1389L5.79433 13.6272C5.96239 13.7011 6.14368 13.7707 6.33844 13.8334L6.5018 13.3257Z" fill="black"/>
<path d="M11.5646 12.6152C11.4402 12.7077 11.2944 12.8055 11.1266 12.9022L11.3928 13.3643C11.5796 13.2567 11.7427 13.1474 11.8828 13.0433L11.5646 12.6152Z" fill="black"/>
<path d="M5.54011 12.9022C5.37234 12.8055 5.22653 12.7077 5.10206 12.6152L4.78392 13.0433C4.924 13.1474 5.08711 13.2567 5.27394 13.3643L5.54011 12.9022Z" fill="black"/>
</svg>
