<svg width="16" height="16" viewBox="0 0 16 16" fill="none" xmlns="http://www.w3.org/2000/svg">
<path d="M7.531 8.02187L6.66068 7.52939L6.90691 7.09423L7.77724 7.5867L7.531 8.02187Z" fill="black"/>
<path d="M7.7491 8.60221L7.74761 9.60221L8.24761 9.60296L8.2491 8.60296L7.7491 8.60221Z" fill="black"/>
<path d="M9.117 7.08701L8.24478 7.57612L8.48933 8.01223L9.36155 7.52313L9.117 7.08701Z" fill="black"/>
<path d="M7.04167 4.19231C7.04167 3.67059 7.47199 3.25 8 3.25C8.52801 3.25 8.95833 3.67059 8.95833 4.19231C8.95833 4.21357 8.95762 4.23467 8.95621 4.25558L10.8175 5.30586C10.9934 5.10655 11.2529 4.98077 11.5417 4.98077C12.0697 4.98077 12.5 5.40136 12.5 5.92308C12.5 6.35939 12.199 6.72497 11.7917 6.83297V8.82087C12.199 8.92888 12.5 9.29446 12.5 9.73077C12.5 10.2525 12.0697 10.6731 11.5417 10.6731C11.3701 10.6731 11.2088 10.6287 11.0693 10.5508L11.0159 10.5845L8.95623 11.7448C8.95763 11.7656 8.95833 11.7865 8.95833 11.8077C8.95833 12.3294 8.52801 12.75 8 12.75C7.47199 12.75 7.04167 12.3294 7.04167 11.8077C7.04167 11.7905 7.04213 11.7734 7.04306 11.7564L4.89727 10.5686C4.76566 10.6354 4.61637 10.6731 4.45833 10.6731C3.93032 10.6731 3.5 10.2525 3.5 9.73077C3.5 9.29446 3.80096 8.92888 4.20833 8.82087V6.83297C3.80096 6.72497 3.5 6.35939 3.5 5.92308C3.5 5.40136 3.93032 4.98077 4.45833 4.98077C4.74708 4.98077 5.00661 5.10655 5.18253 5.30586L7.04379 4.25558C7.04238 4.23467 7.04167 4.21357 7.04167 4.19231ZM11.2917 6.83297C11.1557 6.79691 11.0315 6.73214 10.9265 6.6456L10.2338 7.03402L9.98923 6.59791L10.6369 6.23471C10.6022 6.13723 10.5833 6.03237 10.5833 5.92308C10.5833 5.86614 10.5885 5.8104 10.5983 5.75629L8.78498 4.73307C8.61142 4.97614 8.32411 5.13462 8 5.13462C7.67589 5.13462 7.38858 4.97614 7.21502 4.73307L5.40172 5.75629C5.41154 5.8104 5.41667 5.86614 5.41667 5.92308C5.41667 6.028 5.39926 6.12882 5.36716 6.22296L6.03658 6.60176L5.79035 7.03692L5.08374 6.63709C4.97657 6.72789 4.84877 6.79574 4.70833 6.83297V8.82087C5.1157 8.92888 5.41667 9.29446 5.41667 9.73077C5.41667 9.90627 5.36797 10.0703 5.28324 10.2108L7.20832 11.2764C7.33481 11.0946 7.52438 10.9587 7.74567 10.899L7.74611 10.6022L8.24611 10.603L8.24567 10.8967C8.46692 10.9542 8.65709 11.0877 8.7852 11.2672L10.7029 10.187C10.6267 10.0519 10.5833 9.89644 10.5833 9.73077C10.5833 9.29446 10.8843 8.92888 11.2917 8.82087V6.83297ZM8.45833 4.19231C8.45833 3.94932 8.2544 3.75 8 3.75C7.74561 3.75 7.54167 3.94932 7.54167 4.19231C7.54167 4.43529 7.74561 4.63462 8 4.63462C8.2544 4.63462 8.45833 4.43529 8.45833 4.19231ZM8 11.3654C7.74561 11.3654 7.54167 11.5647 7.54167 11.8077C7.54167 12.0507 7.74561 12.25 8 12.25C8.2544 12.25 8.45833 12.0507 8.45833 11.8077C8.45833 11.5647 8.2544 11.3654 8 11.3654ZM4.91667 9.73077C4.91667 9.48779 4.71273 9.28846 4.45833 9.28846C4.20394 9.28846 4 9.48779 4 9.73077C4 9.97375 4.20394 10.1731 4.45833 10.1731C4.71273 10.1731 4.91667 9.97375 4.91667 9.73077ZM4.45833 5.48077C4.20394 5.48077 4 5.68009 4 5.92308C4 6.16606 4.20394 6.36538 4.45833 6.36538C4.71273 6.36538 4.91667 6.16606 4.91667 5.92308C4.91667 5.68009 4.71273 5.48077 4.45833 5.48077ZM12 9.73077C12 9.48779 11.7961 9.28846 11.5417 9.28846C11.2873 9.28846 11.0833 9.48779 11.0833 9.73077C11.0833 9.97375 11.2873 10.1731 11.5417 10.1731C11.7961 10.1731 12 9.97375 12 9.73077ZM11.5417 5.48077C11.2873 5.48077 11.0833 5.68009 11.0833 5.92308C11.0833 6.16606 11.2873 6.36538 11.5417 6.36538C11.7961 6.36538 12 6.16606 12 5.92308C12 5.68009 11.7961 5.48077 11.5417 5.48077Z" fill="black"/>
</svg>
