<svg width="16" height="17" viewBox="0 0 16 17" fill="none" xmlns="http://www.w3.org/2000/svg">
<path d="M7.42858 3.2347C7.42858 2.91911 7.17274 2.66327 6.85715 2.66327H2.28572C1.97013 2.66327 1.71429 2.91911 1.71429 3.2347V14.6633C1.71429 14.9789 1.97013 15.2347 2.28572 15.2347H6.85715C7.17274 15.2347 7.42858 14.9789 7.42858 14.6633L7.42858 3.2347ZM6.85715 14.6633H2.28572L2.28572 3.2347L6.85715 3.2347L6.85715 14.6633Z" fill="black"/>
<path d="M14.2857 3.2347C14.2857 2.91911 14.0299 2.66327 13.7143 2.66327H9.14286C8.82727 2.66327 8.57143 2.91911 8.57143 3.2347V7.80613C8.57143 8.12172 8.82727 8.37756 9.14286 8.37756H13.7143C14.0299 8.37756 14.2857 8.12172 14.2857 7.80613V3.2347ZM13.7143 7.80613L9.14286 7.80613L9.14286 3.2347L13.7143 3.2347V7.80613Z" fill="black"/>
<path d="M13.7143 9.52042C14.0299 9.52042 14.2857 9.77625 14.2857 10.0918V14.6633C14.2857 14.9789 14.0299 15.2347 13.7143 15.2347H9.14286C8.82727 15.2347 8.57143 14.9789 8.57143 14.6633V10.0918C8.57143 9.77625 8.82727 9.52042 9.14286 9.52042L13.7143 9.52042ZM13.7143 10.0918H9.14286L9.14286 14.6633L13.7143 14.6633V10.0918Z" fill="black"/>
</svg>
