<svg width="16" height="16" viewBox="0 0 16 16" fill="none" xmlns="http://www.w3.org/2000/svg">
<path d="M7.99999 0.853729L5.09367 3.86028L5.57299 4.32363L7.66666 2.15776V10H8.33333V2.15776L10.427 4.32363L10.9063 3.86028L7.99999 0.853729Z" fill="black"/>
<path d="M3.33333 5.66667C2.78104 5.66667 2.33333 6.11438 2.33333 6.66667V13.3333C2.33333 13.8856 2.78104 14.3333 3.33333 14.3333H12.6667C13.2189 14.3333 13.6667 13.8856 13.6667 13.3333V6.66667C13.6667 6.11438 13.2189 5.66667 12.6667 5.66667H11V6.33333H12.6667C12.8508 6.33333 13 6.48257 13 6.66667V13.3333C13 13.5174 12.8508 13.6667 12.6667 13.6667H3.33333C3.14923 13.6667 2.99999 13.5174 2.99999 13.3333V6.66667C2.99999 6.48257 3.14923 6.33333 3.33333 6.33333H5V5.66667H3.33333Z" fill="black"/>
</svg>
