<svg width="16" height="16" viewBox="0 0 16 16" fill="none" xmlns="http://www.w3.org/2000/svg">
<path d="M9.38221 1.8541C10.5708 1.05809 11.9445 0.978388 12.4288 1.7068C12.871 2.37367 12.1156 3.34724 11.1391 4.15131H14.8V7.31516H13.7545V14.8047H2.24654V7.31516H1.2V4.15131H4.86188C4.43966 3.94752 3.84936 3.56112 3.65526 3.2181C3.3331 2.65212 3.30508 2.11439 3.57422 1.70781C4.05747 0.977379 5.43117 1.05607 6.62079 1.8541C7.32615 2.32625 7.79939 2.91241 7.9965 3.47032C8.03852 3.35228 8.08854 3.23323 8.15658 3.11217C8.41671 2.65615 8.85094 2.20922 9.38221 1.8541ZM11.2992 2.23343C10.923 2.23343 10.4257 2.41806 9.96251 2.72778C9.5683 2.9911 9.24414 3.32101 9.06605 3.63174C8.91797 3.89304 8.93798 4.02419 8.94798 4.04034C8.95599 4.05244 9.02402 4.09784 9.20512 4.09784C9.57931 4.09784 10.0806 3.9112 10.5428 3.60147C11.3852 3.0365 11.6314 2.39788 11.5563 2.28993C11.5483 2.27883 11.4803 2.23343 11.2992 2.23343ZM4.7048 2.23343C4.52371 2.23343 4.45167 2.27883 4.44467 2.29094C4.43566 2.30506 4.41465 2.43723 4.56373 2.69651C4.74082 3.00825 5.06699 3.33816 5.45819 3.60147C5.92043 3.9112 6.42168 4.09784 6.79388 4.09784C6.97597 4.09784 7.04701 4.05244 7.05401 4.04034C7.12605 3.93037 6.88292 3.29276 6.04149 2.72778C5.57825 2.41806 5.07699 2.23343 4.7048 2.23343ZM3.29207 7.31516V13.7554H5.90742V7.31516H3.29207ZM2.24654 6.26088H5.90842V5.20559H2.24654V6.26088ZM6.95396 5.20559V13.7554H9.04604V5.20559H6.95396ZM10.0926 13.7554H12.7079V7.31516H10.0926V13.7554ZM10.0926 5.20559V6.26088H13.7545V5.20559H10.0926Z" fill="black"/>
</svg>
