<svg width="16" height="17" viewBox="0 0 16 17" fill="none" xmlns="http://www.w3.org/2000/svg">
<path d="M9.73774 5.2023C9.98406 4.92088 10.1333 4.55236 10.1333 4.14898C10.1333 3.26533 9.41699 2.54898 8.53333 2.54898C7.64968 2.54898 6.93333 3.26533 6.93333 4.14898C6.93333 4.55236 7.08261 4.92087 7.32892 5.20229L4.00819 11.1058C3.91889 11.0904 3.82705 11.0823 3.73333 11.0823C2.84968 11.0823 2.13333 11.7987 2.13333 12.6823C2.13333 13.566 2.84968 14.2823 3.73333 14.2823C4.42998 14.2823 5.02264 13.8371 5.24228 13.2156H11.8244C12.044 13.8371 12.6367 14.2823 13.3333 14.2823C14.217 14.2823 14.9333 13.566 14.9333 12.6823C14.9333 11.7987 14.217 11.0823 13.3333 11.0823C13.2396 11.0823 13.1478 11.0904 13.0585 11.1058L9.73774 5.2023ZM12.1289 11.629C11.9968 11.78 11.8926 11.956 11.8244 12.149H5.24229C5.17407 11.956 5.06987 11.78 4.93774 11.629L8.25848 5.72546C8.34778 5.74092 8.43962 5.74898 8.53333 5.74898C8.62705 5.74898 8.71889 5.74092 8.80818 5.72546L12.1289 11.629Z" fill="black"/>
</svg>
