<svg width="16" height="16" viewBox="0 0 16 16" fill="none" xmlns="http://www.w3.org/2000/svg">
<path d="M8.72727 0.727273C8.72727 0.325611 8.40166 0 8 0C7.59834 0 7.27273 0.325611 7.27273 0.727273V7.27273H0.727273C0.325611 7.27273 0 7.59834 0 8C0 8.40166 0.325611 8.72727 0.727273 8.72727H7.27273V15.2727C7.27273 15.6744 7.59834 16 8 16C8.40166 16 8.72727 15.6744 8.72727 15.2727V8.72727H15.2727C15.6744 8.72727 16 8.40166 16 8C16 7.59834 15.6744 7.27273 15.2727 7.27273H8.72727V0.727273Z" fill="black"/>
</svg>
