<svg width="16" height="17" viewBox="0 0 16 17" fill="none" xmlns="http://www.w3.org/2000/svg">
<path d="M2.4 4.14899C1.95818 4.14899 1.6 4.50716 1.6 4.94899L1.6 11.8367L3.42381 7.66799C3.61491 7.23121 4.04645 6.94897 4.5232 6.94897H12.8V7.74897L4.90948 7.74897C4.90928 7.74897 4.90969 7.74897 4.90948 7.74897L4.5232 7.74897C4.36428 7.74897 4.22044 7.84305 4.15674 7.98865L2.18569 12.4939L1.59999 13.749H12.8L15.0688 8.88728C15.3163 8.3569 14.9291 7.74897 14.3438 7.74897L12.8 7.74897L12.8 6.54897C12.8 6.10715 12.4418 5.74897 12 5.74897H6.66666L5.8375 4.50523C5.68912 4.28267 5.43934 4.14899 5.17186 4.14899H2.4Z" fill="black"/>
</svg>
