<svg width="16" height="16" viewBox="0 0 16 16" fill="none" xmlns="http://www.w3.org/2000/svg">
<path d="M12 4.66667H3.99998V3.33333H12V4.66667Z" fill="black"/>
<path d="M3.99998 7.33335H12V6.00002H3.99998V7.33335Z" fill="black"/>
<path d="M12 9.99998H3.99998V8.66665H12V9.99998Z" fill="black"/>
<path d="M3.99998 12.6667H8.66665V11.3333H3.99998V12.6667Z" fill="black"/>
<path d="M2.66665 0.666687C1.93027 0.666687 1.33331 1.26364 1.33331 2.00002V14C1.33331 14.7364 1.93027 15.3334 2.66665 15.3334H13.3333C14.0697 15.3334 14.6666 14.7364 14.6666 14V2.00002C14.6666 1.26364 14.0697 0.666687 13.3333 0.666687H2.66665ZM13.3333 2.00002L13.3333 14L2.66665 14L2.66665 2.00002H13.3333Z" fill="black"/>
</svg>
