<svg width="16" height="16" viewBox="0 0 16 16" fill="none" xmlns="http://www.w3.org/2000/svg">
<path fill-rule="evenodd" clip-rule="evenodd" d="M10.2294 2.67308C10.0202 2.24224 9.54337 1.99793 9.06284 2.0926L6.39955 2.61732L6.27265 2.65053C6.02461 2.73201 5.81337 2.90228 5.68131 3.13101L2.392 8.82827L2.33925 8.93215C2.12199 9.42439 2.30618 10.0115 2.78278 10.2867L6.3233 12.3308L6.5733 11.8978L3.03278 9.8537L2.95676 9.80122C2.74517 9.62827 2.68393 9.32263 2.82501 9.07827L6.11433 3.38101L6.17007 3.30116C6.25279 3.20202 6.36761 3.13322 6.4962 3.10789L9.15949 2.58317L9.26354 2.57243C9.50442 2.56986 9.72608 2.72144 9.80641 2.95667L10.6836 5.52551L10.7071 5.62002C10.7273 5.74755 10.7036 5.87927 10.638 5.99277L9.21316 8.46074L9.64617 8.71074L11.0711 6.24277L11.1295 6.12537C11.2314 5.88497 11.2422 5.61387 11.1568 5.36393L10.2796 2.79509L10.2294 2.67308ZM8.89957 3.78037C9.37786 4.05651 9.54173 4.6681 9.26559 5.14639C8.98945 5.62468 8.37786 5.78856 7.89957 5.51242C7.42127 5.23627 7.2574 4.62468 7.53354 4.14639C7.80968 3.6681 8.42127 3.50422 8.89957 3.78037ZM8.64957 4.21338C8.41042 4.07531 8.10463 4.15724 7.96655 4.39639C7.82848 4.63554 7.91042 4.94133 8.14957 5.0794C8.38871 5.21748 8.69451 5.13554 8.83258 4.89639C8.97065 4.65724 8.88871 4.35145 8.64957 4.21338ZM13.7357 11.8632C12.8403 10.5298 11.8403 9.86317 10.7357 9.86317C9.63114 9.86317 8.63114 10.5298 7.73571 11.8632C8.63114 13.1965 9.63114 13.8632 10.7357 13.8632C11.8403 13.8632 12.8403 13.1965 13.7357 11.8632ZM8.45697 11.719C9.17667 10.801 9.93369 10.3632 10.7357 10.3632L10.9069 10.3699C11.6457 10.4282 12.3461 10.8666 13.0144 11.719L13.123 11.863L13.0144 12.0074C12.2947 12.9253 11.5377 13.3632 10.7357 13.3632L10.5645 13.3565C9.82573 13.2982 9.12526 12.8598 8.45697 12.0074L8.348 11.863L8.45697 11.719ZM10.7357 10.8632C11.288 10.8632 11.7357 11.3109 11.7357 11.8632C11.7357 12.4155 11.288 12.8632 10.7357 12.8632C10.1834 12.8632 9.73571 12.4155 9.73571 11.8632C9.73571 11.3109 10.1834 10.8632 10.7357 10.8632ZM10.7357 11.3632C10.4596 11.3632 10.2357 11.587 10.2357 11.8632C10.2357 12.1393 10.4596 12.3632 10.7357 12.3632C11.0118 12.3632 11.2357 12.1393 11.2357 11.8632C11.2357 11.587 11.0118 11.3632 10.7357 11.3632Z" fill="black"/>
</svg>
