<svg width="16" height="17" viewBox="0 0 16 17" fill="none" xmlns="http://www.w3.org/2000/svg">
<path d="M5.33335 2.70239C5.33335 2.15011 5.78107 1.70239 6.33335 1.70239H9.66669C10.219 1.70239 10.6667 2.15011 10.6667 2.70239V3.53573L13.3334 3.53572C13.6095 3.53572 13.8334 3.75958 13.8334 4.03572C13.8334 4.31187 13.6095 4.53572 13.3334 4.53572L2.66669 4.53573C2.39054 4.53573 2.16669 4.31187 2.16669 4.03573C2.16669 3.75958 2.39054 3.53573 2.66669 3.53573L5.33335 3.53573V2.70239ZM6.33335 2.70239V3.36906H9.66669V2.70239L6.33335 2.70239Z" fill="black"/>
<path d="M7.00002 8.70239C7.00002 8.42625 6.77616 8.20239 6.50002 8.20239C6.22388 8.20239 6.00002 8.42625 6.00002 8.70239V12.7024C6.00002 12.9785 6.22388 13.2024 6.50002 13.2024C6.77616 13.2024 7.00002 12.9785 7.00002 12.7024V8.70239Z" fill="black"/>
<path d="M9.50002 8.20239C9.77616 8.20239 10 8.42625 10 8.70239V12.7024C10 12.9785 9.77616 13.2024 9.50002 13.2024C9.22388 13.2024 9.00002 12.9785 9.00002 12.7024V8.70239C9.00002 8.42625 9.22388 8.20239 9.50002 8.20239Z" fill="black"/>
<path d="M3.75952 5.36906C3.17229 5.36906 2.71145 5.87267 2.76345 6.4576L3.47456 14.4576C3.52042 14.9735 3.95266 15.3691 4.47063 15.3691H11.5294C12.0474 15.3691 12.4796 14.9735 12.5255 14.4576L13.2366 6.4576C13.2886 5.87267 12.8278 5.36906 12.2405 5.36906H3.75952ZM12.2405 6.36906L11.5294 14.3691H4.47063L3.75952 6.36906H12.2405Z" fill="black"/>
</svg>
