<svg width="16" height="17" viewBox="0 0 16 17" fill="none" xmlns="http://www.w3.org/2000/svg">
<path d="M11.8519 9.83786V9.24527H4.74074C4.41346 9.24527 4.14815 9.51058 4.14815 9.83786V14.5786L2.77777 14.5786C2.55277 14.5786 2.37036 14.3962 2.37036 14.1712V7.55919C2.37036 7.43314 2.41055 7.31039 2.48509 7.20875L5.15974 3.56149C5.27137 3.40927 5.44884 3.31934 5.63761 3.31934H6.51852V6.8749C6.51852 7.20218 6.78383 7.46749 7.11111 7.46749H11.2593C11.5865 7.46749 11.8519 7.20218 11.8519 6.8749V3.31934L13.2222 3.31934C13.4472 3.31934 13.6296 3.50174 13.6296 3.72675V8.65268H14.2222V3.72675C14.2222 3.17446 13.7745 2.72675 13.2222 2.72675H5.63761C5.26008 2.72675 4.90513 2.90661 4.68187 3.21106L2.00722 6.85831C1.85815 7.06159 1.77777 7.3071 1.77777 7.55919V14.1712C1.77777 14.7235 2.22549 15.1712 2.77777 15.1712L8.88889 15.1712V14.5786H4.74074L4.74074 9.83786H11.8519ZM11.2593 3.31934V6.8749L7.11111 6.8749V3.31934H11.2593Z" fill="black"/>
<path d="M13.8667 10.2527L13.3926 10.6082L14.8148 12.5045H9.48148V13.0971H14.8148L13.3926 14.9934L13.8667 15.349L15.7778 12.8008L13.8667 10.2527Z" fill="black"/>
</svg>
