<svg width="16" height="16" viewBox="0 0 16 16" fill="none" xmlns="http://www.w3.org/2000/svg">
<path d="M5.27273 7.27275V12.3637H6.36364V7.27275H5.27273Z" fill="black"/>
<path d="M7.45455 12.3637V7.27275H8.54546V12.3637H7.45455Z" fill="black"/>
<path d="M9.63637 7.27275V12.3637H10.7273V7.27275H9.63637Z" fill="black"/>
<path d="M5.09091 2.90911V1.45457C5.09091 1.05291 5.41653 0.727295 5.81819 0.727295H10.1818C10.5835 0.727295 10.9091 1.05291 10.9091 1.45457V2.90911L13.0909 2.90911C13.4926 2.90911 13.8182 3.23472 13.8182 3.63639V5.45457C13.8182 5.85623 13.4926 6.18184 13.0909 6.18184V13.8182C13.0909 14.2199 12.7653 14.5455 12.3636 14.5455H3.63637C3.23471 14.5455 2.9091 14.2199 2.9091 13.8182L2.9091 6.18184C2.50744 6.18184 2.18182 5.85623 2.18182 5.45457V3.63639C2.18182 3.23472 2.50743 2.90911 2.9091 2.90911L5.09091 2.90911ZM6.18182 2.90911H9.81819V1.8182H6.18182V2.90911ZM4.00001 6.18184V13.4546H12V6.18184H4.00001ZM12.7273 4.00002H3.27273V5.09093H12.7273V4.00002Z" fill="black"/>
</svg>
