<svg width="16" height="16" viewBox="0 0 16 16" fill="none" xmlns="http://www.w3.org/2000/svg">
<path d="M3.75 3.49574C3.75 4.1861 4.30964 4.74574 5 4.74574C5.16683 4.74574 5.32603 4.71306 5.47154 4.65375L7.11262 7.11537C6.94197 7.28737 6.82098 7.50871 6.77295 7.75609L3.72559 7.74871C3.61093 7.17667 3.10579 6.74574 2.5 6.74574C1.80964 6.74574 1.25 7.30539 1.25 7.99574C1.25 8.6861 1.80964 9.24574 2.5 9.24574C3.10369 9.24574 3.60743 8.81779 3.72439 8.24871L6.77715 8.25611C6.8278 8.49513 6.94675 8.70893 7.11262 8.87612L5.47154 11.3377C5.32603 11.2784 5.16683 11.2457 5 11.2457C4.30964 11.2457 3.75 11.8054 3.75 12.4957C3.75 13.1861 4.30964 13.7457 5 13.7457C5.69036 13.7457 6.25 13.1861 6.25 12.4957C6.25 12.1523 6.11153 11.8413 5.88738 11.6154L7.52846 9.15375C7.67397 9.21306 7.83317 9.24574 8 9.24574C8.16683 9.24574 8.32603 9.21306 8.47154 9.15375L10.1126 11.6154C9.88847 11.8413 9.75 12.1523 9.75 12.4957C9.75 13.1861 10.3096 13.7457 11 13.7457C11.6904 13.7457 12.25 13.1861 12.25 12.4957C12.25 11.8054 11.6904 11.2457 11 11.2457C10.8332 11.2457 10.674 11.2784 10.5285 11.3377L8.88738 8.87612C9.05188 8.71032 9.17023 8.49866 9.22158 8.26203L12.2801 8.26944C12.4049 8.82815 12.9037 9.24574 13.5 9.24574C14.1904 9.24574 14.75 8.6861 14.75 7.99574C14.75 7.30539 14.1904 6.74574 13.5 6.74574C12.8869 6.74574 12.3769 7.1871 12.2704 7.76941L9.22819 7.76204C9.18095 7.51225 9.05939 7.28874 8.88738 7.11537L10.5285 4.65375C10.674 4.71306 10.8332 4.74574 11 4.74574C11.6904 4.74574 12.25 4.1861 12.25 3.49574C12.25 2.80539 11.6904 2.24574 11 2.24574C10.3096 2.24574 9.75 2.80539 9.75 3.49574C9.75 3.83914 9.88847 4.15019 10.1126 4.37612L8.47154 6.83774C8.32603 6.77843 8.16683 6.74574 8 6.74574C7.83317 6.74574 7.67397 6.77843 7.52846 6.83774L5.88738 4.37612C6.11153 4.15019 6.25 3.83914 6.25 3.49574C6.25 2.80539 5.69036 2.24574 5 2.24574C4.30964 2.24574 3.75 2.80539 3.75 3.49574ZM5.75 3.49574C5.75 3.90996 5.41421 4.24574 5 4.24574C4.58579 4.24574 4.25 3.90996 4.25 3.49574C4.25 3.08153 4.58579 2.74574 5 2.74574C5.41421 2.74574 5.75 3.08153 5.75 3.49574ZM8 8.74574C7.58579 8.74574 7.25 8.40996 7.25 7.99574C7.25 7.58153 7.58579 7.24574 8 7.24574C8.41421 7.24574 8.75 7.58153 8.75 7.99574C8.75 8.40996 8.41421 8.74574 8 8.74574ZM5.75 12.4957C5.75 12.91 5.41421 13.2457 5 13.2457C4.58579 13.2457 4.25 12.91 4.25 12.4957C4.25 12.0815 4.58579 11.7457 5 11.7457C5.41421 11.7457 5.75 12.0815 5.75 12.4957ZM11 13.2457C10.5858 13.2457 10.25 12.91 10.25 12.4957C10.25 12.0815 10.5858 11.7457 11 11.7457C11.4142 11.7457 11.75 12.0815 11.75 12.4957C11.75 12.91 11.4142 13.2457 11 13.2457ZM3.25 7.99574C3.25 8.40996 2.91421 8.74574 2.5 8.74574C2.08579 8.74574 1.75 8.40996 1.75 7.99574C1.75 7.58153 2.08579 7.24574 2.5 7.24574C2.91421 7.24574 3.25 7.58153 3.25 7.99574ZM13.5 8.74574C13.0858 8.74574 12.75 8.40996 12.75 7.99574C12.75 7.58153 13.0858 7.24574 13.5 7.24574C13.9142 7.24574 14.25 7.58153 14.25 7.99574C14.25 8.40996 13.9142 8.74574 13.5 8.74574ZM11 4.24574C10.5858 4.24574 10.25 3.90996 10.25 3.49574C10.25 3.08153 10.5858 2.74574 11 2.74574C11.4142 2.74574 11.75 3.08153 11.75 3.49574C11.75 3.90996 11.4142 4.24574 11 4.24574Z" fill="black"/>
</svg>
