<svg width="16" height="16" viewBox="0 0 16 16" fill="none" xmlns="http://www.w3.org/2000/svg">
<path d="M1.88693 3.38966C0.950496 2.29715 1.72676 0.609375 3.16567 0.609375H12.9775C14.4164 0.609375 15.1927 2.29715 14.2563 3.38966L10.5979 7.65773V13.9837C10.5979 15.2357 9.28033 16.05 8.1605 15.4901L6.47629 14.648C5.9057 14.3627 5.54528 13.7795 5.54528 13.1416L5.54528 7.65773L1.88693 3.38966ZM12.9775 2.29359L3.16567 2.29359L6.82403 6.56166C7.08567 6.86691 7.22949 7.25569 7.22949 7.65773V13.1416L8.9137 13.9837V7.65773C8.9137 7.25569 9.05752 6.86691 9.31916 6.56166L12.9775 2.29359Z" fill="black"/>
</svg>
