<svg width="16" height="16" viewBox="0 0 16 16" fill="none" xmlns="http://www.w3.org/2000/svg">
<path d="M11.1373 1.5094C11.4213 1.22538 11.8818 1.22538 12.1658 1.5094L14.2228 3.56644C14.5068 3.85046 14.5068 4.31094 14.2228 4.59496L7.53746 11.2803H4.4519L4.4519 8.19477L11.1373 1.5094ZM13.1943 4.0807L11.6515 2.53792L10.4493 3.74014L11.9827 5.29235L13.1943 4.0807ZM5.54281 8.64664L5.54281 10.1894L7.08559 10.1894L11.2113 6.06376L9.67791 4.51154L5.54281 8.64664Z" fill="black"/>
<path d="M2.72726 2.90912C2.72726 2.8087 2.80867 2.7273 2.90908 2.7273H7.99999V1.63639H2.90908C2.20617 1.63639 1.63635 2.20621 1.63635 2.90912V13.0909C1.63635 13.7938 2.20617 14.3637 2.90908 14.3637H13.0909C13.7938 14.3637 14.3636 13.7938 14.3636 13.0909V8.00002H13.2727V13.0909C13.2727 13.1913 13.1913 13.2728 13.0909 13.2728H2.90908C2.80866 13.2728 2.72726 13.1913 2.72726 13.0909V2.90912Z" fill="black"/>
</svg>
