<svg width="16" height="16" viewBox="0 0 16 16" fill="none" xmlns="http://www.w3.org/2000/svg">
<path d="M5.75 5V4.5H4.86765L4.73574 4.50639C4.04128 4.57401 3.5 5.17001 3.5 5.89286V6.75H4V5.89286L4.00678 5.78062C4.06048 5.33956 4.42649 5 4.86765 5H5.75Z" fill="black"/>
<path d="M4 9.25V10.1071C4 10.5635 4.33207 10.9381 4.75906 10.9931L4.86765 11H5.75V11.5H4.86765C4.15556 11.5 3.57239 10.9465 3.50625 10.2411L3.5 10.1071V9.25H4Z" fill="black"/>
<path d="M12.5 9.25V10.1071C12.5 10.83 11.9587 11.426 11.2643 11.4936L11.1324 11.5H10.25V11H11.1324C11.5735 11 11.9395 10.6604 11.9932 10.2194L12 10.1071V9.25H12.5Z" fill="black"/>
<path d="M11.1324 4.5C11.8444 4.5 12.4276 5.05349 12.4938 5.75891L12.5 5.89286V6.75H12V5.89286C12 5.43654 11.6679 5.06188 11.2409 5.00694L11.1324 5H10.25V4.5H11.1324Z" fill="black"/>
<path d="M10.4352 5.43421C10.9875 5.43421 11.4352 5.88193 11.4352 6.43421V9.56579C11.4352 10.1181 10.9875 10.5658 10.4352 10.5658H5.55285C5.00057 10.5658 4.55285 10.1181 4.55285 9.56579V6.43421C4.55285 5.88193 5.00057 5.43421 5.55285 5.43421H10.4352ZM10.4352 5.93421H5.55285C5.30739 5.93421 5.10324 6.11109 5.06091 6.34433L5.05285 6.43421V9.56579C5.05285 9.81125 5.22973 10.0154 5.46298 10.0577L5.55285 10.0658H10.4352C10.6807 10.0658 10.8848 9.88891 10.9271 9.65567L10.9352 9.56579V6.43421C10.9352 6.18875 10.7583 5.9846 10.5251 5.94227L10.4352 5.93421Z" fill="black"/>
</svg>
