<svg width="16" height="16" viewBox="0 0 16 16" fill="none" xmlns="http://www.w3.org/2000/svg">
<path d="M13.5 13C14.2723 13 15 12.3002 15 11.5V3.5C15 2.6998 14.2723 2 13.5 2H2.5C1.72775 2 1 2.6998 1 3.5V11.5C1 12.3002 1.72775 13 2.5 13H13.5ZM2.78502 3H13.2199C13.6527 3 14.0035 3.35592 14.0035 3.79496V11.205C14.0035 11.6441 13.6527 12 13.2199 12H2.78502C2.35226 12 2.00145 11.6441 2.00145 11.205V7H14V5H2.00145V3.79496C2.00145 3.35592 2.35226 3 2.78502 3ZM2.00145 5H2V7H2.00145V5ZM6 10H3V11H6V10Z" fill="black"/>
</svg>
