<svg width="16" height="16" viewBox="0 0 16 16" fill="none" xmlns="http://www.w3.org/2000/svg">
<path d="M0.988342 0.988327V5.19999H1.57168V1.57166H5.20001V0.988327H0.988342Z" fill="black"/>
<path d="M10.8 1.57166H14.4283V5.19999H15.0117V0.988327H10.8V1.57166Z" fill="black"/>
<path d="M1.57168 10.8V14.4283H5.20001V15.0117H0.988342V10.8H1.57168Z" fill="black"/>
<path d="M14.4283 10.8V14.4283H10.8V15.0117H15.0117V10.8H14.4283Z" fill="black"/>
<path d="M9.12001 5.75999C9.12001 7.30639 7.86641 8.56 6.32001 8.56C4.77361 8.56 3.52001 7.30639 3.52001 5.75999C3.52001 4.2136 4.77361 2.95999 6.32001 2.95999C7.86641 2.95999 9.12001 4.2136 9.12001 5.75999ZM8.53668 5.75999C8.53668 4.53576 7.54424 3.54333 6.32001 3.54333C5.09578 3.54333 4.10334 4.53576 4.10334 5.75999C4.10334 6.98423 5.09578 7.97666 6.32001 7.97666C7.54424 7.97666 8.53668 6.98423 8.53668 5.75999Z" fill="black"/>
<path d="M7.44001 13.6C8.36785 13.6 9.12001 12.8478 9.12001 11.92C9.12001 10.9922 8.36785 10.24 7.44001 10.24C6.51217 10.24 5.76001 10.9922 5.76001 11.92C5.76001 12.8478 6.51217 13.6 7.44001 13.6ZM7.44001 13.0167C6.83434 13.0167 6.34334 12.5257 6.34334 11.92C6.34334 11.3143 6.83434 10.8233 7.44001 10.8233C8.04568 10.8233 8.53668 11.3143 8.53668 11.92C8.53668 12.5257 8.04568 13.0167 7.44001 13.0167Z" fill="black"/>
<path d="M13.04 9.12C13.04 9.73855 12.5386 10.24 11.92 10.24C11.3015 10.24 10.8 9.73855 10.8 9.12C10.8 8.50144 11.3015 8 11.92 8C12.5386 8 13.04 8.50144 13.04 9.12ZM12.4567 9.12C12.4567 8.8236 12.2164 8.58333 11.92 8.58333C11.6236 8.58333 11.3833 8.8236 11.3833 9.12C11.3833 9.41639 11.6236 9.65666 11.92 9.65666C12.2164 9.65666 12.4567 9.41639 12.4567 9.12Z" fill="black"/>
</svg>
