<svg width="16" height="16" viewBox="0 0 16 16" fill="none" xmlns="http://www.w3.org/2000/svg">
<path d="M8 1.55001C5.54233 1.55001 3.55 3.54235 3.55 6.00001C3.55 7.45534 4.24803 8.74748 5.32988 9.56029C5.57273 9.74275 5.62169 10.0875 5.43923 10.3304C5.25677 10.5732 4.91199 10.6222 4.66914 10.4397C3.32265 9.42809 2.45 7.81588 2.45 6.00001C2.45 2.93483 4.93482 0.450012 8 0.450012C11.0652 0.450012 13.55 2.93483 13.55 6.00001C13.55 7.81611 12.677 9.42818 11.3303 10.4398C11.0875 10.6222 10.7427 10.5732 10.5602 10.3303C10.3778 10.0875 10.4268 9.74271 10.6697 9.56027C11.7517 8.74742 12.45 7.4554 12.45 6.00001C12.45 3.54235 10.4577 1.55001 8 1.55001ZM6.11109 5.1111C6.32588 4.89632 6.67412 4.89632 6.88891 5.1111L8 6.22219L9.11109 5.1111C9.32588 4.89632 9.67412 4.89632 9.88891 5.1111C10.1037 5.32589 10.1037 5.67413 9.88891 5.88892L8.55 7.22783V10C8.55 10.3038 8.30375 10.55 8 10.55C7.69624 10.55 7.45 10.3038 7.45 10V7.22783L6.11109 5.88892C5.8963 5.67413 5.8963 5.32589 6.11109 5.1111ZM8 15C8.55228 15 9 14.5523 9 14H7C7 14.5523 7.44771 15 8 15ZM4.45 11.5C4.45 11.1963 4.69624 10.95 5 10.95H11C11.3038 10.95 11.55 11.1963 11.55 11.5C11.55 11.8038 11.3038 12.05 11 12.05H5C4.69624 12.05 4.45 11.8038 4.45 11.5ZM5 12.45C4.69624 12.45 4.45 12.6963 4.45 13C4.45 13.3038 4.69624 13.55 5 13.55H11C11.3038 13.55 11.55 13.3038 11.55 13C11.55 12.6963 11.3038 12.45 11 12.45H5Z" fill="black"/>
</svg>
