<svg width="16" height="16" viewBox="0 0 16 16" fill="none" xmlns="http://www.w3.org/2000/svg">
<path d="M5.23768 6.68964L6.10311 7.19067L6.35362 6.75796L5.4882 6.25692L5.23768 6.68964Z" fill="black"/>
<path d="M7.75 8.14414L6.96853 7.69171L7.21905 7.259L8.08448 7.76003L7.94555 8H8.25V8.75H7.75V8.14414Z" fill="black"/>
<path d="M8.9499 7.73893L9.81533 7.23789L9.56481 6.80518L8.69939 7.30622L8.9499 7.73893Z" fill="black"/>
<path d="M11.5462 6.23582L10.6808 6.73686L10.4302 6.30414L11.2957 5.80311L11.5462 6.23582Z" fill="black"/>
<path d="M8.25 9.75V10.75H7.75V9.75H8.25Z" fill="black"/>
<path d="M9 2.5C9 1.94772 8.55228 1.5 8 1.5C7.44772 1.5 7 1.94772 7 2.5L7.00016 2.51782C6.9707 2.53308 6.94155 2.54903 6.91275 2.56566L3.83725 4.3413L3.78141 4.37592C3.59816 4.14678 3.31622 4 3 4C2.44772 4 2 4.44772 2 5C2 5.47122 2.32593 5.86632 2.76466 5.97215C2.75491 6.05568 2.75 6.13991 2.75 6.22447V9.66764C2.31869 9.77866 2 10.1702 2 10.6361C2 11.1884 2.44772 11.6361 3 11.6361C3.20628 11.6361 3.39797 11.5737 3.55719 11.4666C3.64507 11.5377 3.73865 11.602 3.83725 11.6589L6.91275 13.4346L7.00018 13.4807L7 13.5C7 14.0523 7.44772 14.5 8 14.5C8.55228 14.5 9 14.0523 9 13.5L8.99983 13.4816L9.08725 13.4346L12.1627 11.6589L12.3384 11.5459C12.3741 11.5205 12.4089 11.4941 12.4428 11.4666C12.602 11.5737 12.7937 11.6361 13 11.6361C13.5523 11.6361 14 11.1884 14 10.6361C14 10.1702 13.6813 9.77866 13.25 9.66764V6.22447L13.2456 6.08571C13.2432 6.04774 13.2397 6.00987 13.2353 5.97215C13.6741 5.86632 14 5.47122 14 5C14 4.44772 13.5523 4 13 4C12.6838 4 12.402 4.14672 12.2187 4.37578L12.1627 4.3413L9.08725 2.56566L8.99982 2.5191L9 2.5ZM12.0131 4.83766C12.0045 4.8905 12 4.94473 12 5C12 5.45787 12.3077 5.84387 12.7276 5.96246L12.7424 6.0644L12.75 6.22447V9.66764C12.3187 9.77866 12 10.1702 12 10.6361C12 10.8006 12.0397 10.9557 12.11 11.0925C12.0477 11.1414 11.9818 11.186 11.9127 11.2259L8.85956 12.9887C8.72632 12.7652 8.50836 12.598 8.25 12.5315V11.75H7.75V12.5315C7.49164 12.598 7.27368 12.7652 7.14044 12.9887L4.08725 11.2259L3.95286 11.1396C3.93153 11.1244 3.91057 11.1087 3.89001 11.0925C3.96032 10.9557 4 10.8006 4 10.6361C4 10.1702 3.68131 9.77866 3.25 9.66764V6.22447L3.25388 6.11041C3.25724 6.06097 3.26279 6.01179 3.2705 5.96298C3.40905 5.92415 3.53543 5.85622 3.64264 5.7662L4.37225 6.1886L4.62277 5.75589L3.93428 5.35729C3.97674 5.24633 4 5.12588 4 5C4 4.94468 3.99551 4.8904 3.98687 4.83753L3.99773 4.82981L4.08725 4.77431L7.14054 3.0115C7.31502 3.30405 7.63462 3.5 8 3.5C8.36538 3.5 8.68498 3.30405 8.85946 3.0115L11.9127 4.77431L11.9948 4.82485L12.0131 4.83766ZM7.5 2.5C7.5 2.22386 7.72386 2 8 2C8.27614 2 8.5 2.22386 8.5 2.5C8.5 2.77614 8.27614 3 8 3C7.72386 3 7.5 2.77614 7.5 2.5ZM8 13C8.27614 13 8.5 13.2239 8.5 13.5C8.5 13.7761 8.27614 14 8 14C7.72386 14 7.5 13.7761 7.5 13.5C7.5 13.2239 7.72386 13 8 13ZM2.5 10.6361C2.5 10.36 2.72386 10.1361 3 10.1361C3.27614 10.1361 3.5 10.36 3.5 10.6361C3.5 10.9123 3.27614 11.1361 3 11.1361C2.72386 11.1361 2.5 10.9123 2.5 10.6361ZM3 4.5C3.27614 4.5 3.5 4.72386 3.5 5C3.5 5.27614 3.27614 5.5 3 5.5C2.72386 5.5 2.5 5.27614 2.5 5C2.5 4.72386 2.72386 4.5 3 4.5ZM12.5 10.6361C12.5 10.36 12.7239 10.1361 13 10.1361C13.2761 10.1361 13.5 10.36 13.5 10.6361C13.5 10.9123 13.2761 11.1361 13 11.1361C12.7239 11.1361 12.5 10.9123 12.5 10.6361ZM13 4.5C13.2761 4.5 13.5 4.72386 13.5 5C13.5 5.27614 13.2761 5.5 13 5.5C12.7239 5.5 12.5 5.27614 12.5 5C12.5 4.72386 12.7239 4.5 13 4.5Z" fill="black"/>
</svg>
