<svg width="16" height="16" viewBox="0 0 16 16" fill="none" xmlns="http://www.w3.org/2000/svg">
<path d="M1 8C1 4.13438 4.13438 1 8 1C11.8656 1 15 4.13438 15 8C15 11.8656 11.8656 15 8 15C4.13438 15 1 11.8656 1 8ZM4.5 6.57812C4.5 6.99234 4.83579 7.32812 5.25 7.32812C5.66421 7.32812 6 6.99234 6 6.57812C6 6.16391 5.66421 5.82812 5.25 5.82812C4.83579 5.82812 4.5 6.16391 4.5 6.57812ZM10 6.57812C10 6.99234 10.3358 7.32812 10.75 7.32812C11.1642 7.32812 11.5 6.99234 11.5 6.57812C11.5 6.16391 11.1642 5.82812 10.75 5.82812C10.3358 5.82812 10 6.16391 10 6.57812ZM12.1094 12.1094C12.6438 11.5766 13.0641 10.9547 13.3562 10.2625C13.6594 9.54688 13.8125 8.78594 13.8125 8C13.8125 7.21406 13.6594 6.45312 13.3578 5.73906C13.0641 5.04688 12.6453 4.425 12.1109 3.89062C11.5766 3.35625 10.9547 2.93594 10.2625 2.64375C9.54688 2.34063 8.78594 2.1875 8 2.1875C7.21406 2.1875 6.45312 2.34063 5.73906 2.64219C5.04688 2.93594 4.425 3.35469 3.89062 3.88906C3.35625 4.42344 2.93594 5.04531 2.64375 5.7375C2.34063 6.45312 2.1875 7.21406 2.1875 8C2.1875 8.78594 2.34063 9.54688 2.64219 10.2609C2.93594 10.9531 3.35469 11.575 3.88906 12.1094C4.42344 12.6438 5.04531 13.0641 5.7375 13.3562C6.45312 13.6594 7.21406 13.8125 8 13.8125C8.78594 13.8125 9.54688 13.6594 10.2609 13.3562C10.9531 13.0625 11.575 12.6438 12.1094 12.1094ZM5.5 10.6969C5.56875 9.37969 6.66406 8.32812 8 8.32812C9.33594 8.32812 10.4312 9.37969 10.5 10.6969C10.5031 10.7688 10.4469 10.8281 10.375 10.8281H9.62344C9.55781 10.8281 9.50156 10.7781 9.49688 10.7125C9.43906 9.93906 8.78906 9.32812 8 9.32812C7.21094 9.32812 6.5625 9.93906 6.50313 10.7125C6.49844 10.7781 6.44219 10.8281 6.37656 10.8281H5.625C5.55313 10.8281 5.49688 10.7688 5.5 10.6969Z" fill="black"/>
</svg>
