<svg width="16" height="16" viewBox="0 0 16 16" fill="none" xmlns="http://www.w3.org/2000/svg">
<path d="M7.7037 4V8.14815L10.1079 9.95132L10.4635 9.47725L8.2963 7.85185V4H7.7037Z" fill="black"/>
<path d="M13.7143 7.99999C13.7143 11.1559 11.1559 13.7143 8.00001 13.7143C4.84409 13.7143 2.28572 11.1559 2.28572 7.99999C2.28572 4.84408 4.84409 2.28571 8.00001 2.28571C11.1559 2.28571 13.7143 4.84408 13.7143 7.99999ZM13.1217 7.99999C13.1217 5.17136 10.8286 2.8783 8.00001 2.8783C5.17137 2.8783 2.87831 5.17136 2.87831 7.99999C2.87831 10.8286 5.17137 13.1217 8.00001 13.1217C10.8286 13.1217 13.1217 10.8286 13.1217 7.99999Z" fill="black"/>
</svg>
