<svg width="16" height="17" viewBox="0 0 16 17" fill="none" xmlns="http://www.w3.org/2000/svg">
<path d="M7.06513 11.8052C7.59953 12.0267 8.18548 12.149 8.8 12.149C9.76289 12.149 10.6557 11.8488 11.3898 11.3369L14.4379 14.3849L15.5693 13.2535L12.5212 10.2055C13.0331 9.47131 13.3333 8.57853 13.3333 7.61564C13.3333 5.11195 11.3037 3.08231 8.8 3.08231C6.29631 3.08231 4.26666 5.11195 4.26666 7.61564C4.26666 9.12328 5.00263 10.459 6.13489 11.2832L5.47176 12.4674C5.34238 12.4336 5.20662 12.4157 5.06667 12.4157C4.77343 12.4157 4.49862 12.4945 4.26229 12.6322L3.01753 11.2917C3.13406 11.0698 3.2 10.8171 3.2 10.549C3.2 9.66533 2.48366 8.94899 1.6 8.94899C0.716345 8.94899 0 9.66533 0 10.549C0 11.4326 0.716345 12.149 1.6 12.149C1.82599 12.149 2.04103 12.1021 2.23595 12.0176L3.56852 13.4527C3.50268 13.6278 3.46667 13.8175 3.46667 14.0157C3.46667 14.8993 4.18301 15.6157 5.06667 15.6157C5.95032 15.6157 6.66667 14.8993 6.66667 14.0157C6.66667 13.6617 6.55171 13.3345 6.35709 13.0695L7.06513 11.8052ZM8.8 10.549C8.46959 10.549 8.15194 10.4943 7.85559 10.3936L8.52814 9.19265C8.6165 9.20778 8.70733 9.21566 8.8 9.21566C9.68366 9.21566 10.4 8.49931 10.4 7.61566C10.4 6.732 9.68366 6.01566 8.8 6.01566C7.91635 6.01566 7.2 6.732 7.2 7.61566C7.2 8.02012 7.35008 8.38954 7.59759 8.67125L6.92528 9.87181C6.27844 9.33375 5.86666 8.52278 5.86666 7.61564C5.86666 5.9956 7.17996 4.68231 8.8 4.68231C10.42 4.68231 11.7333 5.9956 11.7333 7.61564C11.7333 9.23568 10.42 10.549 8.8 10.549Z" fill="black"/>
</svg>
