<svg width="16" height="16" viewBox="0 0 16 16" fill="none" xmlns="http://www.w3.org/2000/svg">
<path d="M6 10C6 9.44771 5.55229 9 5 9C4.44772 9 4 9.44771 4 10C4 10.5523 4.44772 11 5 11C5.55229 11 6 10.5523 6 10Z" fill="black"/>
<path d="M11 9C11.5523 9 12 9.44771 12 10C12 10.5523 11.5523 11 11 11C10.4477 11 10 10.5523 10 10C10 9.44771 10.4477 9 11 9Z" fill="black"/>
<path d="M11.5 2.5C12.0523 2.5 12.5 2.94772 12.5 3.5V7.5C12.5 8.05228 12.0523 8.5 11.5 8.5H4.5C3.94772 8.5 3.5 8.05228 3.5 7.5V3.5C3.5 2.94772 3.94772 2.5 4.5 2.5H11.5ZM11.5 3.5H4.5V7.5H11.5V3.5Z" fill="black"/>
<path d="M12 1C13.1046 1 14 1.89543 14 3V11C14 12.1046 13.1046 13 12 13H11.8516L14.3254 15.1204L13.6746 15.8796L10.315 13H5.68496L2.3254 15.8796L1.67461 15.1204L4.14837 13H4C2.89543 13 2 12.1046 2 11V3C2 1.89543 2.89543 1 4 1H12ZM12 2H4C3.48717 2 3.06449 2.38604 3.00673 2.88338L3 3V11C3 11.5128 3.38604 11.9355 3.88338 11.9933L4 12H12C12.5128 12 12.9355 11.614 12.9933 11.1166L13 11V3C13 2.48716 12.614 2.06449 12.1166 2.00673L12 2Z" fill="black"/>
</svg>
