<svg width="16" height="16" viewBox="0 0 16 16" fill="none" xmlns="http://www.w3.org/2000/svg">
<path d="M13 7.5V8.5H8V7.5H13Z" fill="black"/>
<path d="M4 8.5V7.5H3V8.5H4Z" fill="black"/>
<path d="M6 7.5V8.5H5V7.5H6Z" fill="black"/>
<path d="M13 12.5V11.5H8V12.5H13Z" fill="black"/>
<path d="M4 11.5V12.5H3V11.5H4Z" fill="black"/>
<path d="M6 12.5V11.5H5V12.5H6Z" fill="black"/>
<path d="M13 4.5V3.5H8V4.5H13Z" fill="black"/>
<path d="M4 3.5V4.5H3V3.5H4Z" fill="black"/>
<path d="M6 4.5V3.5H5V4.5H6Z" fill="black"/>
<path d="M1 1.5H15V14.5H1V1.5ZM14 6.5H2V9.5H14V6.5ZM2 13.5H14V10.5H2V13.5ZM14 5.5V2.5H2V5.5H14Z" fill="black"/>
</svg>
