<svg width="16" height="16" viewBox="0 0 16 16" fill="none" xmlns="http://www.w3.org/2000/svg">
<path fill-rule="evenodd" clip-rule="evenodd" d="M2.81284 6.16662C3.56811 4.02976 5.60605 2.5 8.00001 2.5C9.97219 2.5 11.7028 3.53822 12.6736 5.09878L10.9552 4.63833L10.6964 5.60425L14.0771 6.51012L14.983 3.12938L14.017 2.87056L13.5497 4.61458C12.4081 2.74702 10.3501 1.5 8.00001 1.5C5.16909 1.5 2.76207 3.30947 1.87 5.83338L2.81284 6.16662ZM13.1872 9.83338C12.4319 11.9702 10.394 13.5 8.00002 13.5C6.02823 13.5 4.29796 12.4622 3.32701 10.9022L5.04589 11.3639L5.30532 10.3982L1.92516 9.49013L1.01714 12.8703L1.9829 13.1297L2.45112 11.3868C3.59292 13.2536 5.65046 14.5 8.00002 14.5C10.8309 14.5 13.238 12.6905 14.13 10.1666L13.1872 9.83338Z" fill="black"/>
</svg>
