<svg width="16" height="17" viewBox="0 0 16 17" fill="none" xmlns="http://www.w3.org/2000/svg">
<path d="M11.7604 7.47705C12.0808 6.97863 12.2667 6.38551 12.2667 5.74898C12.2667 3.98167 10.834 2.54898 9.06667 2.54898C7.29936 2.54898 5.86667 3.98167 5.86667 5.74898C5.86667 6.90548 6.48017 7.91869 7.39948 8.48091L5.93173 12.1503C5.91015 12.1494 5.88845 12.149 5.86666 12.149C5.62605 12.149 5.39784 12.2021 5.19312 12.2972L3.06677 10.1226C3.15246 9.92651 3.2 9.70997 3.2 9.48232C3.2 8.59867 2.48366 7.88232 1.6 7.88232C0.716345 7.88232 0 8.59867 0 9.48232C0 10.366 0.716345 11.0823 1.6 11.0823C1.86602 11.0823 2.11688 11.0174 2.33759 10.9025L4.43046 13.043C4.32558 13.2559 4.26666 13.4956 4.26666 13.749C4.26666 14.6326 4.98301 15.349 5.86666 15.349C6.75032 15.349 7.46666 14.6326 7.46666 13.749C7.46666 13.2697 7.25594 12.8397 6.9221 12.5464L8.38977 8.87725C8.60797 8.92424 8.83443 8.94898 9.06667 8.94898C9.81244 8.94898 10.4986 8.69387 11.0427 8.26614L12.3633 9.46669C12.3008 9.6379 12.2667 9.82279 12.2667 10.0156C12.2667 10.8993 12.983 11.6156 13.8667 11.6156C14.7503 11.6156 15.4667 10.8993 15.4667 10.0156C15.4667 9.13199 14.7503 8.41565 13.8667 8.41565C13.5656 8.41565 13.2839 8.49881 13.0434 8.64341L11.7604 7.47705ZM10.6414 7.90128C10.2001 8.22468 9.65568 8.41565 9.06667 8.41565C8.90443 8.41565 8.74557 8.40116 8.59131 8.3734L9.0016 7.34769C9.02318 7.34855 9.04488 7.34899 9.06668 7.34899C9.34081 7.34899 9.59884 7.28005 9.82437 7.15856L10.6414 7.90128ZM11.3591 7.11217L10.542 6.36936C10.6223 6.17858 10.6667 5.96897 10.6667 5.74899C10.6667 4.86533 9.95033 4.14899 9.06668 4.14899C8.18302 4.14899 7.46667 4.86533 7.46667 5.74899C7.46667 6.22825 7.67739 6.65829 8.01123 6.95153L7.601 7.9771C6.87748 7.5002 6.4 6.68035 6.4 5.74898C6.4 4.27622 7.59391 3.08231 9.06667 3.08231C10.5394 3.08231 11.7333 4.27622 11.7333 5.74898C11.7333 6.24707 11.5968 6.71326 11.3591 7.11217Z" fill="black"/>
</svg>
