<svg width="16" height="16" viewBox="0 0 16 16" fill="none" xmlns="http://www.w3.org/2000/svg">
<path d="M9.51149 2.10285C8.83621 0.945213 7.16356 0.945208 6.48827 2.10284L1.2293 11.1182C0.548759 12.2849 1.39028 13.75 2.74092 13.75H13.2588C14.6095 13.75 15.451 12.2849 14.7705 11.1182L9.51149 2.10285ZM7.78394 2.85865C7.8804 2.69328 8.11935 2.69327 8.21582 2.85865L13.4748 11.874C13.572 12.0407 13.4518 12.25 13.2588 12.25H2.74092C2.54797 12.25 2.42775 12.0407 2.52497 11.874L7.78394 2.85865ZM8.49988 5.49998C8.49988 5.22384 8.27602 4.99998 7.99988 4.99998C7.72374 4.99998 7.49988 5.22384 7.49988 5.49998V8.49998C7.49988 8.77613 7.72374 8.99998 7.99988 8.99998C8.27602 8.99998 8.49988 8.77613 8.49988 8.49998V5.49998ZM8.49988 10.5C8.49988 10.2238 8.27602 9.99998 7.99988 9.99998C7.72374 9.99998 7.49988 10.2238 7.49988 10.5V11C7.49988 11.2761 7.72374 11.5 7.99988 11.5C8.27602 11.5 8.49988 11.2761 8.49988 11V10.5Z" fill="black"/>
</svg>
