<svg width="16" height="16" viewBox="0 0 16 16" fill="none" xmlns="http://www.w3.org/2000/svg">
<path d="M14.0788 1.48481L14.0784 2.94715L14.6593 2.32294L15 2.6859L13.5982 4.19389L13.5977 1.99936H11.9337V1.48481H14.0788Z" fill="black"/>
<path d="M13.1407 6.92522C11.4254 4.23769 9.49019 2.8761 7.33683 2.8761C5.13339 2.8761 3.15842 4.30176 1.41365 7.11487L1.33 7.24974L1.53297 7.57427C3.24831 10.2618 5.18347 11.6234 7.33683 11.6234V11.1088L7.19456 11.1066C5.30154 11.0468 3.56183 9.79013 1.97392 7.30366L1.93972 7.24974L1.97392 7.19582C3.60153 4.6472 5.38862 3.39065 7.33683 3.39065C9.33255 3.39065 11.1592 4.70924 12.8185 7.38462L13.26 7.11487L13.1407 6.92522Z" fill="black"/>
<path d="M9.65747 7.14075C9.60019 5.91256 8.58006 4.93429 7.33 4.93429C6.04318 4.93429 5 5.97095 5 7.24974C5 8.52854 6.04318 9.5652 7.33 9.5652V9.05066L7.23057 9.04799C6.27595 8.99669 5.51778 8.21121 5.51778 7.24974C5.51778 6.25513 6.32914 5.44883 7.33 5.44883C8.33086 5.44883 9.14223 6.25513 9.14223 7.24974H9.66L9.65747 7.14075Z" fill="black"/>
<path d="M14.5137 11.1219C14.5137 9.56374 13.2377 8.30056 11.6637 8.30056C10.0896 8.30056 8.81361 9.56374 8.81361 11.1219C8.81361 12.6802 10.0896 13.9433 11.6637 13.9433C13.2377 13.9433 14.5137 12.6802 14.5137 11.1219ZM10.08 9.42756C10.4959 9.04646 11.0523 8.81354 11.6637 8.81354C12.9515 8.81354 13.9955 9.84705 13.9955 11.1219C13.9955 11.67 13.8026 12.1734 13.4804 12.5693L10.08 9.42756ZM9.74072 9.81579L13.1123 12.931C12.7145 13.2436 12.2111 13.4304 11.6637 13.4304C10.3758 13.4304 9.33181 12.3968 9.33181 11.1219C9.33181 10.6371 9.48278 10.1872 9.74072 9.81579Z" fill="black"/>
<path d="M1.97094 13.0443L1.97047 14.5067H4.11556V13.9921H2.45158L2.45111 11.7976L1.04929 13.3056L1.38998 13.6686L1.97094 13.0443Z" fill="black"/>
</svg>
