<svg width="16" height="16" viewBox="0 0 16 16" fill="none" xmlns="http://www.w3.org/2000/svg">
<path d="M8 12.5C9.10457 12.5 10 11.6045 10 10.5C10 9.3954 9.10457 8.49997 8 8.49997C6.89543 8.49997 6 9.3954 6 10.5C6 11.6045 6.89543 12.5 8 12.5ZM8 11.5C7.44772 11.5 7 11.0523 7 10.5C7 9.94769 7.44772 9.49997 8 9.49997C8.55228 9.49997 9 9.94769 9 10.5C9 11.0523 8.55228 11.5 8 11.5Z" fill="black"/>
<path d="M3.99999 5.99998V5.09998C3.99999 2.89084 5.79085 1.09998 7.99999 1.09998C10.2091 1.09998 12 2.89084 12 5.09998V5.99998L12.4 5.99997C13.2837 5.99997 14 6.71632 14 7.59997V13.4C14 14.2836 13.2837 15 12.4 15H3.6C2.71635 15 2 14.2836 2 13.4V7.59997C2 6.71632 2.71634 5.99997 3.6 5.99997L3.99999 5.99998ZM11 5.09998C11 3.44312 9.65685 2.09998 7.99999 2.09998C6.34314 2.09998 4.99999 3.44312 4.99999 5.09998V5.99998H11V5.09998ZM3.6 6.99997C3.26863 6.99997 3 7.2686 3 7.59997V13.4C3 13.7313 3.26863 14 3.6 14H12.4C12.7314 14 13 13.7313 13 13.4V7.59997C13 7.2686 12.7314 6.99997 12.4 6.99997H3.6Z" fill="black"/>
</svg>
