<svg width="16" height="16" viewBox="0 0 16 16" fill="none" xmlns="http://www.w3.org/2000/svg">
<path fill-rule="evenodd" clip-rule="evenodd" d="M10.2449 8.90371V8.40371H11.0204C11.3895 8.40371 11.695 8.12744 11.7433 7.76846L11.75 7.66865V4.98506C11.75 4.61264 11.4753 4.30534 11.1193 4.2567L11.0204 4.25H4.97959C4.61051 4.25 4.30502 4.52627 4.25667 4.88525L4.25 4.98506V7.66865C4.25 8.04107 4.52474 8.34837 4.88066 8.39701L4.97959 8.40371H5.7551V8.90371H4.97959C4.34266 8.90371 3.81928 8.41744 3.75634 7.79488L3.75 7.66865V4.98506C3.75 4.34588 4.23357 3.81966 4.85382 3.75638L4.97959 3.75H11.0204C11.6573 3.75 12.1807 4.23627 12.2437 4.85883L12.25 4.98506V7.66865C12.25 8.30783 11.7664 8.83405 11.1462 8.89733L11.0204 8.90371H10.2449ZM7.75 11.1665L6.44558 9.85449L6.09104 10.2071L8 12.1267L9.90896 10.2071L9.55442 9.85449L8.25 11.1659V6.68359H7.75V11.1665Z" fill="black"/>
</svg>
