<svg width="24" height="24" viewBox="0 0 24 24" fill="none" xmlns="http://www.w3.org/2000/svg">
<path fill-rule="evenodd" clip-rule="evenodd" d="M19 5C19 6.65685 17.6569 8 16 8C15.3022 8 14.6601 7.76179 14.1505 7.36225L9.23949 10.4875C9.01039 9.84537 8.63956 9.2706 8.16468 8.8008L13.0763 5.67523C13.0264 5.4582 13 5.23218 13 5C13 3.34315 14.3431 2 16 2C17.6569 2 19 3.34315 19 5ZM9.23949 13.5125C9.01039 14.1546 8.63956 14.7294 8.16467 15.1992L13.0763 18.3248C13.0264 18.5418 13 18.7678 13 19C13 20.6569 14.3431 22 16 22C17.6569 22 19 20.6569 19 19C19 17.3431 17.6569 16 16 16C15.3022 16 14.6601 16.2382 14.1505 16.6378L9.23949 13.5125ZM9.38849 11H17.1707C17.5825 9.83481 18.6938 9 20 9C21.6569 9 23 10.3431 23 12C23 13.6569 21.6569 15 20 15C18.6938 15 17.5825 14.1652 17.1707 13H9.38849C9.46147 12.6784 9.5 12.3437 9.5 12C9.5 11.6563 9.46147 11.3216 9.38849 11ZM5 15C6.65685 15 8 13.6569 8 12C8 10.3431 6.65685 9 5 9C3.34315 9 2 10.3431 2 12C2 13.6569 3.34315 15 5 15Z" fill="#18181B"/>
</svg>
