<svg width="16" height="16" viewBox="0 0 16 16" fill="none" xmlns="http://www.w3.org/2000/svg">
<path d="M3.69999 2.09998C3.27002 2.09998 2.89999 2.46106 2.89999 2.93331V12.2666C2.89999 12.7389 3.27002 13.1 3.69999 13.1H7.59999V14.1H3.69999C2.69402 14.1 1.89999 13.2672 1.89999 12.2666V2.93331C1.89999 1.9328 2.69402 1.09998 3.69999 1.09998H11.5C12.506 1.09998 13.3 1.9328 13.3 2.93331V8.26664H12.3V2.93331C12.3 2.46106 11.93 2.09998 11.5 2.09998H3.69999Z" fill="black"/>
<path d="M13.2136 13.3064C13.458 12.9305 13.6 12.4818 13.6 12C13.6 10.6745 12.5255 9.59998 11.2 9.59998C9.87451 9.59998 8.79999 10.6745 8.79999 12C8.79999 13.3255 9.87451 14.4 11.2 14.4C11.6818 14.4 12.1305 14.258 12.5065 14.0136L14.0464 15.5535L14.7535 14.8464L13.2136 13.3064ZM11.2 13.4C10.4268 13.4 9.79999 12.7732 9.79999 12C9.79999 11.2268 10.4268 10.6 11.2 10.6C11.9732 10.6 12.6 11.2268 12.6 12C12.6 12.7732 11.9732 13.4 11.2 13.4Z" fill="black"/>
<path d="M11.2 4.89998H3.99999V3.89998H11.2V4.89998Z" fill="black"/>
<path d="M3.99999 6.90725H11.2V5.90725H3.99999V6.90725Z" fill="black"/>
<path d="M9.59999 8.89998H3.99999V7.89998H9.59999V8.89998Z" fill="black"/>
<path d="M3.99999 10.9091H7.59999V9.90911H3.99999V10.9091Z" fill="black"/>
</svg>
