<svg width="16" height="16" viewBox="0 0 16 16" fill="none" xmlns="http://www.w3.org/2000/svg">
<path fill-rule="evenodd" clip-rule="evenodd" d="M9.25 3.25C9.52614 3.25 9.75 3.47386 9.75 3.75V4.75H11.25H11.75V5.25H11.25V12.25C11.25 12.5261 11.0261 12.75 10.75 12.75H5.25C4.97386 12.75 4.75 12.5261 4.75 12.25V5.25H4.25V4.75H4.75H6.25V3.75C6.25 3.47386 6.47386 3.25 6.75 3.25H9.25ZM6.75 4.75H9.25V3.75H6.75V4.75ZM9.75 5.25H6.25H5.25V12.25H10.75V5.25H9.75ZM7.25 6.75V10.75H6.75V6.75H7.25ZM9.25 10.75V6.75H8.75V10.75H9.25Z" fill="black"/>
</svg>
