<svg width="16" height="16" viewBox="0 0 16 16" fill="none" xmlns="http://www.w3.org/2000/svg">
<path d="M3.96666 9.5C4.77667 9.5 5.43332 8.82843 5.43332 8C5.43332 7.17157 4.77667 6.5 3.96666 6.5C3.15665 6.5 2.5 7.17157 2.5 8C2.5 8.82843 3.15665 9.5 3.96666 9.5ZM3.96666 8.90789C3.47639 8.90789 3.07895 8.50142 3.07895 8C3.07895 7.49858 3.47639 7.09211 3.96666 7.09211C4.45693 7.09211 4.85438 7.49858 4.85438 8C4.85438 8.50142 4.45693 8.90789 3.96666 8.90789Z" fill="black"/>
<path d="M7.99993 9.5C8.80995 9.5 9.46659 8.82843 9.46659 8C9.46659 7.17157 8.80995 6.5 7.99993 6.5C7.18992 6.5 6.53327 7.17157 6.53327 8C6.53327 8.82843 7.18992 9.5 7.99993 9.5ZM7.99993 8.90789C7.50966 8.90789 7.11222 8.50142 7.11222 8C7.11222 7.49858 7.50966 7.09211 7.99993 7.09211C8.49021 7.09211 8.88765 7.49858 8.88765 8C8.88765 8.50142 8.49021 8.90789 7.99993 8.90789Z" fill="black"/>
<path d="M13.5 8C13.5 8.82843 12.8434 9.5 12.0333 9.5C11.2233 9.5 10.5667 8.82843 10.5667 8C10.5667 7.17157 11.2233 6.5 12.0333 6.5C12.8434 6.5 13.5 7.17157 13.5 8ZM12.9211 8C12.9211 7.49858 12.5236 7.09211 12.0333 7.09211C11.5431 7.09211 11.1456 7.49858 11.1456 8C11.1456 8.50142 11.5431 8.90789 12.0333 8.90789C12.5236 8.90789 12.9211 8.50142 12.9211 8Z" fill="black"/>
</svg>
