<svg width="16" height="16" viewBox="0 0 16 16" fill="none" xmlns="http://www.w3.org/2000/svg">
<path d="M13.4913 9.58004L14.3685 9.88432C14.4335 9.90772 14.4675 9.98106 14.4443 10.0466C13.5129 12.6166 11.0684 14.4516 8.19844 14.4516C4.54869 14.4516 1.58588 11.4853 1.54874 7.81056C1.51161 4.07031 4.48835 1.03379 8.19535 1.03223C10.3242 1.03067 12.2195 2.04024 13.4371 3.60999L12.5119 4.34025C12.3758 4.16393 12.2273 3.99697 12.0694 3.83625C11.5666 3.32912 10.9802 2.92966 10.3289 2.65191C9.65432 2.36324 8.93799 2.21812 8.19844 2.21812C7.4589 2.21812 6.74102 2.36324 6.06955 2.65191C5.4182 2.92966 4.83182 3.32912 4.32899 3.83625C3.82462 4.34337 3.43009 4.93476 3.1547 5.59169C2.86847 6.27202 2.72459 6.99604 2.72459 7.7419C2.72459 8.48777 2.86847 9.21179 3.1516 9.89056C3.42855 10.5475 3.82307 11.1389 4.3259 11.646C4.82873 12.1531 5.4151 12.5526 6.06646 12.8303C6.74102 13.119 7.45735 13.2641 8.1969 13.2641C8.93644 13.2641 9.65278 13.1174 10.3273 12.8303C10.9787 12.5526 11.5651 12.1531 12.0679 11.646C12.5723 11.1389 12.9668 10.5475 13.2422 9.89056C13.2747 9.81254 13.3056 9.73452 13.335 9.65494C13.3582 9.59097 13.4278 9.5582 13.4913 9.58004ZM11.774 5.18596L14.1999 5.78359C14.2773 5.80231 14.3531 5.74301 14.3531 5.66343L14.3655 3.14341C14.3655 3.03886 14.2463 2.97957 14.1659 3.0451L11.7276 4.96594C11.6456 5.03148 11.6734 5.16099 11.774 5.18596ZM8.37327 4.01254H7.62908C7.56101 4.01254 7.50531 4.06871 7.50531 4.13737V8.43312C7.50531 8.47369 7.52388 8.51114 7.55637 8.53455L10.1138 10.4179C10.1695 10.4585 10.2469 10.4476 10.2871 10.3914L10.7296 9.78286C10.7714 9.72513 10.759 9.64711 10.7033 9.6081L8.49704 7.99934V4.13737C8.49704 4.06871 8.44134 4.01254 8.37327 4.01254Z" fill="black"/>
</svg>
