<svg width="16" height="16" viewBox="0 0 16 16" fill="none" xmlns="http://www.w3.org/2000/svg">
<path d="M10.3333 8C10.3333 9.28867 9.28866 10.3333 8 10.3333C6.71133 10.3333 5.66666 9.28867 5.66666 8C5.66666 6.71134 6.71133 5.66667 8 5.66667C9.28866 5.66667 10.3333 6.71134 10.3333 8ZM9.75 8C9.75 7.0335 8.9665 6.25 8 6.25C7.0335 6.25 6.25 7.0335 6.25 8C6.25 8.9665 7.0335 9.75 8 9.75C8.9665 9.75 9.75 8.9665 9.75 8Z" fill="black"/>
<path d="M1 2.75V13.25C1 14.2165 1.7835 15 2.75 15H13.25C14.2165 15 15 14.2165 15 13.25V2.75C15 1.7835 14.2165 1 13.25 1H2.75C1.7835 1 1 1.7835 1 2.75ZM2.75 1.58333H13.25C13.8943 1.58333 14.4167 2.10567 14.4167 2.75V13.25C14.4167 13.8943 13.8943 14.4167 13.25 14.4167H2.75C2.10567 14.4167 1.58333 13.8943 1.58333 13.25V2.75C1.58333 2.10567 2.10567 1.58333 2.75 1.58333Z" fill="black"/>
</svg>
