<svg width="16" height="16" viewBox="0 0 16 16" fill="none" xmlns="http://www.w3.org/2000/svg">
<path d="M2.91724 5.03446V3.11724H1V1.91724H2.91724V0H4.11724V1.91724H6.03446V3.11724H4.11724V5.03446H2.91724Z" fill="black"/>
<path d="M8.21836 1.9H13.5517C14.4354 1.9 15.1517 2.61634 15.1517 3.5V13C15.1517 13.8837 14.4354 14.6 13.5517 14.6H4.5517C3.66804 14.6 2.9517 13.8837 2.9517 13V7.15385H4.1517V13C4.1517 13.2209 4.33078 13.4 4.5517 13.4H13.5517C13.7726 13.4 13.9517 13.2209 13.9517 13V3.5C13.9517 3.27909 13.7726 3.1 13.5517 3.1H8.21836V1.9Z" fill="black"/>
<path d="M12.5517 5.86923H5.5517V4.66923H12.5517V5.86923Z" fill="black"/>
<path d="M12.5517 8.59999H5.5517V7.4H12.5517V8.59999Z" fill="black"/>
<path d="M9.0517 11.6H5.5517V10.4H9.0517V11.6Z" fill="black"/>
</svg>
