<svg width="16" height="16" viewBox="0 0 16 16" fill="none" xmlns="http://www.w3.org/2000/svg">
<path d="M4.5 12C4.77614 12 5 12.2239 5 12.5C5 12.7455 4.82312 12.9496 4.58988 12.9919L4.5 13H3.5C3.22386 13 3 12.7761 3 12.5C3 12.2545 3.17688 12.0504 3.41012 12.0081L3.5 12H4.5Z" fill="black"/>
<path d="M13 12.5C13 12.2239 12.7761 12 12.5 12H6.5L6.41012 12.0081C6.17688 12.0504 6 12.2545 6 12.5C6 12.7761 6.22386 13 6.5 13H12.5L12.5899 12.9919C12.8231 12.9496 13 12.7455 13 12.5Z" fill="black"/>
<path d="M13 10.5V3H12V10.5H4V3H3V10.5H2C1.44772 10.5 1 10.9477 1 11.5V13.5C1 14.0523 1.44772 14.5 2 14.5H14C14.5523 14.5 15 14.0523 15 13.5V11.5C15 10.9477 14.5523 10.5 14 10.5H13ZM2 13.5V11.5H14V13.5H2Z" fill="black"/>
<path d="M11.4734 5.13878C10.627 4.11165 9.36405 3.5 8 3.5C6.55571 3.5 5.22476 4.18573 4.38157 5.32431L5.1852 5.91944L5.32147 5.7469C5.98006 4.96419 6.95096 4.5 8 4.5C9.12397 4.5 10.1582 5.03287 10.8148 5.91944L11.6184 5.32431L11.4734 5.13878Z" fill="black"/>
<path d="M8 5.5C8.74052 5.5 9.42771 5.8247 9.89734 6.37198L10.0101 6.51338L9.20649 7.1085C8.92487 6.72822 8.48191 6.5 8 6.5C7.57164 6.5 7.17404 6.68032 6.89319 6.98748L6.79351 7.1085L5.98988 6.51338C6.45813 5.88108 7.19777 5.5 8 5.5Z" fill="black"/>
<path d="M8.5 8C8.5 7.72386 8.27614 7.5 8 7.5C7.72386 7.5 7.5 7.72386 7.5 8C7.5 8.27614 7.72386 8.5 8 8.5C8.27614 8.5 8.5 8.27614 8.5 8Z" fill="black"/>
</svg>
