<svg width="16" height="16" viewBox="0 0 16 16" fill="none" xmlns="http://www.w3.org/2000/svg">
<path d="M10.1384 10.4522C9.16786 11.3471 7.87123 11.8938 6.44691 11.8938C3.43867 11.8938 1 9.45516 1 6.44691C1 3.43867 3.43867 1 6.44691 1C9.45516 1 11.8938 3.43867 11.8938 6.44691C11.8938 7.81306 11.3909 9.06173 10.5601 10.0179L15 14.4578L14.572 14.8858L10.1384 10.4522ZM11.2886 6.44691C11.2886 3.77292 9.12091 1.60521 6.44691 1.60521C3.77292 1.60521 1.60521 3.77292 1.60521 6.44691C1.60521 9.12091 3.77292 11.2886 6.44691 11.2886C9.12091 11.2886 11.2886 9.12091 11.2886 6.44691Z" fill="black"/>
</svg>
