<svg width="16" height="17" viewBox="0 0 16 17" fill="none" xmlns="http://www.w3.org/2000/svg">
<path d="M13.6889 6.10451L10.1333 2.54895V5.30451C10.1333 5.74633 10.4915 6.10451 10.9333 6.10451H13.6889Z" fill="black"/>
<path d="M3.11111 2.54896H9.4222V5.61562C9.4222 6.27836 9.95946 6.81562 10.6222 6.81562H13.6889L13.6889 6.10451L13.6889 14.549C13.6889 14.9908 13.3307 15.349 12.8889 15.349H3.11111C2.66928 15.349 2.31111 14.9908 2.31111 14.549V3.34896C2.31111 2.90713 2.66928 2.54896 3.11111 2.54896ZM4.44445 7.88228C4.44445 8.07865 4.60363 8.23784 4.8 8.23784H11.2C11.3964 8.23784 11.5556 8.07865 11.5556 7.88228C11.5556 7.68591 11.3964 7.52673 11.2 7.52673H4.8C4.60363 7.52673 4.44445 7.68591 4.44445 7.88228ZM4.8 5.39338C4.60363 5.39338 4.44445 5.55257 4.44445 5.74893C4.44445 5.9453 4.60363 6.10449 4.8 6.10449H8.35556C8.55193 6.10449 8.71111 5.9453 8.71111 5.74893C8.71111 5.55257 8.55192 5.39338 8.35556 5.39338H4.8ZM4.44445 10.0156C4.44445 10.212 4.60363 10.3712 4.8 10.3712H11.2C11.3964 10.3712 11.5556 10.212 11.5556 10.0156C11.5556 9.81924 11.3964 9.66005 11.2 9.66005H4.8C4.60363 9.66005 4.44445 9.81924 4.44445 10.0156ZM4.8 11.7934C4.60363 11.7934 4.44445 11.9526 4.44445 12.1489C4.44445 12.3453 4.60363 12.5045 4.8 12.5045H11.2C11.3964 12.5045 11.5556 12.3453 11.5556 12.1489C11.5556 11.9526 11.3964 11.7934 11.2 11.7934H4.8Z" fill="black"/>
</svg>
