<svg width="16" height="16" viewBox="0 0 16 16" fill="none" xmlns="http://www.w3.org/2000/svg">
<path d="M8.85135 3.75C8.17437 3.75 7.62838 4.31115 7.62838 5C7.62838 5.1547 7.65591 5.30295 7.70629 5.43986L5.37851 7.03482C5.15503 6.78324 4.83247 6.625 4.47297 6.625C3.79599 6.625 3.25 7.18615 3.25 7.875C3.25 8.56385 3.79599 9.125 4.47297 9.125C4.81721 9.125 5.12758 8.97991 5.34952 8.74671L7.72574 10.5105C7.66304 10.661 7.62838 10.8264 7.62838 11C7.62838 11.6888 8.17437 12.25 8.85135 12.25C9.52834 12.25 10.0743 11.6888 10.0743 11C10.0743 10.3112 9.52834 9.75 8.85135 9.75C8.52318 9.75 8.22579 9.88187 8.00645 10.0962L5.61557 8.32151C5.63923 8.25829 5.65802 8.19263 5.67146 8.125H10.3285C10.4417 8.69462 10.9341 9.125 11.527 9.125C12.204 9.125 12.75 8.56385 12.75 7.875C12.75 7.18615 12.204 6.625 11.527 6.625C10.9341 6.625 10.4417 7.05538 10.3285 7.625H5.67146C5.66085 7.5716 5.6469 7.51942 5.62985 7.46871L7.96922 5.86581C8.19152 6.10246 8.50422 6.25 8.85135 6.25C9.52834 6.25 10.0743 5.68885 10.0743 5C10.0743 4.31115 9.52834 3.75 8.85135 3.75ZM8.85135 4.25C9.24908 4.25 9.57432 4.58428 9.57432 5C9.57432 5.41572 9.24908 5.75 8.85135 5.75C8.45362 5.75 8.12838 5.41572 8.12838 5C8.12838 4.58428 8.45362 4.25 8.85135 4.25ZM5.19595 7.875C5.19595 8.29072 4.8707 8.625 4.47297 8.625C4.07524 8.625 3.75 8.29072 3.75 7.875C3.75 7.45928 4.07524 7.125 4.47297 7.125C4.8707 7.125 5.19595 7.45928 5.19595 7.875ZM12.25 7.875C12.25 8.29072 11.9248 8.625 11.527 8.625C11.1293 8.625 10.8041 8.29072 10.8041 7.875C10.8041 7.45928 11.1293 7.125 11.527 7.125C11.9248 7.125 12.25 7.45928 12.25 7.875ZM8.85135 10.25C9.24908 10.25 9.57432 10.5843 9.57432 11C9.57432 11.4157 9.24908 11.75 8.85135 11.75C8.45362 11.75 8.12838 11.4157 8.12838 11C8.12838 10.5843 8.45362 10.25 8.85135 10.25Z" fill="black"/>
</svg>
