<svg width="16" height="17" viewBox="0 0 16 17" fill="none" xmlns="http://www.w3.org/2000/svg">
<path d="M1.73708 12.972C1.33013 12.972 1.00023 12.6543 1.00023 12.2624C1.00023 11.8704 1.33013 11.5527 1.73708 11.5527C3.24553 11.5527 4.1598 11.1715 4.83814 10.6452C5.46884 10.1558 5.92609 9.52588 6.4669 8.77823C5.9226 7.99436 5.46217 7.33167 4.82675 6.8181C4.14812 6.26962 3.23786 5.87528 1.73708 5.87528C1.33013 5.87528 1.00023 5.55755 1.00023 5.16561C1.00023 4.77366 1.33013 4.45593 1.73708 4.45593C3.55208 4.45593 4.8063 4.94869 5.77405 5.73085C6.43145 6.26217 6.94108 6.92045 7.3937 7.56029C7.88924 6.97114 8.4841 6.39071 9.27134 5.91341C10.0255 5.45613 10.9294 5.10867 12.0529 4.9145V4.10109C12.0529 3.81736 12.2283 3.5609 12.499 3.44897C12.7697 3.33705 13.0836 3.39116 13.2972 3.58658L14.7709 4.93496C14.9127 5.0647 14.9951 5.24342 15 5.43173C15.0049 5.62004 14.9319 5.8025 14.797 5.93891L13.3233 7.42922C13.1155 7.63936 12.7958 7.70648 12.5161 7.59871C12.2363 7.49094 12.0529 7.22998 12.0529 6.93979V6.36062C11.2212 6.53132 10.5779 6.79841 10.0564 7.11457C9.31003 7.56712 8.76843 8.14561 8.26406 8.79495C8.77202 9.47752 9.31671 10.0856 10.0679 10.56C10.5871 10.8879 11.2267 11.1648 12.0529 11.3421V10.843C12.0529 10.556 12.2324 10.2972 12.5077 10.1874C12.7831 10.0775 13.1 10.1382 13.3107 10.3412L14.7844 11.7605C15.0722 12.0377 15.0722 12.487 14.7844 12.7642L13.3107 14.1835C13.1 14.3865 12.7831 14.4472 12.5077 14.3374C12.2324 14.2275 12.0529 13.9687 12.0529 13.6817V12.7905C10.9241 12.5879 10.0164 12.2248 9.25983 11.747C8.46455 11.2447 7.86626 10.6333 7.36845 10.0139C6.91956 10.6216 6.4131 11.2458 5.76266 11.7505C4.79462 12.5016 3.54442 12.972 1.73708 12.972Z" fill="black"/>
</svg>
