<svg width="16" height="16" viewBox="0 0 16 16" fill="none" xmlns="http://www.w3.org/2000/svg">
<path d="M10.2905 8.22145C10.2905 9.50952 9.26502 10.5537 8 10.5537C6.73498 10.5537 5.70948 9.50952 5.70948 8.22145C5.70948 6.93338 6.73498 5.88919 8 5.88919C9.26502 5.88919 10.2905 6.93338 10.2905 8.22145ZM9.71789 8.22145C9.71789 7.25539 8.94876 6.47225 8 6.47225C7.05124 6.47225 6.28211 7.25539 6.28211 8.22145C6.28211 9.1875 7.05124 9.97064 8 9.97064C8.94876 9.97064 9.71789 9.1875 9.71789 8.22145Z" fill="black"/>
<path d="M7.25464 2.17322C7.72566 1.94226 8.27434 1.94226 8.74536 2.17322L12.1793 3.85707C12.6504 4.08804 12.9925 4.52483 13.1088 5.04381L13.9569 8.82738C14.0732 9.34636 13.9512 9.89103 13.6252 10.3072L11.2488 13.3414C10.9229 13.7576 10.4285 14 9.90571 14H6.09429C5.57149 14 5.07715 13.7576 4.75119 13.3414L2.37481 10.3072C2.04885 9.89103 1.92675 9.34636 2.04309 8.82738L2.89121 5.04381C3.00754 4.52483 3.34964 4.08804 3.82066 3.85707L7.25464 2.17322ZM8.49691 2.69855C8.18289 2.54457 7.81711 2.54457 7.50309 2.69855L4.06912 4.3824C3.7551 4.53637 3.52704 4.82757 3.44948 5.17355L2.60136 8.95713C2.5238 9.30311 2.6052 9.66623 2.82251 9.94369L5.19889 12.9779C5.41619 13.2553 5.74576 13.4169 6.09429 13.4169H9.90571C10.2542 13.4169 10.5838 13.2553 10.8011 12.9779L13.1775 9.94369C13.3948 9.66623 13.4762 9.30311 13.3986 8.95713L12.5505 5.17355C12.473 4.82757 12.2449 4.53637 11.9309 4.3824L8.49691 2.69855Z" fill="black"/>
</svg>
