<svg width="16" height="16" viewBox="0 0 16 16" fill="none" xmlns="http://www.w3.org/2000/svg">
<path d="M9.75 4.5C9.75 3.5335 8.9665 2.75 8 2.75C7.0335 2.75 6.25 3.5335 6.25 4.5C6.25 5.38162 6.90193 6.11097 7.75 6.23228V8H4.175L4.08134 8.007C3.74568 8.05776 3.5 8.37781 3.5 8.75V10.2707C2.79057 10.3898 2.25 11.0068 2.25 11.75C2.25 12.5784 2.92157 13.25 3.75 13.25C4.57843 13.25 5.25 12.5784 5.25 11.75C5.25 11.0068 4.70943 10.3898 4 10.2707V8.75L4.00693 8.6807C4.02935 8.57204 4.10265 8.5 4.175 8.5H7.75V10.2707C7.04057 10.3898 6.5 11.0068 6.5 11.75C6.5 12.5784 7.17157 13.25 8 13.25C8.82843 13.25 9.5 12.5784 9.5 11.75C9.5 11.0068 8.95943 10.3898 8.25 10.2707V8.5H11.825L11.8681 8.50836C11.9388 8.53576 12 8.62811 12 8.75V10.2707C11.2906 10.3898 10.75 11.0068 10.75 11.75C10.75 12.5784 11.4216 13.25 12.25 13.25C13.0784 13.25 13.75 12.5784 13.75 11.75C13.75 11.0068 13.2094 10.3898 12.5 10.2707V8.75L12.494 8.64995C12.4506 8.28904 12.1757 8 11.825 8H8.25V6.23228C9.09807 6.11097 9.75 5.38162 9.75 4.5ZM6.75 4.5C6.75 3.80964 7.30964 3.25 8 3.25C8.69036 3.25 9.25 3.80964 9.25 4.5C9.25 5.19036 8.69036 5.75 8 5.75C7.30964 5.75 6.75 5.19036 6.75 4.5ZM3.75 10.75C4.30228 10.75 4.75 11.1977 4.75 11.75C4.75 12.3023 4.30228 12.75 3.75 12.75C3.19772 12.75 2.75 12.3023 2.75 11.75C2.75 11.1977 3.19772 10.75 3.75 10.75ZM7 11.75C7 11.1977 7.44772 10.75 8 10.75C8.55228 10.75 9 11.1977 9 11.75C9 12.3023 8.55228 12.75 8 12.75C7.44772 12.75 7 12.3023 7 11.75ZM12.25 10.75C12.8023 10.75 13.25 11.1977 13.25 11.75C13.25 12.3023 12.8023 12.75 12.25 12.75C11.6977 12.75 11.25 12.3023 11.25 11.75C11.25 11.1977 11.6977 10.75 12.25 10.75Z" fill="black"/>
</svg>
