<svg width="16" height="16" viewBox="0 0 16 16" fill="none" xmlns="http://www.w3.org/2000/svg">
<path d="M9.23078 1.23074V5.53843L4.3077 5.53843V1.23074L9.23078 1.23074ZM3.69232 0.615359H2.46154C1.78181 0.615359 1.23077 1.16639 1.23077 1.84613V13.5384C1.23077 14.2182 1.78181 14.7692 2.46154 14.7692L3.69232 14.7692H4.3077H12.3077H12.9231L14.1538 14.7692C14.8336 14.7692 15.3846 14.2182 15.3846 13.5384V5.68986C15.3846 5.39375 15.2779 5.10756 15.0839 4.88379L11.7527 1.04006C11.5189 0.770321 11.1796 0.615359 10.8226 0.615359L9.84616 0.615356H9.23078H4.3077H3.69232V0.615359ZM9.84616 1.23074L10.8226 1.23074C11.0011 1.23074 11.1708 1.30822 11.2877 1.44309L14.6189 5.28683C14.7159 5.39871 14.7692 5.5418 14.7692 5.68986V13.5384C14.7692 13.8783 14.4937 14.1538 14.1538 14.1538L12.9231 14.1538V9.84613C12.9231 9.50626 12.6476 9.23074 12.3077 9.23074H4.3077C3.96783 9.23074 3.69232 9.50626 3.69232 9.84612V14.1538L2.46154 14.1538C2.12168 14.1538 1.84616 13.8783 1.84616 13.5384V1.84613C1.84616 1.50626 2.12168 1.23074 2.46154 1.23074H3.69232V5.53843C3.69232 5.8783 3.96783 6.15382 4.3077 6.15382H9.23078C9.57064 6.15382 9.84616 5.8783 9.84616 5.53843V1.23074ZM12.3077 9.84613V14.1538H4.3077V9.84612L12.3077 9.84613Z" fill="black"/>
</svg>
