<svg width="16" height="16" viewBox="0 0 16 16" fill="none" xmlns="http://www.w3.org/2000/svg">
<path d="M9.5 3.5C9.5 2.67157 8.82843 2 8 2C7.17157 2 6.5 2.67157 6.5 3.5C6.5 3.68402 6.53314 3.86031 6.59377 4.02321L5.35669 4.73744C5.08244 4.43787 4.68816 4.25 4.25 4.25C3.42157 4.25 2.75 4.92157 2.75 5.75C2.75 6.44095 3.21718 7.02279 3.85289 7.19687V8.80313C3.21718 8.97721 2.75 9.55905 2.75 10.25C2.75 11.0784 3.42157 11.75 4.25 11.75C4.68816 11.75 5.08244 11.5621 5.35669 11.2626L6.59377 11.9768C6.53314 12.1397 6.5 12.316 6.5 12.5C6.5 13.3284 7.17157 14 8 14C8.82843 14 9.5 13.3284 9.5 12.5C9.5 12.316 9.46686 12.1397 9.40623 11.9768L10.6433 11.2626C10.9176 11.5621 11.3118 11.75 11.75 11.75C12.5784 11.75 13.25 11.0784 13.25 10.25C13.25 9.55905 12.7828 8.97721 12.1471 8.80313V7.19687C12.7828 7.02279 13.25 6.44095 13.25 5.75C13.25 4.92157 12.5784 4.25 11.75 4.25C11.3118 4.25 10.9176 4.43787 10.6433 4.73744L9.40623 4.02321C9.46686 3.86031 9.5 3.68402 9.5 3.5ZM5.62858 10.8422C5.70672 10.6605 5.75 10.4603 5.75 10.25C5.75 9.45615 5.13332 8.80634 4.35289 8.75347V7.24653C5.13332 7.19366 5.75 6.54385 5.75 5.75C5.75 5.53969 5.70672 5.33949 5.62858 5.15782L6.8441 4.45604C7.11923 4.78832 7.53489 5 8 5C8.46511 5 8.88077 4.78832 9.1559 4.45604L10.3714 5.15782C10.2933 5.33949 10.25 5.53969 10.25 5.75C10.25 6.54385 10.8667 7.19366 11.6471 7.24653V8.75347C10.8667 8.80634 10.25 9.45615 10.25 10.25C10.25 10.4603 10.2933 10.6605 10.3714 10.8422L9.1559 11.544C8.88077 11.2117 8.46511 11 8 11C7.53489 11 7.11923 11.2117 6.8441 11.544L5.62858 10.8422ZM7 3.5C7 2.94772 7.44772 2.5 8 2.5C8.55228 2.5 9 2.94772 9 3.5C9 4.05228 8.55228 4.5 8 4.5C7.44772 4.5 7 4.05228 7 3.5ZM8 11.5C8.55228 11.5 9 11.9477 9 12.5C9 13.0523 8.55228 13.5 8 13.5C7.44772 13.5 7 13.0523 7 12.5C7 11.9477 7.44772 11.5 8 11.5ZM10.75 5.75C10.75 5.19772 11.1977 4.75 11.75 4.75C12.3023 4.75 12.75 5.19772 12.75 5.75C12.75 6.30228 12.3023 6.75 11.75 6.75C11.1977 6.75 10.75 6.30228 10.75 5.75ZM11.75 9.25C12.3023 9.25 12.75 9.69772 12.75 10.25C12.75 10.8023 12.3023 11.25 11.75 11.25C11.1977 11.25 10.75 10.8023 10.75 10.25C10.75 9.69772 11.1977 9.25 11.75 9.25ZM3.25 5.75C3.25 5.19772 3.69772 4.75 4.25 4.75C4.80228 4.75 5.25 5.19772 5.25 5.75C5.25 6.30228 4.80228 6.75 4.25 6.75C3.69772 6.75 3.25 6.30228 3.25 5.75ZM4.25 9.25C4.80228 9.25 5.25 9.69772 5.25 10.25C5.25 10.8023 4.80228 11.25 4.25 11.25C3.69772 11.25 3.25 10.8023 3.25 10.25C3.25 9.69772 3.69772 9.25 4.25 9.25Z" fill="black"/>
</svg>
