<svg width="16" height="17" viewBox="0 0 16 17" fill="none" xmlns="http://www.w3.org/2000/svg">
<path d="M6.40001 1.74896C5.95818 1.74896 5.60001 2.10714 5.60001 2.54896V4.14896C5.60001 4.59079 5.95818 4.94896 6.40001 4.94896H9.60001C10.0418 4.94896 10.4 4.59079 10.4 4.14896V2.54896C10.4 2.10713 10.0418 1.74896 9.60001 1.74896H6.40001Z" fill="black"/>
<path d="M4.80002 3.34896H3.20001C2.75818 3.34896 2.40001 3.70713 2.40001 4.14896V14.549C2.40001 14.9908 2.75818 15.349 3.20001 15.349H12.8C13.2418 15.349 13.6 14.9908 13.6 14.549V4.14896C13.6 3.70713 13.2418 3.34896 12.8 3.34896H11.2V4.54897C11.2 5.21171 10.6628 5.74897 10 5.74897H6.00002C5.33728 5.74897 4.80002 5.21171 4.80002 4.54897V3.34896ZM4.00002 7.34897H12V8.14897H4.00002V7.34897ZM12 9.74897V10.549H4.00002V9.74897H12ZM4.00002 12.149H12V12.949H4.00002V12.149Z" fill="black"/>
</svg>
