<svg width="16" height="16" viewBox="0 0 16 16" fill="none" xmlns="http://www.w3.org/2000/svg">
<path d="M2.36363 1.8182C2.36363 1.11529 2.93345 0.545471 3.63636 0.545471H12.3636C13.0665 0.545471 13.6364 1.11529 13.6364 1.8182V8.24244H12.5455V1.8182C12.5455 1.71778 12.464 1.63638 12.3636 1.63638H3.63636C3.53594 1.63638 3.45454 1.71778 3.45454 1.8182V12.3637C3.45454 12.4641 3.53594 12.5455 3.63636 12.5455H6.0909V13.6364H3.63636C2.93345 13.6364 2.36363 13.0666 2.36363 12.3637V1.8182Z" fill="black"/>
<path d="M12.3636 12C12.3636 12.8033 11.7124 13.4546 10.9091 13.4546C10.1058 13.4546 9.45456 12.8033 9.45456 12C9.45456 11.1967 10.1058 10.5455 10.9091 10.5455C11.7124 10.5455 12.3636 11.1967 12.3636 12ZM11.2727 12C11.2727 11.7992 11.1099 11.6364 10.9091 11.6364C10.7083 11.6364 10.5455 11.7992 10.5455 12C10.5455 12.2008 10.7083 12.3637 10.9091 12.3637C11.1099 12.3637 11.2727 12.2008 11.2727 12Z" fill="black"/>
<path d="M10.9091 15.2727C8.49911 15.2727 6.54544 12 6.54544 12C6.54544 12 8.49911 8.72729 10.9091 8.72729C13.319 8.72729 15.2727 12 15.2727 12C15.2727 12 13.319 15.2727 10.9091 15.2727ZM8.60847 11.1212C8.31015 11.4303 8.05764 11.7426 7.86596 12C8.05764 12.2574 8.31015 12.5697 8.60847 12.8788C9.35628 13.6536 10.1733 14.1818 10.9091 14.1818C11.6448 14.1818 12.4619 13.6536 13.2097 12.8788C13.508 12.5697 13.7605 12.2574 13.9522 12C13.7605 11.7426 13.508 11.4303 13.2097 11.1212C12.4619 10.3464 11.6448 9.8182 10.9091 9.8182C10.1733 9.8182 9.35628 10.3464 8.60847 11.1212Z" fill="black"/>
<path d="M4.36365 4.18184H11.6364V3.09093H4.36365V4.18184Z" fill="black"/>
<path d="M11.6364 6.72729H4.36365V5.63638H11.6364V6.72729Z" fill="black"/>
<path d="M4.36365 9.27275H7.27274V8.18184H4.36365V9.27275Z" fill="black"/>
</svg>
