<svg width="16" height="16" viewBox="0 0 16 16" fill="none" xmlns="http://www.w3.org/2000/svg">
<path d="M9.55556 5.22222C9.55556 4.54721 10.1028 4 10.7778 4C11.4528 4 12 4.54721 12 5.22222C12 5.89724 11.4528 6.44444 10.7778 6.44444C10.5307 6.44444 10.3007 6.37113 10.1085 6.24507L6.24507 10.1085C6.37113 10.3007 6.44444 10.5307 6.44444 10.7778C6.44444 11.4528 5.89724 12 5.22222 12C4.54721 12 4 11.4528 4 10.7778C4 10.1028 4.54721 9.55556 5.22222 9.55556C5.4693 9.55556 5.69925 9.62887 5.89151 9.75493L9.75493 5.89152C9.62887 5.69925 9.55556 5.4693 9.55556 5.22222ZM11.5 5.22222C11.5 4.82335 11.1767 4.5 10.7778 4.5C10.3789 4.5 10.0556 4.82335 10.0556 5.22222C10.0556 5.62109 10.3789 5.94444 10.7778 5.94444C11.1767 5.94444 11.5 5.62109 11.5 5.22222ZM5.94444 10.7778C5.94444 10.3789 5.62109 10.0556 5.22222 10.0556C4.82335 10.0556 4.5 10.3789 4.5 10.7778C4.5 11.1767 4.82335 11.5 5.22222 11.5C5.62109 11.5 5.94444 11.1767 5.94444 10.7778Z" fill="black"/>
</svg>
