<svg width="16" height="16" viewBox="0 0 16 16" fill="none" xmlns="http://www.w3.org/2000/svg">
<path fill-rule="evenodd" clip-rule="evenodd" d="M8.0224 3.77594C8.0224 3.4998 7.79854 3.27594 7.5224 3.27594H5.0224C4.74626 3.27594 4.5224 3.4998 4.5224 3.77594V4.77594H3.0224H2.5224V5.27594H3.0224V12.2759C3.0224 12.5521 3.24626 12.7759 3.5224 12.7759H9.0224C9.29854 12.7759 9.5224 12.5521 9.5224 12.2759V5.27594H10.0224V4.77594H9.5224H8.0224V3.77594ZM4.5224 5.27594H8.0224H9.022L9.0224 12.2759H3.5224L3.522 5.27594H4.5224ZM5.0224 3.77594H7.5224L7.522 4.775H5.022L5.0224 3.77594ZM5.5224 10.7759V6.77594H5.0224V10.7759H5.5224ZM7.5224 6.77594V10.7759H7.0224V6.77594H7.5224ZM12.3591 10.0585C12.2637 10.0042 12.1402 10.0178 12.0588 10.0992C11.9612 10.1968 11.9612 10.3551 12.0588 10.4527L12.6015 10.9954H10.9585L10.8568 11.0022C10.4907 11.0519 10.2085 11.3657 10.2085 11.7454V12.4954H10.7085V11.7454L10.7151 11.6881C10.741 11.5776 10.8402 11.4954 10.9585 11.4954H13.1668C13.2439 11.5084 13.3258 11.4851 13.3853 11.4257C13.4829 11.328 13.4829 11.1697 13.3853 11.0721L12.4124 10.0992L12.3591 10.0585ZM12.5192 14.0217L11.9761 13.4787H13.6194L13.7212 13.4719C14.0873 13.4222 14.3694 13.1084 14.3694 12.7287V11.9787H13.8694V12.7287L13.8628 12.786C13.8369 12.8965 13.7378 12.9787 13.6194 12.9787H11.4092C11.3327 12.9665 11.2516 12.9898 11.1927 13.0488C11.095 13.1464 11.095 13.3047 11.1927 13.4023L12.1656 14.3753L12.2189 14.416C12.3143 14.4702 12.4378 14.4566 12.5192 14.3753C12.6168 14.2776 12.6168 14.1194 12.5192 14.0217Z" fill="black"/>
</svg>
