<svg width="16" height="16" viewBox="0 0 16 16" fill="none" xmlns="http://www.w3.org/2000/svg">
<path d="M13.9975 13.1796H13.2005V5.83646C13.2005 4.69437 12.5613 4.20375 12.1588 4.12332L9.60198 3.31099V2.41019C9.60198 2.25666 9.53009 2.17639 9.45493 2.09248L9.44415 2.08043C9.36523 2 9.2074 2 9.1206 2L3.76227 3.55228C3.76227 3.55228 2.79951 3.79357 2.79951 5.10456V13.1796H2.00247C1.76573 13.1796 1.60001 13.3405 1.60001 13.5898C1.60001 13.8311 1.75784 14 2.00247 14H13.9975C14.2343 14 14.4 13.8391 14.4 13.5898C14.4 13.3405 14.2422 13.1796 13.9975 13.1796ZM8.79705 13.1796H3.59655V5.10456C3.59655 4.53351 3.9201 4.37265 3.99902 4.37265L8.79705 2.98928V13.1796ZM9.60198 13.1796V4.12332L12.072 4.95979L12.1273 4.98391C12.1273 4.98391 12.3719 5.08847 12.4114 5.83646V13.1796H9.60198ZM5.83774 4.67024H5.0407V5.48257H5.83774V4.67024ZM6.87941 4.67024H7.67645V5.48257H6.87941V4.67024ZM5.83774 6.44772H5.0407V7.26005H5.83774V6.44772ZM6.87941 6.44772H7.67645V7.26005H6.87941V6.44772ZM5.83774 8.2252H5.0407V9.03753H5.83774V8.2252ZM6.87941 8.2252H7.67645V9.03753H6.87941V8.2252ZM5.83774 9.99464H5.0407V10.815H5.83774V9.99464ZM6.87941 9.99464H7.67645V10.815H6.87941V9.99464ZM5.83774 11.7721H5.0407V12.5844H5.83774V11.7721ZM6.87941 11.7721H7.67645V12.5844H6.87941V11.7721ZM10.6437 7.05898H11.4407V6.24665H10.6437V7.05898ZM11.4407 8.93298H10.6437V8.12064H11.4407V8.93298ZM10.6437 10.7185H11.4407V9.90617H10.6437V10.7185ZM11.4407 12.5281H10.6437V11.7158H11.4407V12.5281Z" fill="black"/>
</svg>
