<svg width="16" height="16" viewBox="0 0 16 16" fill="none" xmlns="http://www.w3.org/2000/svg">
<path d="M8.93185 1.02344C8.35259 0.725505 7.6474 0.725505 7.06815 1.02344L2.28296 3.48137C1.62815 3.7793 1.2 4.47447 1.2 5.2193V10.7558C1.2 11.5007 1.62815 12.171 2.28296 12.5186L7.09333 14.9765C7.37037 15.1255 7.69777 15.2 8.02518 15.2C8.35259 15.2 8.65481 15.1255 8.95703 14.9765L13.717 12.5434C14.397 12.1958 14.8 11.5255 14.8 10.7807V5.2193C14.8 4.47447 14.3718 3.7793 13.717 3.45654L8.93185 1.02344ZM8 1.76826C8.15111 1.76826 8.3274 1.79309 8.45333 1.86757L13.2385 4.30068C13.2915 4.3181 13.3321 4.34773 13.3777 4.38102C13.3971 4.39518 13.4174 4.41 13.44 4.42482L8 7.20551L2.56 4.47447C2.61037 4.42482 2.68592 4.37516 2.76148 4.35033L7.54666 1.8924C7.69777 1.81792 7.84889 1.76826 8 1.76826ZM2.76148 11.6248C2.40889 11.451 2.2074 11.1034 2.2074 10.731V5.39309L4.22222 6.41102V8.6455C4.22222 8.84413 4.32296 9.01792 4.49926 9.0924L4.85185 9.26619C4.87703 9.29102 4.9274 9.29102 4.95259 9.29102C5.1037 9.29102 5.20444 9.19171 5.20444 9.04275V6.90757L7.47111 8.04964V14.0331L2.76148 11.6248ZM8.5037 14.0579V8.04964L13.7926 5.39309V10.731C13.7926 11.1034 13.5911 11.451 13.2385 11.6248L8.5037 14.0579Z" fill="black"/>
</svg>
