<svg width="16" height="16" viewBox="0 0 16 16" fill="none" xmlns="http://www.w3.org/2000/svg">
<path d="M5.41934 10.3766C4.37113 9.3284 3.45852 8.1637 2.16866 6.39106L2.14023 6.35199L1.83592 5.79548C1.25014 4.72419 1.44085 3.39494 2.30422 2.53157L3.58579 1.25C4.33705 0.498739 5.5314 0.574356 6.2517 1.29466L7.90162 2.94458C8.62193 3.66489 8.69755 4.85923 7.94628 5.61049L7.26707 6.28971C7.18771 6.36907 7.18603 6.46231 7.2111 6.515C7.47546 7.07046 7.73365 7.45342 8.03809 7.75786C8.34253 8.06229 8.72549 8.32049 9.28095 8.58485C9.33363 8.60992 9.42688 8.60824 9.50624 8.52888L10.1855 7.84967C10.9367 7.0984 12.1311 7.17402 12.8514 7.89433L14.5013 9.54424C15.2216 10.2646 15.2972 11.4589 14.5459 12.2102L13.2644 13.4917C12.401 14.3551 11.0718 14.5458 10.0005 13.96L9.44396 13.6557L9.4049 13.6273C7.63225 12.3374 6.46755 11.4248 5.41934 10.3766ZM10.2484 12.386L10.7201 12.6439C11.2071 12.9102 11.8113 12.8235 12.2037 12.4311L13.4853 11.1495C13.5959 11.0389 13.6315 10.7958 13.4406 10.6049L11.7907 8.95499C11.5998 8.76407 11.3567 8.7997 11.2461 8.91033L10.5669 9.58954C10.0773 10.0792 9.31022 10.26 8.63633 9.93927C7.9782 9.62605 7.43758 9.27866 6.97743 8.81852C6.51729 8.35837 6.1699 7.81775 5.85667 7.15962C5.53595 6.48573 5.71678 5.71868 6.20641 5.22905L6.88562 4.54983C6.99625 4.43921 7.03188 4.19616 6.84096 4.00524L5.19104 2.35532C5.00013 2.16441 4.75708 2.20003 4.64645 2.31066L3.36488 3.59223C2.97244 3.98467 2.88575 4.58888 3.15202 5.07583L3.40994 5.54751C4.67611 7.28625 5.52631 8.36226 6.48 9.31595C7.43369 10.2696 8.5097 11.1198 10.2484 12.386Z" fill="black"/>
</svg>
