<svg width="16" height="16" viewBox="0 0 16 16" fill="none" xmlns="http://www.w3.org/2000/svg">
<path d="M7.99999 2.39999C11.0928 2.39999 13.6 4.90715 13.6 7.99999C13.6 11.0928 11.0928 13.6 7.99999 13.6C4.90715 13.6 2.39999 11.0928 2.39999 7.99999C2.39999 4.90715 4.90715 2.39999 7.99999 2.39999ZM7.99999 3.38823C5.45298 3.38823 3.38823 5.45298 3.38823 7.99999C3.38823 10.547 5.45298 12.6118 7.99999 12.6118C10.547 12.6118 12.6118 10.547 12.6118 7.99999C12.6118 5.45298 10.547 3.38823 7.99999 3.38823ZM8.65552 5.23821V4.70588H7.66762V5.22799C6.91359 5.34065 6.44814 5.77581 6.34338 6.56376C6.23138 7.40705 6.74395 7.85505 7.9239 8.38541L8.22301 8.51717C8.78268 8.76752 8.97176 8.93355 8.97176 9.1559C8.97176 9.63388 8.45985 9.95637 7.79279 9.70931L7.70846 9.67571L7.60799 9.63223C7.37444 9.52748 7.03284 9.35256 6.59011 9.11011L6.11576 9.97712L6.42672 10.1451L6.70475 10.2907C7.02428 10.4554 7.27101 10.5701 7.44988 10.6359C7.52121 10.6624 7.59377 10.6855 7.66729 10.7051V11.2552H8.65552V10.7338C9.40922 10.5658 9.95999 9.95637 9.95999 9.1559C9.95999 8.42724 9.54823 8.04117 8.71712 7.65642L8.42395 7.52597C7.57868 7.15472 7.29308 6.91952 7.32305 6.69421C7.39519 6.15134 7.94926 6.00112 9.33181 6.39115L9.59995 5.44014C9.26263 5.34494 8.94738 5.27741 8.65552 5.23821Z" fill="black"/>
</svg>
