<svg width="16" height="16" viewBox="0 0 16 16" fill="none" xmlns="http://www.w3.org/2000/svg">
<path d="M1 1.00006V5.2052H1.58333V1.58339H5.20514V1.00006H1Z" fill="black"/>
<path d="M10.7958 1.58339H14.4176V5.2052H15.001V1.00006H10.7958V1.58339Z" fill="black"/>
<path d="M1.58333 10.7959V14.4177H5.20514V15.001H1V10.7959H1.58333Z" fill="black"/>
<path d="M14.4176 10.7959V14.4177H10.7958V15.001H15.001V10.7959H14.4176Z" fill="black"/>
<path d="M10.5943 5.81807L10.1601 6.25228L9.74764 5.8398L10.1818 5.40559L10.5943 5.81807Z" fill="black"/>
<path d="M9.72591 6.68649L9.2917 7.1207L8.87922 6.70822L9.31343 6.27401L9.72591 6.68649Z" fill="black"/>
<path d="M8.85749 7.55491L8.42327 7.98912L8.0108 7.57664L8.44501 7.14243L8.85749 7.55491Z" fill="black"/>
<path d="M7.98906 8.42333L7.55485 8.85754L7.14237 8.44506L7.57659 8.01085L7.98906 8.42333Z" fill="black"/>
<path d="M7.12064 9.29175L6.68643 9.72596L6.27395 9.31349L6.70816 8.87927L7.12064 9.29175Z" fill="black"/>
<path d="M6.25222 10.1602L5.81801 10.5944L5.40553 10.1819L5.83974 9.7477L6.25222 10.1602Z" fill="black"/>
<path d="M10.3284 4.09776C10.3861 4.09763 10.4391 4.09834 10.4871 4.09956C10.5042 3.35132 11.116 2.75 11.8684 2.75C12.6314 2.75 13.2499 3.36855 13.2499 4.13158C13.2499 4.88115 12.653 5.49129 11.9086 5.51258C11.9119 5.57281 11.9148 5.64072 11.9166 5.71547C11.9243 6.03168 11.9129 6.47277 11.8367 6.97512C11.6845 7.97693 11.2704 9.24549 10.2099 10.2406C9.15799 11.2276 7.9036 11.6355 6.9244 11.7987C6.43362 11.8805 6.00752 11.9016 5.70309 11.9022C5.63307 11.9024 5.5694 11.9014 5.51275 11.8999C5.49601 12.6484 4.88402 13.25 4.13152 13.25C3.36849 13.25 2.74994 12.6314 2.74994 11.8684C2.74994 11.1132 3.35597 10.4994 4.10828 10.487C4.10827 10.4229 4.10926 10.3495 4.11192 10.2679C4.12221 9.95231 4.15759 9.51227 4.25802 9.01132C4.45828 8.01249 4.9218 6.74973 5.98359 5.75888C7.03795 4.77497 8.24095 4.36578 9.17351 4.20174C9.64023 4.11964 10.042 4.09839 10.3284 4.09776ZM11.8684 4.92982C12.3092 4.92982 12.6666 4.57243 12.6666 4.13158C12.6666 3.69072 12.3092 3.33333 11.8684 3.33333C11.4275 3.33333 11.0701 3.69072 11.0701 4.13158C11.0701 4.57243 11.4275 4.92982 11.8684 4.92982ZM11.3335 5.72963C11.3301 5.58892 11.3225 5.47612 11.3158 5.39824C11.2473 5.36832 11.1817 5.33301 11.1196 5.29284L11.0285 5.38386L10.6161 4.97138L10.7071 4.88035C10.6677 4.81935 10.6329 4.75504 10.6034 4.68794C10.536 4.68419 10.4434 4.68084 10.3297 4.68109C10.0703 4.68166 9.70256 4.70096 9.27456 4.77625C8.41769 4.92698 7.33045 5.29989 6.38158 6.18536C5.44015 7.06389 5.0163 8.19665 4.82998 9.12599C4.73712 9.58913 4.70442 9.99634 4.69494 10.2869C4.6906 10.4201 4.69115 10.5283 4.69296 10.6057C4.75823 10.6347 4.82083 10.6687 4.8803 10.7071L4.97132 10.6161L5.3838 11.0286L5.29278 11.1196C5.33208 11.1804 5.36673 11.2446 5.39623 11.3115C5.47009 11.3155 5.57376 11.3192 5.70189 11.3189C5.9812 11.3183 6.37493 11.2989 6.8285 11.2233C7.73799 11.0717 8.87038 10.6975 9.81075 9.81517C10.7425 8.94087 11.1193 7.81392 11.2599 6.88755C11.33 6.42581 11.3405 6.01965 11.3335 5.72963ZM4.92976 11.8684C4.92976 11.4276 4.57238 11.0702 4.13152 11.0702C3.69066 11.0702 3.33327 11.4276 3.33327 11.8684C3.33327 12.3093 3.69066 12.6667 4.13152 12.6667C4.57238 12.6667 4.92976 12.3093 4.92976 11.8684Z" fill="black"/>
</svg>
