<svg width="16" height="16" viewBox="0 0 16 16" fill="none" xmlns="http://www.w3.org/2000/svg">
<path d="M11 8.00002C11 9.65687 9.65685 11 8 11C6.34314 11 5 9.65687 5 8.00002C5 6.34316 6.34314 5.00002 8 5.00002C9.65685 5.00002 11 6.34316 11 8.00002ZM9.5 8.00002C9.5 7.17159 8.82843 6.50002 8 6.50002C7.17157 6.50002 6.5 7.17159 6.5 8.00002C6.5 8.82845 7.17157 9.50002 8 9.50002C8.82843 9.50002 9.5 8.82845 9.5 8.00002Z" fill="black"/>
<path d="M9.88351 1.51132C8.9955 0.152395 7.00449 0.152395 6.11649 1.51132L5.64957 2.22585C5.49723 2.45897 5.22828 2.58849 4.95104 2.56224L4.10128 2.48179C2.48517 2.32879 1.24379 3.88542 1.75258 5.42697L2.0201 6.23752C2.10738 6.50197 2.04096 6.793 1.84758 6.99339L1.25487 7.6076C0.127611 8.77573 0.570653 10.7168 2.09311 11.2802L2.89362 11.5764C3.15479 11.673 3.34092 11.9064 3.37702 12.1826L3.48767 13.0289C3.69812 14.6385 5.49196 15.5024 6.88165 14.6634L7.61235 14.2222C7.85074 14.0782 8.14926 14.0782 8.38765 14.2222L9.11835 14.6634C10.508 15.5024 12.3019 14.6385 12.5123 13.0289L12.623 12.1826C12.6591 11.9064 12.8452 11.673 13.1064 11.5764L13.9069 11.2802C15.4293 10.7168 15.8724 8.77573 14.7451 7.6076L14.1524 6.99339C13.959 6.793 13.8926 6.50197 13.9799 6.23752L14.2474 5.42697C14.7562 3.88542 13.5148 2.32879 11.8987 2.48179L11.049 2.56224C10.7717 2.58849 10.5028 2.45897 10.3504 2.22585L9.88351 1.51132ZM7.37216 2.33186C7.66816 1.87888 8.33183 1.87888 8.62784 2.33186L9.09475 3.04639C9.55176 3.74574 10.3586 4.13431 11.1903 4.05557L12.0401 3.97512C12.5788 3.92411 12.9926 4.44299 12.823 4.95684L12.5555 5.76739C12.2936 6.56073 12.4929 7.43383 13.073 8.035L13.6658 8.64921C14.0415 9.03858 13.8938 9.68561 13.3863 9.8734L12.5858 10.1696C11.8023 10.4595 11.2439 11.1597 11.1356 11.9881L11.025 12.8344C10.9548 13.371 10.3569 13.6589 9.89366 13.3793L9.16296 12.9381C8.44778 12.5063 7.55222 12.5063 6.83704 12.9381L6.10634 13.3793C5.64311 13.6589 5.04517 13.371 4.97501 12.8344L4.86436 11.9881C4.75605 11.1597 4.19768 10.4595 3.41417 10.1696L2.61366 9.8734C2.10617 9.68561 1.95849 9.03858 2.33424 8.64921L2.92696 8.035C3.50709 7.43383 3.70637 6.56073 3.44453 5.76739L3.177 4.95684C3.00741 4.44299 3.4212 3.92411 3.9599 3.97512L4.80966 4.05557C5.64137 4.13431 6.44824 3.74574 6.90524 3.04639L7.37216 2.33186Z" fill="black"/>
</svg>
