<svg width="16" height="16" viewBox="0 0 16 16" fill="none" xmlns="http://www.w3.org/2000/svg">
<path d="M10.773 10.1576C12.9359 7.99469 12.9359 4.48793 10.773 2.32503C8.61008 0.162122 5.10332 0.162122 2.94041 2.32503C0.777509 4.48793 0.777509 7.99469 2.94041 10.1576C5.10332 12.3205 8.61008 12.3205 10.773 10.1576ZM11.2081 1.88988C13.5384 4.22015 13.6091 7.95432 11.4203 10.3698L15.9947 14.9442L15.5596 15.3793L10.9852 10.805C8.5697 12.9937 4.83554 12.923 2.50527 10.5927C0.102044 8.18951 0.102044 4.29311 2.50527 1.88988C4.9085 -0.513343 8.8049 -0.513343 11.2081 1.88988ZM6.5258 8.98735V6.67965H4.21811V6.06427H6.5258V3.75658H7.14119V6.06427H9.44888V6.67965H7.14119V8.98735H6.5258Z" fill="black"/>
</svg>
